<svg id="icons" xmlns="http://www.w3.org/2000/svg" viewBox="0 0 340 340"><path d="M246.741,43.492l74.428,235.589a11.437,11.437,0,0,1-6.022,13.787l-34.969,16.513-49.7-262.422Z" style="fill:#bac9e8"/><polygon points="271.856 265.441 313.698 255.436 306.603 232.977 267.479 242.333 271.856 265.441" style="fill:#fff"/><path d="M225.994,307.752l50.953,16.256a6.621,6.621,0,0,0,8.534-7.45L237.4,41.871l-33,5.689Z" style="fill:#bac9e8"/><polygon points="275.97 262.216 220.509 241.648 222.654 267.5 280.66 289.012 275.97 262.216" style="fill:#fff"/><path d="M171.328,309.789,224.716,328.8a6.621,6.621,0,0,0,8.824-6.711L214.18,51.906,171.328,55.3Z" style="fill:#bac9e8"/><polygon points="171.328 266.23 231.127 288.406 229.282 262.666 171.328 241.174 171.328 266.23" style="fill:#fff"/><path d="M117.626,309.789l51.789,19.116a6.621,6.621,0,0,0,8.914-6.211V58.783L137.589,55.3Z" style="fill:#bac9e8"/><polygon points="121.117 265.29 178.329 286.508 178.329 261.452 123.026 240.943 121.117 265.29" style="fill:#fff"/><path d="M60.59,309.789l50.489,19.284a6.621,6.621,0,0,0,8.957-5.595l23.64-264.04L102.133,55.3Z" style="fill:#bac9e8"/><polygon points="68.745 259.836 123.903 280.291 126.074 256.041 72.601 236.21 68.745 259.836" style="fill:#fff"/><path d="M73.154,47.56C69.2,82.7,27.627,248.3,18.691,286.024A13.835,13.835,0,0,0,23.652,300.2l30.217,23.478a6.621,6.621,0,0,0,10.592-4.133L108.482,56.993Z" style="fill:#bac9e8"/><polygon points="25.091 259.534 71.629 276.792 75.585 253.203 30.647 236.538 25.091 259.534" style="fill:#fff"/><path d="M73.154,26.2C68.205,16.456,192.975-2.41,246.741,24.167l-4.228,11.068C240.776,36.029,110.594,76.805,73.154,26.2Z" style="fill:#7b8bba"/><path d="M73.154,26.2s4.068,16.613,90.862,13.561c0,0,62.382-1.356,82.725-15.595V43.492S228.433,57.053,166.05,59.426c0,0-68.146,2.374-92.9-11.866Z" style="fill:#fff"/><path d="M21.505,302.964l30.217,23.478c5.744,4.755,15.2,1.042,16.192-6.319l.6-3.563,41.32,15.782a10.1,10.1,0,0,0,13.692-8.552l.7-7.836L168.2,332.188c6.323,2.546,13.824-2.664,13.627-9.494v-5.452l41.713,14.85c6.571,2.58,14.217-3.21,13.49-10.257l-.505-7.05,39.355,12.556a10.223,10.223,0,0,0,3.107.488c6.036.143,11.174-5.895,9.939-11.875-2.119-12.036-6.473-37.038-8.567-48.948l30.982-7.408c9.64,31.71,12.766,24.806-17.085,39.264-4.133,2.029-1.185,8.235,2.989,6.33l19.393-9.158a14.992,14.992,0,0,0,7.866-18.007L250.241,42.95c-.121-.66.38-20.52-.41-20.409C221.782,4.9,161.548,7.388,159.852,7.029,80.1,9.212,70.735,21.583,69.766,25.323a7.192,7.192,0,0,0-.112.878V47.243C65.705,82.252,24.184,247.634,15.288,285.2A17.364,17.364,0,0,0,21.505,302.964Zm95.045,20.2a3.138,3.138,0,0,1-4.221,2.637L69.692,309.518c1.314-7.835,5.972-35.617,7.2-42.929l43.288,16.054Zm4.275-47.749L78.068,259.561l.969-5.778h0L80.845,243l41.5,15.392ZM123,251.167,82.023,235.972l29.358-175.1c9.615,1.091,19.484,1.674,28.477,1.963Zm51.833,71.527a3.137,3.137,0,0,1-4.2,2.928l-45.756-16.89,3.321-37.085,46.637,17.3Zm0-41.218-45.991-17.054,1.525-17.026,44.466,16.49Zm54,43.566a3.076,3.076,0,0,1-2.937.457l-44.06-15.687V273.856L227.8,290.9l1.383,19.3.869,12.135A3.067,3.067,0,0,1,228.826,325.042Zm-2.874-59.877,1.3,18.069-45.418-16.843V248.8Zm-44.123-23.83V62.04c11.482-.871,21.181-2.135,29.312-3.576l13.337,186.115L225.4,257.5ZM218.063,57.122a147.809,147.809,0,0,0,17.62-4.772l35.788,204.466-40.166-14.9Zm13.792,192.467,41.013,15.21,3.293,18.811L233.15,267.66Zm50.179,67.573a3.094,3.094,0,0,1-4.024,3.511l-42.022-13.406L233.7,275.329l43.859,16.265Zm27.194-64.256L279.151,260.1,276.3,243.822l27.945-6.683Zm-7.1-22.459-27.04,6.466L242.336,49.764c.888-.391,1.675-.76,2.367-1.1ZM160.038,14.028c.518-.013,48.8-1.1,78.831,10.5-50.3,19.2-153.668,12.59-161.121,1.816C82.1,23.274,98.919,15.7,160.038,14.028ZM76.654,33.948c18.432,11.4,114.482,16.48,166.587-3.755v11.33c-.973,2.365-40.441,15.078-84.326,14.534a3.5,3.5,0,0,0,.06,7c8.882-.108,9-.2,15.854-.549V256.421l-43.819-16.25C130.9,239.08,147.577,59.529,147.059,58.6a3.5,3.5,0,0,0-2.492-2.536c-31.037-.946-56-4.449-67.913-10.6Zm-9.81,67.668c.032-.086,8.889-48.722,8.919-48.852,7.683,3.363,17.815,5.663,28.669,7.218L72.832,248.45,34.779,234.338ZM33.124,241.189l38.53,14.29-2.777,16.56-39.653-14.7ZM22.093,286.846l5.475-22.661L67.7,279.067l-6.69,39.9a3.121,3.121,0,0,1-4.992,1.95L25.8,297.437A10.352,10.352,0,0,1,22.093,286.846Z" style="fill:#3f3f70"/></svg>