<svg id="icons" xmlns="http://www.w3.org/2000/svg" viewBox="0 0 340 340"><path d="M182.326,19.089c6.16,24.861,30.283,8.925,37.568,1.069l3.074,17-7.522,16.669-42.081.2-6.911-23.582Z" style="fill:#7b8bba"/><path d="M252.509,124.646a139.7,139.7,0,0,1,.6,23.519,4.7,4.7,0,0,0,5.505,5.015c3.557-.332,6.9-4.16,10.8-3.814a20.173,20.173,0,0,0,5.281-.477c9.083-2.092,12.251-13.5,5.756-20.187a70.4,70.4,0,0,0-15-11.735Z" style="fill:#fff"/><path d="M102.444,97.88a57.5,57.5,0,0,1-14.434,8.665,6.876,6.876,0,0,0-2.447,11.066,14.106,14.106,0,0,0,7.026,3.808,16.709,16.709,0,0,1,8.759,5.384,16.865,16.865,0,0,0,4.959,3.935,6.908,6.908,0,0,0,10.046-6.586c-.4-6.424-.556-15.012.79-21.007Z" style="fill:#fff"/><path d="M219.894,20.158c-2.593,7.014-7.788,17.313-17.426,24.228a14.694,14.694,0,0,1-23.333-13.234,40.945,40.945,0,0,1,3.191-12.063,6.451,6.451,0,0,0-7.07-8.865c-2.944.526-6.305,2.112-9.781,5.674,0,0-39.793,41.977-63.046,78.676a9.95,9.95,0,0,0,16.164,11.571c6.752-8.278,21.271-25.394,31.855-33.039,0,0,1.318,17.927-1.582,30.582,0,0-1.845,7.909-1.582,12.127,0,0-12.127,8.963-21.354,35.063,0,0-35.414,76.017-63.887,103.068a19.232,19.232,0,0,0-5.573,17.69c2.764,13.821,11.811,34.4,41.216,33.592a29.737,29.737,0,0,1,23.4,10.664c10.012,11.374,26.772,18.509,48.748,10.322a30.265,30.265,0,0,1,20.4-.826c6.932,2.256,16.871,3.253,28.231-2.359,21.881-10.809,14.763-32.163,14.763-32.163s15.233-7.193,16.511-22.907a14.294,14.294,0,0,0-2.555-9.182c-7.2-10.528-28.291-44.664-30.037-85.491,0,0,1.318-40.6-8.964-51.144,0,0,1.024-22.842,12.8-41.894,0,0,13.549,13.165,28.918,46.036,6.456,12.8,24.978,3.85,18.865-9.206-6.1-11.885-20.006-40.846-25.944-68.57-1.828-8.911-2.15-19.858-12.2-30.79A6.547,6.547,0,0,0,219.894,20.158Z" style="fill:#bac9e8"/><path d="M95.993,308.752c25.749-1.119,20.788,22.853,55.345,24.627a61.214,61.214,0,0,0,19.77-3.905,26.9,26.9,0,0,1,18.043-.758c24.055,8.3,54.033-10.315,48.146-36.129,7.818-3.91,22.559-21.749,12.776-35.786-6.462-9.45-27.663-43.383-29.425-83.535.148-4.737.886-39.836-8.869-52.316.4-4.622,2.266-20.3,9.832-34.74,4.776,5.743,14.531,18.916,25.116,41.557a14.318,14.318,0,0,0,2.878,4.084,118.7,118.7,0,0,1,.013,16.035c.022,9.711,9.647,10.8,16.319,6,2.9-1.864,6.46-.516,9.543-1.581,11.561-2.34,15.9-17.87,7.481-26.037a73.951,73.951,0,0,0-10.255-8.757c-6.229-13.315-20.184-40.463-26.464-69.731-1.79-9.172-2.572-21.285-13.171-32.552-4.642-4.842-13.433-3.225-16.1,2.9-7.883,7.707-26.066,19.454-31.006,1.1,2.064-6.746-4.344-13.95-11.328-12.44-4.144.74-8.07,2.986-11.7,6.712.823.021-46.657,47.858-65.294,83.682a55.622,55.622,0,0,1-10.968,6.138c-6.575,2.484-8.7,11.806-3.618,16.741a17.6,17.6,0,0,0,8.721,4.771c5.508.994,8.005,6.773,12.9,9.013,6.817,3.887,15.938-2.115,15.168-9.9a110.267,110.267,0,0,1-.092-13.988c5.472-5.918,12.316-14.914,21.276-23.807,3.2-3.335-1.7-8.135-4.97-4.93-8.054,8.121-16.1,17.724-20.18,22.725a6.45,6.45,0,0,1-10.494-7.486c22.8-35.982,62.234-77.723,62.594-78.1a14.985,14.985,0,0,1,7.891-4.674,2.929,2.929,0,0,1,3.223,4.078,44.7,44.7,0,0,0-3.446,13.1c-1.558,15.5,16.362,25.615,28.86,16.38,10.222-7.333,15.777-18.06,18.644-25.793a3.086,3.086,0,0,1,2.245-2.01,2.972,2.972,0,0,1,2.766.788c7.438,7.313,9.795,20.139,10.34,23.9,4.468,28.073,21.1,62.841,27.146,74.567,2,3.659.09,8.849-3.99,9.988a7.1,7.1,0,0,1-8.59-3.862c-12.754-27.279-24.244-41.189-28.2-45.54a60.994,60.994,0,0,0,1.562-21.844c-.757-4.532-7.509-3.53-6.925,1.024a55.4,55.4,0,0,1-1.78,20.43c-11.847,19.5-13,42.151-13.038,43.113a3.494,3.494,0,0,0,.991,2.6c7.635,7.9,8.3,37.848,7.971,48.851,1.8,42.065,23.911,77.468,30.646,87.317,6.685,9.393-5.062,22.932-10.048,25.454-4.3-6.44-15.243-24.5-19.226-46.855a3.5,3.5,0,1,0-6.89,1.227c4.905,27.543,19.334,48.322,21.923,51.879.843,3,4.317,18.81-13.139,27.433-8.5,4.2-17.114,4.929-25.6,2.169a33.913,33.913,0,0,0-22.757.893c-18.83,6.789-33.758,2.825-44.809-9.329A33.114,33.114,0,0,0,97.59,301.73c-25.9.708-34.8-16.345-37.688-30.78a15.821,15.821,0,0,1,4.552-14.467c28.625-27.2,63.191-101,64.649-104.127,6.436-18.371,14.847-28.607,18.4-32.03,4.016,3.448,21.2,10.475,35.9,8.878,4.586-.358,4.163-7.2-.431-6.986-17.325,1.07-28.636-5.653-32.191-8.145a65.066,65.066,0,0,1,1.5-9.6c2.983-13.017,1.716-30.866,1.661-31.619-.1-1.088-3.44-16,9.035-25.028a3.5,3.5,0,1,0-4.058-5.7C143.7,52.947,146.5,71.044,146.971,73.561c.127,1.933,1.078,18.021-1.514,29.331a69.138,69.138,0,0,0-1.686,11.312c-3.629,3.289-13.368,13.608-21.083,35.343-1.775,3.779-35.982,76.14-63.055,101.862a22.875,22.875,0,0,0-6.6,20.914C55.781,286.041,65.008,308.753,95.993,308.752ZM111.86,113.344c.248-.021.492-.066.738-.1-.079,3.335.008,7.056.262,11.127a3.378,3.378,0,0,1-4.925,3.27A13.378,13.378,0,0,1,104,124.519a20.087,20.087,0,0,0-10.6-6.5,10.764,10.764,0,0,1-5.331-2.844,3.345,3.345,0,0,1,1.276-5.392,61.316,61.316,0,0,0,9-4.656A13.42,13.42,0,0,0,111.86,113.344Zm88.568-71.8c-8.96,6.431-20.3-2.032-17.481-12.506,5.962,9.129,17.871,8.3,26.753,3.1A40.781,40.781,0,0,1,200.428,41.542Zm56.37,94.18a13.89,13.89,0,0,0,15.951-9.375,66.752,66.752,0,0,1,5.192,4.794c4.605,4.389,2.277,13.1-4.031,14.338-4,.773-8.326-.186-11.889,2.6a10.929,10.929,0,0,1-4.072,1.664c-.825.068-1.319-.379-1.352-1.3A114.3,114.3,0,0,0,256.8,135.722Z" style="fill:#3f3f70"/><path d="M196.08,127.18c5.518-.049,5.017-7.944-.429-7C191.349,120.85,191.764,127.118,196.08,127.18Z" style="fill:#3f3f70"/></svg>