<svg id="icons" xmlns="http://www.w3.org/2000/svg" viewBox="0 0 340 340"><path d="M39.873,46.611s139.447-15.173,265.478-.049l10.414,11.689-6.487,15.263L141.385,86.106,27.676,62.979V54.817Z" style="fill:#7b8bba"/><path d="M36.26,49.909l3.613-3.3a70.543,70.543,0,0,0-14.985,1.051,11.8,11.8,0,0,0-9.566,11.587V77.362c-.093,3.428,1.98,6.322,4.578,8.363-3.279,8.866-6.961,18.82-6.842,28.361-.584,30.841-2.382,127.336-2.729,165.546,0,0,57.423,28.3,139.813,18.309,0,0,9.987-35.785,12.9-63.249h15.813s4.161,37.866,9.57,62.417c0,0,95.244,9.987,141.247-19.557l-3.852-152.313a101.036,101.036,0,0,0-8.4-37.85,10.65,10.65,0,0,0,6.327-9.593l.222-17.539c-.217-10.749-9.674-12.241-18.616-13.695,0,0,8.738,8.787-5.409,13.78,0,0-144.043,36.839-261.507-.493A5.878,5.878,0,0,1,36.26,49.909Z" style="fill:#bac9e8"/><path d="M146.424,76.494c-.312,1.247-3.841,16.141,2.49,27.219a257.631,257.631,0,0,0,40.084,0A31.7,31.7,0,0,0,193.435,92.3c.762-4.016,2.525-11,.24-13.941-2.578-3.311-9.526-2.316-14.135-2.154C169.1,76.654,148.048,76.265,146.424,76.494Z" style="fill:#fff"/><path d="M19.9,85.725c-3.279,8.866-6.961,18.82-6.842,28.361-.584,30.841-2.382,127.336-2.729,165.546a171.171,171.171,0,0,0,23.788,8.813v-55.41c-.275-10.055,3.1-19.737,3.058-29.775l.873-57.326a258.658,258.658,0,0,1,3.833-51.4C29.432,93.222,19.9,85.725,19.9,85.725Z" style="fill:#fff"/><path d="M329.671,277.552l-3.852-152.313a101,101,0,0,0-8.244-37.486L297.84,90.022c3.523,36.349,6.562,121.286,5.946,199.061A105.483,105.483,0,0,0,329.671,277.552Z" style="fill:#fff"/><path d="M266.25,296.552,263.769,96.793s-19.656,5.57-39.313,5.242c0,0,2.518,138.471,3.36,196.691A358.513,358.513,0,0,0,266.25,296.552Z" style="fill:#fff"/><path d="M112.981,300.067l2.037-196.974c-16.381,0-37.985-4.662-37.985-4.662L71.827,296.863A288.893,288.893,0,0,0,112.981,300.067Z" style="fill:#fff"/><path d="M38.435,59.849a5.81,5.81,0,0,1-3.988-4.567h0s-14.622-5.609-18.434,0c-1.3,2.411-.468,19.178-.689,22.082-.094,3.429,1.981,6.322,4.578,8.363l-1.173,3.3c4.269,2.46,10.4,5.917,10.4,5.917l12.907-1.253S37.453,65.267,48.96,62.979v0Q43.668,61.5,38.435,59.849Z" style="fill:#fff"/><path d="M79.011,69.819c-4.72,9.3-1.978,28.612-1.978,28.612,16,5.805,38,3.537,38,3.537V74.642l0-.009C103.06,73.557,91,71.986,79.015,69.813Z" style="fill:#fff"/><path d="M263.769,96.793c2.583-18.943-2.4-28.784-2.4-28.788-11.052,1.807-24.053,3.644-38.476,5.151,3.4,12.389,1.562,28.879,1.562,28.879C241.5,105.694,263.769,96.793,263.769,96.793Z" style="fill:#fff"/><path d="M317.418,87.389a10.65,10.65,0,0,0,6.327-9.593l.222-17.539a11.84,11.84,0,0,0-1.942-6.644c-5.3-2.946-14.045-1.764-14.045-1.764.757,4.028-4.334,8.153-11.652,9.363h0c5.244,14.637,1.512,28.81,1.512,28.81,4.891,2.277,13.578,1.595,20.84.405C318.276,89.41,317.856,88.394,317.418,87.389Z" style="fill:#fff"/><path d="M329.106,120.7a104.3,104.3,0,0,0-7.3-31.893,14.231,14.231,0,0,0,5.439-10.96l.223-17.541a15.285,15.285,0,0,0-11.193-14.948c-129.755-19.7-271.408-1.914-292.047-1.131a15.321,15.321,0,0,0-12.4,15.027V77.361a13.027,13.027,0,0,0,4,9.381c-3.282,8.639-6.308,17.982-6.264,27.278-.906,48.2-2.359,127.129-2.73,165.58-1.211,5.344,48.406,23.67,107.675,24a299.808,299.808,0,0,0,36.059-2.187,3.5,3.5,0,0,0,2.95-2.534c.1-.347,9.361-33.724,12.651-60.69h9.568c1.126,9.607,4.789,39.317,9.274,59.67a3.5,3.5,0,0,0,3.053,2.728c3.183.773,99.619,9.1,143.5-20.093a3.5,3.5,0,0,0,1.608-3.034l-3.853-152.314C329.28,123.66,329.206,122.176,329.106,120.7ZM38.62,52.494l2.762-2.522c13.467-1.374,144.25-14.021,262.147-.1,2.383,3.484.079,5.357-4.6,7.115-37.8,11.752-183.394,28.148-259.43-.479a2.373,2.373,0,0,1-.875-4.015ZM187.171,100.34a255.226,255.226,0,0,1-36.046.026c-3.345-7.258-2.533-16.066-1.825-20.4,13.367.268,27.517-.065,41.28-.744C191.989,91.4,188.694,98.014,187.171,100.34ZM312.628,282.266c-1.7.682-3.438,1.325-5.184,1.934,1.018-37.746-1.672-88.309-1.842-91.462.791-26.815-.936-59-2.526-81.3-.393-4.546-7.23-4.127-6.982.5,1.6,22.266,3.288,54.42,2.51,81.044.031.555,3,54.8,1.77,93.466a205.784,205.784,0,0,1-30.672,6.132l-1.063-85.55a3.5,3.5,0,0,0-7,.088l1.072,86.268c-32.04,3.307-62.6,1.215-71.406.475-5.047-24.093-8.932-59.182-8.972-59.546a3.5,3.5,0,0,0-3.479-3.118H163.041a3.5,3.5,0,0,0-3.48,3.131c-2.432,22.934-9.969,52.16-12.177,60.417a286.818,286.818,0,0,1-71.975-.953l2.38-90.7a3.5,3.5,0,1,0-7-.184L68.434,292.72a269.926,269.926,0,0,1-30.817-6.95c.44-11.551-1.254-57.092,1.465-67.537,2.692-10.026,1.888-61.209,2.465-72.377a268.162,268.162,0,0,1,1.433-33.431,3.5,3.5,0,0,0-6.963-.721,275.411,275.411,0,0,0-1.47,34.243l-.872,57.26c-.006,10.044-3.367,19.756-3.058,29.828v50.6c-8.226-2.654-13.958-5.013-16.766-6.242.534-47.778,1.826-115.718,2.707-163.238a55.588,55.588,0,0,1,3.209-17.607L23.2,86.9a3.551,3.551,0,0,0-.944-3.762c-1.772-1.441-3.54-3.328-3.431-5.774V59.249c.159-7.376,6.953-8.693,12.887-8.961a9.444,9.444,0,0,0,5.666,12.9C71.789,74.122,108.456,78.629,142.243,79.74c-.691,4.682-1.216,12.552,1.189,20.087-.24-.009-28.177-1.957-28.4-1.947-15.948,0-37.316-2.887-37.53-2.916-21.234-2.791-31.793-5.9-41.449-7.328-4.486-.928-6.006,5.758-1.516,6.834,10.505,1.68,18.945,4.123,38.91,7.044l-1.515,57.74a3.5,3.5,0,1,0,7,.183l1.5-57.045c6.356.769,19.411,2.189,31.069,2.447l-1.841,178.023a3.5,3.5,0,0,0,3.464,3.536h.036a3.5,3.5,0,0,0,3.5-3.463L118.5,105.127l27,1.859,2.123,79.187a25.093,25.093,0,0,0,20.317,23.852L185.5,213.34V217.5c.071,4.576,6.919,4.62,7,0V120.6a3.5,3.5,0,0,0-7,0v85.615l-16.259-3.07a18.054,18.054,0,0,1-14.619-17.161l-2.1-78.52c20.467,1.57,47.819-1.075,68.506-1.763.349,19.306,2.019,111.938,2.938,169.845a3.5,3.5,0,0,0,3.5,3.444h.057a3.5,3.5,0,0,0,3.444-3.555c-.921-57.941-2.592-150.654-2.94-169.9a159.445,159.445,0,0,0,32.3-4.257l.722,58.114a3.5,3.5,0,1,0,7-.088l-.741-59.643,31.217-6.2c4.474-.964,3.183-7.684-1.365-6.865-.271.065-34.1,6.755-34.342,6.836-.193.053-19.393,5.458-38.3,5.109-.2-.009-29.1,1.377-29.326,1.381,1.825-4.448,3.44-11.378,2.385-21.114,5.555-.355,10.9-.766,15.976-1.221,50.391-4.517,86.895-13.756,87.259-13.849,7.11-2.454,11.192-6.343,10.647-12.393,4.73.663,9.142,3.607,9.011,8.874l-.223,17.54a7.187,7.187,0,0,1-4.306,6.465c-4.04,2.054-.742,6.29.179,9.264a97.024,97.024,0,0,1,6.2,31.846l3.8,150.312A92.641,92.641,0,0,1,312.628,282.266Z" style="fill:#3f3f70"/><path d="M264.844,179.708a3.5,3.5,0,0,0-3.5,3.543l.025,2.046a3.5,3.5,0,0,0,7-.086l-.025-2.046A3.5,3.5,0,0,0,264.844,179.708Z" style="fill:#3f3f70"/><path d="M75.006,175.728a3.521,3.521,0,0,0-3.591,3.408c-.319,2.511.516,4.892,3.367,5.074a3.5,3.5,0,0,0,3.592-3.407C78.692,178.293,77.857,175.91,75.006,175.728Z" style="fill:#3f3f70"/></svg>