<svg id="icons" xmlns="http://www.w3.org/2000/svg" viewBox="0 0 340 340"><path d="M130.933,86.828l-7.827,5.586a12.079,12.079,0,0,0-4.983,8.453l-4.1,35.692,16.857-13.051Z" style="fill:#7b8bba"/><path d="M195.318,86.828l7.827,5.586a12.076,12.076,0,0,1,4.983,8.453l4.1,35.692-16.857-13.051Z" style="fill:#7b8bba"/><path d="M130.933,249.966l-7.827-5.586a12.079,12.079,0,0,1-4.983-8.453l-4.1-35.693,16.857,13.052Z" style="fill:#7b8bba"/><path d="M195.318,249.966l7.827-5.586a12.076,12.076,0,0,0,4.983-8.453l4.1-35.693-16.857,13.052Z" style="fill:#7b8bba"/><path d="M184.237,10h-42.26A11.081,11.081,0,0,0,130.9,21.081V123.5h64.421V21.081A11.081,11.081,0,0,0,184.237,10Z" style="fill:#bac9e8"/><path d="M195.318,217.2H130.9v101.72A11.081,11.081,0,0,0,141.977,330h42.26a11.081,11.081,0,0,0,11.081-11.081Z" style="fill:#bac9e8"/><path d="M233.609,177.2H221.858V159.1h11.751a6.354,6.354,0,0,1,6.354,6.354v5.4A6.354,6.354,0,0,1,233.609,177.2Z" style="fill:#7b8bba"/><path d="M226.178,168.151a63.07,63.07,0,0,1-63.071,63.07c-83.49-2.885-83.468-123.267,0-126.14A63.07,63.07,0,0,1,226.178,168.151Z" style="fill:#bac9e8"/><path d="M212.156,168.151A49.049,49.049,0,0,1,163.107,217.2c-64.928-2.244-64.911-95.862,0-98.1A49.048,49.048,0,0,1,212.156,168.151Z" style="fill:#fff"/><path d="M171.031,168.151c-.266,10.45-15.583,10.448-15.847,0C155.449,157.7,170.767,157.7,171.031,168.151Z" style="fill:#7b8bba"/><path d="M233.609,155.6h-5.135a65.777,65.777,0,0,0-2.3-8.721l3.542-1.83c4.053-2.18.906-8.265-3.213-6.219l-2.932,1.515a66.675,66.675,0,0,0-9.037-14.42l-2.926-25.456c-.777-7.943-6.958-11.31-12.787-15.442V21.081A14.6,14.6,0,0,0,184.237,6.5H141.978A14.6,14.6,0,0,0,127.4,21.081V85.052c-5.814,4.109-11.986,7.519-12.75,15.416l-2.918,25.4c-19.988,22.754-20.019,61.692-.067,84.479l2.985,25.979c.781,7.926,6.928,11.292,12.75,15.415v67.177A14.6,14.6,0,0,0,141.978,333.5h42.259a14.6,14.6,0,0,0,14.581-14.581V251.768c5.843-4.144,12-7.493,12.787-15.442l2.992-26.033a66.714,66.714,0,0,0,8.986-14.366l2.728,1.631c3.967,2.3,7.51-3.572,3.591-6.008l-3.7-2.213a66.007,66.007,0,0,0,2.274-8.634h5.134a9.864,9.864,0,0,0,9.854-9.853v-5.4A9.864,9.864,0,0,0,233.609,155.6Zm-32.5-60.336a8.586,8.586,0,0,1,3.538,6l1.9,16.5a66.887,66.887,0,0,0-7.691-5.733l-.028-18.4ZM141.978,13.5h42.259a7.589,7.589,0,0,1,7.581,7.581V108.1c-17.165-8.614-40.252-8.615-57.418,0,.033-14.431-.023-71.529,0-87.016A7.588,7.588,0,0,1,141.978,13.5ZM121.6,101.268c.245-3.477,3.038-5.887,5.8-7.616v16.981l0,1.382a67.042,67.042,0,0,0-7.685,5.721Zm41.506,7.313a59.638,59.638,0,0,1,59.571,59.57c-2.8,78.842-116.355,78.821-119.141,0A59.637,59.637,0,0,1,163.107,108.581ZM125.14,241.531a8.587,8.587,0,0,1-3.539-6l-1.955-17.016a66.9,66.9,0,0,0,7.75,5.777v18.854Zm66.678,77.388a7.589,7.589,0,0,1-7.581,7.581H141.978a7.589,7.589,0,0,1-7.582-7.581c-.019-16.148.036-75.675.005-90.714,17.166,8.613,40.252,8.612,57.417,0Zm12.832-83.392c-.244,3.488-3.059,5.9-5.822,7.634l.028-18.9a67,67,0,0,0,7.754-5.788Zm31.813-64.677a2.857,2.857,0,0,1-2.854,2.853h-4.181a63.158,63.158,0,0,0,0-11.1h4.181a2.857,2.857,0,0,1,2.854,2.853Z" style="fill:#3f3f70"/><path d="M163.107,220.7a52.608,52.608,0,0,0,52.548-52.548c-2.469-69.549-102.637-69.531-105.095,0A52.607,52.607,0,0,0,163.107,220.7Zm0-98.1a45.6,45.6,0,0,1,45.548,45.548c-2.139,60.284-88.965,60.268-91.095,0A45.6,45.6,0,0,1,163.107,122.6Z" style="fill:#3f3f70"/><path d="M163.107,179.574a11.44,11.44,0,0,0,10.87-7.923h24.95a3.5,3.5,0,0,0,0-7h-24.95a11.471,11.471,0,0,0-7.37-7.37V145.546a3.5,3.5,0,0,0-7,0v11.735C147.4,161.372,150.081,179.365,163.107,179.574Zm0-15.846c5.812.1,5.812,8.743,0,8.846C157.295,172.47,157.3,163.831,163.107,163.728Z" style="fill:#3f3f70"/></svg>