<svg id="icons" xmlns="http://www.w3.org/2000/svg" viewBox="0 0 340 340"><path d="M153.784,26.31s32.8,51.033,86.664,4l11.338,38.34L225.342,97.991H150.72L128.985,74.083Z" style="fill:#7b8bba"/><path d="M153.784,26.31c-11.752,64.113,73.71,84.108,86.664,4,0,0,23.547,14.416,50.379,34.146A27.817,27.817,0,0,1,301.21,79.683c5.471,20.453,18.228,69.66,22.648,99.8a57.615,57.615,0,0,1,.21,15.134c-2.3,19.466-8.885,74.506-12.51,98.794,0,0-24.444,7.555-44.888-4.444,0,0,7.038-53.176,9.378-92.414a26.355,26.355,0,0,0-3.165-14.145l-19.871-36.582s-22.786,101.364-23.675,157.363c0,0-64.442,36-149.773-25.333L96.9,196.528,50.675,249.415S26.2,251.17,15.532,220.06l41.246-49.752a44.9,44.9,0,0,0,8.529-16.048c5.378-18.379,17.607-60.783,23.365-85.747a25.608,25.608,0,0,1,10.059-15.12A201.044,201.044,0,0,1,153.784,26.31Z" style="fill:#bac9e8"/><path d="M50.926,252.906a3.5,3.5,0,0,0,2.386-1.188l37.353-42.741L76.141,277.129A3.5,3.5,0,0,0,77.52,280.7c45.191,31.512,78.3,37.1,109.1,36.32,27.5-1.767,47.367-10.082,46.214-13.773,4.57-84.679,22.922-148.242,29.558-185.11.859-4.445-5.8-5.983-6.85-1.437-6.793,37.286-24.577,99.322-29.664,184.3-40.925,16.114-85.5,13.639-142.416-24.666,9.245-40.352,25.18-122.157,31.974-163.07,2.331-10.784-2.845-20.267-7-29.778-1.893-4.165-8.183-1.49-6.421,2.787,3.286,7.784,8.622,17,6.535,25.751L93.624,194.953,49.088,245.914c-4.771-.231-21.09-2.7-29.586-25.159l39.971-48.213a48.131,48.131,0,0,0,9.193-17.3c5.1-17.44,17.6-60.725,23.416-85.943a22.1,22.1,0,0,1,8.681-13.057,197.393,197.393,0,0,1,48.845-24.851c-6.916,63.6,78.362,79.789,93.391,4.644,8.025,5.081,26.082,16.774,45.755,31.24a24.4,24.4,0,0,1,9.075,13.312c5.316,19.871,18.156,69.335,22.566,99.407a54.2,54.2,0,0,1,.2,14.214c-2.491,21.052-8.546,71.575-12.159,96.4-5.842,1.347-22.884,4.221-37.987-3.553,1.386-10.787,7.054-56.07,9.095-90.291a29.837,29.837,0,0,0-3.583-16.024L266.3,162.967c-2.3-4.035-8.263-.705-6.151,3.342l9.655,17.772a22.844,22.844,0,0,1,2.746,12.267c-2.3,38.659-9.284,91.632-9.354,92.162a3.5,3.5,0,0,0,1.7,3.478c20.968,12.352,51.324,6.386,50.121,1.943,3.577-23.964,9.951-77.146,12.525-98.9a61.068,61.068,0,0,0-.224-16.054c-4.463-30.433-17.382-80.21-22.729-100.2A31.425,31.425,0,0,0,292.9,61.636c-26.643-19.592-50.387-34.166-50.625-34.311a3.619,3.619,0,0,0-3.3-.188c-33.828,30.444-65.065,21.768-82.853-3.436a3.544,3.544,0,0,0-3.4-.726A203.362,203.362,0,0,0,96.7,50.543,29.1,29.1,0,0,0,85.262,67.727c-5.776,25.04-18.229,68.169-23.315,85.55a41.166,41.166,0,0,1-7.863,14.8L12.838,217.826a3.5,3.5,0,0,0-.616,3.369C23.629,254.467,50.648,252.922,50.926,252.906ZM156.462,35.193c20.291,22.384,51.208,25.1,78.673,3.866C220.826,97.858,153.631,87.8,156.462,35.193Z" style="fill:#3f3f70"/></svg>