<svg id="icons" xmlns="http://www.w3.org/2000/svg" viewBox="0 0 340 340"><path d="M17.51,214.992l-6.042,11.042a11.974,11.974,0,0,0,3.864,15.741c8.718,5.759,25.323,12.987,54.744,14.406,32.548-.175,79.4-10.131,122.977-1.773,14.9,3.994,80.268,9.214,114.491-16.784,11.591-7.855,23.518-19.265,22.368-32.485L25.539,206.963Z" style="fill:#fff"/><path d="M319.768,227.631c-68.286,54.525-110.491,5.052-181.064,11.061-35.7,3.292-54.5-17.3-54.5-17.3l-17.492-14.68-41.174.247-8.029,8.029-6.042,11.042a11.974,11.974,0,0,0,3.864,15.741c8.718,5.759,25.323,12.987,54.744,14.406,32.549-.177,79.4-10.13,122.977-1.773,22.933,5.135,91.81,9.556,126.716-26.777Z" style="fill:#cbcde5"/><path d="M36.852,114.264s4.745,15.694,44.16,15.694,56.568-24.817,56.568-24.817-.73,45.984-1.825,47.444-57.663,7.655-68.976,7.842-29.927-29.375-29.927-29.375Z" style="fill:#7b8bba"/><path d="M141.96,82.148s54.806,66.647,98.947,95.709a22.739,22.739,0,0,0,10.693,3.679c9.752.783,30.488,2.2,48.629,1.773,13.577-.418,26.379,8.534,29.683,21.83,0,0-39.914,40.872-114.964,32.415L188.2,232.128c-4.906-1.3-11.146-2.895-17.954-4.5-12.29-5.89-35.676-6.7-51.674-6.5-11.764-.419-23.646-1.524-34.362.264-25.847-.282-34.05-4.265-66.695-6.4a59.821,59.821,0,0,1,12.043-49.634s-2.554-27.736.365-43.429c0,0,2.19-5.84,6.934-7.665,8.563,31.411,44.692,45.7,84.958,8.593,5.653-5.371,4.85-12.643,4.821-19.7C126.521,93.432,133.007,85.521,141.96,82.148Z" style="fill:#bac9e8"/><path d="M151.49,223.59c6.343,1.221,12.766,2.633,18.751,4.041l40.795-41.289a2.7,2.7,0,0,0-.237-4.011L195.891,170.44a2.7,2.7,0,0,0-3.549.157L138.7,221.732Q145.13,222.374,151.49,223.59Z" style="fill:#fff"/><path d="M237.968,204l-10.052-8.017a2.7,2.7,0,0,0-3.59.2L188.2,232.129a140.637,140.637,0,0,0,26.754,5.416l23.456-29.758A2.7,2.7,0,0,0,237.968,204Z" style="fill:#fff"/><path d="M310.511,184.8c7.445,17.324-10.282,20.792-26.639,20.928-22.656.175-35.177,16.206-47.159,32.958,60.973-.567,93.2-33.551,93.2-33.551A29.056,29.056,0,0,0,310.511,184.8Z" style="fill:#7b8bba"/><path d="M71.759,186.522C57.168,164.8,29.553,165.358,29.553,165.358A59.817,59.817,0,0,0,17.51,214.992c32.652,2.14,40.844,6.122,66.695,6.4,0,0,4.291-.3,6.6-.7Z" style="fill:#7b8bba"/><path d="M116.216,221.222c11.883-11.586,44.98-43.5,64.413-58.715a2.7,2.7,0,0,0,.011-4.232l-18.328-14.619a2.692,2.692,0,0,0-3.381.009c-6.644,5.393-31.638,25.763-51.211,42.778-10.315,8.753-25.28,10.225-35.961.079,0,0,.013,20.815,12.446,34.874C96.271,221.741,107.679,221.53,116.216,221.222Z" style="fill:#fff"/><path d="M333.39,204.789c-3.21-14.921-17.994-25.526-33.244-24.979-17.724.415-37.845-.926-48.265-1.762a19.316,19.316,0,0,1-9.049-3.115c-43.187-28.433-97.624-94.345-98.169-95.008a3.5,3.5,0,0,0-4.082-.993c-10.1,3.808-17.556,13.1-17.449,24.224-.064,2.417.263,8.838-.38,11.051-22.446,17.4-75,16.083-83.67-2.634A3.56,3.56,0,0,0,35.6,111c-6.038,2.322-8.674,8.953-8.956,9.7-2.928,14.037-1.136,37.552-.693,43.571a63.149,63.149,0,0,0-12.141,50.2L8.4,224.353c-11.36,23.345,29.34,33.5,61.509,35.325,33.087-.192,80.135-10.1,122.411-1.848a199.615,199.615,0,0,0,38.46,3.522,190.881,190.881,0,0,0,33.951-2.933C291.912,254.159,335.079,232.369,333.39,204.789ZM313.256,200.2a15.175,15.175,0,0,0,2.422-9.07,25.021,25.021,0,0,1,10.26,12.938c-12.893,12.7-49,30.217-82.064,30.859,10.246-14.161,21.819-25.514,40.058-25.691C299.918,208.962,309.511,206.007,313.256,200.2ZM188.8,138.389l-3.886,4.982a3.5,3.5,0,1,0,5.519,4.306l3.41-4.371c3.456,3.329,6.979,6.64,10.542,9.883l-3.161,4.595c-2.539,3.826,3.084,7.718,5.768,3.967l2.651-3.854q4.513,3.975,9.059,7.728l-3.324,5a3.5,3.5,0,1,0,5.83,3.875l2.968-4.466c3.74,2.94,7.462,5.712,11.132,8.259l-2.921,4.647a3.5,3.5,0,1,0,5.925,3.725l2.888-4.592a26.325,26.325,0,0,0,10.12,2.951c10.556.847,30.946,2.2,48.99,1.783a27.523,27.523,0,0,1,7.606.905c3.879,12.508-7.9,13.729-24.1,14.521a49.012,49.012,0,0,0-35.663,16.452c-4.228,4.753-8.664,10.3-13.2,16.482-4.275,0-8.7-.155-13.277-.5l21.14-26.82a3.5,3.5,0,0,0-.566-4.9c-8.778-6.856-67.024-54.073-77.071-62.181a88.338,88.338,0,0,0,4.79-21.711C175.764,125.225,182.118,131.8,188.8,138.389Zm19.8,94.792a90.559,90.559,0,0,1-13.632-2.852l31.324-31.165,8.874,7.08-21.749,27.592Q211,233.534,208.6,233.181Zm-31.508-7.5,36.4-36.84,7.31,5.913-33.652,33.481C184.146,227.447,180.748,226.578,177.09,225.679Zm-12.368-2.9c-4.163-.929-8.376-1.814-12.57-2.623h0c-1.889-.369-3.793-.668-5.7-.976l47.8-45.567,13.67,10.9-38.794,39.263Q166.956,223.275,164.722,222.776Zm-40.329-5.261c-13.291.278-24.143.828-38.535.418-6.273-7.733-8.834-17.476-9.879-24.045,10.88,5.686,24.72,3.387,34.069-4.832,18.946-16.469,43.257-36.309,50.584-42.263l17.04,13.592c-16.689,13.229-43.37,38.467-51.613,46.333-3.268,3.224,1.442,8.187,4.833,5.064,8.457-8.071,36.466-34.563,52.689-47.135l5.371,4.345L137.44,218.1Q130.942,217.524,124.393,217.515Zm-103.98-5.9A56.591,56.591,0,0,1,31.225,168.9c5.742.291,25.542,2.5,37.064,18.773.165,4.046,1.285,17.836,8.784,29.943C55.256,216.834,49.394,213.789,20.413,211.611Zm88.848-82.8C85.2,145.061,61.752,146.7,47.247,127.781,59.84,134.36,93.255,135.607,109.261,128.814Zm-75.965-5.9a13.9,13.9,0,0,1,1.773-2.943C38.034,130.112,54.8,151.981,79.7,148.394c6.914-.668,37.15-9.649,48.446-28.588l17.529,14.178a3.486,3.486,0,0,0,2.2.779c3.164.119,4.788-4.28,2.2-6.221l-20-16.179c.124-.579.034-8.412.061-9.207A18.333,18.333,0,0,1,141,86.462c3.455,4.127,11.627,13.741,22.514,25.62-.675,11.186-2.535,20.553-5.546,27.861-3.814,3.091-31.443,25.52-52.507,43.83-8.74,7.772-22.631,8.693-31.065.412-12.6-18.356-33.5-21.641-41.6-22.211C32.25,154.493,31.14,134.989,33.3,122.912ZM305.58,234.728c-32.985,25.095-96.425,20.228-111.818,16.251-42.927-8.39-90.475,1.322-123.517,1.707-28.574-1.379-44.584-8.282-52.984-13.831a8.518,8.518,0,0,1-2.722-11.141l5-9.138c12.944.644,32.972,3.853,33.248,3.9,21.515,2.92,44.128,2.955,65.923,2.158a144.349,144.349,0,0,1,36.58,3.284c15.505,2.978,31.465,7.747,46.167,11.2,50.653,10.3,100.478-6.134,123.632-25.244C321.783,222.241,313.193,229.568,305.58,234.728Z" style="fill:#3f3f70"/></svg>