<svg id="icons" xmlns="http://www.w3.org/2000/svg" viewBox="0 0 340 340"><path d="M152.211,166.183c17.791,4.18,9.467,36.28-16.884,31.533l-2.638-3.346Z" style="fill:#7b8bba"/><path d="M59.253,116.792c15.735-1.476,44.338-3.1,70.9.921a30.462,30.462,0,0,1,25.236,36.555,141.222,141.222,0,0,1-5.47,18.651s-11.945,40.066-57.984,50.269c-9.815,3.013-63.2,6.572-69.3-39.175C18.844,162.424,24.808,119.732,59.253,116.792Z" style="fill:#bac9e8"/><path d="M187.789,166.183c-17.791,4.18-9.467,36.28,16.884,31.533l2.638-3.346Z" style="fill:#7b8bba"/><path d="M280.747,116.792c-15.735-1.476-44.338-3.1-70.9.921a30.462,30.462,0,0,0-25.236,36.555,141.222,141.222,0,0,0,5.47,18.651s11.945,40.066,57.984,50.269c9.815,3.013,63.2,6.572,69.3-39.175C321.156,162.424,315.192,119.732,280.747,116.792Z" style="fill:#bac9e8"/><path d="M271.466,131.5c-12.395-.928-35.707-1.765-55.968,2.635a17.335,17.335,0,0,0-13.358,19.811,96.915,96.915,0,0,0,5.306,18.925,56.444,56.444,0,0,0,42.162,35.223c6.786,2.052,45.477,3.839,49.1-28.978C301.116,163.593,296.31,133.08,271.466,131.5Z" style="fill:#7b8bba"/><path d="M68.534,131.5c12.395-.928,35.707-1.765,55.968,2.635a17.335,17.335,0,0,1,13.358,19.811,96.915,96.915,0,0,1-5.306,18.925,56.444,56.444,0,0,1-42.162,35.223c-6.786,2.052-45.477,3.839-49.1-28.978C38.884,163.593,43.69,133.08,68.534,131.5Z" style="fill:#7b8bba"/><path d="M76.87,142.371a24.3,24.3,0,0,0-17.731,9.363c-4.616,6.075-6.131,13.568-6.467,19.68a4.893,4.893,0,0,0,8.351,3.7l24.689-24.689a4.9,4.9,0,0,0-3.7-8.349C80.148,142.162,78.422,142.264,76.87,142.371Z" style="fill:#fff"/><path d="M227.711,143.294a14.837,14.837,0,0,0-11.433,16.957c.305,1.806,1.131,4.879,2.042,7.984a6.312,6.312,0,0,0,10.519,2.672l19.085-19.084a6.317,6.317,0,0,0-5.027-10.758A122.278,122.278,0,0,0,227.711,143.294Z" style="fill:#fff"/><path d="M42.66,194.245c9.212,15.416,25.89,18.3,37.074,18.3,36.38.655,54.934-31.856,56.117-38.5a100.656,100.656,0,0,0,5.461-19.517,20.777,20.777,0,0,0-16.067-23.815c-20.763-4.509-44.606-3.63-56.973-2.705a29.915,29.915,0,0,0-22.345,12.4C34.53,157.375,35.139,181.169,42.66,194.245Zm8.98-49.793A22.934,22.934,0,0,1,68.8,134.99c11.986-.9,35.066-1.757,54.965,2.565a13.785,13.785,0,0,1,10.649,15.809c-3.561,15.052-7.563,42.175-44.731,51.3-.29.06-29.18,5.782-41.01-14.014C42.4,179.688,42.083,158.619,51.64,144.452Z" style="fill:#3f3f70"/><path d="M198.688,154.529c3.488,20.329,15.706,56.291,61.579,58.013,17.2.754,39.643-9.356,41.914-33.025,2.714-17.4-3.293-49.782-30.454-51.507-12.366-.926-36.211-1.8-56.972,2.7A20.777,20.777,0,0,0,198.688,154.529Zm17.552-16.974c11.735-2.548,24.573-3.3,35.593-3.3,14.755.643,27.735-1.764,36.527,10.192,8.1,11.432,7.778,26.374,6.867,34.263-3.12,29.51-38.658,27.751-44.925,25.948-30.566-6.19-39.172-31.775-39.52-32.853a94.8,94.8,0,0,1-5.191-18.446A13.785,13.785,0,0,1,216.24,137.555Z" style="fill:#3f3f70"/><path d="M10,153.565h4.076a4.927,4.927,0,0,1,4.867,5.57c-1.609,17.023-.919,32.08,7.389,45.575,12.5,19.681,34.011,23.6,49.16,23.6a82.033,82.033,0,0,0,61.331-26.884c25.394,3.36,38.176-27.389,19.7-37.44q1.251-4.329,2.2-8.607c5.323-14.138,17.245-14.119,22.558,0q.943,4.27,2.2,8.607c-18.475,10.053-5.7,40.8,19.7,37.44a82.113,82.113,0,0,0,61.336,26.883c15.153,0,36.66-3.921,49.158-23.6,8.307-13.5,9-28.548,7.389-45.574a4.926,4.926,0,0,1,4.867-5.57c2.96-.083,7.306.869,7.576-3.5a3.5,3.5,0,0,0-3.5-3.5h-6.434c-7.214.127-7.651-8.8-10.837-12.843a40.44,40.44,0,0,0-31.655-20.415c-13.838-1.3-39.666-2.881-64.817.027H123.742c-25.15-2.907-50.978-1.324-64.816-.027-16.914,1.464-30.013,13.085-35.7,28.769-2.382,5.633-8.34,4.386-13.226,4.489C5.411,146.634,5.392,153.49,10,153.565Zm148.187,24.769c-.325,7.823-5.259,15.121-15.759,16.195,9.355-13.583,9.632-17.7,11.945-23.759C156.139,171.905,158.115,174.114,158.187,178.334ZM170,137.841a16.129,16.129,0,0,0-10.892,4.23A34.07,34.07,0,0,0,145.5,120.334H194.5a34.07,34.07,0,0,0-13.612,21.737A16.129,16.129,0,0,0,170,137.841Zm13.017,46.38c-2.289-4.549-1.178-11.507,2.617-13.43,2.293,6.015,2.6,10.192,11.935,23.737A16.512,16.512,0,0,1,183.017,184.221Zm97.4-63.944c22.317,1.688,32.925,24,34.085,43.691,5.164,55.813-41.014,60.8-65.681,55.8-19.533-4.328-32.594-14.146-41.112-23.775a3.485,3.485,0,0,0-.968-1.1c-13.434-16.565-15.083-27.9-18.711-41.373a26.962,26.962,0,0,1,22.341-32.349C231.907,117.7,261.7,118.4,280.42,120.277Zm-245.7,14.7a33.363,33.363,0,0,1,24.855-14.7h0c14.8-1.387,43.568-3.116,70.046.9a26.758,26.758,0,0,1,18.208,11.393c8.74,12.015,3.231,26.372-1.2,39.144-.115.809-11.826,38.174-55.48,48.066-24.676,5.024-70.791.03-65.657-55.81C26.2,154.285,29.028,143.446,34.725,134.977Z" style="fill:#3f3f70"/></svg>