<svg id="icons" xmlns="http://www.w3.org/2000/svg" viewBox="0 0 340 340"><path d="M14.6,98.482l-4.3,15.983A8.743,8.743,0,0,0,16.2,125.019a11.164,11.164,0,0,1,5.727,3.761s-7.984,19.361,14.495,25.225c0,0-1.937,23.213,20.053,26.145,0,0-2.3,25.841,23.116,25.841,0,0-2.336,24.012,21.41,28.622,19.965,4.22,31.2,14.829,42.607,33.929l6.842-7.819S123.575,110.7,14.6,98.482Z" style="fill:#7b8bba"/><path d="M325.4,98.482l4.3,15.983a8.742,8.742,0,0,1-5.906,10.554,11.164,11.164,0,0,0-5.727,3.761s7.984,19.361-14.5,25.225c0,0,1.938,23.213-20.053,26.145,0,0,2.295,25.841-23.116,25.841,0,0,2.336,24.012-21.41,28.622-19.965,4.22-31.2,14.829-42.607,33.929l-6.841-7.819S216.424,110.7,325.4,98.482Z" style="fill:#7b8bba"/><path d="M170,87.592s-76.655.312-155.4-7.68v18.57s110.441,37.14,129.011,170.06c11.289,7.057,41.723,6.953,52.777,0C214.958,135.622,325.4,98.482,325.4,98.482V79.912C248.441,87.769,170,87.592,170,87.592Z" style="fill:#bac9e8"/><path d="M328.9,98.018V79.912a3.5,3.5,0,0,0-3.855-3.481c-52,5.309-105.159,6.942-133.734,7.443,9.068-8.53-1.757-22.741-12.279-16.14a33.867,33.867,0,0,0-9.912,10.022,32.611,32.611,0,0,0-9.779-12.577c-10.213-8.085-24.421,4.156-17.846,15.434,2.815,4.932,7.388,8.38,13.591,10.246,4.427,1.25,6.4-5.3,2.017-6.7-4.427-1.332-7.633-3.692-9.528-7.013a4.778,4.778,0,0,1,1.075-6.236,4.837,4.837,0,0,1,6.4-.195,27.029,27.029,0,0,1,9.51,15.54,50.908,50.908,0,0,0-12.739,20.738,3.5,3.5,0,0,0,6.641,2.213,43.98,43.98,0,0,1,11.174-18.111c1.513,0,76.641.112,152.261-7.311V96.039C281.14,111.145,225.384,158.134,204.876,219.5c-28.85,7.819-61.931,1.586-69.793-.106C114.694,158.221,58.682,111,18.1,96.039V83.78c44.136,4.333,87.231,6.1,115.954,6.818a3.5,3.5,0,0,0,.175-7c-29.437-.736-74.025-2.577-119.275-7.17A3.522,3.522,0,0,0,11.1,79.913v18.1L6.917,113.555a12.271,12.271,0,0,0,8.207,14.794,9.99,9.99,0,0,1,2.834,1.37c-3.138,10.766,1.52,22.756,14.9,26.87.194,9.068,4.523,22.867,20.093,26.475.135,12.014,7.541,25.2,23.06,26.262.344,9.964,5.576,25.083,24.33,28.722,18.873,3.585,30.781,15.888,40.221,32.207,1.753,2.372,10.782,6.8,29.44,7.163,18.628-.353,27.7-4.8,29.441-7.162,9.44-16.321,21.35-28.623,40.222-32.208,18.754-3.639,23.986-18.758,24.33-28.722,15.53-1.056,22.928-14.27,23.059-26.262,15.571-3.608,19.9-17.407,20.093-26.475,13.385-4.113,18.035-16.123,14.9-26.87a10.024,10.024,0,0,1,2.835-1.371,12.271,12.271,0,0,0,8.207-14.793ZM187.032,78.12a23.63,23.63,0,0,1-7.373,5.917c-2.512.025-4.572.039-6.139.047A27.558,27.558,0,0,1,182.847,73.6a2.97,2.97,0,0,1,3.992.544A2.933,2.933,0,0,1,187.032,78.12ZM127.091,242.855a56.622,56.622,0,0,0-25.419-11.678c-20.258-3.932-18.67-24-18.594-24.847a3.521,3.521,0,0,0-3.484-3.838c-16.467.464-20.213-13.629-19.629-22.033a3.5,3.5,0,0,0-3.024-3.779c-18.359-2.448-17.09-21.582-17.028-22.385a3.5,3.5,0,0,0-2.6-3.677c-13-3.046-15-12.737-12.143-20.5,1.324-4.211-4.072-7.049-7.883-8.424a5.276,5.276,0,0,1-3.606-6.315l3.3-12.239c51.659,22.566,103.2,69.309,120.421,150.108A78.162,78.162,0,0,0,127.091,242.855Zm66.091,23.384c-10.74,5.469-35.727,5.428-46.365,0a239.689,239.689,0,0,0-9.105-39.155c14.83,3.238,45.428,5.152,64.49.264A239.742,239.742,0,0,0,193.182,266.239Zm129.536-144.55a14.418,14.418,0,0,0-7.48,5.033,3.5,3.5,0,0,0-.4,3.393c.026.065,2.617,6.7-.219,12.391-1.9,3.815-5.913,6.543-11.925,8.112a3.51,3.51,0,0,0-2.6,3.668c.062.812,1.332,19.946-17.028,22.394a3.51,3.51,0,0,0-3.024,3.77c.009.1.781,10.283-5.1,16.669-3.281,3.565-8.171,5.373-14.533,5.373a3.5,3.5,0,0,0-3.483,3.838c.083.852,1.793,20.889-18.594,24.847-15.031,2.822-26.475,10.7-35.721,22.066,17.113-80.665,68.864-127.642,120.421-150.1l3.295,12.235A5.275,5.275,0,0,1,322.718,121.689Z" style="fill:#3f3f70"/><path d="M178.928,109.53c1.977,4.173,8.2,1.342,6.385-2.872a39.913,39.913,0,0,0-7.719-11.329c-3.36-3.137-8.119,1.775-4.865,5.033A32.789,32.789,0,0,1,178.928,109.53Z" style="fill:#3f3f70"/></svg>