<svg id="icons" xmlns="http://www.w3.org/2000/svg" viewBox="0 0 340 340"><path d="M150.355,9.575c4.29,13.6,22,31.377,45.459,25.3,8.427-2.051,20.987-6.585,27.777-16.146l4.48,21.339L224.14,63.353l-83.159,1.209S132.816,35.024,150.355,9.575Z" style="fill:#7b8bba"/><path d="M150.355,9.146s-8.773,41.576,29.371,48.442c0,0,37.762,9.536,43.865-39.288,19.084.378,40.428,16.063,47.709,34.54,13.559,31.059,38.145,99.2,45.743,198.517H284.621S283.858,164.009,239.23,92.3c-4.136,21.205-12,36.458-6.074,84.887,8.607,43.793,23.2,54.6,21.172,128.227a15.227,15.227,0,0,1-10.285,13.716c-22.594,7.756-80.694,22.764-130.824-6.106a15.283,15.283,0,0,1-7.63-14.6c.888-9.9,3.026-27.771,8.149-54.315,0,0,12.587-58.741,4.958-119.008,0,0-39.288,80.865-70.947,111L22.956,214.74S68.078,160.38,94.2,77.036C101.066,54.29,103.954,13.231,150.355,9.146Z" style="fill:#bac9e8"/><path d="M45.465,239.181c12.334,7.673,69.279-96.519,71-101.411,4.627,92.7-10.884,109.47-14.362,160.771a18.845,18.845,0,0,0,9.368,17.944c22.848,13.158,47.267,17.439,69.371,17.439,27.559,0,51.517-6.656,64.337-11.056A18.618,18.618,0,0,0,257.825,306c2.238-50.9-8.747-86.936-13.573-100.064a151.134,151.134,0,0,1-7.636-28.851,184.771,184.771,0,0,1,.086-56.236c3.125-16.455,5.887-27.13,5.915-27.236,1.632-8.337,2.834-19.628,2.875-20.019.389-4.517-6.358-5.36-6.961-.736-.011.108-1.161,10.9-2.717,19.1-4.529,22.929-12.072,37.257-6.117,86.2,8.413,43.449,23.228,54.71,21.134,127.538a11.655,11.655,0,0,1-7.925,10.559c-22.195,7.62-79.092,22.3-127.941-5.829a11.825,11.825,0,0,1-5.89-11.251c.918-10.233,3.07-27.9,8.084-53.895.128-.593,12.625-60.019,5.01-120.18C115.9,102.028,121.157,85.158,125,77.805a49.713,49.713,0,0,0,4.3-12.191,3.516,3.516,0,1,0-6.856-1.413,42.578,42.578,0,0,1-3.7,10.462c-4.127,8.22-10.012,25.609-3.753,50.478-4.756,9.616-38.976,77.743-67.4,106.632L27.783,214.707c9.324-12.046,46.968-63.488,69.756-136.195,6.873-22.587,8.638-58.141,48.74-65.135-.7,7.039-.831,20.935,6.8,32.272,5.638,8.377,14.359,13.69,25.925,15.794,21.24,4.678,43.5-8.435,47.6-39.013,17.994,2.5,34.122,15.194,41.5,32.239,13.571,31.089,37.316,97.29,45.163,193.617H288.01c-.664-15.554-5.237-80.614-35.949-140.035a3.5,3.5,0,0,0-6.219,3.214c34.211,66.189,35.271,139.618,35.278,140.352a3.5,3.5,0,0,0,3.5,3.469h32.423a3.526,3.526,0,0,0,3.49-3.767c-7.605-99.4-32.1-167.752-46.024-199.651-7.9-19.857-30.868-36.467-51.105-36.634a3.6,3.6,0,0,0-2.667,1.469c-6.351,8.943-18.86,13.094-25.752,14.772-21.42,5.614-37.354-10.8-41.293-22.958a3.529,3.529,0,0,0-2.826-2.393c-49.33,3.253-53.518,48.557-60.007,70.293C65.265,158.08,20.71,212.394,20.263,212.934a3.5,3.5,0,0,0,.409,4.886Zm120.712-205.1c16.558,9.646,35.886,5.433,51.835-5.037C212.4,51.4,194.32,57.622,180.582,54.623c-9.7-1.711-17.1-6.033-21.674-12.848-4.224-6.258-5.584-13.695-5.854-19.771A43.615,43.615,0,0,0,166.177,34.083Z" style="fill:#3f3f70"/></svg>