<svg id="icons" xmlns="http://www.w3.org/2000/svg" viewBox="0 0 340 340"><path d="M177.165,8.863l35.148,3.026,11.716,59.192L189.374,310.446s-39.419-11.487-73.2,0L151.65,54.465Z" style="fill:#7b8bba"/><path d="M177.165,8.863s-39.4,164.948-52.8,322.127c0,0-31.3-.688-58.765-17.256a9.8,9.8,0,0,1-3.983-12.042c6.076-15.1,19.508-50.66,24.164-80.768,0,0-16.626-13.748-24.63-35.854a21.946,21.946,0,0,1,.339-15.815c6.325-15.393,21.616-53.99,32.8-93.45a30.145,30.145,0,0,1,13.893-17.891A492.248,492.248,0,0,0,177.165,8.863Z" style="fill:#bac9e8"/><path d="M107.8,329.051a117.942,117.942,0,0,0,16.569,1.939c13.4-157.179,52.8-322.127,52.8-322.127q-6.783,5.718-13.258,10.817C150.9,67.125,118.5,222.955,107.8,329.051Z" style="fill:#fff"/><path d="M212.313,11.889c.117,63.852-35.978,170.452-35.148,319.1,0,0,32.044,2.2,60.219-11.458a16.716,16.716,0,0,0,9.4-16.411c-1.193-14.42-3.169-41.022-3.507-62.714a205.28,205.28,0,0,0,29.007-21,23.439,23.439,0,0,0,7.784-19.726c-1.954-21.66-6.086-71.039-7.536-116.095a18.057,18.057,0,0,0-7.552-14.118,140.884,140.884,0,0,1-29.791-28.554C220.226,21.129,212.313,11.889,212.313,11.889Z" style="fill:#bac9e8"/><path d="M224.029,26.407c-7.7-9.832-11.716-14.518-11.716-14.518.117,63.852-35.978,170.452-35.148,319.1a128.327,128.327,0,0,0,19.4-.592C197.909,183.355,218.139,110.367,224.029,26.407Z" style="fill:#fff"/><path d="M283.551,199.369c-1.773-19.646-6.056-70.267-7.524-115.893a21.7,21.7,0,0,0-9.014-16.852,136.471,136.471,0,0,1-29.035-27.817c-14.667-19.4-22.477-28.576-22.986-29.17a3.628,3.628,0,0,0-2.38-1.235L177.465,5.376a3.353,3.353,0,0,0-.831.038,3.537,3.537,0,0,0-1.725.773q-3.144,2.65-6.361,5.275c-21.909,18.287-51.6,37.623-62.122,43.422A33.484,33.484,0,0,0,90.919,74.851C79.742,114.3,64.352,153.083,58.254,167.925a25.4,25.4,0,0,0-.393,18.337,91.2,91.2,0,0,0,15.224,26.421,3.5,3.5,0,1,0,5.429-4.418,84.245,84.245,0,0,1-14.071-24.386,18.418,18.418,0,0,1,.286-13.294c6.143-14.953,21.65-54.027,32.925-93.826a26.519,26.519,0,0,1,12.279-15.816,474.208,474.208,0,0,0,47.974-32.2c-14.762,58.151-43.058,199.3-53.2,296.118-10.8-2.254-24.534-6.422-37.3-14.124A6.258,6.258,0,0,1,64.865,303c5.736-14.252,19.574-50.676,24.35-81.381.77-3.195,15.864-66.081,23.983-120.2a3.5,3.5,0,0,0-6.922-1.039c-8.245,54.954-23.74,119.08-23.895,119.722-4.617,30-18.328,66.212-24.01,80.286a13.23,13.23,0,0,0,5.422,16.346c27.367,16.509,57.874,17.687,60.357,17.755a3.518,3.518,0,0,0,3.7-3.2q.882-10.332,1.911-20.707c16.064-2.908,32.16-1.689,43.855.144-.115,7-.109,13.806.047,20.348.792,4.436,3.561,3.284,8.937,3.561,10.654,0,34.433-1.345,56.308-11.952a20.1,20.1,0,0,0,11.359-19.85c-1.125-13.588-3.035-39.142-3.461-60.46a208.879,208.879,0,0,0,27.782-20.333A27.013,27.013,0,0,0,283.551,199.369ZM121.172,327.29c-2.242-.182-5.539-.528-9.557-1.163,10.606-101.821,41.5-253.256,55.367-304.417,1.481-1.185,2.953-2.353,4.452-3.57C151.492,107.259,130.594,221.093,121.172,327.29Zm52.6-23.622c-11.7-1.767-27.368-2.885-43.276-.313C144.444,168.437,174.922,33.98,179.883,12.61l28.982,2.5C205.818,87.829,179.522,154.977,173.771,303.668Zm96.2-86.887a201.623,201.623,0,0,1-23.335,17.431c-1.292-61.142-.286-135.333-.275-136.1,0-4.528-6.847-4.758-7-.1-.01.8-1.086,80.125.414,142.443.341,21.905,2.352,48.845,3.519,62.952a13.141,13.141,0,0,1-7.436,12.974c-12.131,5.882-25.108,8.724-35.749,10.071.443-40.99,2.941-85.138,7.442-131.313.374-4.566-6.457-5.275-6.967-.68-4.549,46.669-7.067,91.3-7.49,132.712-5.379.42-9.747.467-12.495.428C177.15,263.884,204.316,93.3,205.427,93.668c6.427-30.529,9.095-48.551,10.322-72.07q2.037,2.537,4.734,5.962c-2.459,46.191-10.021,74.543-16.029,130.8a3.5,3.5,0,0,0,6.952.81c5.884-54.017,12.3-79.441,15.646-123.156,9.58,14.075,26.1,29.917,35.889,36.3a14.47,14.47,0,0,1,6.09,11.384c1.474,45.809,5.77,96.59,7.549,116.3A19.993,19.993,0,0,1,269.97,216.781Z" style="fill:#3f3f70"/><path d="M206.474,171.541c-4.69-.538-5.547,7.451-.847,7.92C210.3,180,211.182,172.016,206.474,171.541Z" style="fill:#3f3f70"/></svg>