<svg id="icons" xmlns="http://www.w3.org/2000/svg" viewBox="0 0 340 340"><path d="M170,237.47,25.125,246.878s15.588,18.778,16.387,52.108a7.6,7.6,0,0,0,10.366,6.951c46.638-22.509,190.026-22.372,236.244,0a7.6,7.6,0,0,0,10.366-6.954c.8-33.33,16.387-52.108,16.387-52.108Z" style="fill:#7b8bba"/><path d="M329.966,206.926c-.5-14.13-3.769-32.843-14.925-50.928a128.011,128.011,0,0,1-11.372-23.109c-6.712-18.326-14.791-49.338-9.87-83.9A10.375,10.375,0,0,0,288.056,38.2l-9.611-4.668L170,213.282C278.445,33.531,271.358,94.273,271.358,94.273a57.287,57.287,0,0,1-38.2,47.624c-1.415.562-39.916,13.365-49.543,60.079a13.857,13.857,0,0,1-27.24,0c-9.7-46.72-48.016-59.509-49.539-60.079a57.286,57.286,0,0,1-38.2-47.624L61.555,33.531,51.944,38.2A10.375,10.375,0,0,0,46.2,48.987c4.921,34.564-3.158,65.576-9.87,83.9A128.011,128.011,0,0,1,24.959,156C13.8,174.083,10.532,192.8,10.034,206.926c.092,63.943,73.1,62.9,100.372,55.68,9.177-1.92,17.241-3.793,24.229-5.542a145.688,145.688,0,0,1,70.73,0c6.988,1.749,15.052,3.622,24.229,5.543C255.977,269.7,329.978,271.179,329.966,206.926Z" style="fill:#bac9e8"/><path d="M318.02,154.161c-16.592-28.451-25.7-62.118-20.758-104.681a13.826,13.826,0,0,0-7.677-14.429l-9.61-4.669a3.526,3.526,0,0,0-5.006,2.744l-7.087,60.742a54.021,54.021,0,0,1-36.589,44.965c-1.712.594-42.03,15.092-51.109,62.485a10.359,10.359,0,0,1-20.368,0c-9.079-47.393-49.4-61.891-51.154-62.5A54.026,54.026,0,0,1,72.118,93.868L65.031,33.125a3.526,3.526,0,0,0-5.006-2.743l-9.609,4.669a13.829,13.829,0,0,0-7.68,14.429c4.723,33.177-2.663,63.016-9.691,82.205A125.038,125.038,0,0,1,21.98,154.161c-18.691,33.025-22.928,69.615.446,94.946.149.181,14.83,18.378,15.588,49.963-.017,7.481,8.232,13.1,15.157,10.12,45.888-22.214,188.38-22,233.658,0a11.04,11.04,0,0,0,10.153-1.052,11.194,11.194,0,0,0,5-9.071c.758-31.585,15.439-49.782,15.582-49.957C340.97,223.8,336.687,187.146,318.02,154.161ZM294.947,256.294c-44.627,15.15-73.766-1.579-102.975-5.461-4.542-.618-5.586,6.169-1.031,6.923,12.954,2.02,24.526,5.69,37.871,8.263,15.172,4.281,53.736,6.2,74.471-5.927a103.09,103.09,0,0,0-8.3,38.81,4.116,4.116,0,0,1-5.573,3.782c-47.573-22.834-191.689-22.693-238.83,0a4.118,4.118,0,0,1-5.573-3.785,103.09,103.09,0,0,0-8.3-38.81c47.27,21.158,82.353,1.3,114.737-2.671,4.525-.692,3.685-7.446-.912-6.94-30.838,3.56-59.794,21.28-105.489,5.815C5.8,238.863,6.86,194.511,27.937,157.836a131.946,131.946,0,0,0,11.68-23.743c7.305-19.944,14.978-50.984,10.049-85.6-.756-5.961,4.611-7.521,8.983-9.661l6.516,55.845A61.06,61.06,0,0,0,105.7,145.207l.7.238c.381.134,38.237,13.871,46.534,57.189a17.358,17.358,0,0,0,34.118,0c8.3-43.318,46.153-57.055,46.484-57.173l.754-.253a61.062,61.062,0,0,0,40.538-50.53l6.516-55.845c4.329,2.155,9.742,3.639,8.983,9.661-4.929,34.615,2.744,65.655,10.049,85.6a132.006,132.006,0,0,0,11.679,23.743C333.142,194.519,334.2,238.859,294.947,256.294Z" style="fill:#3f3f70"/><path d="M172.118,249.221c-5.16-.7-6.1,6.6-.915,6.991C176.335,256.908,177.27,249.635,172.118,249.221Z" style="fill:#3f3f70"/></svg>