<svg id="icons" xmlns="http://www.w3.org/2000/svg" viewBox="0 0 340 340"><path d="M141.662,9.57c2.663,39.788,78.658,44.591,94.194,16.526l4.789,30.334L197.14,119.092l-90.6-22.75S102.149,38.944,141.662,9.57Z" style="fill:#7b8bba"/><path d="M141.662,9.57s-21.154,76.4,31.132,83.18c0,0,45.9,7.583,63.062-66.654,0,0,17.43,10.858,37.542,24.838a51.27,51.27,0,0,1,16.987,19.941c6.971,14.553,18.938,40.04,28.888,63.783l-52.685,39.115-12.772-23.15s-22,109.656-32.683,158.45A16.588,16.588,0,0,1,209.7,321.414c-26.008,7.826-100.917,24.136-159.747-24.679a16.6,16.6,0,0,1-5.444-17.024C51.2,254.435,69.079,185.153,79,129.47L58.245,143.838S37.128,118.693,20.727,90.355c0,0,37.54-38.474,65.616-63.253A22.911,22.911,0,0,1,94.2,22.566,446.3,446.3,0,0,1,141.662,9.57Z" style="fill:#bac9e8"/><path d="M55.565,146.089a3.5,3.5,0,0,0,4.672.627l7.51-5.2c3.737-2.682-.156-8.309-3.984-5.756l-4.856,3.362A433.171,433.171,0,0,1,25.1,90.9c7.924-8.056,39.438-39.881,63.554-61.165a19.4,19.4,0,0,1,6.673-3.852c7.831-2.638,23.109-7.464,41.645-11.689-2.7,12.753-7.462,44.368,6.013,64.677C149.5,88.69,159.361,94.526,172.3,96.215c28.422,1.737,53.258-17.823,65.8-64.562,6.32,4.026,19.208,12.356,33.3,22.154a47.868,47.868,0,0,1,15.829,18.581c6.205,12.954,17.872,37.729,27.753,61.1l-47.264,35.09-10.837-19.643a3.5,3.5,0,0,0-6.5,1c-.248,1.235-24.535,122.222-34.29,165.7-44.019,15.592-119.658,21.42-170.29-27.22,4-13.349,28.123-108.8,38.805-168.6.9-4.433-5.824-5.987-6.848-1.444-.021.107-2.193,10.386-2.209,10.484C63.351,197.348,38.751,287.692,38.5,288.6a3.5,3.5,0,0,0,.95,3.445c51.029,52.189,137.765,46.852,180.934,29.465a3.493,3.493,0,0,0,2.118-2.477c7.951-35.114,26.829-128.433,32.858-158.355l8.16,14.79a3.525,3.525,0,0,0,5.151,1.119l52.684-39.114a3.5,3.5,0,0,0,1.142-4.163c-10.153-24.229-22.5-50.462-28.959-63.942A54.877,54.877,0,0,0,275.4,48.059c-19.953-13.869-37.514-24.825-37.689-24.934a3.514,3.514,0,0,0-4.852,1.17c-.131.218-13.559,21.8-51.064,15.118-36.522-6.508-36.644-28.738-36.629-29.756a3.534,3.534,0,0,0-4.23-3.51,447.753,447.753,0,0,0-47.841,13.1,26.324,26.324,0,0,0-9.07,5.238C56.169,49.064,18.6,87.525,18.222,87.911a3.5,3.5,0,0,0-.525,4.2C34.062,120.384,55.351,145.835,55.565,146.089ZM142.373,23.955c11.958,23.421,64.043,32.019,86.635,13.939-8.741,30.444-31.407,54.057-55.645,51.4-10.876-1.383-19.176-6.194-24.539-14.286C139.14,60.428,140.284,38.146,142.373,23.955Z" style="fill:#3f3f70"/></svg>