<svg id="icons" xmlns="http://www.w3.org/2000/svg" viewBox="0 0 340 340"><path d="M176.718,286.772H163.282a3.5,3.5,0,1,0,0,7h13.436C181.314,293.7,181.321,286.85,176.718,286.772Z" style="fill:#bac9e8"/><path d="M126.732,240.3a605.408,605.408,0,0,0-47.064-46.773,3.523,3.523,0,0,0-5.174.647c-21.857,31.561-32.125,61.05-36.89,80.231a19.934,19.934,0,0,0,2.759,15.834,20.247,20.247,0,0,0,13.781,8.749,184.541,184.541,0,0,0,27.574,1.952c29.652-.049,52.337-6.13,79.723-7.065l2.028-.109a3.526,3.526,0,0,0,2.626-5.578C158.4,277.8,135.378,249.948,126.732,240.3Z" style="fill:#bac9e8"/><path d="M302.4,274.406c-4.765-19.181-15.033-48.67-36.89-80.231a3.522,3.522,0,0,0-5.174-.647A605.408,605.408,0,0,0,213.268,240.3c-8.646,9.647-31.666,37.5-39.363,47.888a3.5,3.5,0,0,0-.354,3.573c.879,2.021,3.111,2.09,5.009,2.113,27.406.934,50.052,7.015,79.722,7.066a184.532,184.532,0,0,0,27.574-1.952C297.227,297.513,305.4,285.5,302.4,274.406Z" style="fill:#bac9e8"/><path d="M324,270.678c-2.8-.549-5.726-.986-8.71-1.3-4.58-.408-5.3,6.4-.735,6.961,4.149.75,11.916.194,11.941,5.675a4.566,4.566,0,0,1-3.483,4.743,166.238,166.238,0,0,1-24.141,4.508,19.773,19.773,0,0,0,3.525-16.858c-4.755-19.137-14.99-48.536-36.744-80.015-2.265-4.527-39.183-77.463-86.548-124.067l25.5,1.036a21.709,21.709,0,0,0,11.546-2.645c6.53-3.465,10.785-11,8.429-18.282a14.965,14.965,0,0,0-10.055-9.989c-21.46-6.461-38.074,11.344-44.6,19.907-6.524-8.564-23.137-26.374-44.6-19.907a14.969,14.969,0,0,0-10.054,9.988c-2.353,7.285,1.9,14.818,8.43,18.283a21.7,21.7,0,0,0,11.546,2.645l16.5-.671c4.579-.264,4.333-7.1-.284-6.994l-16.506.671a14.622,14.622,0,0,1-7.82-1.746c-18.811-12.793,13.349-31.257,38.181,3.311-49.534,46.247-88.632,123.762-90.975,128.462C52.592,225.871,42.358,255.269,37.6,274.406a19.774,19.774,0,0,0,3.525,16.86,166.4,166.4,0,0,1-24.142-4.51,4.566,4.566,0,0,1-3.483-4.743c.054-5.5,7.766-4.917,11.941-5.675a3.5,3.5,0,0,0-.735-6.961c-2.984.315-5.915.752-8.71,1.3a11.729,11.729,0,0,0-.888,22.822c19.728,5.486,43.176,6.236,45.164,6.29a192.677,192.677,0,0,0,21.442,1.151c34.657-.215,62-8.337,94.9-7.168,28.1.825,51.351,7.069,81.66,7.168a192.72,192.72,0,0,0,21.443-1.151c1.993-.054,25.437-.8,45.163-6.29A11.729,11.729,0,0,0,324,270.678ZM212.5,47.147c7.821,2.608,7.166,12.119.2,15.472a14.617,14.617,0,0,1-7.821,1.747L176.6,63.216C182.84,55.525,196.354,42.278,212.5,47.147ZM117.653,291.24c-15.865,2.3-39.579,4.306-62.458.829a13.233,13.233,0,0,1-9.008-5.714c-8.615-9.4,16.09-62.062,31.834-84.923,17.833,14.8,57.661,57.95,78.466,85.722C143.878,287.957,130.838,289.33,117.653,291.24Zm57.316-4.468h-9.938c-19.292-26.687-66.417-78.014-83.319-91.432,6.394-12.481,37.68-71.549,77.691-113.663a191.818,191.818,0,0,0-5.908,22.061,3.5,3.5,0,1,0,6.851,1.439c3.7-17.63,8.018-28.1,10.479-33.113,44.528,42.105,80.532,109.807,87.46,123.279C241.316,208.832,194.318,260.024,174.969,286.772Zm118.844-.417a13.233,13.233,0,0,1-9.008,5.714c-39.365,5.733-66.578-3.122-101.292-4.915,20.749-27.712,60.687-70.982,78.467-85.722C277.666,224.2,302.437,276.937,293.813,286.355Z" style="fill:#3f3f70"/><path d="M172.129,84.589a3.5,3.5,0,0,0-.615,4.91,82.478,82.478,0,0,1,14.631,43.124,3.5,3.5,0,0,0,6.994-.29c-1.14-27.66-15.493-46.354-16.1-47.136A3.5,3.5,0,0,0,172.129,84.589Z" style="fill:#3f3f70"/></svg>