<svg id="icons" xmlns="http://www.w3.org/2000/svg" viewBox="0 0 340 340"><path d="M83.7,23.875S99.893,10.006,178.28,10.006c0,0,72.771.924,91.341,21.974l-7.416,12.105S148.44,79.064,83.7,23.875Z" style="fill:#7b8bba"/><path d="M278,83.3c-4.317-16-6.953-34.483-8.375-51.319,0,0-93.72,37.995-185.919-8.1,0,0-2.533,30.4-11.651,51.166,0,0-27.863,58.257-6.586,132.219,0,0,14.6,52.392,20.08,86.8a18.368,18.368,0,0,0,9.3,13.258c16.633,9.1,57.177,27.39,105.683,21.572a2.334,2.334,0,0,0,2.02-1.912c1.7-9.562,5.281-26.145,11.737-41.46a.9.9,0,0,1,1.706.141l8.886,35.728a2.345,2.345,0,0,0,2.958,1.686,158.981,158.981,0,0,0,22.177-8.742,18.351,18.351,0,0,0,10.352-15.675c.893-19.158,3.854-60.617,13.31-89.365C273.673,209.287,290.422,128.8,278,83.3Z" style="fill:#bac9e8"/><path d="M273.114,31.768C257.2,6.856,180.866,7.007,178.28,6.505c-78.776,0-96.153,14.111-96.854,14.711A3.7,3.7,0,0,0,80.2,23.732c-.2,2.245-2.888,30.577-11.334,49.852-1.486,3.13-28.024,60.745-6.773,134.616.145.522,14.609,52.591,19.994,86.406a21.725,21.725,0,0,0,11.077,15.778c13.77,7.532,47.274,23.112,88.655,23.11a160.263,160.263,0,0,0,20.889-1.355,3.5,3.5,0,0,0,3-2.885,214.511,214.511,0,0,1,8.868-34.8l7.5,30.169a3.522,3.522,0,0,0,4.378,2.514,162.994,162.994,0,0,0,25.093-9.665,21.827,21.827,0,0,0,12.314-18.659c.772-17.064,3.725-59.978,13.24-88.814.693-3.333,16.84-82.151,4.2-127.893-1.5-5.433-2.722-10.855-3.627-16.114C275.922,55.817,273.711,41.62,273.114,31.768ZM178.235,13.506c18.255.232,66.022,3.838,84.668,17.169C214.877,45.668,154.553,51.644,91.6,23.76,101.321,19.918,125.45,13.506,178.235,13.506Zm92.049,194.881c-9.351,28.568-12.419,68.695-13.417,90.1A14.832,14.832,0,0,1,248.5,311.17a156.731,156.731,0,0,1-20.524,8.184l-9.236-37.134a3.521,3.521,0,0,0-6.592-.582c-7.063,15.821-11,33.4-12.9,43.873-47.614,5.432-87.58-12.982-102.73-21.268A14.775,14.775,0,0,1,89,293.505c-5.447-34.2-20.018-86.659-20.172-87.213-17.079-59.368-1.7-108.955,4.26-124.6,10.651,7.5,74.8,33.086,122.083,27.44a3.5,3.5,0,1,0-.515-6.978C137.933,106.334,87.757,81.6,75.8,75.174,82.52,59.16,85.559,38.59,86.665,29.2c65.386,30.054,130.62,23.592,179.826,7.66a380.608,380.608,0,0,0,5.86,38.28,155.272,155.272,0,0,1-35.3,18.141,3.5,3.5,0,0,0,2.364,6.588A161.91,161.91,0,0,0,274.136,82.4C286.753,124.875,271.224,204.055,270.284,208.387Z" style="fill:#3f3f70"/><path d="M218.1,98.743c-5.41.377-4.894,7.742.393,7.078C223.945,105.443,223.424,98.055,218.1,98.743Z" style="fill:#3f3f70"/></svg>