<svg id="icons" xmlns="http://www.w3.org/2000/svg" viewBox="0 0 340 340"><path d="M56.657,62.779s42.622,41.973,92.989,100.7c15.979,17.837,39.085,53.061,86.846,53.32,0,0,17.641-1.293,24.954-14.63l9.465,20.221-10.755,28.825S180.563,276.6,116.029,176.36C116.029,176.36,56.227,99.779,56.657,62.779Z" style="fill:#7b8bba"/><path d="M56.657,62.779C23.067,83.28,1.046,126.67,13.218,169.045a221.187,221.187,0,0,1,7.893,51.7c.587,16.274,1.128,36.657,1.128,56.473H32.35l7.1-115.484c10.111,4.014,55.252,36.957,74.992,71.53,3.077,4.872,7.7,11.879,13.1,18.981a58.284,58.284,0,0,0,45.72,22.936l140-.328c13.344-.032,21.377-15.032,13.783-26-5.78-8.555-15.435-17.265-24.881-22.633l-40.712-24.04c3.014,10.361-1.3,35.174-28.889,35.274C153.166,232.424,146.242,154.218,56.657,62.779Z" style="fill:#bac9e8"/><path d="M318.992,234.314c-8.392-8.774-44.931-28.265-55.766-35.155a3.537,3.537,0,0,0-4.848,1.331c-6.286,11.462-21.99,12.809-22.084,12.817-45.747-.313-67.858-34.025-83.992-52.1-49.885-58.171-92.761-100.5-93.188-100.92a3.563,3.563,0,0,0-3.77-.749C20.072,80.37-3.1,126.889,10.107,170.939c9.483,32.247,8.13,74.731,8.632,106.277a3.5,3.5,0,0,0,3.5,3.5h10.11a3.5,3.5,0,0,0,3.494-3.285L42,177.23a3.5,3.5,0,1,0-6.987-.43l-5.957,96.916H25.734c-.509-31.592.558-72.763-8.88-104.637-11.6-39.223,7.015-80.775,39.3-101.756,86.546,90.156,98.009,170.211,176.362,173.623,20.237.564,33.92-15.3,33.212-32.18,10.01,6.387,40.486,22.432,48.493,30.669,6.593,6.652,15.954,14.869,10.736,24.783a13.054,13.054,0,0,1-11.709,7.133L173.3,271.68c-28.593-.566-42.891-18.955-55.9-40.288-20.3-35.523-66.454-68.965-76.362-72.776-3.952-1.989-7.361,4-3.184,6.232.283.145,28.651,14.877,55.826,46.121,12.2,13.571,18.8,27.2,31.071,43.39a62.212,62.212,0,0,0,48.516,24.32l140-.328c15.77.264,26.036-18.589,16.652-31.5A77.541,77.541,0,0,0,318.992,234.314Zm-71.75-4.032c-19.572,10.133-61.468.057-93.863-46.371-.915-1.484-13.162-21.221-31.776-47.124,8.118,9.076,16.643,18.779,25.386,28.975,16.77,18.8,38.258,51.685,86.027,54.638q1.854,0,3.732-.108c.639-.047,12.845-1.053,21.861-9.071C258.208,217.244,255.865,225.228,247.242,230.282Z" style="fill:#3f3f70"/></svg>