<svg id="icons" xmlns="http://www.w3.org/2000/svg" viewBox="0 0 340 340"><path d="M249.125,10,87.044,13.581l43.431,289.237s55.519-54.624,114.62-42.535Z" style="fill:#7b8bba"/><path d="M249.125,10s-15.778,23.219-49.759,37.86a39.163,39.163,0,0,1-25.909,8.257A907.132,907.132,0,0,1,200.9,167.649c12.674,51.936,27.219,112.177,37.779,157.816a3.352,3.352,0,0,0,5.071,2.073c6.537-4.176,19.874-13.435,31.19-25.987a20.068,20.068,0,0,0,5-15.616c-2.043-18.751-6.39-65.749-3.949-107.587C279.372,154.717,279.424,60.893,249.125,10Z" style="fill:#bac9e8"/><path d="M87.044,13.581l126.2,45.466a8.053,8.053,0,0,1,5.24,9.527c-1.937,6.967-5.925,20.917-8.272,34.027-21.475,83.987-34.205,99.387-67.259,224.134a3.355,3.355,0,0,1-4.122,2.41c-8.033-2.177-29.279-8.454-46.545-18.171A27.035,27.035,0,0,1,78.5,288.725c-.99-20.5-3.889-61.393-12.081-97.614-10.962-49.238-8.85-100.59,12.631-147.519C83.673,34.568,85.565,23.545,87.044,13.581Z" style="fill:#bac9e8"/><path d="M83.02,32.732c10.669,8.488,41.247,30.334,80.078,36.4l11.942,35.258S112.089,92.219,74.63,54.049a10.065,10.065,0,0,1-1.951-11.3l3.963-8.5A4.172,4.172,0,0,1,83.02,32.732Z" style="fill:#fff"/><path d="M262.741,45.667a107.416,107.416,0,0,1-20.786,15.5l5.118,26.539s13.077-7.18,22.783-15.846a11.9,11.9,0,0,0,3.254-12.741l-4.1-11.948A3.821,3.821,0,0,0,262.741,45.667Z" style="fill:#fff"/><path d="M197.543,95.5l-28.419,5.329A9.132,9.132,0,0,1,158.383,93L155.309,68.8a9.942,9.942,0,0,1,13.8-10.385c9.26,4.011,20.624,10.309,28.43,19.3Z" style="fill:#fff"/><path d="M212.561,91.282a50.478,50.478,0,0,1,7.772,12.146c4.281,10.095,11.864,18.306,20.3,25.126a1.709,1.709,0,0,0,2.772-.81c1.977-6.982,5.785-26.638-10.294-36.462Z" style="fill:#fff"/><path d="M207.555,75.474l26.05-17.684a11.44,11.44,0,0,1,17.311,5.779c1.923,5.923,2.938,13.929.8,24a10.722,10.722,0,0,1-11.272,8.375l-32.892-2.293Z" style="fill:#fff"/><path d="M196.226,89.7s-20.288-5.006-30.563,17.389c0,0-3.943,12.66-9.988,18.639a1.708,1.708,0,0,0,.782,2.879c7.388,1.873,25.514,4.2,31.074-15.985,0,0,4.216-13.7,13.437-18.707Z" style="fill:#fff"/><path d="M199.291,71.142l7.969-.586a5.278,5.278,0,0,1,5.615,4.564,151.137,151.137,0,0,1,1.21,16.708,5.276,5.276,0,0,1-4.858,5.375l-9.095.718a5.274,5.274,0,0,1-5.685-5.462c.147-3.944.235-9.543-.035-15.831A5.274,5.274,0,0,1,199.291,71.142Z" style="fill:#fff"/><path d="M63,191.884c8.092,35.778,10.991,76.131,12,97a30.4,30.4,0,0,0,15.578,25.143c21.925,12.337,49.55,19.092,50.715,19.373a3.507,3.507,0,0,0,4.213-2.533c4.054-15.824,8.2-30.974,12.156-44.866,15.179-9.948,37.816-21.644,62.53-23.657,5.835,24.408,11.422,48.064,16.118,68.44a3.5,3.5,0,0,0,2,2.417c2.06,2.41,22.956-11.931,39.221-29.3a23.592,23.592,0,0,0,5.884-18.348c-1.991-18.278-6.36-65.27-3.939-106.923a413.991,413.991,0,0,0-2.344-89.882c-.7-4.422-7.488-3.692-6.93.983a405.258,405.258,0,0,1,2.29,88.414c-2.461,42.2,1.953,89.7,3.964,108.166a16.586,16.586,0,0,1-4.124,12.9c-10.891,12.079-23.859,21.124-30.3,25.258-12.282-53.044-29.267-123.018-41.663-173.7q5.5-18.364,10.492-36.93a3.5,3.5,0,0,0-6.761-1.816c-25.16,93.015-30.72,86.463-64.5,213.705-8-2.18-28.838-8.369-45.59-17.8a23.44,23.44,0,0,1-12.019-19.381c-1.019-21.1-3.953-61.91-12.163-98.208-9.984-43.662-8.424-89.628,6.082-130.164,21.226,19.869,48.916,32.267,68.948,39.274a3.5,3.5,0,0,0,2.311-6.607C126.632,85.657,97.808,72.669,77.129,51.6a6.6,6.6,0,0,1-1.278-7.37l3.963-8.5a.69.69,0,0,1,1.175-.136C91.1,43.615,117.656,62.525,152,70.529l2.91,22.914a12.655,12.655,0,0,0,8.462,10.356c-2.661,6.254-6.422,17.492-11.91,20.851a3.5,3.5,0,0,0,.552,6.255,41.077,41.077,0,0,0,13.561,2.391,27.646,27.646,0,0,0,12.466-2.736c6.284-3.161,10.6-8.862,12.846-16.946a40.231,40.231,0,0,1,6.794-12.426c1.848.65,9.808-.459,11.82-.5a8.748,8.748,0,0,0,4.468-1.657,46.741,46.741,0,0,1,3.173,5.833,62.449,62.449,0,0,0,15.675,21.488l7.471,6.551a3.524,3.524,0,0,0,5.578-1.384c.171-.449,4.178-11.128,2.484-22.529-.755-4.537-7.521-3.535-6.924,1.03a39.937,39.937,0,0,1-.695,13.961l-3.3-2.892c-6.982-5.784-11.852-14.4-15.855-22.955l18.626,1.3c.335.023.667.035,1,.035a14.333,14.333,0,0,0,14.214-12.668,129.99,129.99,0,0,0,16.771-12.329,15.351,15.351,0,0,0,4.233-16.489l-4.1-11.948a7.272,7.272,0,0,0-5.956-4.87c-1.917-5.893-12.545-35.117-16.843-34.638-1.69.128-162.179,3.183-163.688,3.783a3.522,3.522,0,0,0-2.236,2.692c-.573,3.321-1.914,12.169-2.75,15.341a7.664,7.664,0,0,0-7.374,4.42l-3.962,8.5a13.623,13.623,0,0,0,1.046,13.27C54.447,96.915,52.47,145.926,63,191.884Zm117.784,18.971c5.447-15.42,10.65-31.119,15.583-46.987,6.8,27.851,14.642,60.144,22.177,91.6-22.275,2.057-42.731,11.349-57.985,20.465C171.687,237.677,180.668,211.2,180.787,210.855ZM161.855,92.561l-3.074-24.206c-.776-4.775,4.566-8.813,8.941-6.734,9.378,4.063,17.361,9,23.2,14.322-.026,1.449.1,2.947.108,4.346-6.889-.974-15.2-2.638-15.3-2.658-4.523-.831-5.875,5.881-1.38,6.863.314.063,5.127,1.027,10.511,1.923a29.649,29.649,0,0,0-17.478,11.066A5.656,5.656,0,0,1,161.855,92.561Zm22.331,19.033c-3.038,12.48-13.38,16.254-23.947,14.233,4.983-6.361,8.063-15.49,8.695-17.47,6.14-13.2,15.97-15.573,22.022-15.639a8.767,8.767,0,0,0,1.127,4.249A47.5,47.5,0,0,0,184.186,111.594Zm24.765-17.88-9.095.718a1.732,1.732,0,0,1-1.912-1.842c.14-3.722.247-9.538-.036-16.112a1.766,1.766,0,0,1,1.64-1.846l7.969-.586a1.78,1.78,0,0,1,1.889,1.546,147.905,147.905,0,0,1,1.18,16.317A1.772,1.772,0,0,1,208.951,93.714ZM248.3,86.847a7.232,7.232,0,0,1-7.6,5.608l-23.133-1.612c-.032-1.17-.073-2.286-.121-3.356a55.473,55.473,0,0,0,14.072-3.165,3.5,3.5,0,0,0-2.547-6.519,48.238,48.238,0,0,1-11.98,2.689c-.277-2.827-.408-4.617-.788-6.652l19.378-13.154a7.991,7.991,0,0,1,7.145-.951C250.826,62.323,249.947,79.109,248.3,86.847Zm17.176-38.74a.289.289,0,0,1,.225.206l4.1,11.948a8.369,8.369,0,0,1-2.275,8.994,109.361,109.361,0,0,1-11.131,8.552c-.036-6.73-.567-13.488-4.043-19.112C258.238,54.725,262.277,50.587,265.471,48.107ZM248.587,16.4A185.248,185.248,0,0,1,259.8,43.627a104.018,104.018,0,0,1-12.889,10.317c-10.432-5.288-17.623,2.992-25.768,8.074a11.736,11.736,0,0,0-6.714-6.263l-13.369-4.816C226.766,39.811,242.191,24.025,248.587,16.4Zm-6.947-2.733a127.071,127.071,0,0,1-50.508,33.7l-85.2-30.7ZM88.722,24.8l1.085-6.5L212.06,62.341a4.734,4.734,0,0,1,3.058,3.769l-3.1,2.1A8.654,8.654,0,0,0,207,67.065c-3.315.436-10.2-.044-12.78,2.453A92.65,92.65,0,0,0,170.505,55.2c-7.014-3.291-15.973.9-18.145,8.225C121.944,56.056,98,39.85,87.244,31.591,87.85,29.333,88.346,27.058,88.722,24.8Z" style="fill:#3f3f70"/></svg>