<svg id="icons" xmlns="http://www.w3.org/2000/svg" viewBox="0 0 340 340"><path d="M14.281,295.011S12.7,308.836,17.325,320.96A14.839,14.839,0,0,0,31.23,330.4H93.384a12.165,12.165,0,0,0,11.176-7.382c14.152-35.306,66.191-34.6,78.723,1.569a7.626,7.626,0,0,0,7.337,5.813h56.762s48.729-.858,74.021-27.251a16.758,16.758,0,0,0,4.582-11.612V277.782L25.835,282.72Z" style="fill:#7b8bba"/><path d="M30.615,9.6c23.251.612,76.824.059,110.187,1.1a9.824,9.824,0,0,1,10.057,9.758c.122,16.87.064,50.828-.316,79.745,0,0-3.68,54.2,36.707,83.7,12.364,9.031,28.316,13.325,43.579,14.534,26.217,2.076,93.476,12.027,95.156,59.5-.064,6.591-.449,13.586,0,19.841-13.42,11.619-59.055,33.252-94.8,30.8-16.538-.318-41.765-1.574-65.753-5.82-10.853-3.086-21.223-4.954-30.862-4.979-27.628-3.485-78-8.152-120.135-2.8.494-14.246,1.356-26.379,5.035-41.707a170.251,170.251,0,0,0,4.242-49.427c-1.667-25.958-3.6-65.433-2.649-98.374,0,0-.016-33.023-1.883-84.182A11.2,11.2,0,0,1,30.615,9.6Z" style="fill:#bac9e8"/><path d="M79.546,277.483c-30.621-10.494-46.914-35.867-55.566-58.829.153,19-7.007,41.693-8.7,59.395l-1,16.962c20.975-2.666,44.007-2.85,65.265-1.934Z" style="fill:#7b8bba"/><path d="M151.6,100.262c.38-28.918.206-63.936.084-80.805A9.823,9.823,0,0,0,141.625,9.7c-7.569.174-15.945.283-24.659.345-2.345,22.145-9.464,122.989,20.565,161.184,15.988,24.129,54.547,50.965,93.3,27.214C163.957,193.369,149.163,123.873,151.6,100.262Z" style="fill:#7b8bba"/><path d="M292.637,279.752c-48.795,23.249-122.506,8.541-122.506,8.541A609.394,609.394,0,0,0,15.286,278.049a151.461,151.461,0,0,0-1,16.962c143.6-16.418,212.245,50.831,311.7-17.229V261.433A348.825,348.825,0,0,1,292.637,279.752Z" style="fill:#fff"/><path d="M14.054,322.207A18.415,18.415,0,0,0,31.231,333.9H93.384a15.661,15.661,0,0,0,14.392-9.5,38.357,38.357,0,0,1,26.956-23.038c16.5,2.1,17.861,2.5,29.432,4.729a37.189,37.189,0,0,1,15.819,19.662A11.078,11.078,0,0,0,190.62,333.9c38.5-2.416,89.988,10.666,133.311-28.327a20.165,20.165,0,0,0,5.554-14.035c.052-7.358-.038-22.683,0-30.106,2.13-51.9-68.547-64.5-98.38-66.48A79.263,79.263,0,0,1,190.5,180.245c-44.6-36.489-33.726-81.548-35.214-101.319.1-19.981.024-40.133-.063-53.968.109-5.506.235-11.093-4.084-15-3.311-3.391-8.016-4.089-12.565-3.693q-5.712.115-11.442.182c-34.331.419-77.7-.083-96.464-.345A14.7,14.7,0,0,0,15.688,21.429c3.548,98.644-.4,108.538,4.537,182.651a166.806,166.806,0,0,1-4.159,48.412,193.263,193.263,0,0,0-5.287,42.355C10.581,296.812,9.457,310.151,14.054,322.207Zm8.83-68.131a181.251,181.251,0,0,0,3.6-21c8.983,17.8,21.219,31.464,36.148,40.391-18.413-.319-33.35.226-43.37.82A204.265,204.265,0,0,1,22.884,254.076Zm299.6,21.973c-14.885,11.982-57.059,30.636-88.331,29.066-22.013-.157-53.75-2.337-78.972-7.919-36.33-5.759-93.339-11.08-137.334-6.134.082-2.336.26-5.656.635-9.715a608.253,608.253,0,0,1,150.963,10.378c3.058.61,75.416,14.667,124.7-8.813,9.216-4.391,18.727-9.511,28.343-15.255ZM104.353,315.691c-2.875,4.824-4.045,11.248-10.969,11.21H31.231A11.377,11.377,0,0,1,20.6,319.713c-3.081-8.079-3.193-17.146-3.016-21.575,34.657-4,74.781-1.392,102.629,1.545A44.9,44.9,0,0,0,104.353,315.691Zm214.524-14.962C278.064,337.108,227.166,324.54,190.62,326.9a4.223,4.223,0,0,1-4.036-3.481,44.922,44.922,0,0,0-9-15.231,466.662,466.662,0,0,0,56.515,3.925c30.811,1.107,69.315-14.138,88.383-27.506C322.5,290.035,323.191,296.667,318.877,300.729Zm-99.62-100.4a53.827,53.827,0,0,1-30.224,2.7,47.165,47.165,0,0,0,7.528-10.784A87.338,87.338,0,0,0,219.257,200.326ZM186.367,185.9c1.346.982,2.731,1.91,4.131,2.813a40.519,40.519,0,0,1-9.346,12.225,77.919,77.919,0,0,1-25.025-14.328c5.084-2.3,12.752-6.261,18.274-11.269A86.218,86.218,0,0,0,186.367,185.9ZM128.01,13.436c3.587-.046,7.148-.1,10.714-.174,2.656-.093,5.542-.376,7.537,1.719a6.294,6.294,0,0,1,1.921,4.5c.043,5.891.089,13.565.118,22.22a183.553,183.553,0,0,1-29.788-.053c.442-13.033,1.209-23.107,1.647-28.13C122.877,13.5,125.42,13.468,128.01,13.436Zm-9.7,35.226a189.942,189.942,0,0,0,30,.061c.019,9.009.016,18.074-.022,27.258a103.664,103.664,0,0,1-29.93-.047C118.1,66.212,118.13,56.976,118.314,48.662Zm36.067,92.987c-7.03,2.95-18.743,4.832-25.274,5.617a125.827,125.827,0,0,1-7.535-30.276,119.39,119.39,0,0,0,27.022-1.831A117.768,117.768,0,0,0,154.381,141.649Zm2.507,6.53a93.176,93.176,0,0,0,12.934,21.872c-5.843,5.386-15.2,9.646-19.346,11.375-8.4-8.375-13.658-17.066-18.535-27.466C138.207,153.131,149.244,151.327,156.888,148.179ZM24.871,15.412a7.677,7.677,0,0,1,5.7-2.312c16.3.229,51.142.636,82.564.466-.481,5.635-1.278,16.489-1.691,30.348a3.165,3.165,0,0,0-.048,1.616c-.458,15.715-.228,35.541,1.076,52.6a3.5,3.5,0,1,0,6.98-.52c-.365-4.909-.638-9.776-.836-14.557,7.593,1.139,20.376,1.53,29.649.02.052,8.91-.357,15.993-.171,25.044-13.2,2.938-30.073,1.692-30.252,1.68a3.526,3.526,0,0,0-3.745,3.913c2.158,21.134,8.788,41.856,20.521,59.456,20.765,31.325,62.846,50.162,97.038,28.86,30.1,1.816,92.277,15.751,90.834,57.448a343.684,343.684,0,0,1-31.354,17.123c-47.16,22.472-119.588,8.414-120.313,8.268a604.55,604.55,0,0,0-90.569-10.844C56.228,265.632,38.484,246.8,27.5,218.036c-.681-34.211-4.374-73.323-2.926-112.555,0-.331-.039-33.672-1.886-84.308A7.745,7.745,0,0,1,24.871,15.412Z" style="fill:#3f3f70"/></svg>