<svg id="icons" xmlns="http://www.w3.org/2000/svg" viewBox="0 0 340 340"><path d="M72.58,20.563S125.323,2.337,259.35,13.8c2.567,3.707-3.34,12.454-6.3,19.449C253.05,33.253,112.685,66.273,72.58,20.563Z" style="fill:#7b8bba"/><path d="M72.58,20.563s5.336,13.875,98.9,9.961S259.35,13.8,259.35,13.8l7.136,24.5c2.554,42.612,1.233,105.259,8.391,188.26a42.206,42.206,0,0,1-2.9,20.045,23.905,23.905,0,0,0,2.8,23.031c1.157,1.6,2.435,3.318,3.834,5.117a16.91,16.91,0,0,1,.986,19.5,33.473,33.473,0,0,1-4.363,5.345.708.708,0,0,0,.227,1.138,12.3,12.3,0,0,1-3.379,21.669c-7.592,2.5-19.367,4.175-36.119.857a12.218,12.218,0,0,1-9.659-13.334A15.053,15.053,0,0,0,220,297.072c-7.8-5.03-13.442-11.919-8.727-21.454a18.417,18.417,0,0,0-.511-19.6c-4.182-5.448-9.453-10.02-11.391-16.906-6.838-20.728-23.176-72.336-28.782-108.4a6.56,6.56,0,0,0-7.265-5.508c-4.052.427-8.413.486-9.792,5.2a720.7,720.7,0,0,0-18.911,85.5,46.958,46.958,0,0,0,3.1,25.746c3.152,7.279,5.169,17.86-2.574,27.607a13.452,13.452,0,0,0-.661,15.353c3.282,5.4,5.546,12.975.962,21.276a44.518,44.518,0,0,0-2.98,6.914l-2.378,6.838a15.427,15.427,0,0,1-14.507,10.375c-10.28-.1-47.514-1.388-42.6-20.352a20.142,20.142,0,0,1,2.14-4.73,12.886,12.886,0,0,0-.131-13.446,57.945,57.945,0,0,1-7.051-24.194,21.386,21.386,0,0,0-3-9.622,26.752,26.752,0,0,1-4.251-12.47C57.918,218.568,52.535,95.477,72.58,20.563Z" style="fill:#bac9e8"/><path d="M72.58,20.563c-1.5,8.17-3,16.165-4.564,20.287A553.3,553.3,0,0,0,59.6,109.444c35.535-.833,38.012-51.417,36.442-80.767C74.5,25.525,72.58,20.563,72.58,20.563Z" style="fill:#7b8bba"/><path d="M268.3,102.04c-1.387-29.615.181-44.532-1.814-63.738L259.35,13.8s2.524,5.7-23.58,10.658C235.719,53.8,239.991,101.557,268.3,102.04Z" style="fill:#7b8bba"/><path d="M259.35,13.8s5.692,12.807-87.871,16.72-98.9-9.961-98.9-9.961c-1.7,6.567-3.211,13.352-4.562,20.287C89.361,45.746,172.58,61.7,266.484,38.3,264.183,15.244,259.35,13.8,259.35,13.8Z" style="fill:#fff"/><path d="M269.969,38.2c-1.971-20.384-6.086-26.689-9.613-27.746C126.2-.8,73.265,15.454,69.73,18.545,48.148,95.972,54.7,213.875,57.191,245.474a29.83,29.83,0,0,0,4.142,13,18.646,18.646,0,0,1,3.108,9.042,61.858,61.858,0,0,0,7.477,25.655,9.424,9.424,0,0,1,.217,9.926c-15.1,26.193,27.265,30.737,43.007,30.416a18.967,18.967,0,0,0,18.244-12.726c1.384-3.766,3.289-10.14,5.117-13.209,4.369-7.912,4.011-16.482-1.035-24.786a9.989,9.989,0,0,1,.411-11.359c8.85-11.139,6.54-23.1,3.045-31.174a43.389,43.389,0,0,1-2.848-23.826,712.663,712.663,0,0,1,18.813-85.061,3.059,3.059,0,0,1,2.585-2.19l4.259-.507a3.051,3.051,0,0,1,3.392,2.57c5.651,36.352,22.1,88.31,28.916,108.962a36.366,36.366,0,0,0,8.914,14.219,25.827,25.827,0,0,1,2.916,3.57,14.877,14.877,0,0,1,.322,15.946,17.484,17.484,0,0,0,4,21.489c5.288,4.507,11.388,6.968,10.575,15.379A15.524,15.524,0,0,0,235.284,326.7c14.5,2.874,27.248,2.546,37.9-.967,10.823-3.284,14.551-17.883,6.577-25.871,9.588-10.937,6.823-22.032-2.141-32.272a20.283,20.283,0,0,1-2.4-19.655,45.864,45.864,0,0,0,3.147-21.693C271.545,145.889,272.326,82.366,269.969,38.2Zm-6.6,4.447c1.434,16.991.152,30.336,1.3,55.476-16.411-3.5-22.4-28.423-24.429-50.668C248.025,46.065,255.771,44.455,263.366,42.645ZM251.311,16.658c-14.65,9.568-147.222,16.2-169.972,5.207C99.743,17.646,152.578,8.877,251.311,16.658Zm20.08,210.226a38.85,38.85,0,0,1-2.655,18.4c-4.833,11.153-.688,22.92,7.114,31.622a13.374,13.374,0,0,1,.809,15.453c-1.214,2.68-5.32,4.7-5.111,8.1a4.17,4.17,0,0,0,1.873,3.125,8.614,8.614,0,0,1,3.553,8.44c-1.033,10.762-23.992,10.945-40.33,7.81a8.713,8.713,0,0,1-6.84-9.775c.152-10.6-5.677-14.2-13.044-19.931a10.446,10.446,0,0,1-2.3-13.05,21.788,21.788,0,0,0-.816-23.039c-3.936-5.29-9.285-9.783-10.954-16.022-6.758-20.487-23.077-72.007-28.648-107.843a10.031,10.031,0,0,0-11.136-8.447c-5.8.42-10.789,1.449-12.742,7.708a719.767,719.767,0,0,0-19.008,85.944,50.387,50.387,0,0,0,3.344,27.664c3.978,9.188,3.271,17.276-2.1,24.039a17.009,17.009,0,0,0-.912,19.348c6.431,10.866,1.333,15.291-2.333,25.223l-2.378,6.838a11.943,11.943,0,0,1-11.212,8.025c-8.1.021-43.161-1.4-39.237-15.839a16.754,16.754,0,0,1,1.771-3.91,16.376,16.376,0,0,0-.045-16.966,54.811,54.811,0,0,1-6.626-22.732,24.99,24.99,0,0,0-3.493-11.2,23.4,23.4,0,0,1-3.762-10.932c-1.6-20.858-4.867-74.927-1.33-132.2,14.614-1.553,31.548-12.169,35.965-51.048a3.5,3.5,0,0,0-6.955-.79c-3.107,27.345-12.7,42.357-28.537,44.718a548.3,548.3,0,0,1,7.459-60.57,442.976,442.976,0,0,0,79.559,8.995c-.163,6.562-.419,21.2.1,34.508.261,4.6,7.1,4.325,7-.273-.513-13.159-.257-27.665-.1-34.107,5.278.066,10.461.021,15.83-.106.353,8.269,1.644,30.916,5.768,51.807a3.5,3.5,0,1,0,6.867-1.355c-4.025-20.391-5.291-42.549-5.638-50.666,13.754-.523,28.255-1.678,43.287-3.736a3.5,3.5,0,0,0-.949-6.936c-70.562,9.66-129.54-.517-150.375-5,.8-3.9,1.651-7.778,2.567-11.6,10.171,8.151,78.439,10.41,128.6,5.523,16.654-1.713,43.054-3.455,56.092-12,1.031,2.682,2.317,7.406,3.292,15.535-8.766,2.111-17.76,3.955-26.78,5.489a3.657,3.657,0,0,0-1.946,1.053,3.6,3.6,0,0,0-.958,2.664c3.492,45.866,18.624,58.556,31.931,60.441C266.115,138.431,268.447,194.961,271.391,226.884Z" style="fill:#3f3f70"/></svg>