<svg id="icons" xmlns="http://www.w3.org/2000/svg" viewBox="0 0 340 340"><path d="M142.453,11.811s28.661,51.12,93.246,10.253v31.99l-71.32,62.838-35.3-5.92S122.136,44.244,142.453,11.811Z" style="fill:#7b8bba"/><path d="M142.453,11.811s5.97,30.073,21.284,73.125a4.485,4.485,0,0,0,6.958,2.052c11.962-9.2,43.291-34.7,65-64.924a307.034,307.034,0,0,1,41.865,28.258,42.6,42.6,0,0,1,12.025,15.2l30.68,65.328-54.023,40.959-11.254-25.418-35.37,170.953S122.088,357,41.7,284.656c0,0,27.867-111.468,36.442-157.555L56.709,139.427,19.731,87.444,80.14,27.958A38.329,38.329,0,0,1,98.407,17.913C109.627,15.321,127.575,11.811,142.453,11.811Z" style="fill:#bac9e8"/><path d="M323.437,129.364,292.756,64.036a46.337,46.337,0,0,0-13.011-16.452c-23.581-18.521-41.1-28.191-43.434-28.955a3.6,3.6,0,0,0-2.482.478c-21.147,13.379-40.424,18.019-57.3,13.789C153.568,26.759,146.666,10.168,144.1,8.729,129,7.325,110.246,11.947,97.619,14.5A41.823,41.823,0,0,0,77.684,25.464L17.275,84.951a3.5,3.5,0,0,0-.4,4.522l36.978,51.983a3.5,3.5,0,0,0,4.6,1.005l8.936-5.139c3.988-2.419.493-8.269-3.49-6.068l-6.182,3.555L24.312,87.846,82.6,30.452a34.819,34.819,0,0,1,16.6-9.129c11.1-2.564,26.807-5.588,40.436-5.972a627.389,627.389,0,0,0,22.884,76.51A3.5,3.5,0,0,0,164.77,94c3.563,1.478,42.683-29.624,71.928-67.372a319.255,319.255,0,0,1,38.685,26.427A39.309,39.309,0,0,1,286.42,67.011L315.9,129.775l-48.24,36.575-9.464-21.373a3.5,3.5,0,0,0-6.628.708l-34.978,169.06c-46.3,15.748-115.759,17.6-170.974-31.3,4.758-18.885,30.4-122.874,38.084-166.753.818-4.457-5.941-5.867-6.875-1.313,0,.017-2.113,11.065-2.118,11.08-8.456,45.455-36.117,156.232-36.4,157.346a3.5,3.5,0,0,0,1.054,3.45c54,51.792,138.446,51.046,181.579,33.329a3.5,3.5,0,0,0,2.109-2.531l33.159-160.268,6.836,15.441a3.524,3.524,0,0,0,5.315,1.372l54.023-40.959A3.5,3.5,0,0,0,323.437,129.364ZM167.487,85.028c-9.074-25.361-14.939-46.418-18.236-59.484,19.1,18.616,47.9,20.139,73.241,7.743C201.706,57.979,176.779,77.929,167.487,85.028Z" style="fill:#3f3f70"/></svg>