<svg id="icons" xmlns="http://www.w3.org/2000/svg" viewBox="0 0 340 340"><path d="M156.927,72.136s-10.612-11.893-25.713-15.7c0,0-29.794,18.078-4.489,59.944A595.718,595.718,0,0,0,117.8,227.943c.8,27.495-5.311,48.421-5.737,77.645-.2,10.587,9.334,18.95,19.728,16.925a17.135,17.135,0,0,1,14.561,2.919c5.242,3.872,13.993,7.173,25.94.933a17.016,17.016,0,0,1,11.152-1.536c5.372,1.047,13.829.972,22.227-6.116a16.553,16.553,0,0,1,5.915-3.214c5.279-1.584,15.271-6.608,16.32-22.046a16.472,16.472,0,0,0-1.532-8.067c-4.945-10.606-19.792-46.268-18.429-89.554,0,0,2.041-54.236-13.877-76.12,0,0,10.182-11.473,11.667-34.418a10.127,10.127,0,0,0-4.91-9.372c-4.946-2.928-12.571-9.037-18.558-20.952C182.266,54.97,168.763,57.864,156.927,72.136Z" style="fill:#bac9e8"/><path d="M115.878,321.611a19.846,19.846,0,0,0,17.455,4.155,13.518,13.518,0,0,1,10.939,2.481,25.079,25.079,0,0,0,15.114,5.068,31.4,31.4,0,0,0,14.525-3.848,13.575,13.575,0,0,1,8.862-1.2c6.305,1.228,15.785,1.032,25.154-6.877a12.983,12.983,0,0,1,4.664-2.536c5.247-1.575,17.583-7.178,18.807-25.161a20.015,20.015,0,0,0-1.854-9.783c-4.586-9.839-19.446-45.26-18.1-87.944.083-2.194,1.786-52.455-13.073-76.131,3.147-4.519,9.669-15.942,10.857-34.312a13.551,13.551,0,0,0-6.619-12.612c-4.7-2.781-11.386-8.3-16.832-18.783.064-4.036.557-21.939,4.362-38.389a2.581,2.581,0,0,1,5.113.455c.383,13.571.334,27.069-.144,40.116a3.5,3.5,0,1,0,7,.257c.483-13.2.532-26.848.146-40.57a9.586,9.586,0,0,0-18.931-1.836c-3.6,15.566-4.352,31.926-4.509,38.184a55.379,55.379,0,0,0-22.047,14.69c-3.972-3.679-11.93-10.055-22.192-13.275-.277-5.884-.7-21.547,1.622-36.124a2.783,2.783,0,0,1,5.522.2,183.061,183.061,0,0,1,.67,28.32,3.5,3.5,0,1,0,6.989.382,190.083,190.083,0,0,0-.694-29.4,9.787,9.787,0,0,0-19.4-.6c-2.542,15.946-1.971,32.608-1.673,38.213-6.385,5.049-26.471,24.968-4.563,62.294A610.919,610.919,0,0,0,114.3,228a256.458,256.458,0,0,1-2.614,39.786,315.476,315.476,0,0,0-3.123,37.735A20.414,20.414,0,0,0,115.878,321.611Zm2.739-52.848a263.674,263.674,0,0,0,2.681-40.876,606.169,606.169,0,0,1,8.387-108.243,345.033,345.033,0,0,1,35.892-.855c4.608.11,4.816-6.785.225-7a352.021,352.021,0,0,0-37.162.913C109.886,80.027,127,63.929,131.864,60.244c12.973,3.846,22.256,14.006,22.452,14.224a3.523,3.523,0,0,0,5.305-.1,50.082,50.082,0,0,1,20.909-15.2c6.033,10.8,13.3,16.684,18.511,19.766a6.582,6.582,0,0,1,3.2,6.135c-1.378,21.307-10.706,32.223-10.791,32.32a3.5,3.5,0,0,0-.212,4.382c15.018,20.649,13.23,73.4,13.209,73.952-1.393,44.252,14,80.95,18.754,91.144a12.992,12.992,0,0,1,1.213,6.35c-.892,13.128-9.051,17.5-13.834,18.931a19.954,19.954,0,0,0-7.167,3.891c-9.212,7.478-15.459,5.741-22.974,4.973V300.727a3.5,3.5,0,0,0-7,0v21.367c-9.1,4.573-17.356,6.389-25.007.522a21.171,21.171,0,0,0-8.631-3.782,391.139,391.139,0,0,1,.164-43.4c.18-4.593-6.666-4.982-6.989-.388a398.521,398.521,0,0,0-.19,43.7c-8.392,2.757-17.64-4.228-17.224-13.088A308.31,308.31,0,0,1,118.617,268.763Z" style="fill:#3f3f70"/><path d="M180.535,119.723c4.956.345,5.68-6.411.58-6.977h0A3.5,3.5,0,1,0,180.535,119.723Z" style="fill:#3f3f70"/><path d="M137.7,258.214c4.722.03,4.722-8,0-7.973C132.981,250.21,132.981,258.245,137.7,258.214Z" style="fill:#3f3f70"/></svg>