<svg id="icons" xmlns="http://www.w3.org/2000/svg" viewBox="0 0 340 340"><path d="M193.8,11.126s21.028,34.512,70.451,18.781l-40.561,77.085L185.848,94.721S184.994,44.572,193.8,11.126Z" style="fill:#7b8bba"/><path d="M311.151,85.42a13.614,13.614,0,0,0-4.565-8.693L263.131,38.7,203.7,92.284l-9.744-74.23c-18.336,5.706-47.79,11.849-59.83,14.9a13.615,13.615,0,0,0-8.834,7.115c-2.357,4.044-50.277,110.574-52.742,110.193L10.585,229.536l29.993,33.017,60.279-66.093c-4.831,16.3-14.319,55.98-21.224,70.962l-6.545,15.346C95.36,301.5,136.74,319.605,153.793,300.61c0,0,0,.007.008.027a22.082,22.082,0,0,0,14.858,16.8c22.129,7.025,51.16,9.845,82.224,11.426-.371-57.485,20.206-140.17,21.958-147.1L283.4,210.2a70.567,70.567,0,0,1,4.39,26.424l-2.231,84.659,43.855,2.422V226.114C327.964,193.166,312.171,100.172,311.151,85.42Z" style="fill:#bac9e8"/><path d="M193.8,11.126l7.242,60.926s-10.829-2.03-25.593,8.371a2.767,2.767,0,0,1-4.354-2.111c-.559-10.267-1.264-34,2.461-54.686a9.487,9.487,0,0,1,5.971-7.33Z" style="fill:#fff"/><path d="M218.781,78.69a44.664,44.664,0,0,1,19.155,20.979,2.77,2.77,0,0,0,4.906.333l29.073-47.918a11.024,11.024,0,0,0-.466-12.142l-7.194-10.035Z" style="fill:#fff"/><path d="M225.439,135.65l37.089,10.7-7.821,28.928a8.279,8.279,0,0,1-5.374,5.693l-12.621,4.207a8.278,8.278,0,0,1-8.89-2.451l-8.3-9.635a8.278,8.278,0,0,1-1.748-7.454Z" style="fill:#fff"/><path d="M37.987,264.906a3.522,3.522,0,0,0,5.177,0l50.437-55.3C89.367,224.6,82.665,252.134,76.414,266.05L69.869,281.4a3.5,3.5,0,0,0,.912,4c19.856,16.773,44.3,26.293,61.99,26.729,3.357-.165,9.353.572,9-4.3a3.5,3.5,0,0,0-3.922-3.019c-17.689,1.39-38.6-6.359-60.533-23.037L82.852,268.8c6.832-14.685,16.633-55.329,21.376-71.39.945-3.708,25.1-86.689,24.518-87.137l6.236-30.894c.836-4.471-5.857-5.921-6.861-1.385l-6.236,30.894c-.021,2.537-23,81.285-24.167,85.826L40.583,257.353,15.16,229.366l12.064-15.433L45.45,232.77a3.5,3.5,0,1,0,5.03-4.867l-18.9-19.538L75.309,152.42C78.86,150.969,125.4,46.984,128.424,41.638a10.116,10.116,0,0,1,6.565-5.289c3.611-.916,8.829-2.118,14.872-3.511,6.02-1.387,12.681-2.923,19.4-4.551-3.757,26.091-1.418,54.239-1.309,55.5a3.523,3.523,0,0,0,5.715,2.4c11.144-9.2,20.148-10.684,24.285-10.8l2.186,16.651c-2.709,9.827-34.191,124.646-49.769,207.9.7,9.718,8.3,17.961,17.229,20.835,24.459,7.764,57.261,10.27,83.106,11.586a3.523,3.523,0,0,0,3.677-3.518c-.365-56.545,19.508-136.948,21.838-146.172.2-.732,7.391-26.418,14.456-43.779,1.633-4.178-4.624-6.953-6.483-2.638-7.319,17.993-14.416,43.466-14.746,44.651-2.249,8.9-21.586,87.036-22.061,144.272-24.8-1.346-55.1-3.91-77.669-11.074a18.6,18.6,0,0,1-12.34-13.542C172.8,218.439,203.6,105.852,206.805,94.2l14.319-12.911c.167-.121,42.593-45.691,42.777-45.869l4.7,6.561a7.515,7.515,0,0,1,.318,8.288L240.567,97a47.92,47.92,0,0,0-8.378-12.229c-3.2-3.3-8.2,1.377-5.1,4.789a40.616,40.616,0,0,1,9.421,16.348,3.5,3.5,0,0,0,6.347.819c.087-.3,32.075-52.73,32.146-52.992l29.283,25.623a10.1,10.1,0,0,1,3.393,6.459c.74,12.918,16.368,104.492,18.243,140.294l0,93.887-36.767-2.03.544-20.629h26.03a3.5,3.5,0,0,0,0-7H289.877l1.413-53.631a73.734,73.734,0,0,0-4.608-27.735l-3.263-8.786c-1.653-4.266-8.1-1.92-6.562,2.438l3.263,8.785a66.756,66.756,0,0,1,4.172,25.113l-2.231,84.66a3.5,3.5,0,0,0,3.306,3.586l43.855,2.423a3.524,3.524,0,0,0,3.693-3.5V226.114c-1.2-31.787-17.151-125.316-18.285-141.095a17.1,17.1,0,0,0-5.739-10.926L277.008,46.2a14.5,14.5,0,0,0-2.714-8.293L267.1,27.868a3.608,3.608,0,0,0-2.62-1.453c-47.265,15.1-66.487-15.742-68.993-18.343a3.548,3.548,0,0,0-2.876-.237l-14.272,5.17a12.849,12.849,0,0,0-7.574,7.709c-7.734,1.905-15.532,3.7-22.476,5.3-11.267,3.15-20.719,2.225-26.167,12.576-2.071,3.3-50.469,111.058-52.326,109.514L7.828,227.38a3.5,3.5,0,0,0,.166,4.509ZM208.734,29.439c9.739,6.469,29.715,10.2,44.9,6.727-6.935,7.279-40,43.787-47.33,49.059C205,76.34,199.8,31.8,198.617,21.965A58.088,58.088,0,0,0,208.734,29.439ZM177,24.247a6.006,6.006,0,0,1,3.719-4.661l10.126-3.668,6.244,52.525c-4.782.266-12.9,1.856-22.562,8.366C174,66.07,173.508,43.661,177,24.247Z" style="fill:#3f3f70"/><path d="M225.17,185.009a11.75,11.75,0,0,0,12.649,3.488l12.621-4.207a11.755,11.755,0,0,0,7.646-8.1l7.821-28.927a3.5,3.5,0,0,0-2.409-4.277l-37.089-10.7a3.52,3.52,0,0,0-4.361,2.5l-7.666,29.987a11.788,11.788,0,0,0,2.488,10.6ZM221.164,166.5l6.772-26.49,30.315,8.744-6.923,25.6a4.768,4.768,0,0,1-3.1,3.287l-12.62,4.207a4.761,4.761,0,0,1-5.132-1.415l-8.3-9.635A4.783,4.783,0,0,1,221.164,166.5Z" style="fill:#3f3f70"/><path d="M216.317,104.27c3.694-.68,3.7-6.19,0-6.86C210.811,96.63,210.826,105.048,216.317,104.27Z" style="fill:#3f3f70"/><path d="M205.627,150.31c-2.63-3.7-8.319.006-5.82,3.89C202.422,157.97,208.118,154.175,205.627,150.31Z" style="fill:#3f3f70"/><path d="M191.737,208.03c-2.952-4.1-8.836.723-5.39,4.42A3.507,3.507,0,0,0,191.737,208.03Z" style="fill:#3f3f70"/><path d="M175.146,268.46c-4.073.789-3.469,6.955.681,6.93C180.883,275.237,180.128,267.639,175.146,268.46Z" style="fill:#3f3f70"/></svg>