<svg id="icons" xmlns="http://www.w3.org/2000/svg" viewBox="0 0 340 340"><path d="M113.823,218.16s3.7,46.508-9.24,85.008a34.735,34.735,0,0,0-3.342,12.614A10.105,10.105,0,0,0,109.22,326.1c14.933,3.294,51.9,9,84.681-5.6a10.212,10.212,0,0,0,6.05-9.208c.224-18.138-1.427-71.957-26.068-120.234Z" style="fill:#bac9e8"/><path d="M104.442,303.454c38.791,18.267,79.305,5.373,95.445-1.288A301.861,301.861,0,0,0,197.062,268c-30.911,23.424-72.636,12.71-86.006,8.356A162.745,162.745,0,0,1,104.442,303.454Z" style="fill:#fff"/><path d="M100.3,187.04c2.778,6.245,4.733,11.822,3.39,19.125a22.156,22.156,0,0,0-.822,8.3,10.276,10.276,0,0,0,13.923,8.408c19.066-7.349,88.178-39.471,129.789-73.492,0,0,20.684-15.791,9.359-43.478-4.473-9.964-2.413-19.871-5.633-30.541-1.4-5.186-5.312-8.408-9.353-11.721a30.258,30.258,0,0,1-9.4-19.768C228.59,23.186,209.845,8.662,189,10.109c-11.9,1.388-24.209,2.906-36.209,1.206-9.261-1.12-20.967-1.028-29.21,4.331,0,0-29.012,12.408-25.43,54.586a17.631,17.631,0,0,1-3.131,11.6C91.858,87.54,79,92.248,81.078,115.415a37.384,37.384,0,0,0,5.387,14.258l21.416,34.358-3.824,4.386A19.011,19.011,0,0,0,100.3,187.04Z" style="fill:#bac9e8"/><path d="M146.893,25.935c9.432-.426,20.093,3.018,29.817,1.3a47.36,47.36,0,0,1,12.3-.023,23.185,23.185,0,0,1,19.307,17.45c2.072,8.524,1.276,20.6-11.678,33.158L156.863,115.97s-17.313-18.792-27.6-36.433C122.8,69.485,112.936,28.77,146.893,25.935Z" style="fill:#7b8bba"/><path d="M259.181,104.573c-6.59-16.189,1.154-31.65-15.86-43.517a26.9,26.9,0,0,1-8.305-17.684c-3.178-22.191-23.507-38.329-46.257-36.755C176.935,8,164.506,9.49,153.213,7.84c-25.394-4.4-61.9,10.959-58.548,62.689a14.143,14.143,0,0,1-2.508,9.3,22.5,22.5,0,0,1-2.822,3.333,36.389,36.389,0,0,0-11.72,32.766,40.669,40.669,0,0,0,5.88,15.6l20.045,32.16c-6.52,6.352-9.654,15.848-6.547,24.493h0c2.458,5.477,4.516,11.384,3.288,17.176a25.881,25.881,0,0,0-.89,9.489,13.837,13.837,0,0,0,13.676,12.225c4.188-.044,6.992-1.842,11.235-3.472a230.428,230.428,0,0,1,1.068,23.3,3.5,3.5,0,0,0,7,.14,245.928,245.928,0,0,0-1.31-26.371c5.012-2.221,10.829-4.9,17.2-7.964a129.768,129.768,0,0,1,2.976,24.269,101.1,101.1,0,0,0,2.061,17.883,8.576,8.576,0,0,0,16.956-2.043c-.509-3.728.626-12.55-4.949-11.8a3.5,3.5,0,0,0-2.841,4.053,55.331,55.331,0,0,1,.794,7.953,1.577,1.577,0,0,1-3.113.382,93.955,93.955,0,0,1-1.911-16.615,138.487,138.487,0,0,0-3.513-27.225c6.139-3.026,12.676-6.354,19.423-9.928,10.574,22.938,16.224,46.571,19.189,66.735-27.583,19.549-64.011,11.785-78.354,7.543a272.182,272.182,0,0,0,2.818-36.922,3.5,3.5,0,0,0-7-.071,261.4,261.4,0,0,1-3.182,38.826,171.774,171.774,0,0,1-6.262,26.045c-3.9,8.07-7.706,23.858,7.113,27.73,22.961,5.407,60.588,6.6,86.858-5.823a13.748,13.748,0,0,0,8.127-12.362c.238-19.3-1.593-68.539-23.129-115.011,23.584-12.788,48.97-28.287,68.477-44.237h0C250.365,150.822,270.982,133.422,259.181,104.573ZM113.827,280.865c15.324,4.408,51.453,11.647,80.506-6.718,1.041,8.607,1.706,17.213,1.986,25.681-16.228,6.343-52.46,16.817-87.538,1.742A179.648,179.648,0,0,0,113.827,280.865Zm82.624,30.382a6.733,6.733,0,0,1-3.974,6.054c-31.957,14.234-68.342,8.5-82.5,5.381-7.2-1.71-5.279-9.863-3.643-14.554,27.339,12.985,67.941,8.29,90.135-.869C196.472,308.7,196.466,310.036,196.451,311.247Zm48.008-164.653c-27.193,22.11-63.616,42.391-95.731,58.122-14.53,7.078-26.516,12.313-33.192,14.887a6.816,6.816,0,0,1-9.186-5.525,17.906,17.906,0,0,1,.3-5.328c10.178-4.115,62.278-25.836,94.505-51.827A9.064,9.064,0,0,0,190.974,142a88.873,88.873,0,0,0-17.142,12.85c-3.271,3.235,1.451,8.183,4.834,5.063a81.891,81.891,0,0,1,15.788-11.839,2.061,2.061,0,0,1,2.31,3.4c-28.323,22.844-73.956,42.934-89.206,49.323.138-5.166-1.845-9.985-3.946-14.9a15.531,15.531,0,0,1,3.083-15.185l3.671-4.21c22.883-19.939,47.585-46.559,49-48.084l39.715-38.088c14.39-13.955,14.817-27.55,12.642-36.5A26.857,26.857,0,0,0,189.5,23.748c-9.105-1.45-19.9,1.8-29.055-.333a68.3,68.3,0,0,0-13.628-.978C109.757,25.407,118.189,68.6,126.236,81.3A215.468,215.468,0,0,0,144.8,107.312c2.976,3.5,8.27-.819,5.417-4.434A208.622,208.622,0,0,1,132.308,77.82c-5.131-7.811-15.755-45.989,14.665-48.386,10.611-.293,19.565,3.055,30.173,1.275,12.112-1.943,24.548,1.994,27.77,14.783,2.537,10.432-1.067,20.464-10.7,29.8l-39.776,38.148c-.526.58-23.238,25.139-45.775,45.23L89.435,127.822a33.726,33.726,0,0,1-4.895-12.917C82.7,93.962,93.9,90.359,97.719,84.074c1.48,5.577,9.143,31.178,15.49,31.635a3.523,3.523,0,0,0,2.842-5.541c-9.189-12.809-14-38.112-14.42-40.368-3.048-47.772,30.9-58.787,50.741-55.01,11.742,1.686,24.58.3,36.872-1.19,19.125-1.326,36.181,12.187,38.843,30.768.306,2.547,1.345,26.566-31.953,56.35-3.414,3.081,1.135,8.244,4.624,5.254,20.584-18.123,28.909-35.083,32.254-46.54,9.952,14.509,14.58,7.309,16,30.195a52.406,52.406,0,0,0,3.695,17.6C262.83,131.983,245.2,146.016,244.459,146.594Z" style="fill:#3f3f70"/><path d="M179.431,113.6c-4.343,2.409-.574,8.677,3.574,6.034C187.262,117.217,183.562,110.971,179.431,113.6Z" style="fill:#3f3f70"/><path d="M154.581,301.37a3.53,3.53,0,0,0,2.48-5.98,3.629,3.629,0,0,0-4.95,0A3.528,3.528,0,0,0,154.581,301.37Z" style="fill:#3f3f70"/><path d="M131.731,300.729c5.041-.152,4.317-7.765-.68-6.929C126.972,294.573,127.589,300.753,131.731,300.729Z" style="fill:#3f3f70"/><path d="M173.141,295.379c2.407,5,9.4.333,5.71-3.809C176.24,288.867,171.642,291.937,173.141,295.379Z" style="fill:#3f3f70"/></svg>