<svg id="icons" xmlns="http://www.w3.org/2000/svg" viewBox="0 0 340 340"><path d="M159.634,10.558c.31,22.219,26.444,35.405,44.751,22.715a69.082,69.082,0,0,0,17.172-17.108l16.286,21.494s-5.664,63.159-5.947,64.292S120.3,120.142,120.3,120.142s-9.347-60.675-9.347-64.074S123.986,24.63,123.986,24.63Z" style="fill:#7b8bba"/><path d="M221.264,15.778a68.723,68.723,0,0,1-17.01,17.1c-18.3,12.71-43.848-.313-44.12-22.513l-17.39,6.864c4.8,13.765,15.71,31.055,40.436,35.011,19.61,3.138,35.112-10.381,46.125-25.846Z" style="fill:#cbcde5"/><path d="M159.347,10.394s-35.215,1.265-61.19,8.611a26.774,26.774,0,0,0-11.393,6.569l-56.6,55.082L21.552,91.505s18.466,26.373,37.037,47.265l11.025-5.036,10.818-6.529S61.3,220.772,44.477,277.964a15.831,15.831,0,0,0,4.754,16.4c18.271,15.957,70.363,50.51,160.487,27.741a15.878,15.878,0,0,0,11.633-12.091c5.314-24.994,20.194-95.33,33.573-161.914l5.612,11.411,7.26,9.17,50.519-35.333c-1.562-8.582-23.578-58.522-27.329-67.663a26.68,26.68,0,0,0-8.692-11.027c-11.028-8.167-35.272-25.553-60.381-38.541,0,0-1.064,35.144-22.024,52.743-16.416,13.784-42.343,4.9-46.317-16.166C151.72,42.87,152.661,28.918,159.347,10.394Z" style="fill:#bac9e8"/><path d="M234.667,23.138c-4.409-2.55-8.9-5.032-13.4-7.36,0,0-.68,34.744-21.64,52.343-16.416,13.784-41.323,5.158-45.3-15.906-1.853-9.823-.881-23.33,5.806-41.854,0,0-6.423.234-15.785,1.053-2.677,10.888-5.736,28.306-3.192,44.294,4.51,28.357,36.487,42.965,60.818,27.719C215.5,74.954,229.508,57.761,234.667,23.138Z" style="fill:#fff"/><path d="M19.3,91.224s20.118,28.63,38.69,49.523l11.622-7.013L30.161,80.656Z" style="fill:#fff"/><polygon points="266.531 171.699 320.698 135.717 314.09 120.142 260.536 159.509 266.531 171.699" style="fill:#fff"/><path d="M55.376,143.072a3.5,3.5,0,0,0,4.425.672l15.568-9.4c-4.982,23.713-20.481,95.824-34.25,142.629A19.386,19.386,0,0,0,46.929,297c31.119,29.43,98.158,47.059,163.646,28.5a19.492,19.492,0,0,0,14.2-14.754c5.4-25.373,18.867-89.086,31.55-151.865l7.066,14.369a3.525,3.525,0,0,0,5.078,1.371l54.167-35.982a3.5,3.5,0,0,0,1.285-4.282L294.208,64.316a30.224,30.224,0,0,0-9.831-12.473c-12.194-8.682-39.2-28.784-63.138-39.557a3.566,3.566,0,0,0-2.828,1.464,65.557,65.557,0,0,1-16.137,16.238C187.3,40.766,164.867,30.38,163.7,11.9c-.188-1.771.093-1.6-.325-2.849a3.569,3.569,0,0,0-3.457-2.183c1.65.357-61.884,1.355-75.6,16.2L16.861,88.715a3.5,3.5,0,0,0-.423,4.521C16.64,93.524,36.886,122.271,55.376,143.072Zm260.966-8.662-48.428,32.169-2.944-5.986,47.627-35.01ZM159.718,23.5c4.82,10.586,16.9,18.049,28.616,17.871C199.363,41.625,209,34.88,216.5,27a93.935,93.935,0,0,1-2.8,11.724c-17.31,16.368-41.724,11.732-56.246-3.322A90.458,90.458,0,0,1,159.718,23.5Zm22.91,32.193a39.513,39.513,0,0,0,26.191-4.944c-4.541,8.47-11.34,17.189-21.126,19.747-16.773,4.325-31.185-8.908-30.659-25.953A52.843,52.843,0,0,0,182.628,55.692Zm-35.461-41c3.132-.255,5.851-.441,7.981-.571-7.485,22.276-10.03,53.028,15.807,62.344,34.3,11.535,52.029-32.075,53.422-55.083,2.149,1.163,4.322,2.377,6.459,3.591-5.892,37.7-29.333,71.608-65.207,57.778a36.548,36.548,0,0,1-21.017-27.6C142.374,41.087,144.623,25.793,147.167,14.7ZM29.737,85.952l28.034,37.715a3.5,3.5,0,1,0,5.617-4.176L34.8,81.028,89.206,28.083a23.346,23.346,0,0,1,9.9-5.71c12.921-3.654,28.528-5.794,40.742-7.014C134.125,41,133.1,76.038,162.733,89.126c39.254,15.788,67.682-19.384,74.548-60.388,18.768,11.2,35.448,23.189,42.93,28.731a23.213,23.213,0,0,1,7.553,9.581l22.023,51.911-47.955,35.251-3.767-7.658a3.5,3.5,0,0,0-6.572.855c-13.239,65.887-27.884,135.153-33.566,161.875a12.452,12.452,0,0,1-9.067,9.425c-88.5,22.362-139.508-11.421-157.327-26.983a12.369,12.369,0,0,1-3.7-12.774c16.537-56.216,35.519-148.568,36.014-150.987l1.687-7a3.5,3.5,0,1,0-6.8-1.638l-1.358,5.641L58.687,136.24c-14.55-16.687-29.759-37.578-34.794-44.6Z" style="fill:#3f3f70"/></svg>