<svg id="icons" xmlns="http://www.w3.org/2000/svg" viewBox="0 0 340 340"><path d="M65.9,38.738S194.625,24.312,279.985,27.4l-3.416,17.553L166.607,90.018l-99.2-34.973Z" style="fill:#7b8bba"/><path d="M279.985,27.4,173.78,65.185v6.3L65.9,38.738C59.655,72.567,30.977,146.851,10.245,256.963a15.847,15.847,0,0,0,8.089,16.712c23.463,12.688,86.018,41.816,161.743,39.182,0,0,93.98,3.562,142.9-29.008a15.825,15.825,0,0,0,6.759-16.033c-4.235-23.068-15.566-82.585-26.56-121.272a372.921,372.921,0,0,1-8.618-37.731L285.023,54.27A172.169,172.169,0,0,0,279.985,27.4Z" style="fill:#bac9e8"/><path d="M118.564,54.723,112.208,79.6a6.4,6.4,0,0,0,3.858,7.544l7.284,2.87L133.3,59.2Z" style="fill:#bac9e8"/><path d="M232.3,83.639l7.987-3.478A6.405,6.405,0,0,0,244.008,73L237.747,42.43l-15.269,5.431Z" style="fill:#bac9e8"/><path d="M99.5,288.782c5.12,1.981,7.789-4.908,2.68-6.568C97.076,280.242,94.415,287.119,99.5,288.782Z" style="fill:#3f3f70"/><path d="M16.669,276.755c21.279,12.846,94.752,43.3,163.643,39.61,7.33.248,96.336,2.535,144.607-29.6a19.3,19.3,0,0,0,8.261-19.578c-3.826-21.111-9.548-49.946-15.105-74.984-5.75-28.3-15.141-55.54-20.067-83.99L288.494,53.8a174.3,174.3,0,0,0-5.14-27.344,3.571,3.571,0,0,0-1.581-2.044c-83.4-4.635-215.384,11.145-216.267,10.846a3.565,3.565,0,0,0-3.019,2.688c-6.437,29.28-7,27.034-20.525,73.871-14.487,51.09-25,91.337-34.089,138.66C5.085,260.865,6.46,271.085,16.669,276.755ZM326.3,268.448a12.3,12.3,0,0,1-5.255,12.487c-42.408,28.233-120.892,28.728-137.634,28.493l-.627-12.233c18.8-.028,101.005-1.982,142.662-33.372C325.749,265.482,326.035,267.032,326.3,268.448Zm-12.546-63.261c.726,3.378,1.457,6.834,2.188,10.337a166.918,166.918,0,0,1-42.882,18.885c-10.06,3.037-19.227,4.081-25.546-6.077C264.263,226.869,290.924,221.8,313.749,205.187Zm-20.434-84.264c2.5,12.646,6.106,24.992,9.451,37.431,3.4,13.026,6.453,26.138,9.345,39.295-22.759,17.732-50.48,22.6-66.856,23.844a501.231,501.231,0,0,1-10.271-72.037,10.453,10.453,0,0,1,8.475-10.987c13.139-2.45,32.02-7.487,49.818-17.721C293.289,120.807,293.3,120.864,293.315,120.923ZM281.219,51.8c-8.68,2.774-20.594,6.786-35.529,11.966l-3.9-19.062,35.79-12.732A175.4,175.4,0,0,1,281.219,51.8ZM260.837,30.5l-24.263,8.631h0l-.891.317L172.607,61.887a3.5,3.5,0,0,0-2.327,3.3v1.578L83.53,40.432C117.957,37.031,197.328,30,260.837,30.5ZM238.893,76.952l-4.284,1.865-7.9-28.748,8.412-2.992,5.453,26.629A2.919,2.919,0,0,1,238.893,76.952Zm-13.705-6.006c-20.272,7.151-39.18,13.965-47.557,16.994-.052-2.82-.422-17.827-.351-20.286L220.1,52.422Zm-96.311-9.435-7.712,23.883c-2.187-1.033-6.362-1.518-5.565-4.923l5.449-21.335C123,59.726,126.927,60.919,128.877,61.511ZM68.459,43.174,114.344,57.1l-4.087,16L64.6,59.811ZM47.538,117.846c72.853,35.053,63.724-8.286,45.9,94.016A149.546,149.546,0,0,1,28.192,190.5C34.576,164.47,41.5,139.044,47.538,117.846Zm-20.845,79.93a157.185,157.185,0,0,0,65.386,20.995A13.017,13.017,0,0,1,79.672,229.11c-15.32-2.2-34.151-8.152-55.081-22.46C25.259,203.786,25.956,200.846,26.693,197.776Zm-13,59.8c.06-.332.122-.668.182-1a335.292,335.292,0,0,0,67.784,27.59c4.43,1.193,6.342-5.378,1.933-6.729a325.633,325.633,0,0,1-68.376-28.123c2.172-11.436,4.692-23.329,7.42-35.329,21.9,14.162,40.3,20.044,56.769,22.132,11.682.169,20.448-9.567,20.573-21.215l12.883-65.968a17.538,17.538,0,0,0-13.5-20.38A210.673,210.673,0,0,1,49.5,111c6.2-21.528,11.194-37.8,13.257-44.433L108.6,79.911a9.916,9.916,0,0,0,6.183,10.494l7.283,2.869a3.523,3.523,0,0,0,4.614-2.181l8.895-27.549,34.759,10.55.353,16.6-30.126-8.769a3.5,3.5,0,0,0-1.956,6.72l32.238,9.385c.95,45.053,2.952,138.567,3.914,184.119.159,4.522,7.011,4.514,7-.149l-2.184-102.737c-.026-.454-.028-1.888-.05-2.362a17.157,17.157,0,0,1,9.859-15.883,24.592,24.592,0,0,0,14.1-22.178V100.2c-.071-4.546-6.912-4.646-7,0V138.84a17.566,17.566,0,0,1-10.067,15.841,24.08,24.08,0,0,0-7.248,5.24l-1.373-64.593c6.688-2.423,27.111-9.8,49.259-17.614l1.881,6.851a3.522,3.522,0,0,0,4.773,2.282l7.986-3.477c4.925-2.088,6.984-7.716,5.419-12.681,14.668-5.093,26.464-9.075,35.159-11.869.176.947,9.757,55.945,9.58,54.63-17.527,10.563-36.566,15.7-49.668,18.138A17.452,17.452,0,0,0,228,149.917a509.4,509.4,0,0,0,10.939,75.463,23.819,23.819,0,0,0,4.24,9.055c9,11.238,20.381,10.324,32.947,6.384,14.387-3.91,30.53-11.482,41.315-18.021,2.544,12.433,4.779,23.938,6.541,33.247-60.591,43.441-168.167,35.488-205.433,29.452a3.5,3.5,0,1,0-1.2,6.894A323.49,323.49,0,0,0,175.77,297.2l.628,12.26C103.13,311.042,42.788,282.92,20,270.6A12.334,12.334,0,0,1,13.691,257.577Z" style="fill:#3f3f70"/><path d="M186.76,74.907c1.39,3.5,6.774,2.427,6.74-1.33C193.18,68.033,184.947,69.653,186.76,74.907Z" style="fill:#3f3f70"/><path d="M96.72,146.847c-.054-4.559-6.962-4.566-7,0C89.8,151.447,96.626,151.437,96.72,146.847Z" style="fill:#3f3f70"/><path d="M248.02,154.3c4.591-.1,4.6-6.912,0-7.01C243.414,147.374,243.426,154.214,248.02,154.3Z" style="fill:#3f3f70"/></svg>