<svg id="icons" xmlns="http://www.w3.org/2000/svg" viewBox="0 0 340 340"><path d="M293.1,109.631a185.546,185.546,0,0,0-43.565-14.046c-48.283-8.65-81.268-6.359-81.268-6.359S135.285,86.935,87,95.585A167.452,167.452,0,0,0,44.409,109.1c-14.312,6.826-29.752,16.761-34.262,29.2l10.606,37.2s17.062-49.77,147.518-48.977c130.456-.793,147.517,48.977,147.517,48.977l13.974-37.292C321.083,125.008,309.466,117.147,293.1,109.631Z" style="fill:#7b8bba"/><path d="M329.762,138.207v46.739a17.14,17.14,0,0,1-7.59,14.281c-7.223,4.812-19.916,11.034-39.416,13.381h-50.12V184.591S316.4,176.5,329.762,138.207Z" style="fill:#bac9e8"/><path d="M317.4,214.579a25.353,25.353,0,0,1-29.8,24.941,244.927,244.927,0,0,0-42.423-3.473H144.318s-92.458.275-128.1-34.877a20.681,20.681,0,0,1-6.074-14.744V138.3s17.121,45.45,133.859,46.384c48.1,1.373,97.888-3.934,153.075,5.054A25.3,25.3,0,0,1,317.4,214.579Z" style="fill:#bac9e8"/><path d="M134.972,226.987c0-8.539,0-25.7,0-34.238a8.212,8.212,0,0,1,7.86-8.207c8.626-.365,24.152.14,45.582.14a16.528,16.528,0,0,0-16.55-16.01H139.329a24.107,24.107,0,0,0-24.107,24.107v34.179a24.107,24.107,0,0,0,24.107,24.107h33.483a15.583,15.583,0,0,0,15.6-15.018c-21.43,0-36.956-.488-45.582-.853A8.212,8.212,0,0,1,134.972,226.987Z" style="fill:#fff"/><path d="M145.187,217.31H135.44a7.442,7.442,0,1,1,0-14.884h9.747C155,202.674,155,217.062,145.187,217.31Z" style="fill:#fff"/><rect x="214.955" y="177.882" width="24.729" height="63.972" rx="6.126" style="fill:#bac9e8"/><path d="M16.321,147.392s-6.993-10.06,1.184-20.309c0,0-5.376,4.888-7.358,11.215v4.171Z" style="fill:#bac9e8"/><path d="M323.082,149.682s8.338-8.909-3.853-23.817c0,0,7.632,6.4,10.533,12.342v6.381Z" style="fill:#bac9e8"/><path d="M333.353,185.037v-46.7a3.288,3.288,0,0,0-.322-1.479C304.072,88.627,195.224,83.67,168.27,85.719c-3.328-.21-35.346-1.916-81.885,6.421a171.023,171.023,0,0,0-43.483,13.8c-19.835,9.46-31.958,19.935-36.034,31.132a4.1,4.1,0,0,0-.221,1.223v48.128c1.236,35.623,76.745,48.786,107.329,51.446a27.646,27.646,0,0,0,25.353,16.693h33.483a19.068,19.068,0,0,0,18.666-15.018h20.771a9.639,9.639,0,0,0,8.832,5.807h12.478a9.637,9.637,0,0,0,8.831-5.807c17.6-.491,33.8,1.966,49.66,3.864,19.434.3,33.919-19.914,27.27-38.226C327.27,201.4,333.536,194.251,333.353,185.037ZM45.916,112.261a164.017,164.017,0,0,1,41.7-13.231c48.043-8.522,79.493-6.3,80.892-6.313,22.159-1.746,127.511,1.728,157.415,46.042-11.351,27.253-63.364,37.95-83.683,41.126a9.627,9.627,0,0,0-8.684-5.5H221.081a9.642,9.642,0,0,0-9.179,6.731l-20.417-.049a19.946,19.946,0,0,0-19.621-15.893H139.329A27.63,27.63,0,0,0,114.92,179.9c-38.26-3.192-62.194-11.887-76.638-19.922C77.3,121.871,246.57,119.991,292.314,155.7c3.818,2.448,7.685-3.253,3.836-5.859-47.253-37.186-224.35-36-264.216,6.277-11.234-7.378-16.66-15.348-17.957-17.928C17.885,129.328,28.87,120.391,45.916,112.261ZM18.679,198.679a17.275,17.275,0,0,1-5.032-12.253v-36.72c10.773,12.17,37.271,31.526,98.756,37a27.553,27.553,0,0,0-.681,6.071c.076,1.367-.22,38.079.252,37.858C84.5,227.769,40.228,219.933,18.679,198.679Zm154.133,48.886H139.329a20.631,20.631,0,0,1-20.607-20.607v-34.18a20.631,20.631,0,0,1,20.607-20.607h32.535a12.983,12.983,0,0,1,12.38,8.875c-11.422.087-31.248-.321-41.56,0A11.682,11.682,0,0,0,131.5,192.01a3.5,3.5,0,0,0,6.987.437c.319-4.031,4-4.683,7.415-4.493l16.621.04c8.227-.023,16.708.418,26.762.065l22.175.053v44.435c-19.3.125-57.119-.148-68.474-.85a4.7,4.7,0,0,1-4.509-4.711V220.81h6.715a10.942,10.942,0,0,0,0-21.884H135.44c-12.111.163-15.076,16.7-3.968,21.128v6.932a11.677,11.677,0,0,0,10.5,11.64,3.481,3.481,0,0,0,2.35.921h39.918A12.1,12.1,0,0,1,172.812,247.565ZM135.44,213.81c-5.179-.092-5.183-7.792,0-7.884h9.747a3.942,3.942,0,0,1,0,7.884Zm98.119,24.544H221.081a2.63,2.63,0,0,1-2.626-2.626v-51.72a2.63,2.63,0,0,1,2.626-2.626h12.478a2.628,2.628,0,0,1,2.625,2.626v51.72A2.628,2.628,0,0,1,233.559,238.354Zm72.556-7.07a21.874,21.874,0,0,1-17.905,4.789,253.1,253.1,0,0,0-45.026-3.526V188.235c8.283.2,33.951,1.109,53.214,4.935a21.833,21.833,0,0,1,9.717,38.114Zm14.207-34.879c-1.288.858-2.657,1.685-4.078,2.482A28.716,28.716,0,0,0,297.762,186.3a273.886,273.886,0,0,0-31.851-3.978c21.6-5.273,47.248-14.661,60.442-30.9v33.612A13.608,13.608,0,0,1,320.322,196.405Z" style="fill:#3f3f70"/><path d="M63.673,198.668c-1.793-4.164-8.182-1.585-6.46,2.68C59.054,205.56,65.369,202.941,63.673,198.668Z" style="fill:#3f3f70"/><path d="M87.173,202.288c-4.076.778-3.453,6.955.69,6.929C92.907,209.041,92.169,201.457,87.173,202.288Z" style="fill:#3f3f70"/><path d="M182.823,213.368a3.524,3.524,0,0,0,2.48-5.971,3.57,3.57,0,0,0-5.71,1.13A3.522,3.522,0,0,0,182.823,213.368Z" style="fill:#3f3f70"/></svg>