<svg id="icons" xmlns="http://www.w3.org/2000/svg" viewBox="0 0 340 340"><path d="M270.379,94.543c-.583-18.927-8.171-23.51-8.171-23.51l-15.125-1.241L212.976,47.2l-.719-16.511c-7.095-22.075-38.327-21.3-38.327-21.3-43.407,1.9-48.86,30.763-56.011,42.691l3.415,27.664c0,46.388,0,151.181,0,198.427,31.421-19.125,62.158-4.439,62.158-4.439L259.134,160.52C271.477,137.682,270.379,94.543,270.379,94.543Z" style="fill:#7b8bba"/><path d="M212.348,30.825c.981,5.369,2.166,25.721-19.574,42.551a46.369,46.369,0,0,0-14.685,29.844c-3.212,35.461-9.72,123.166-4.622,206.719a21.91,21.91,0,0,0,24.489,20.506c14.953-1.856,34.6-6.321,50.6-16.915a28.57,28.57,0,0,0,12.1-30.311c-5.913-25.346-14.79-77.511-1.432-122.562,0,0-21.9-18.4-18.444-51.832,0,0-.384-30.355,21.517-37.655C249.258,57.986,227.535,55.905,212.348,30.825Z" style="fill:#bac9e8"/><path d="M133.841,82.715c-1.857,34.589-7.68,155.591-2.274,223.651a15.524,15.524,0,0,1-21.748,15.462C92.15,313.9,73.174,303.284,71.678,281.2c-2.871-33.819-6.689-120.823,18.067-211.807C94.67,52.347,108.419,45.969,124.761,38.3a55.168,55.168,0,0,0,5.627,28.445A31.544,31.544,0,0,1,133.841,82.715Z" style="fill:#bac9e8"/><path d="M126.894,300.571c-16.434,15.593-46.928-8.854-55.068-18.038,2.048,21.228,20.928,31.635,37.993,39.295a15.524,15.524,0,0,0,21.748-15.462c-.268-3.376-.508-6.888-.723-10.508A29.344,29.344,0,0,1,126.894,300.571Z" style="fill:#7b8bba"/><path d="M260.657,283.219c-.075-.322-.152-.667-.228-1-26.125,24.136-64.551,41.351-87.583,16.363q.278,5.685.621,11.355a21.91,21.91,0,0,0,24.489,20.506C219.933,327.617,268.192,317,260.657,283.219Z" style="fill:#7b8bba"/><path d="M262.643,161.365c12.188-23.549,11.28-65.132,11.233-66.929-.575-18.724-7.7-24.9-9.522-26.177C250.126,54.528,230.065,53.1,215.4,29.107,207.3,5.347,175.2,5.858,173.939,5.889,135.825,5.67,122,35.652,121.552,36.9c-.482,1.761-2.129,15.417,5.715,31.428a28.066,28.066,0,0,1,3.079,14.2c-.714,13.306-1.978,38.692-2.988,68.808A392.42,392.42,0,0,1,78.909,141.18c2.028-14.975,4.7-30.48,8.166-46.243,4.936,1.265,16.362,4.15,30.848,6.5,4.2-.021,4.774-6.186.6-6.948-14.67-2.564-25.017-5.1-29.9-6.381,3.331-12.874,4.656-27.268,16.881-35.23,2.243-1.551,4.582-3.047,6.951-4.448,3.892-2.3.459-8.353-3.564-6.025C98.468,48.048,89.3,56.681,86.368,68.47,66.911,137.325,62.932,224.1,68.19,281.492A41.739,41.739,0,0,0,85,311.771a127.511,127.511,0,0,0,23.4,13.256,19.027,19.027,0,0,0,7.734,1.656c10.693.188,20.083-9.825,18.924-20.594-.727-9.149-1.248-19.267-1.605-30a65.053,65.053,0,0,1,34.976-3.156c.194,8.166.477,16.369.864,24.558a3.493,3.493,0,0,0,.064,1.349c.433,11.238.234,21.664,9.8,29.438a24.975,24.975,0,0,0,16.059,5.84c16.4-1.387,36.862-5.86,55.278-17.668a32.224,32.224,0,0,0,13.578-34.024C257.894,256.094,249.6,205.188,262.643,161.365ZM73.979,263.533a112.032,112.032,0,0,0,37.41,12.284,3.5,3.5,0,0,0,.535-6.959c-20.47-3.188-34.147-11.034-38.33-13.7-.582-14.795-.782-33.061.062-53.688,6.395,1.885,19.455,5.52,36.993,9.3a3.5,3.5,0,0,0,1.475-6.843c-19.076-4.113-32.735-8.035-38.135-9.662.745-14.434,2.012-29.9,4.01-46.058a401.592,401.592,0,0,0,49.13,10.173c-1.313,44.223-2.212,92.612.134,136.163-3.543,5.122-10,10.664-17.533,8.083-8.576-2.7-24.328-9.243-34.652-22.765C74.7,275.318,74.313,269.838,73.979,263.533Zm49.042,53.925a11.876,11.876,0,0,1-11.781,1.172c-13.344-6.523-25.836-11.9-32.463-24.825,10.194,8.621,21.769,13.267,28.848,15.5a20.241,20.241,0,0,0,20.276-4.988C128.711,309.3,127.362,314.516,123.021,317.458ZM174.528,103.75a3.3,3.3,0,0,0-.145,1.619c-1.107,12.476-2.582,31.074-3.827,53.492a3.149,3.149,0,0,0-.088,1.6c-.9,16.528-1.671,35.066-2.075,54.712a3.123,3.123,0,0,0-.033,1.571c-.308,15.812-.375,32.321-.081,49.059a72.087,72.087,0,0,0-35.044,2.915c-1.746-67.833,2.522-156.406,4.1-185.814a35.088,35.088,0,0,0-3.829-17.747,52.472,52.472,0,0,1-5.312-25.93c1.668-3.52,14.563-26.507,45.817-26.338.295-.046,28.876-.351,34.96,18.979.4,2.723,2.278,20.5-13.9,34.731C184.232,74.853,175.114,89.433,174.528,103.75Zm82.206,178.015a119.889,119.889,0,0,1-22.184,15.027,3.5,3.5,0,1,0,3.266,6.191A128.273,128.273,0,0,0,257.887,289.9c.268,26.778-43.506,34.688-60.361,37.075-10.987,1.622-21.068-8.023-20.668-18.988,9.271,7.888,22.414,9.839,33.885,5.872,4.392-1.345,2.513-7.926-1.938-6.726-11.915,4.285-25.5.465-32.529-10.115-1.233-26.154-1.4-52.468-.973-77.171,4.756.359,13.453.883,23.789.883a3.506,3.506,0,1,0,.285-7c-10.219.015-19.41-.546-23.935-.9.388-17.481,1.064-34.04,1.856-49.034,19.449,2.076,36.633,1.158,58.091-1.2,4.55-.595,3.8-7.4-.8-6.955-22.846,2.611-41.051,2.986-56.912,1.154,1.122-19.688,2.41-36.285,3.438-48.134a256.908,256.908,0,0,0,44.839-.31,3.5,3.5,0,0,0-.594-6.975,252.191,252.191,0,0,1-43.583.329c4.264-30.219,30.206-28.043,34.148-60.044A82.083,82.083,0,0,0,242.6,62.062a76.924,76.924,0,0,1,13.3,8.12c-18.1,10.166-18.623,35.634-18.623,38.473-2.981,29.54,12.647,47.794,17.986,53.1a187.755,187.755,0,0,0-6.434,45.222,83.879,83.879,0,0,1-17.41,4.513,3.5,3.5,0,0,0,1.121,6.91,97.291,97.291,0,0,0,16.193-3.928,294.057,294.057,0,0,0,3.153,41.138c-16.123,13.009-41.238,15.8-59.725,15.8a3.5,3.5,0,0,0,0,7c18.488-.007,43.317-2.729,60.947-14.986C254.27,270.256,255.53,276.436,256.734,281.765Zm-12.471-172.58c.079-.934-.253-25.987,17.271-33.973,1.8,2.2,4.986,7.726,5.345,19.42.01.395.815,37.356-8.754,59.9A59.262,59.262,0,0,1,244.263,109.185Z" style="fill:#3f3f70"/><path d="M214.761,220.278c.156,0,.667-.037.828-.045-.1-1.742-.346-5.245-.5-6.982C210.252,213.1,209.943,220.082,214.761,220.278Z" style="fill:#3f3f70"/><path d="M223.156,302.125c-4.5,1.651-1.9,8.266,2.5,6.538C230.093,306.989,227.562,300.4,223.156,302.125Z" style="fill:#3f3f70"/></svg>