<svg id="icons" xmlns="http://www.w3.org/2000/svg" viewBox="0 0 340 340"><path d="M173.435,10h-18.26a11.081,11.081,0,0,0-11.081,11.081V123.5h40.421V21.081A11.081,11.081,0,0,0,173.435,10Z" style="fill:#bac9e8"/><path d="M184.515,217.2H144.094v101.72A11.081,11.081,0,0,0,155.175,330h18.26a11.081,11.081,0,0,0,11.08-11.081Z" style="fill:#bac9e8"/><path d="M221.807,177.2H210.055V159.1h11.752a6.353,6.353,0,0,1,6.353,6.354v5.4A6.353,6.353,0,0,1,221.807,177.2Z" style="fill:#7b8bba"/><path d="M218.769,168.151a54.464,54.464,0,0,1-54.464,54.465c-72.1-2.492-72.08-106.449,0-108.93A54.464,54.464,0,0,1,218.769,168.151Z" style="fill:#bac9e8"/><path d="M204.494,168.151a40.189,40.189,0,0,1-40.189,40.189c-53.2-1.838-53.188-78.548,0-80.379A40.19,40.19,0,0,1,204.494,168.151Z" style="fill:#fff"/><path d="M223.807,155.6h-2.922a58.168,58.168,0,0,0-32.869-40.32v-94.2A14.6,14.6,0,0,0,173.435,6.5h-18.26a14.6,14.6,0,0,0-14.581,14.581v94.2c-45.33,19.916-45.295,85.866.017,105.752-.116.007.047,97.824-.017,97.888A14.6,14.6,0,0,0,155.175,333.5h18.26a14.6,14.6,0,0,0,14.581-14.581c-.017-.169.032-97.735-.017-97.888A58.172,58.172,0,0,0,220.885,180.7h2.922a9.864,9.864,0,0,0,9.853-9.853v-5.4A9.864,9.864,0,0,0,223.807,155.6ZM147.594,21.081a7.589,7.589,0,0,1,7.581-7.581h18.26a7.589,7.589,0,0,1,7.581,7.581v91.572a58.211,58.211,0,0,0-33.422,0Zm33.422,297.838a7.589,7.589,0,0,1-7.581,7.581h-18.26a7.589,7.589,0,0,1-7.581-7.581v-95.27a58.211,58.211,0,0,0,33.422,0Zm-16.711-99.8a51.021,51.021,0,0,1-50.965-50.964c2.393-67.453,99.546-67.435,101.93,0A51.022,51.022,0,0,1,164.305,219.115ZM226.66,170.85a2.856,2.856,0,0,1-2.853,2.853H222a57.376,57.376,0,0,0,0-11.1h1.809a2.856,2.856,0,0,1,2.853,2.853Z" style="fill:#3f3f70"/><path d="M164.305,124.462a43.739,43.739,0,0,0-43.69,43.689c2.052,57.823,85.336,57.808,87.379,0A43.738,43.738,0,0,0,164.305,124.462Zm0,80.378a36.731,36.731,0,0,1-36.69-36.689c1.724-48.559,71.663-48.546,73.379,0A36.73,36.73,0,0,1,164.305,204.84Z" style="fill:#3f3f70"/><path d="M187.9,164.651H167.805v-9.422c-.074-4.6-6.924-4.6-7,0v12.922a3.5,3.5,0,0,0,3.5,3.5h23.6C192.492,171.573,192.508,164.732,187.9,164.651Z" style="fill:#3f3f70"/></svg>