<svg id="icons" xmlns="http://www.w3.org/2000/svg" viewBox="0 0 340 340"><path d="M102.593,36.226s-12.868,48.277,0,117.568c0,0,14.524,69.126-11.521,119.684a13.022,13.022,0,0,0,3.414,16.236,129.673,129.673,0,0,0,26.021,15.446l-1.886,4.276a8.13,8.13,0,0,0,4.2,10.745c15.515,6.738,53.282,18.9,91.16-1.107,5.431-2.787,4.347-8.537,4.41-13.578,0,0,15.067-6.145,27.242-14.48a10.976,10.976,0,0,0,2.442-15.819c-51.537-71.544,5.671-142.536-27.594-237.522Z" style="fill:#bac9e8"/><path d="M102.593,16.343s58-16.694,117.887,2.579V28.5S139.583,43.773,102.593,16.343Z" style="fill:#7b8bba"/><path d="M102.593,16.343s56.6,24.209,117.887,2.579V37.675s-50.472,27.752-117.887-1.449Z" style="fill:#fff"/><path d="M243.655,288.128a130.645,130.645,0,0,1-13.109,7.767,3.5,3.5,0,1,0,3.246,6.2,137.43,137.43,0,0,0,13.816-8.194,14.319,14.319,0,0,0,6.123-9.7,14.578,14.578,0,0,0-2.895-11.154c-50.075-68.092,6.164-141.3-26.856-236.1V18.921a3.5,3.5,0,0,0-4.082-3.43C165.268-1.52,113.43,10.317,103.325,12.938a3.5,3.5,0,0,0-4.231,3.4v19.44c-1.355,5.359-12.3,52.114.076,118.732.142.679,13.975,68.474-11.208,117.362a16.558,16.558,0,0,0,4.361,20.589,129.534,129.534,0,0,0,23.605,14.4c-3.329,5.866-.837,13.943,5.5,16.523a122.95,122.95,0,0,0,47.76,10.12,98.386,98.386,0,0,0,46.429-11.342,11.68,11.68,0,0,0,6.275-10.33c-.009-19.975-6.646-39.752-13.829-59.587-1.556-4.317-8.026-2.154-6.63,2.247.513,1.514,1.06,3.037,1.624,4.523,6.383,17.886,11.743,35.1,11.836,52.817a4.7,4.7,0,0,1-2.546,4.14c-36.822,19.45-73.9,7.173-88.13.992a4.653,4.653,0,0,1-2.392-6.124l1.776-4.026c17.761-26.476,27.932-67.15,25.8-102.056a3.537,3.537,0,0,0-3.686-3.3,3.5,3.5,0,0,0-3.3,3.687c1.991,32.515-7.216,70.471-23.19,95.527a123.023,123.023,0,0,1-22.569-13.711,9.552,9.552,0,0,1-2.468-11.883C120.5,224,106.622,155.947,106.035,153.156c-10.506-56.564-3.564-99.353-.941-112.108a164.081,164.081,0,0,0,40.058,10.737,3.5,3.5,0,1,0,.918-6.94,157.52,157.52,0,0,1-39.977-10.933V21.425c14.753,5.223,60.522,18.4,110.887,2.362V35.5c-4.865,2.274-19.216,8.217-39.694,10.04a3.5,3.5,0,1,0,.621,6.972c4.88-.434,9.415-1.086,13.584-1.863,4.2,11.983,19.7,63.294,5.487,133.962-.813,4.05-1.448,8.176-1.886,12.263-.418,4.555,6.379,5.335,6.96.745,15.5-70.011,3.67-131.622-3.631-148.443a116.488,116.488,0,0,0,20.261-6.744C235.606,85.3,224.133,157.14,224,158.057c-8.825,68.627,9.564,104.2,21.311,119.289A7.511,7.511,0,0,1,243.655,288.128ZM116.468,17.306c18.243-3.29,53.532-7.191,90.894,1.967C169.365,29.177,134.369,22.4,116.468,17.306Z" style="fill:#3f3f70"/><path d="M161.691,46.054c-5.543.444-4.292,7.879,1.228,7.023C168.349,52.558,167.068,45.231,161.691,46.054Z" style="fill:#3f3f70"/><path d="M135.4,164.625c2.153,5.18,8.814,1.655,6.31-3.344C139.557,156.161,132.918,159.633,135.4,164.625Z" style="fill:#3f3f70"/><path d="M131.343,56.841a3.5,3.5,0,0,0-4.122,2.738c-.335,1.658-8.084,41.124,2.71,86.1a3.5,3.5,0,1,0,6.807-1.633c-10.418-43.416-2.733-82.694-2.655-83.086A3.5,3.5,0,0,0,131.343,56.841Z" style="fill:#3f3f70"/></svg>