<svg id="icons" xmlns="http://www.w3.org/2000/svg" viewBox="0 0 340 340"><path d="M155.913,17.067h69.795l-8.322,23.582L180.762,57.591S155.231,43.313,155.913,17.067Z" style="fill:#7b8bba"/><path d="M186.4,47.523,155.913,17.067l-9.949,23.258L97.486,58.954C79.052,111.515,38.062,182.633,12.857,296.735a95.245,95.245,0,0,0,37.7,11.275S79.1,215.345,104.465,171.3c0,0-4.054,29.389-6.869,67a5.219,5.219,0,0,1-2.131,3.833,5.212,5.212,0,0,0-2.127,3.766l-2.262,26.172S162.6,293.917,247.515,284.4V260.075a7.2,7.2,0,0,0-2.318-5.293,7.185,7.185,0,0,1-2.317-5.178c-.162-11-.464-49.08,2.521-76.54l7.046-27.13s28.54,85.513,34.177,176.645c0,0,20.436,1.639,40.519-2.237,0,0-16.56-170.18-42.28-254.037L225.708,45.011Z" style="fill:#bac9e8"/><path d="M225.708,17.067V45.011c-9.68,6.182-29.942,15.876-36.991,25.022l-9.533,11a11,11,0,0,1-15.728,1.024,11.129,11.129,0,0,1-.649-15.5l15.974-17.668C182.95,43.117,219.5,21.592,225.708,17.067Z" style="fill:#bac9e8"/><path d="M229.145,16.444a3.521,3.521,0,0,0-3.437-2.877c-.928.073-69.579-.134-70.472.068a3.609,3.609,0,0,0-2.551,2.08l-9.358,21.874-47.1,18.1a3.721,3.721,0,0,0-2.024,2.043c-18.7,52.938-59.838,125.175-84.8,238.39a3.5,3.5,0,0,0,1.646,3.617A98.09,98.09,0,0,0,50.276,311.5,3.507,3.507,0,0,0,53.9,309.04c.251-.814,22.427-72.479,44.739-119-1.378,12.145-3.12,29.086-4.535,48a1.713,1.713,0,0,1-.7,1.263,8.705,8.705,0,0,0-3.555,6.3L87.589,271.77a3.5,3.5,0,0,0,2.464,3.649c1.061.323,25.737,7.772,63.518,12.03-.106,3.056-.986,7.5,3.351,7.709a3.5,3.5,0,0,0,3.5-3.378c.435-12.535,1.106-25.416,1.935-38.286a647.631,647.631,0,0,0,65.394,3.019c4.584-.112,4.571-6.932-.049-7a643.5,643.5,0,0,1-64.88-3.008c5.082-73.874,14.95-145.229,15.07-146.088.567-4.5-6.211-5.561-6.933-.965-.206-2.5-15.348,122.144-17.091,180.985A405.93,405.93,0,0,1,94.812,269.5L96.824,246.2c.03-.84.776-1.276,1.346-1.763,4.941.983,21.947,4.217,45.587,7.067a3.5,3.5,0,0,0,.838-6.95c-21.334-2.572-37.16-5.45-43.457-6.669,2.674-35.445,6.474-63.752,6.774-65.96a209.757,209.757,0,0,0,5.666-58.124c-.293-4.562-7.135-4.282-6.992.337a202.643,202.643,0,0,1-5.419,55.882c-23.063,40.3-48.123,118.366-53.1,134.23a94.977,94.977,0,0,1-31.3-9.383C43.524,180.515,76.476,125.4,97.684,68.233a136.075,136.075,0,0,1,5.983,21.495,3.5,3.5,0,0,0,6.869-1.346,133.339,133.339,0,0,0-8.271-27.515L145.129,44.4l9.351,9.091a3.5,3.5,0,1,0,4.88-5.018l-9.233-8.977L157.1,23.2l21.195,21.175c-.626.589-17.014,18.549-18.081,19.831-8.374,9.072-1.817,24.342,10.519,24.185a14.749,14.749,0,0,0,11.1-5.065l9.533-11c6.539-8.519,25.749-17.737,34.709-23.463l53.76,19.352c-2.62,4.879-7.512,14.281-12.713,25.768A3.5,3.5,0,1,0,273.5,96.87c3.953-8.733,7.72-16.23,10.412-21.391,22.08,78.3,37.073,218.967,39.429,241.988a171.812,171.812,0,0,1-33.419,1.792c-5.7-84.33-30.777-164.006-33.841-173.485a198.438,198.438,0,0,1,5.84-20.088,3.5,3.5,0,0,0-6.619-2.279,203.012,203.012,0,0,0-6.245,21.677l-7.039,27.1c-3.161,27.529-2.763,66.372-2.633,77.472a10.739,10.739,0,0,0,3.443,7.7,3.715,3.715,0,0,1,1.191,2.722V281.26a411.567,411.567,0,0,1-73.925.731c-4.555-.3-5.149,6.55-.541,6.98a416.912,416.912,0,0,0,78.356-1.089,3.5,3.5,0,0,0,3.11-3.478V260.075a10.735,10.735,0,0,0-3.443-7.866,3.658,3.658,0,0,1-1.191-2.657c-.162-10.937-.457-48.648,2.473-75.856l3.889-14.974c7.84,26.413,26.048,93.9,30.389,164.074a3.5,3.5,0,0,0,3.213,3.272c.385.031,4.706.365,11.2.365a164.356,164.356,0,0,0,30.264-2.654A3.5,3.5,0,0,0,330.627,320c-.95-1.263-15.739-175.741-43.939-256.673a4.95,4.95,0,0,0-.64-.318l-56.84-20.46V17.067A3.481,3.481,0,0,0,229.145,16.444Zm-64.777,4.123H213.8L184.781,39.24c-.347.224-.677.471-1.018.7Zm57.84,22.446c-10.01,6.309-28.827,15.3-36.136,24.727l-9.533,11c-6.862,7.4-17.593-2.024-11.136-9.842l15.974-17.667c3.905-5.306,35.136-23.611,40.831-27.75Z" style="fill:#3f3f70"/><path d="M154.666,135.278a3.5,3.5,0,0,0,3.5-3.5v-6.413a3.5,3.5,0,0,0-3.045-3.471l-30.1-3.95c-4.559-.522-5.471,6.261-.911,6.94l27.054,3.551v3.343A3.5,3.5,0,0,0,154.666,135.278Z" style="fill:#3f3f70"/><path d="M230.457,143.923a3.5,3.5,0,0,0,3.5-3.5v-6.414a3.5,3.5,0,0,0-3.045-3.47l-30.1-3.951a3.5,3.5,0,1,0-.911,6.941l27.053,3.551v3.343A3.5,3.5,0,0,0,230.457,143.923Z" style="fill:#3f3f70"/></svg>