<svg id="icons" xmlns="http://www.w3.org/2000/svg" viewBox="0 0 340 340"><path d="M100.675,17.35c6.643-5.093,91.219-14.059,143.61,0l-9.094,18.941S133.626,64.2,100.675,17.35Z" style="fill:#7b8bba"/><path d="M100.675,17.35s78.049,33.952,143.61,0c.993,7.254.946,24.777,4.322,31.139,27,54.473-22.017,141.065.867,246.143a9.683,9.683,0,0,1-2.014,8.885c-2.552,2.934-7.073,6.287-14.882,7.689,0,0-2.732-16-12.1-29.269,0,0-7.024,14.049-6.634,40.586,0,0-52.521,20.257-105.5-5.961-4.877-2.413-7.493-7.876-7.284-13.314.627-16.356,1.411-54.337-2.622-92.182-6.622-53.3-30.914-85.964-1.8-163.558C100.471,39.34,99.971,26.146,100.675,17.35Z" style="fill:#bac9e8"/><path d="M251.8,47.057c-3-5.47-3.162-23.853-4.029-30.005a3.4,3.4,0,0,0-.654-1.73,3.548,3.548,0,0,0-1.916-1.349C213.836,5.46,175.411,6.422,173.126,6.49c-59.378.112-73.249,7.3-74.287,7.882a3.7,3.7,0,0,0-1.659,2.782l-.923,16.425a42.271,42.271,0,0,1-4.014,15.467c-27.614,78.856-3.684,109.946,2.72,162.391,4.063,38.12,3.176,76.811,2.605,91.677-.274,7.164,3.348,13.674,9.229,16.585,34.878,18.976,86.009,15.322,108.309,6.088a3.5,3.5,0,0,0,2.24-3.316c-.224-15.2,2.078-26.194,3.954-32.553a81.109,81.109,0,0,1,7.828,21.876,3.5,3.5,0,0,0,4.068,2.856c12.905-2.63,22.17-9.956,19.662-20.925C230.22,191.234,279.314,102.528,251.8,47.057ZM173.178,13.49c.59-.006,31.7-.879,60.48,4.956C186.03,38.314,133.429,24.9,111.986,17.783,121.819,15.819,140.389,13.49,173.178,13.49ZM246.1,295.539c1.3,5.718-4.355,9.26-10.851,11.448-1.389-5.684-4.827-17.04-11.907-27.068a3.523,3.523,0,0,0-5.989.453c-.293.586-6.957,14.213-7.019,39.655-10.466,3.362-55.59,15.589-100.429-6.6-3.359-1.663-5.5-5.7-5.338-10.044.576-15.018,1.472-54.112-2.64-92.687-6-51.684-29.444-80.092-4.288-156.186,10.063,3.3,49.081,13.746,84.561,13a3.5,3.5,0,0,0-.1-7c-35.61.51-70.82-9.192-81.872-12.543,3.184-7.12,3.211-17.755,3.669-25.576,36.983,13.278,89.679,22.186,137.338.357.413,3.564,1.249,18.164,2.2,21.376a84.031,84.031,0,0,1-26.95,12.091,3.5,3.5,0,0,0,1.783,6.769,92.24,92.24,0,0,0,27.6-12.029C271.327,103.313,222.886,193.376,246.1,295.539Z" style="fill:#3f3f70"/><path d="M200.605,59.26c-5.137-.295-6.036,6.7-.847,7.13,2.451.114,5.147-1.306,4.762-4.1A3.5,3.5,0,0,0,200.605,59.26Z" style="fill:#3f3f70"/></svg>