<svg id="icons" xmlns="http://www.w3.org/2000/svg" viewBox="0 0 340 340"><path d="M149.181,15.85c7.27,59.205,72.72,65.748,98.4,10.013l7.258,5.3L227.261,133.725l-97.925-9.02,6.7-101.017Z" style="fill:#7b8bba"/><path d="M136.073,8.284,146.246,9.6a3.748,3.748,0,0,1,3.228,4.289C146.465,33.421,135.5,121.959,183.26,126.135,230.576,131.764,243.294,66.21,247.9,22.9a2.708,2.708,0,0,1,3-2.409l11.5,1.33a2.7,2.7,0,0,1,2.321,3.313c-3.74,15.615-19.652,88.84,2.907,119.082a28.635,28.635,0,0,1,5.248,20.8C268.5,207.194,255.472,238.512,251.7,302.09a14.44,14.44,0,0,1-8.46,12.735c-24.228,11.053-96.795,36.622-169.871-11.954a14.5,14.5,0,0,1-6.236-14.848c4.25-21.73,14.974-77.756,17.757-145.07a25.906,25.906,0,0,1,6.406-16c11.963-13.662,37.707-50.309,40.544-115.123A3.747,3.747,0,0,1,136.073,8.284Z" style="fill:#bac9e8"/><path d="M136.073,8.284,146.246,9.6a3.748,3.748,0,0,1,3.228,4.289C146.465,33.421,135.5,121.959,183.26,126.135,230.576,131.764,243.294,66.21,247.9,22.9a2.708,2.708,0,0,1,3-2.409l11.5,1.33a2.7,2.7,0,0,1,2.321,3.313c-3.74,15.615-19.652,88.84,2.907,119.082a28.635,28.635,0,0,1,5.248,20.8C268.5,207.194,255.472,238.512,251.7,302.09a14.44,14.44,0,0,1-8.46,12.735c-24.228,11.053-96.795,36.622-169.871-11.954a14.5,14.5,0,0,1-6.236-14.848c4.25-21.73,14.974-77.756,17.757-145.07a25.906,25.906,0,0,1,6.406-16c11.963-13.662,37.707-50.309,40.544-115.123A3.747,3.747,0,0,1,136.073,8.284Z" style="fill:#bac9e8"/><path d="M71.325,305.713c51.725,36.744,124.188,35.935,173.365,12.3A17.848,17.848,0,0,0,255.2,302.183c4.209-66.79,14.812-82.849,21.149-136.718a31.94,31.94,0,0,0-5.913-23.341c-20.414-27.367-7.5-93.384-3.056-112.966a9.218,9.218,0,0,0-7.93-11.2l-5.14-.594a9.246,9.246,0,0,0-10.094,7.364,85.466,85.466,0,0,1-18.092,24.419c-20.892,20.223-57.976,12.469-68.478-14.759A72.527,72.527,0,0,1,152.7,15.816a9.247,9.247,0,0,0-7.987-9.942l-6.076-.788h0a9.284,9.284,0,0,0-10.387,8.686c-3.275,63.006-28.767,98.52-39.575,110.865A29.555,29.555,0,0,0,81.4,142.817C78.561,211.38,67.378,268.557,63.7,287.346A17.868,17.868,0,0,0,71.325,305.713ZM150.543,35.457C162.291,68.435,205.512,78.19,230.866,54.3A85.27,85.27,0,0,0,241.9,41.9c-7.843,45.352-21.013,84.23-58.331,80.746C147.077,118.258,148.915,64.4,150.543,35.457ZM70.573,288.689c3.7-18.918,14.96-76.488,17.818-145.582a22.529,22.529,0,0,1,5.548-13.858c11.982-12.089,37.606-53.244,42.1-116.729a2.212,2.212,0,0,1,1.693-.491l6.076.787a2.234,2.234,0,0,1,1.909,2.531c-3.164,21.741-8.343,75.062,11.843,100.566a35.173,35.173,0,0,0,25.339,13.7c46.208,3.612,60.839-44.78,68.156-103.361a2.22,2.22,0,0,1,2.455-1.939l5.14.595a2.191,2.191,0,0,1,1.554.919c-3.93,27.005-18.048,90.443,4.625,120.479a24.986,24.986,0,0,1,4.582,18.26,657.775,657.775,0,0,1-12.052,66.394c-.333,1.94-8.354,42.209-9.153,71.02a10.9,10.9,0,0,1-6.422,9.659c-26.569,12.121-95.991,35.236-166.581-11.757A10.888,10.888,0,0,1,70.573,288.689Z" style="fill:#3f3f70"/></svg>