<svg id="icons" xmlns="http://www.w3.org/2000/svg" viewBox="0 0 340 340"><path d="M296.1,248.324a63.83,63.83,0,0,0-9.244-7.685c-25.191-17.417-25.7-28.775-25.7-28.775L170,249.473,78.84,211.864s-.505,11.358-25.7,28.775a63.83,63.83,0,0,0-9.244,7.685c-15.96,16.214-2.384,43.783,20.17,40.8,4.294-.268,9.249-3.618,11.276,1.474,7.96,23.745,30.059,18.107,40.194,14.041a4.2,4.2,0,0,1,5.731,3.126c5.965,29.875,36.092,23.68,46.23,14.932a4.191,4.191,0,0,1,5,0c5.559,4.111,19.683,12.267,35.151,3.26,0,0,8.775-4.587,11.08-18.193a4.2,4.2,0,0,1,5.731-3.126c10.135,4.066,32.234,9.7,40.194-14.041a4.165,4.165,0,0,1,5.036-2.735C293.851,296.732,314.385,267.345,296.1,248.324Z" style="fill:#fff"/><path d="M286.856,240.639c-25.191-17.417-25.7-28.775-25.7-28.775L170,249.473,78.84,211.864c.363.857-2.79,13.439-27.266,29.893,5.014,4.865,12.359,7.341,19.6,7.163,3.186-.214,6.893-.359,8.627,2.866,6.528,11.235,17.468,17.386,30.77,17.343a48.428,48.428,0,0,0,6.6-.466,6.048,6.048,0,0,1,6.173,3.193c3.144,5.695,5.5,7.774,6.886,8.97,10.243,8.655,26.535,7.276,37.314,2.032a6.027,6.027,0,0,1,4.912,0c10.767,5.24,27.084,6.622,37.314-2.034,1.444-1.17,3.707-3.291,6.886-8.969a6.048,6.048,0,0,1,6.173-3.193,48.428,48.428,0,0,0,6.6.466c13.3.043,24.243-6.107,30.771-17.343,1.7-3.22,5.458-3.083,8.626-2.865,7.237.178,14.592-2.3,19.6-7.164C287.915,241.384,287.394,241.011,286.856,240.639Z" style="fill:#cbcde5"/><path d="M280.713,208.972a83.207,83.207,0,0,0-11.98-8.214s-10.349-6.563-10.6-16.155H81.868c-.252,9.592-10.6,16.155-10.6,16.155a83.207,83.207,0,0,0-11.98,8.214c-11.456,9.5-5.968,28.4,8.85,29.808A37.736,37.736,0,0,0,79.481,238a5.709,5.709,0,0,1,6.5,3.579c8.036,20.882,26.8,18.617,36.8,15.653a5.775,5.775,0,0,1,7.258,4.228,24.094,24.094,0,0,0,6.351,11.491c10.737,8.394,24.97,2.143,30.869-1.121a5.665,5.665,0,0,1,5.482,0c5.9,3.264,20.132,9.515,30.869,1.121a24.094,24.094,0,0,0,6.351-11.491,5.775,5.775,0,0,1,7.258-4.228c10,2.964,28.766,5.229,36.8-15.653a5.709,5.709,0,0,1,6.5-3.579,37.736,37.736,0,0,0,11.344.783C286.681,237.372,292.169,218.476,280.713,208.972Z" style="fill:#fff"/><path d="M265.863,200.385c.409-.269.806-.553,1.194-.847-2.94-2.319-8.737-7.784-8.925-14.935H81.868c-.188,7.151-5.985,12.616-8.925,14.935,5.318,3.928,11.65,5.761,19.066,5.78a5.806,5.806,0,0,1,5.434,3.631,30,30,0,0,0,7.856,11.482c6.565,6.186,17.6,8.437,27.112,6.9a5.736,5.736,0,0,1,5.52,2.391c8.663,12.374,23.3,16.49,32.069,16.894,8.771-.4,23.407-4.523,32.069-16.894a5.736,5.736,0,0,1,5.52-2.391c9.512,1.537,20.548-.711,27.112-6.9a30.012,30.012,0,0,0,7.856-11.482,5.806,5.806,0,0,1,5.435-3.632A31.9,31.9,0,0,0,265.863,200.385Z" style="fill:#cbcde5"/><path d="M260.58,171.7c-7.937-5.711-19.546-16.871-26.932-36.57h-127.3c-7.386,19.7-19,30.859-26.932,36.57-6.987,5.026-6.991,15.6.2,20.323,6.017,3.955,13.6,3.623,18.77,2.7a5.733,5.733,0,0,1,6.653,4.568c4.061,21.642,22.569,19.47,31.834,16.915a5.719,5.719,0,0,1,6.829,3.309C150.267,235.552,170,236.6,170,236.6s19.733-1.048,26.293-17.084a5.719,5.719,0,0,1,6.829-3.309c9.265,2.555,27.773,4.727,31.834-16.915a5.733,5.733,0,0,1,6.653-4.568c5.169.922,12.753,1.254,18.77-2.7C267.571,187.3,267.567,176.726,260.58,171.7Z" style="fill:#fff"/><path d="M233.648,135.13h-127.3a87.986,87.986,0,0,1-7.005,14.542c3.005,1.816,6.227,3.391,8.289,6.361,6.032,8.207,16.362,12.33,27.438,11.518a9.888,9.888,0,0,1,7.762,3.062c8.184,8.606,19.715,11.589,26.77,11.867a7.671,7.671,0,0,0,.788,0c7.055-.278,18.586-3.261,26.77-11.867a9.888,9.888,0,0,1,7.762-3.062c11.074.811,21.405-3.31,27.438-11.519,2.057-2.968,5.287-4.545,8.289-6.36A87.986,87.986,0,0,1,233.648,135.13Z" style="fill:#cbcde5"/><path d="M233.673,120.729c-8.7-4.165-27.1-15.166-36.286-36.955L170,101.307,142.613,83.774c-9.182,21.789-27.583,32.79-36.286,36.955a12.175,12.175,0,0,0-7.014,11.755c.512,6.752,6.311,9.736,10.019,10.962a8.221,8.221,0,0,1,4.548,3.879c6.316,11.315,18.209,11.024,25.314,9.623a8.142,8.142,0,0,1,8.353,3.575C155.064,171.9,170,172.487,170,172.487s14.936-.588,22.453-11.964a8.142,8.142,0,0,1,8.353-3.575c7.1,1.4,19,1.692,25.314-9.623a8.221,8.221,0,0,1,4.548-3.879c3.708-1.226,9.507-4.21,10.019-10.962A12.175,12.175,0,0,0,233.673,120.729Z" style="fill:#fff"/><path d="M201.169,16.2a52.735,52.735,0,0,0-16.181-5.915A1.7,1.7,0,0,0,183.05,11.5c-1.131,3.9-4.755,14.606-11.922,20.655a1.749,1.749,0,0,1-2.256,0C161.705,26.106,158.081,15.4,156.95,11.5a1.7,1.7,0,0,0-1.938-1.214A52.735,52.735,0,0,0,138.831,16.2C126.25,23.879,137,38.342,143.889,44.378a14.62,14.62,0,0,1,4.827,11.8c-1.193,17.794-6.1,27.593-6.1,27.593L170,103.533l27.387-19.759s-4.91-9.8-6.1-27.593a14.62,14.62,0,0,1,4.827-11.8C203,38.348,213.753,23.874,201.169,16.2Z" style="fill:#bac9e8"/><path d="M64.53,292.59a50.805,50.805,0,0,0,7.289-1.52c6.909,23.461,29.586,23.765,45.872,16.474,5.954,32.7,38.279,29.205,52.309,17.709,16.07,12.748,46.928,13.23,52.309-17.709,16.317,7.3,38.964,6.971,45.872-16.474,28.219,10.02,51.1-22.841,30.56-45.052-3.612-3.835-8.663-7.424-13.245-10.646,7.273-8.426,6.285-22.137-2.549-29.094a87.02,87.02,0,0,0-12.389-8.509,26.819,26.819,0,0,1-5.52-5.1c6.547-6.53,5.249-18.6-2.42-23.81a69.968,69.968,0,0,1-17.6-18.77,3.5,3.5,0,0,0-5.876,3.8,77,77,0,0,0,19.389,20.646c4.909,3.314,5.049,11.417-.079,14.566-8.49,5.575-21.425.855-21.549.808a3.524,3.524,0,0,0-4.73,3.085c-.85,25.857-21.818,22.8-32.948,18.193a3.523,3.523,0,0,0-4.856,2.537c-3.323,17.238-22.115,19.194-24.362,19.367-2.059-.17-21.067-2.209-24.374-19.367a3.5,3.5,0,0,0-4.856-2.536c-14.386,5.783-32.156,5.438-32.948-18.195a3.527,3.527,0,0,0-4.724-3.086c-1.278,1.045-24.564,6.244-25.4-7.818a9.066,9.066,0,0,1,3.762-7.554,78.893,78.893,0,0,0,24.067-28.83,23.75,23.75,0,0,0,4.391,1.581c6.16,14.092,22.081,15.732,33.074,12.356,7.751,15.468,26,16.312,27,16.344,1-.032,19.247-.876,27-16.343,11.019,3.379,26.914,1.726,33.074-12.357,5.454-1.367,13.426-5.586,14.1-14.538a15.725,15.725,0,0,0-8.993-15.177h0c-17.021-8.221-38.756-26.42-40.407-61.628a11.069,11.069,0,0,1,3.691-8.979c8.878-7.772,19.6-24.411,4.414-33.816a55.47,55.47,0,0,0-18.907-6.583,3.5,3.5,0,0,0-3.934,2.655c-.032.134-3,12.343-10.041,19.233-7.042-6.89-10.009-19.1-10.04-19.229a3.5,3.5,0,0,0-3.935-2.659c-28.164,4.831-35.53,20.314-14.493,40.4a11.069,11.069,0,0,1,3.692,8.978c-1.235,17.126-5.584,25.912-5.836,26.471-8.867,21.042-27.131,31.6-34.572,35.157-9.2,4.071-12.117,17.107-5.054,24.02-6.889,14.117-15.888,22.589-22.381,27.263-7.666,5.205-8.97,17.281-2.418,23.811a26.658,26.658,0,0,1-5.52,5.1,87.032,87.032,0,0,0-12.39,8.509C43.211,217.335,50,240.831,67.806,242.264a42.228,42.228,0,0,0,14.241-1.279c6.854,22.025,27.626,24.974,44.105,18.844,4.971,28.114,32.615,21.825,43.848,14.472,14.025,8.729,39.19,11.92,43.848-14.472,16.509,6.138,37.254,3.164,44.1-18.844,5.064,1.468,15.977,2.643,21.947-1.056,4.562,3.394,10.125,6.991,13.834,10.982,13.521,14.1,2.009,37.1-17.344,34.74a40.627,40.627,0,0,1-9.238-2.3,3.522,3.522,0,0,0-4.764,2.418c-5.759,27.152-31.549,18.767-41.416,13.405a3.524,3.524,0,0,0-5.211,2.954c-.539,15.641-9.28,20.441-9.873,20.8-17.365,10.111-32.828-4.2-33.471-4.808a3.509,3.509,0,0,0-4.828-.006c-.6.642-16.337,14.967-33.587,4.752-.38-.209-9.328-5.287-9.763-20.739a3.524,3.524,0,0,0-5.211-2.954c-9.687,5.3-35.612,13.867-41.416-13.406a3.5,3.5,0,0,0-4.758-2.419,40.633,40.633,0,0,1-9.244,2.3c-10.581,1.4-17.739-4.868-20.912-11.2-4.977-9.789-1.862-20.732,8.99-28.387,3.59-2.9-.7-8.289-4.335-5.5a63.677,63.677,0,0,0-6.094,5.454C23.084,264.184,39.047,296.267,64.53,292.59ZM136.932,28.8c-2.964-9.289,8.756-12.434,17.134-14.747,1.713,5.346,5.945,15.99,13.86,21.814a3.5,3.5,0,0,0,4.148,0c7.915-5.824,12.147-16.468,13.86-21.814a49.944,49.944,0,0,1,13.513,5.2c9.9,5.833-1.089,18.5-5.674,22.524a18.03,18.03,0,0,0-5.981,14.639,91.311,91.311,0,0,0,5.228,26L170,97.151,146.98,82.414a91.311,91.311,0,0,0,5.228-26,18.03,18.03,0,0,0-5.981-14.639A34.707,34.707,0,0,1,136.932,28.8Zm-29.094,95.089c9.52-4.556,26.339-14.97,36.175-34.785,1.181.467,25.117,19.048,25.987,17.932.552,1.285,25.109-17.642,25.987-17.932,9.836,19.815,26.655,30.229,36.175,34.785a8.685,8.685,0,0,1,5.035,8.334c-.533,7.027-9.718,8.475-10.1,8.531a3.5,3.5,0,0,0-2.764,2.173c-1.91,4.806-4.8,7.985-8.847,9.72-8.475,3.636-19.046-.524-19.144-.563a3.519,3.519,0,0,0-4.617,2.075c-4.741,13.4-19.991,14.719-21.728,14.826-1.772-.11-17-1.444-21.73-14.826a3.52,3.52,0,0,0-4.617-2.075c-.1.042-10.58,4.216-19.112.577-4.06-1.732-6.964-4.916-8.879-9.734a3.5,3.5,0,0,0-2.764-2.173c-1.775-.071-10.074-2.774-10.1-8.531A8.685,8.685,0,0,1,107.838,123.886ZM282.732,226.093c-3.883,12.834-19.875,9.393-25.85,7.247a3.5,3.5,0,0,0-4.661,2.378c-2.36,9.056-6.706,15.089-12.916,17.931-11.781,5.391-26.924-1.938-27.071-2.01a3.523,3.523,0,0,0-5.055,3.211,21.317,21.317,0,0,1-5.839,15.428c-11.666,8.955-29.179-2.869-29.35-2.986a3.5,3.5,0,0,0-3.98,0c-.175.121-17.627,11.98-29.346,2.99a21.328,21.328,0,0,1-5.843-15.432,3.526,3.526,0,0,0-5.05-3.213c-10.9,5.158-33.98,9.535-39.991-15.92a3.506,3.506,0,0,0-4.655-2.379A36.348,36.348,0,0,1,68.468,235.3c-11.9-1.383-15.978-15.881-6.946-23.629,7.334-6.615,11.269-5.677,19.233-15.05,7.32,3.269,15.581,2.233,20.49,1.1,2.682,23.207,22.352,26.841,38.547,21.283,5.3,15.67,21.584,20.686,30.208,21.1,8.624-.416,24.908-5.433,30.208-21.1,16.228,5.565,35.864,1.906,38.547-21.283,4.909,1.135,13.171,2.171,20.49-1.1C268.262,208.5,286.991,209.7,282.732,226.093Z" style="fill:#3f3f70"/></svg>