<svg id="icons" xmlns="http://www.w3.org/2000/svg" viewBox="0 0 340 340"><path d="M77.3,44.667S64.223,90.069,52.54,153.044A172.689,172.689,0,0,1,34.893,203.3,364.644,364.644,0,0,1,12.5,240.016s8.788,14.652,30.988,25.6c0,0,36.916-38.394,52.978-71.468C96.469,194.147,101,97.761,77.3,44.667Z" style="fill:#bac9e8"/><path d="M136.089,18.539l17.149-7.491H188.6L212.808,22.4l3.008,34.187L164.685,191.151l-34.85-49.1S104.186,65.46,136.089,18.539Z" style="fill:#fff"/><path d="M212.808,22.4,188.6,11.048H153.238l-17.149,7.491c-15.212,22.373-17.336,51.49-15.4,75.836l.349.544,45.891-32.8,37.475,24.365.073-.064,11.337-29.838Z" style="fill:#cbcde5"/><polygon points="153.238 11.048 167.495 49.702 188.597 11.048 153.238 11.048" style="fill:#7b8bba"/><polygon points="167.495 49.702 154.296 49.702 158.755 74.536 173.027 74.536 179.568 52.388 167.495 49.702" style="fill:#7b8bba"/><path d="M158.755,74.536h14.272l11,75.075-27.65,38.949-17.253-33.419A586.926,586.926,0,0,1,158.755,74.536Z" style="fill:#7b8bba"/><polygon points="153.238 11.048 167.495 49.702 131.271 74.536 129.348 21.601 153.238 11.048" style="fill:#fff"/><polygon points="167.495 49.702 188.597 11.048 212.808 22.395 209.244 79.876 167.495 49.702" style="fill:#fff"/><path d="M136.089,18.539S133.784,122.644,162.6,175.681L149.323,302.492l-12.755,12.44a24.649,24.649,0,0,1-24.978,5.791,124.683,124.683,0,0,1-47.354-29.374S65.413,264.879,76,225.32a124.723,124.723,0,0,0,4.022-38.54C78.284,152.329,75.338,83.4,77.3,44.667,77.3,44.667,98.818,35.5,136.089,18.539Z" style="fill:#bac9e8"/><path d="M212.808,22.4s-18.173,95.017-56.088,147.066a57.042,57.042,0,0,0-10.871,30.567c-1.405,26.51-3.381,75.5-.95,107.791a21.765,21.765,0,0,0,19.327,20.022c20.979,2.314,55.312,2.7,85.6-15.51,0,0-4.641-39.95-14.541-76.347-8.012-29.408-4.894-61.209,9.4-88.155,0,0,26.389,43.181,37.356,139.827a62.577,62.577,0,0,0,45.459-3.77s-19.413-168.958-53.341-232.36C274.154,51.526,251.535,43.216,212.808,22.4Z" style="fill:#bac9e8"/><path d="M60.741,291.193a3.5,3.5,0,0,0,1.052,2.661c19.79,18.568,40.975,30.227,57.53,31.629,3.787-.086,16.178-1.338,13.653-7.351a3.5,3.5,0,0,0-4.657-1.677,20.97,20.97,0,0,1-15.623.947A121.008,121.008,0,0,1,67.83,289.951c.441-6.191,2.624-30.375,11.55-63.726A128.041,128.041,0,0,0,83.516,186.6c-.824-16.355-1.957-41.217-2.672-66.784-.193-4.547-7.045-4.444-7,.2.718,25.632,1.854,50.55,2.68,66.94a121.137,121.137,0,0,1-3.908,37.46C62.054,263.889,60.788,290.1,60.741,291.193Z" style="fill:#3f3f70"/><path d="M330.973,283.486c-1.287-6.758-19.24-173.391-55.086-235-1.529-.759-22.435-8.24-61.423-29.177-.15-.086-24.21-11.347-24.382-11.433a3.769,3.769,0,0,0-1.485-.331H153.239a3.6,3.6,0,0,0-1,.161,4.347,4.347,0,0,0-.418.137L135.356,15.12c-37.466,17.071-59.7,25.9-60.83,27.424a3.619,3.619,0,0,0-.589,1.155c-.131.456-13.256,46.286-24.837,108.707a168.954,168.954,0,0,1-17.289,49.238A356.9,356.9,0,0,1,9.643,238a3.5,3.5,0,0,0-.141,3.816c.381.634,9.581,15.664,32.443,26.938a3.5,3.5,0,0,0,4.071-.713c.068-.072,7.019-7.317,16.058-18.016a3.5,3.5,0,0,0-5.348-4.518c-6.2,7.342-11.391,13.016-13.982,15.8-14.936-7.884-23.06-17.38-25.976-21.282a370.712,370.712,0,0,0,21.209-35.064,175.988,175.988,0,0,0,18.006-51.275C61.972,121.4,68.372,93.594,73.155,74.275q-.021,11.472.215,25.064a3.5,3.5,0,0,0,7-.122c-.374-21.475-.264-39.017.324-52.2C86.541,44.5,104.847,36.559,132.535,24c-.043,20.851,1.342,94.682,21.865,142.689a60.673,60.673,0,0,0-12.046,33.156c-1.4,26.471-3.392,75.733-.945,108.238a25.294,25.294,0,0,0,22.433,23.238c30.237,3.7,64.284-1.341,87.782-15.989a3.5,3.5,0,0,0,1.673-3.4c-.047-.4-4.785-40.63-14.64-76.862a117.53,117.53,0,0,1,9.147-85.681c1.946-9.589,3.31-19.424,5.591-28.687a3.5,3.5,0,0,0-6.824-1.558c-2.04,8.941-3.8,18.209-5.253,27.554A124.485,124.485,0,0,0,231.9,236.9c8.384,30.827,13.02,64.644,14.161,73.574-21.992,12.545-50.1,17.345-81.454,13.885a18.29,18.29,0,0,1-16.221-16.805c-2.418-32.116-.439-81.039.955-107.343a53.437,53.437,0,0,1,10.205-28.692C193.14,125.408,211.107,47.635,215.3,27.7c27.649,14.671,46.324,22.615,53.889,25.654a245.686,245.686,0,0,0-14.786,36.971,3.5,3.5,0,1,0,6.668,2.128A252.329,252.329,0,0,1,274.1,59.221c29.2,61.613,47.123,202.049,49.621,222.56a60.358,60.358,0,0,1-38.471,3.176c-4.083-42.462-24.963-130.143-34.029-124.044a3.5,3.5,0,0,0-1.857,4.589c7.8,18.389,21.959,58.762,29.2,122.548-.921,4.558,26.042,10.82,50.477-1.021A3.5,3.5,0,0,0,330.973,283.486ZM182.7,14.548,168.114,41.264,158.26,14.548Zm-8.659,44.2-3.63,12.286h-8.727l-2.1-11.669,7.856-5.385ZM139.561,20.915l11.683-5.16,12.024,32.6L140.993,63.627C139.567,43.019,139.52,26.723,139.561,20.915Zm2.046,50.778,11.647-7.985,1.9,10.591c-3.328,10.24-6.465,21.17-9.378,32.64C143.864,94.822,142.531,82.8,141.607,71.693Zm17.518,88.052a225.545,225.545,0,0,1-10.247-35.766c3.715-16.37,7.887-31.812,12.422-45.943H170l7.016,47.881A250.4,250.4,0,0,1,159.125,159.745Zm23.141-46.295L176.6,74.789,180.054,63.1l15.8,11.422C192.112,86.791,187.584,100.163,182.266,113.45Zm15.712-46.034L172.045,48.672l18.047-33.058L208.831,24.4C207.539,30.588,203.932,46.993,197.978,67.416Z" style="fill:#3f3f70"/><path d="M38.645,223.574c-4.081.85-3.487,6.921.69,6.93C44.39,230.34,43.631,222.754,38.645,223.574Z" style="fill:#3f3f70"/><path d="M33.906,235.934c-2.617-3.707-8.324.024-5.811,3.89C30.7,243.6,36.416,239.787,33.906,235.934Z" style="fill:#3f3f70"/><path d="M170.366,191.834c.832-4.979-6.783-5.74-6.931-.68A3.5,3.5,0,0,0,170.366,191.834Z" style="fill:#3f3f70"/><path d="M296.135,255.084c-3.447-2.312-7.376,2.474-4.42,5.39C295.406,263.92,300.232,258.032,296.135,255.084Z" style="fill:#3f3f70"/><path d="M295.486,268.494c-4.076.8-3.455,6.961.689,6.94C301.223,275.253,300.475,267.679,295.486,268.494Z" style="fill:#3f3f70"/><path d="M173.191,263.375a267.244,267.244,0,0,0,40.264-4.548c4.494-.919,3.252-7.659-1.3-6.879a260.88,260.88,0,0,1-39.087,4.429C168.56,256.6,168.665,263.309,173.191,263.375Z" style="fill:#3f3f70"/><path d="M118.2,258.208c4.454,1.015,6.122-5.635,1.644-6.8-18.765-4.535-28.724-10.547-28.823-10.607a3.5,3.5,0,0,0-3.667,5.962C87.786,247.029,98.242,253.386,118.2,258.208Z" style="fill:#3f3f70"/><path d="M234.1,124.779a3.506,3.506,0,0,0-3.722-3.264,290.059,290.059,0,0,1-32.2,0c-4.593-.2-5.033,6.613-.443,6.986.453.029,7.705.479,17.213.479,4.905,0,10.413-.12,15.894-.48A3.5,3.5,0,0,0,234.1,124.779Z" style="fill:#3f3f70"/></svg>