<svg id="icons" xmlns="http://www.w3.org/2000/svg" viewBox="0 0 340 340"><path d="M152.6,10.008c11.464,38.027,66.458,45.892,91.151,18.7l1.87,25.709L228.789,93.68,114.733,66.1Z" style="fill:#7b8bba"/><path d="M152.6,8.781c-13.685,64.745,67.713,99.019,91.151,18.7A137.676,137.676,0,0,0,270.8,49.148a36.478,36.478,0,0,1,15.293,18.823A201.25,201.25,0,0,1,297.5,121.9l-43.94,22.9c-8.618,36.269-37.358,78.23-47.543,169.354a15.368,15.368,0,0,1-14.207,14.082c-26.563,1.953-87.61.739-143.3-41.749a15.405,15.405,0,0,1-3.764-20.22c11.992-19.831,35.53-62.848,42.4-105.107,0,0,1.869-27.579,7.479-44.874L59.574,79.832s19.166-43,49.082-55.158C108.656,24.674,140.909,17.2,152.6,8.781Z" style="fill:#bac9e8"/><path d="M246.328,26.343a3.534,3.534,0,0,0-5.3.154c-23.959,25.23-74.4,18.091-85.731-18.709a3.539,3.539,0,0,0-4.75-.62c-10.981,7.906-42.37,15.25-42.686,15.324-30.9,11.887-50.775,55.44-51.487,57.143a3.5,3.5,0,0,0,.674,3.85l33.626,34.972c-5.033,16.957-6.832,41.075-7,43.534-6.707,41-29.134,82.562-41.916,103.7A18.867,18.867,0,0,0,46.393,290.5c56.581,40.827,103.793,44,145.676,42.458a18.761,18.761,0,0,0,17.441-17.3c4.655-58.832,34.637-133.245,36.453-137.706,7.213-12.756,10.854-30.324,11.064-31.422a128.956,128.956,0,0,0,0-33.575A3.5,3.5,0,1,0,250.106,114c1.822,12.71,2.827,36.948-10.326,60.673-.549,1.579-32.3,78.286-37.249,140.443a11.939,11.939,0,0,1-10.975,10.867c-23.891,1.759-85.455,1.276-140.917-41.04a11.879,11.879,0,0,1-2.892-15.627c13.061-21.6,36-64.135,42.861-106.356.013-.872,1.923-27.11,7.329-44.279.485-1.248,6.67-16.929,15.42-26.93a3.5,3.5,0,1,0-5.267-4.609c-6.735,7.7-11.91,18.042-14.624,24.119L63.774,80.378c4.228-8.6,21.5-41.026,45.951-51.133,2.907-.685,24.8-5.963,38.5-12.672-1.288,25.123,4.345,53.175,40.648,61.85,20.218,3.107,46.125-9.443,56.548-43.1a146.467,146.467,0,0,0,23.544,18.034,33.087,33.087,0,0,1,13.826,17.018,198.576,198.576,0,0,1,11.059,50.708l-26.278,13.7c-4.034,2.172-.888,8.275,3.236,6.206l28.31-14.757A3.5,3.5,0,0,0,301,122.911,204.555,204.555,0,0,0,289.385,68.02a40.115,40.115,0,0,0-16.761-20.63A135.715,135.715,0,0,1,246.328,26.343ZM190.254,71.56c-24.162-4.277-36.013-25.639-35.282-48.543,14.525,25.6,55.7,33.268,81.548,16.256C221.21,76.648,191.537,71.792,190.254,71.56Z" style="fill:#3f3f70"/></svg>