<svg id="icons" xmlns="http://www.w3.org/2000/svg" viewBox="0 0 340 340"><path d="M101.491,12.175S166.4,6.31,242.827,13.8l-9.251,35.274L146.819,70.763,107.385,28.3Z" style="fill:#7b8bba"/><path d="M160.381,36.544v4.467l-58.89-28.836,2.794,70.253L99.8,84.864a7.539,7.539,0,0,0-1.42,8.284c1.859,3.755,3.269,7.9,2.951,12.14l2.956,102.878L82.148,307.4a13.244,13.244,0,0,0,7.208,14.859c13.74,6.523,40.466,14.775,65.481-3.033a13.137,13.137,0,0,0,5.318-12.337L148.57,213.51l17.5-70.152a24.873,24.873,0,0,1,8.529-9.748c4.777,3.248,8.643,7.125,8.909,13.231l11.82,66.951-12.737,95.015a13.261,13.261,0,0,0,8.463,14.184c15.9,5.979,47.306,13.547,64.735-10.876a13.146,13.146,0,0,0,1.945-10.98l-23.309-88.468,3.989-98.346c-.54-5.456,2.874-11.164,5.29-15.825,2.292-4.651-.45-9.188-5.092-10.779L242.827,13.8Z" style="fill:#bac9e8"/><path d="M102.578,39.514l1.707,42.914C128.812,67.2,130.768,54.1,130.768,54.1Z" style="fill:#7b8bba"/><path d="M104.285,82.428,100.277,84.6A37.866,37.866,0,0,0,104.285,82.428Z" style="fill:#7b8bba"/><path d="M241.457,37.812,199.675,50.561s6.426,26.384,38.934,37.156Z" style="fill:#7b8bba"/><path d="M237.94,212.283c0-.286,3.991-97.842,3.968-98.1-.5-4.743,2.878-10.029,4.909-14.089a10.885,10.885,0,0,0-4.581-14.512L246.321,14a3.579,3.579,0,0,0-1.367-2.967C171.639,1.865,100.476,9.117,101.176,8.69a3.755,3.755,0,0,0-1.275.374,3.528,3.528,0,0,0-1.907,3.25L100.7,80.392a10.43,10.43,0,0,0-5.517,14.187c1.594,3.24,2.943,6.863,2.65,10.528-.023.313,2.941,102.4,2.94,102.723L78.732,306.644a16.657,16.657,0,0,0,9.123,18.783c18.886,9.574,48.022,12.656,69.012-3.346a16.6,16.6,0,0,0,6.762-15.617l-11.5-92.738,17.256-69.189a21.911,21.911,0,0,1,5.2-6.536,11.588,11.588,0,0,1,5.427,9.037c-.012.339,11.73,66.448,11.773,66.827l-12.665,94.478a16.687,16.687,0,0,0,10.7,17.925c17.717,6.661,50.215,13.947,68.816-12.12a16.58,16.58,0,0,0,2.48-13.905ZM223.675,22.714l15.379-4.242-.974,17.077-14.4,4.261Zm-.668-7.077L159.45,33.17a3.5,3.5,0,0,0-2.4,2.31l-42.277-20.7A877.556,877.556,0,0,1,223.007,15.637Zm-6.332,9.008V41.881L208.2,44.388v-17.4ZM201.2,28.914V46.46l-13.187,3.9V32.552Zm-20.187,5.569V52.432l-16.6,4.912c-.016-.8-.622-17.953-.532-18.135Zm-61.853-9.758V43.472l-13.183-6.547L105.222,17.9ZM252.937,310.082c-15.881,22.256-44.818,15.589-60.654,9.633a9.716,9.716,0,0,1-6.226-10.443l11.811-88.11c3.219,3.666,8.577-1.2,5.191-4.716l-4.483-4.373-11.59-65.647a18.115,18.115,0,0,0-7.1-13.189c-2-1.657-15-10.851-17.4-12.578a3.5,3.5,0,1,0-4.068,5.7l10.408,7.433a27.815,27.815,0,0,0-5.974,8.191c-.284.593-17.383,69.7-17.586,70.323-.575,1.165-2.7,5.431-5.416,10.416-2.194,4.832,4.843,7.439,6.64,2.441l10.193,82.166a9.6,9.6,0,0,1-3.874,9.054c-23.56,16.773-48.926,8.907-61.949,2.724a9.691,9.691,0,0,1-5.294-10.936l20.429-91.581,1.2,1.688c2.748,3.705,8.3-.283,5.7-4.064L107.753,207l-2.921-101.678a24.3,24.3,0,0,0-2.092-11c-.945-2.014-2.435-4.645-.711-6.688,6.49-4.012,14.133-4.754,25.405-19.107a3.5,3.5,0,0,0-5.681-4.09,45.188,45.188,0,0,1-14.184,12.483L106.3,44.9,147.013,65.12a3.5,3.5,0,1,0,3.114-6.269l-23.966-11.9v-18.8l4.756,2.329v10.53c.078,4.6,6.922,4.6,7,0v-7.1l19.034,9.32,1.828,56.327a3.509,3.509,0,0,0,.368,1.452c.169.863,6.249,10.139,25.367,11.986a3.522,3.522,0,0,0,3.5-3.5V71.113c-.078-4.588-6.919-4.611-7,0v34.319c-10.238-1.905-14.188-5.785-15.271-7.1l-1.095-33.753,73.008-21.6L235.39,82.694c-16.1-7.087-26.028-20.225-26.134-20.369a3.5,3.5,0,0,0-5.622,4.171c.522.7,12.989,17.285,33.617,24.451,2.691.979,4.693,2.964,3.334,5.955-2.769,5.183-6.184,11.342-5.676,17.414l-3.954,97.451-5.576,11.049c-2,4.128,4.087,7.237,6.249,3.155l1.76-3.489,20.958,79.544A9.6,9.6,0,0,1,252.937,310.082Z" style="fill:#3f3f70"/><path d="M169.213,46.877c1.847,4.214,8.142,1.6,6.47-2.681C173.832,39.986,167.542,42.592,169.213,46.877Z" style="fill:#3f3f70"/></svg>