<svg id="icons" xmlns="http://www.w3.org/2000/svg" viewBox="0 0 340 340"><path d="M217.892,144.091s16.138,84.144,33.547,126.167a13.522,13.522,0,0,1-4.268,15.955,58.026,58.026,0,0,1-19.292,10S210.194,187.589,217.892,144.091Z" style="fill:#7b8bba"/><path d="M148.092,122.978c-5.052,3.075-10.528,6.527-12.667,12.33-8.371,20.063-36.33,88.515-47.6,134.2a10.166,10.166,0,0,0,2.917,9.861l15.8,14.8s-.365,5.592-.506,11.481A10.675,10.675,0,0,0,113.227,316a102.252,102.252,0,0,0,21.55,5.135l.091,3.173a6.543,6.543,0,0,0,6.023,6.344c9.873.767,31.8,1.912,49.487-5.148a2.232,2.232,0,0,0,1.262-1.311l.77-5.948s19.134-3.339,34.561-9.734a9.935,9.935,0,0,0,6.087-10.34c-2.6-21.955-10.355-91.7-11-146.473.008-8.717-4.954-15.938-11.9-20.837Z" style="fill:#bac9e8"/><path d="M149.9,109.589l60.251,5.93v15.344s-35.519,12.719-62.061-7.885Z" style="fill:#fff"/><path d="M186.928,22.417s-26.067,2.677-44.691,8.031a10.907,10.907,0,0,0-7.536,7.8L125.875,72.8l17.494,8.747-3.5,18.718s13.82,18.894,42.335,20.468c0,0,22.917,1.662,35.687-10.584l1.575-19.768,20.467-1.487L241,52.446a10.931,10.931,0,0,0-4.209-8.943L211.069,23.466Z" style="fill:#bac9e8"/><path d="M175.046,8.778s18.067,1.657,38.53,5.845L200.569,44.53l-18.289,6.7-7.234-1.419S165.73,21.293,175.046,8.778Z" style="fill:#7b8bba"/><path d="M125.386,65.671l22.706,8.878L139.87,100.79a91.814,91.814,0,0,1-21.436-8.4A11.1,11.1,0,0,1,113.451,79.4l2.986-9.453A6.791,6.791,0,0,1,125.386,65.671Z" style="fill:#fff"/><path d="M218.417,84.87l-.525,25.278s13.257,5.172,27.807-3.5a8.629,8.629,0,0,0,4.207-7.409V87.794a6.8,6.8,0,0,0-8.849-6.472C235.015,83.205,226.642,85.148,218.417,84.87Z" style="fill:#fff"/><path d="M181.618,51.288l31.958-36.665a54.017,54.017,0,0,1,14.29,20.366,1.74,1.74,0,0,1-1.52,2.414l-10.768.51a3.015,3.015,0,0,0-2.863,2.789l-.568,7.716a1.733,1.733,0,0,1-1.367,1.571C206.75,51.08,191.694,52.954,181.618,51.288Z" style="fill:#fff"/><path d="M185.242,61.319s-10.03-30.818-10.2-52.541L145.761,19.289A1.738,1.738,0,0,0,145,22.025a103.612,103.612,0,0,0,16.522,15.319,1.3,1.3,0,0,1,.333,1.677l-4.4,7.549a1.735,1.735,0,0,0,.577,2.347A117.821,117.821,0,0,0,185.242,61.319Z" style="fill:#fff"/><path d="M102.949,295.6c-.119,2.106-.316,5.944-.412,9.966a14.136,14.136,0,0,0,9.545,13.739,111.772,111.772,0,0,0,19.282,4.915,10.03,10.03,0,0,0,9.255,9.919q7.406.575,14.183.575c14.576,0,26.938-1.994,36.875-5.962a5.573,5.573,0,0,0,3.433-4.112l.423-3.267c8.727-1.213,18.065-3.531,32.778-9.631a13.59,13.59,0,0,0,8.108-14.95c11.247-5.252,23.825-13.336,18.254-27.877-11.739-28.335-23.073-77.012-28.824-103.712-.366-14.938,1.2-25.982-12.2-36.008V117.618a35.06,35.06,0,0,0,5.1-3.549c8.905,2.123,18.493,1.554,28.742-4.41a12.178,12.178,0,0,0,5.915-10.416V87.794a10.335,10.335,0,0,0-9.639-10.264l.728-24.982c.224-4.106-2.843-13.734-8.313-10.139a3.5,3.5,0,0,0-.425,4.932,7.432,7.432,0,0,1,1.742,5l-.775,26.592a68.834,68.834,0,0,1-14.807,2.417v-7.33c-.078-4.6-6.922-4.6-7,0,.125,7.015-.328,27.251-.492,34.54-9.709,8.3-25.241,8.806-30.341,8.731l6.936-40.1a28.052,28.052,0,0,0-2.5-17.127c-.161-.505-.7-2.217-1.453-4.8,8.211,1.076,26.17-1.868,25.841-2.181a3.5,3.5,0,0,0,2.638-3.137l.632-8.568,12.8-.606a3.525,3.525,0,0,0,3.084-4.794c-3.618-8.94-7.853-16.933-16.879-24.46-19.3-4.5-40.222-6.177-39.814-6.237a3.813,3.813,0,0,0-1.5.191L142.309,16.809c-5.03,2.5-.706,6.733,1.767,9.506-5.974,1.069-11.305,4.951-12.765,11.062l-6.149,24.065A10.331,10.331,0,0,0,113.1,68.37l-2.987,9.453A14.667,14.667,0,0,0,116.7,94.9a94.027,94.027,0,0,0,21.17,8.462,53.016,53.016,0,0,0,8.287,7.836l-1.313,9.708c-5.321,3.1-10.393,7.14-12.645,13.051-8.342,19.993-36.441,88.8-47.77,134.71a13.682,13.682,0,0,0,3.922,13.254Zm118.9-207.24a79.484,79.484,0,0,0,20.253-3.7,3.318,3.318,0,0,1,4.307,3.131V99.243a5.148,5.148,0,0,1-2.5,4.4,30.791,30.791,0,0,1-22.461,3.886ZM248.206,271.6c3.761,9.273-6.054,14.289-12.635,17.838-2.018-17.832-5.44-50.4-7.724-84.514C233.634,228.214,240.824,253.779,248.206,271.6ZM185.123,124.314a66.336,66.336,0,0,0,21.529-3.5v7.461c-7.865,2.193-34.127,7.875-54.815-6.873l.79-5.843A65.374,65.374,0,0,0,185.123,124.314Zm38.488-90.285-10.865.515a3.5,3.5,0,0,0-3.324,3.239l-.667,9.043a88.251,88.251,0,0,1-19.438,1.561l24.5-28.659A48.682,48.682,0,0,1,223.611,34.029ZM207.018,16.908,183.982,43.855c-2.3-9.249-4.714-20.963-5.3-31.175C184.2,13.3,194.9,14.649,207.018,16.908Zm-35.292-3.22c.961,15.178,5.508,32.792,8.2,42.136a118.54,118.54,0,0,1-18.579-8.984l4.1-7.037a3.5,3.5,0,0,0-.9-4.545,111.68,111.68,0,0,1-15.2-13.538ZM143.78,99.49l7.652-24.42h0l2.4-7.348c1.351-4.394-5.15-6.523-6.654-2.17-1.679,4.938-7.958,25.1-9.635,30.448a85.407,85.407,0,0,1-17.366-7.17,7.627,7.627,0,0,1-3.384-8.9l2.985-9.453a3.307,3.307,0,0,1,4.338-2.074l11.713,4.58c4.308,1.6,6.808-4.773,2.549-6.52l-6.609-2.584,6.328-24.773c1.326-5.433,7.037-5.749,11.72-7.016,2.382,2.2,5.053,4.468,8.044,6.832l-4.268,7.317a3.5,3.5,0,0,0,1.056,4.658,118.991,118.991,0,0,0,28.078,13.3,21.024,21.024,0,0,1,1.4,11.8l-7.041,40.7A55.726,55.726,0,0,1,143.78,99.49ZM91.221,270.349c11.209-45.431,39.14-113.816,47.434-133.693,1.608-4.3,5.471-7.185,9.307-9.43,17.627,13.461,45.763,12.7,61.456,7.552a21.143,21.143,0,0,1,9.138,16.964c.653,55.273,8.6,126.369,11.026,146.843a6.465,6.465,0,0,1-3.952,6.695c-15.5,6.427-24.655,8.442-33.627,9.49a3.5,3.5,0,0,0-3.065,3.027l-.615,4.755c-11.928,4.566-27.789,6.116-47.162,4.612a3.035,3.035,0,0,1-2.794-2.954c-.238-5.545,1.279-17.25,2.431-31.1a3.5,3.5,0,0,0-6.969-.664c-.79,8.3-1.74,19.151-2.223,24.73a106.216,106.216,0,0,1-17.235-4.481,7.158,7.158,0,0,1-4.836-6.957c.587-17.832,12.153-89.822,41.625-148.868,2.135-4-3.835-7.406-6.139-3.36-23.435,42.8-37.025,112.158-40.838,133.659L93.131,276.816A6.675,6.675,0,0,1,91.221,270.349Z" style="fill:#3f3f70"/><path d="M177.155,76.188c-.967-4.5-7.692-3.15-6.859,1.37C171.272,82.043,177.99,80.711,177.155,76.188Z" style="fill:#3f3f70"/><path d="M172.626,95.008c-1.373-3.509-6.793-2.406-6.731,1.34C166.208,101.878,174.474,100.245,172.626,95.008Z" style="fill:#3f3f70"/><path d="M193.178,303.819a3.5,3.5,0,0,0,3.5-3.606c-.025-.831-2.5-83.569-1.118-121.835.1-4.544-6.766-4.907-7-.252-1.384,38.5,1.092,121.465,1.118,122.3A3.5,3.5,0,0,0,193.178,303.819Z" style="fill:#3f3f70"/></svg>