<svg id="icons" xmlns="http://www.w3.org/2000/svg" viewBox="0 0 340 340"><path d="M25.547,205.807S8,212.245,10.188,233.95c.752,7.982,7.078,14.662,15.359,14.755,0,0,16.29,19.033,38.375,0l4.309-11.85Z" style="fill:#fff"/><path d="M87.075,277.059s24.736-37.229,70.709-23.986l37.479-147.914-5.747-48.222L132.3,59.685,102.317,96.664S79.08,234.667,87.075,277.059Z" style="fill:#7b8bba"/><path d="M264.926,263.333a17.416,17.416,0,0,0-3.377,14.761c1.331,6.056,8.144,11.17,14.043,6.11,0,0,21.591,16.675,38.266-5.772A19.958,19.958,0,0,0,329.469,263.5c2.528-9.461-4.143-19.249-13.947-19.549Z" style="fill:#fff"/><path d="M213.344,69.163s-21.355,9.805-66.037,85.889a31.515,31.515,0,0,0,0,14.975s-8.214,20.369,1.314,40.411c0,0-7.885,19.384-.328,44.682-4.731,13.781-13.152,53.259,21.336,58.048,11.791,1.1,26.338.224,38.942-7.111a40.774,40.774,0,0,0,13.644-57.508s9.856-19.384-1.971-44.025c0,0,7.483-5.257,10.148-24.97,0,0,6.936,13.142,17.121,19.056,0,0-.328,20.7,13.142,33.512,0,0-2.957,16.427,4.271,31.211,0,0,39.268,10.185,50.6-19.384,0,0-.329-19.712-10.514-31.869,0,0,2.629-23.655-20.369-55.524,0,0-5.923-43.294-40.083-64.394C244.556,92.162,238.642,76.391,213.344,69.163Z" style="fill:#bac9e8"/><path d="M107.242,164.905h0s5.661-6.805,4.405-17.827c-5.472-44.065-3.168-67.969-3.168-67.969C58.654,103.3,53.47,139.59,53.47,139.59c-20.16,9.5-18.432,35.136-18.432,35.136-15.274,6.114-22.26,23.385-17.6,38.728,8.051,27.3,44.1,23.481,44.1,23.481-7.152,18.62-12.284,51.217,14.126,60.026,27.423,7.5,17.972-45.921,17.972-45.922.021-.048,6.85-21.528,5.668-42.912v0C99.32,208.1,109.152,192.449,107.242,164.905Z" style="fill:#bac9e8"/><path d="M111.647,147.078C96.674,46.449,223.1,27.685,153.4,144.849a35.685,35.685,0,0,1,13.346-6.975c7.962-1.728,53.056-9.571,34.923-25.122,0,0,36.557-16.442,15.127-33.643,0,0,16.178-21.193-7.564-30.018,0,0,5.043-24.582-26.473-15.757,0,0-13.866-18.7-34.456,5.462,0,0-18.553-9.458-29.415,20.8-25.1-9.43-27.108,40.379-17.341,64.066A205.77,205.77,0,0,0,111.647,147.078Z" style="fill:#fff"/><path d="M318.846,240.853c-.511-6.054-2.507-19.839-10.262-29.909.2-5.858-.606-27.687-20.612-55.746-1.061-6.5-8.591-45-40.663-65.441a39.044,39.044,0,0,0-10.021-12.245c-3.546-2.878-7.992,2.312-4.5,5.359,6.449,5.42,8.484,10.492,8.5,10.519,32.764,21.985,39.658,60.3,39.891,63.642a3.529,3.529,0,0,0,.63,1.573c21.805,30.215,19.752,52.877,19.73,53.089a3.5,3.5,0,0,0,.8,2.634c8.253,9.851,9.5,25.621,9.67,29.022-1.061,2.879-4.391,6.405-.7,8.736,3.38,1.855,5.263-1.622,6.391-4.314,6.327,1.386,10.175,8.658,8.4,14.836a16.421,16.421,0,0,1-12.7,12.358,3.5,3.5,0,0,0-2.331,1.379c-4.393,5.914-9.515,9.32-15.225,10.125-9.582,1.353-18.015-4.978-18.091-5.036a3.5,3.5,0,0,0-4.474.162c-3.228,3.027-7.573-.508-8.293-4.262a14.015,14.015,0,0,1,1.494-10.084c6.373,1.239,24,3.6,37.859-4.6,3.915-2.409.437-8.3-3.567-6.024-12.011,7.113-28.308,4.67-33.378,3.665-4.163-9.55-4.016-19.694-3.616-24.577,6.181-.028,19.353-1.116,27.5-9.26,3.2-3.308-1.638-8.148-4.95-4.95-7.055,7.056-20.084,7.3-24.133,7.189-8.718-9.012-10.628-21.971-11.043-27.437,6.438-2.029,21.682-8.538,27.989-25.966a3.5,3.5,0,1,0-6.582-2.382c-5.642,15.589-20.018,20.718-24.43,21.952-8.553-5.629-14.556-16.82-14.618-16.935a3.52,3.52,0,0,0-6.563,1.165c-2.371,17.532-8.688,22.568-8.692,22.574a3.5,3.5,0,0,0-1.144,4.379c9.605,20.008,4.1,36.013,2.428,39.988-11.909,6.462-26.98,7.237-37.664,6.709a3.516,3.516,0,0,0-3.669,3.322c.046,4.822,5.682,3.6,9.091,3.813,10.268,0,22.814-1.414,33.644-6.69,9.72,16.924,2.875,40.551-14.244,49.929-9.893,5.712-22.251,7.924-36.725,6.573a24.776,24.776,0,0,1-22.477-23.88c-.523-17.963,4.01-29.236,4.053-29.34a3.5,3.5,0,0,0,.121-2.345,72.366,72.366,0,0,1-.832-39.041c10.792,4.391,33.063,5.821,48.393,1.064a3.5,3.5,0,1,0-1.815-6.76c-23.468,6.3-41.582.183-46.139-1.628-5.843-13.347-3.439-26.851-1.779-32.995,9.579,4.221,30.243,6.239,44.291,1.951a3.5,3.5,0,1,0-1.757-6.776,67.268,67.268,0,0,1-41.587-2.345c-1.361-7.181,1.547-14.417,5.655-20.4,2.247-1.767,7.768-5.484,12.545-6.187,7.044-1.478,50.54-8.423,38.839-27.259,11.691-6.013,28.524-21.135,13.91-35.245,6.567-10.6,6.726-25.146-8.38-31.635.841-15.4-11.452-22.24-29.063-17.453-10.283-10.421-25.272-7.783-36.675,5.293-12.977-3.826-24.794,5.778-30.481,20.645-14.878-2.241-22.135,10.288-23.827,28.4-33.135,20.975-40.988,46.418-42.581,53.488-16.933,9.08-18.77,28.353-18.864,35.246C17.48,179.287,10.086,195.3,13.213,210.8,3.2,221.7,2.635,249.587,23.934,252.115c5.337,5.964,18.252,11,28.524,7.228-1.112,13.738,2.285,35.529,22.279,40.993,18.217,4.35,23.937-10.512,23.958-30.9,9.471-8.493,24.712-17.463,45.652-15.419.087.321.169.641.261.965-8.115,25.334-8.4,62.75,33.363,62.085,12.3,0,23.108-2.644,32.2-7.895,20.954-11.478,28.773-40.689,15.989-60.918,2.188-5.493,7.282-22.275-1.713-42.947,2.177-2.5,5.456-7.484,7.744-16.524a50.584,50.584,0,0,0,11.867,11.794c.273,5.587,2.022,21.409,12.885,32.785-.552,4.678-1.337,17.324,3.958,29.573a21.009,21.009,0,0,0-2.772,15.918c1.469,7.781,10.419,13.629,17.511,9.592,12.509,7.926,29.453,7.494,40.209-6.861,10.561-1.776,24.187-18.275,14.216-33.208A18.3,18.3,0,0,0,318.846,240.853ZM99.776,85.828c1.009-15.066,6.636-27.088,17.636-23.057a3.521,3.521,0,0,0,4.768-1.992c4.547-13.68,14.255-23.295,24.531-18.864a3.5,3.5,0,0,0,4.253-.848c9.952-12.172,21.375-14.694,28.982-5.648A3.5,3.5,0,0,0,183.7,36.7c9.342-2.615,16.063-2.349,19.437.768,4.022,3.716,2.675,10.859,2.663,10.916a3.5,3.5,0,0,0,2.21,3.984c15.727,5.38,10.572,18.291,6,24.613a3.5,3.5,0,0,0,.591,4.853c15.251,10.993-6.1,23.932-14.372,27.722a3.5,3.5,0,0,0-.765,5.914c1.6,1.3,3.428,3.164,3.021,4.706-1.913,6.766-24.894,11.862-39.749,15.186,14.079-27.444,25.543-59.442,2.579-72.376a23.692,23.692,0,0,0-21.334-.18c-23.327,10.243-36.778,38.623-36.837,65.782C101.438,114.914,98.531,99.977,99.776,85.828Zm-3.6,120.731a3.5,3.5,0,0,0-.365,1.761c1.238,22.087-5.923,40.917-5.622,43.325,1.721,8.093,3.5,35.573-4.634,40.947-2.2,1.715-5.132,2.04-8.967.992-22.127-7.445-18.538-34.908-13.574-50.139,7.532,5.982,16.85,6.07,17.32,6.07,4.586-.08,4.6-6.895.012-7-.1,0-10.027-.159-15.632-7.2a51.45,51.45,0,0,1,4.468-35.711,33.254,33.254,0,0,0,16.228,5.442c4.373-.045,4.706-6.515.328-6.984-8.288-.79-12.67-4.068-14.187-5.458-.516-4.465-1.8-22.536,9.306-33.324a36.864,36.864,0,0,0,11.5,3.233c4.293-.034,4.738-6.364.452-6.97a30.592,30.592,0,0,1-9.466-2.833c-.789-3.487-2.406-13.352,1.891-22.3a3.5,3.5,0,1,0-6.311-3.029c-5.083,10.589-3.53,21.754-2.511,26.445-14,13.047-12.5,34.083-11.821,39.636a57.78,57.78,0,0,0-6.732,43.356,110.9,110.9,0,0,0-4.17,14.554c-14.808,7.032-25.051-4.445-25.483-4.942-1.887-2.036-5.228-.845-7.546-2.388-8.831-3.968-8.4-17.684-4.73-24.724C21.3,230.8,32.69,238.106,48.575,240.093a3.5,3.5,0,1,0,.869-6.946c-11.214-1.113-26.168-7.333-29.2-22.821-2.769-12.235,2.333-24.894,13.024-30.833,2.254,4.643,8.374,13.476,18.1,15.369,3.935.054,4.829-5.773.984-6.859-9.112-2.675-13.074-11.928-13.84-13.948-.077-3.009.061-21.016,13.477-29.65,1.831,2.9,5.7,8.763,10.754,9.816a3.515,3.515,0,0,0,1.723-6.549c-4.012-2.263-6.458-6.655-7.351-8.5,1.055-4.773,7.384-27.31,35.4-46.742-.276,19.221,6.992,38.217,15.7,55.591.822,8.953-3.489,14.434-3.662,14.648a3.505,3.505,0,0,0-.8,2.481C105.381,191.438,96.778,205.493,96.171,206.559Zm46.573,40.309a65.658,65.658,0,0,0-44.429,13.814c-.357-4.434-.863-7.928-1.1-9.44,1.429-4.8,6.478-23.422,5.629-42.362,2.589-4.687,9.334-19.415,7.972-42.956a29.248,29.248,0,0,0,4.281-19.443c-.1-.571-9.4-57.271,31.95-77.376,9.49-4.961,22.146,1.164,23.706,11.834,3,7.738-3.973,37.432-23.082,66.634a31.372,31.372,0,0,0-4,22.193c-1.576,4.512-6.881,22.5,1.172,40.826A75.687,75.687,0,0,0,142.744,246.868Z" style="fill:#3f3f70"/><path d="M163.249,250.341c-4.724-.972-6.018,6.089-1.264,6.891C166.648,258.169,167.973,251.171,163.249,250.341Z" style="fill:#3f3f70"/><path d="M237.452,118.012a3.5,3.5,0,0,0-4.948.11c-18.163,18.989-10.841,47.545-10.52,48.752a3.5,3.5,0,0,0,6.766-1.793c-.068-.259-6.6-26,8.812-42.12A3.5,3.5,0,0,0,237.452,118.012Z" style="fill:#3f3f70"/></svg>