<svg id="icons" xmlns="http://www.w3.org/2000/svg" viewBox="0 0 340 340"><path d="M94.445,245.151s-2.783,10.812-6.3,24.445a15.425,15.425,0,0,0,4.045,14.767c14.118,14.1,53.174,43.683,120.925,27.3a19.475,19.475,0,0,0,14.824-18.1l.865-19.8S150.739,290.56,94.445,245.151Z" style="fill:#fff"/><path d="M292.564,281.184s1.376,11.142,1.962,23.154a7.271,7.271,0,0,0,6.483,6.881,80.585,80.585,0,0,0,23.515-.861,7.314,7.314,0,0,0,5.885-7.745l-2.078-26.226Z" style="fill:#fff"/><path d="M247.466,161.849,262.9,185.071a47.2,47.2,0,0,1,7.892,26.128,47.2,47.2,0,0,0,4.553,20.226,57.441,57.441,0,0,1,5.441,14.733c1.627,8.063,4.708,24.987,7.607,32.53a7.931,7.931,0,0,0,6.209,5.474,71.429,71.429,0,0,0,30.418-1.343,7.977,7.977,0,0,0,5.864-8.081c-1.329-27.254-9.256-139.492-51.254-198.491l-23.767,22.1S247.155,146.038,247.466,161.849Z" style="fill:#7b8bba"/><path d="M174.368,31.442s9.917-11.991,33.669-6.42c0,0,14.236,3.148,19.287,15.144l-4.04,27.06-25.51,43.711-38.119-8.21Z" style="fill:#7b8bba"/><path d="M196.532,94.285l-10.273,7.762L186.92,88.7s-19.583-19.514-19.091-49.894c0,0-24.325-.648-55.532,7.215,0,0,5.161,50.864-9.091,103.2,0,0-12.728,56.972-16.934,86.283a16.243,16.243,0,0,0,5.191,14.351c15.1,13.646,58.371,43.9,136.322,32.545,0,0,12.328-5.479,17.179-31.622.334-1.8.572-3.608.742-5.428.809-8.648,3.494-38.819,3.7-60.5,0,0,2.211-35.383,9.092-52.338s21.623-34.646,21.131-56.269c0,0-22.275-20.771-49.469-31.026l-17.12,32.991Z" style="fill:#bac9e8"/><path d="M202.256,74.713l-5.724,19.572c26.868.2,47.037-29.148,30.792-54.119,0,0-4.344,16.981-19.39,26.963A13.789,13.789,0,0,0,202.256,74.713Z" style="fill:#fff"/><path d="M184.37,59.076a41.232,41.232,0,0,1-10-27.634,36.984,36.984,0,0,0-11.349,38.517s4.793,14.535,23.9,18.743l1.011-18.83A15.42,15.42,0,0,0,184.37,59.076Z" style="fill:#fff"/><path d="M141.1,182.014l6.842,9.331s-20.216,13.063-38.255,27.68l-7.776-8.4S114.35,196.01,141.1,182.014Z" style="fill:#bac9e8"/><path d="M205.836,193.884l-9.54,6.547s14.768,19.007,26.967,38.762l10.113-5.358S226.461,215.928,205.836,193.884Z" style="fill:#bac9e8"/><path d="M161.274,302.407a3.95,3.95,0,0,1-.69-.066v-.006c-4.862-.569-3.754-7.819,1.052-6.913v0C165.993,295.938,165.621,302.365,161.274,302.407Z" style="fill:#cbcde5"/><path d="M142.178,183.487l4.447,6.064a2.106,2.106,0,0,1-.532,3.005c-5.2,3.437-20.522,13.748-34.877,25.236a2.109,2.109,0,0,1-2.868-.21l-5.116-5.525a2.1,2.1,0,0,1,.018-2.887c3.765-3.934,15.533-15.214,36.229-26.3A2.116,2.116,0,0,1,142.178,183.487Z" style="fill:#fff"/><path d="M204.331,194.918l-6.2,4.255a2.1,2.1,0,0,0-.49,3.012c3.774,4.961,14.83,19.754,24.585,35.338a2.109,2.109,0,0,0,2.776.749l6.654-3.525a2.1,2.1,0,0,0,.937-2.731c-2.255-4.957-9.638-19.49-25.51-36.788A2.115,2.115,0,0,0,204.331,194.918Z" style="fill:#fff"/><path d="M18.245,237.687s-4.05,10.126-8.725,24.9c-3.1,11.207,12.939,16.588,26.88,16.6a8.969,8.969,0,0,0,8.633-6.761l6.491-25.715Z" style="fill:#fff"/><path d="M112.3,46.023S49.21,87.869,15.152,232.152a10.919,10.919,0,0,0,.526,6.739c2.331,5.537,9.164,14.772,28.722,13.968a11.137,11.137,0,0,0,10.32-8.281c1.215-4,5.119-21.168,6.973-24.553C63,216.968,75.4,192,75.815,189.371c1.379-5.343,3.162-11.169,6.865-15.389l27.627-33.644S131.705,85.136,112.3,46.023Z" style="fill:#7b8bba"/><path d="M334.38,274.567c-1.614-32.121-9.907-142.29-52.37-200.888A183.014,183.014,0,0,0,246.332,48.73a3.5,3.5,0,1,0-3.27,6.189,181.19,181.19,0,0,1,33.078,22.9c-.195,19.605-13.758,36.076-20.884,53.385-18.121,46.514-.349,127.609-28.581,147.828-24.206,3.607-50.384,3.123-71.985-1.87a44.379,44.379,0,0,1,3-22.923,84.105,84.105,0,0,0,5.356-20.011,471.144,471.144,0,0,1,9.637-52.012c4.795-23.291.143-47.412,16.275-77.82l8.8-6.647c29.849-.983,49.5-32.7,32.634-59.283-5.8-13.219-20.952-16.714-21.557-16.848-23.691-5.556-34.982,5.219-36.882,7.278-11.39,7.271-29.556,48.931,11.329,62.485l-.48,9.684c-12.087,21.582-14.595,50.271-15,65.563a63.883,63.883,0,0,1-1.9,13.876,478.047,478.047,0,0,0-9.79,52.814,77.1,77.1,0,0,1-4.922,18.337,52.386,52.386,0,0,0-3.766,23.7c-27.751-7.584-45.226-20.513-53.609-28.092a12.718,12.718,0,0,1-4.074-11.258c3.935-27.425,15.539-79.956,16.778-85.534,14.972-15.343,24.294-70.272,10.714-102.037a243.488,243.488,0,0,1,36.36-5.6,3.5,3.5,0,0,0-.526-6.98c-9.5.851-26.1,2.37-42.7,7.253C66.652,79.443,35.621,136.3,11.744,231.349a14.682,14.682,0,0,0,1.291,10.177c-1.737,4.684-4.19,11.588-6.852,20-3.76,14.159,13.107,20.915,29.753,21.157a12.5,12.5,0,0,0,12.49-9.406L53.61,252.74a14.558,14.558,0,0,0,4.493-7.267c1.07-3.512,5.134-21.054,6.752-23.947L77.3,195.3c1.4-2.773,2.438-7.016,3.316-10.014,1.467-7.036,11.979-17.337,16.14-22.939-4.05,18.837-11.051,52.442-13.952,72.66a19.708,19.708,0,0,0,6.174,17.316l-4.225,16.395a19.005,19.005,0,0,0,4.96,18.117c15.236,16.618,50.719,34.239,85.1,33.12a166.233,166.233,0,0,0,39.127-4.9,23.078,23.078,0,0,0,17.272-19.076c.353-1.555.5-10.322.653-12.052,30.965-25.051,11.817-101.409,29.879-150.1,6.493-15.475,17.377-29.546,20.527-47.209,37.1,60.8,44.072,166.8,45.119,188.285a4.505,4.505,0,0,1-3.291,4.535,68.2,68.2,0,0,1-28.9,1.27,4.415,4.415,0,0,1-3.466-3.064l-2.262-7.273c-.972-2.614-4.549-21.781-5.255-24.909a60.55,60.55,0,0,0-5.71-15.542c-8.022-17.142.09-27.746-12.692-46.792a3.5,3.5,0,0,0-5.83,3.875,43.565,43.565,0,0,1,7.306,24.191,51.01,51.01,0,0,0,4.892,21.726c2.166,4.373,4.29,9.113,5.171,13.925.845,3.768,4.251,22.277,5.434,25.606,1.391,4.135,2.578,11.038,6.771,13.359.553,5.1,1.187,12.742,1.47,18.693,1.064,10.605,10.162,10.678,19.1,10.692a78.118,78.118,0,0,0,15.076-1.409,10.813,10.813,0,0,0,8.694-11.454L332.271,281.8A11.441,11.441,0,0,0,334.38,274.567ZM227.793,48.737A30.673,30.673,0,0,1,229.517,58a30.577,30.577,0,0,1-16.009,15.009c-3.528,1.387-2.4,6.812,1.33,6.74,4.256-.89,8.127-3.849,10.989-6.027-4.613,9.162-14.675,15.342-24.487,16.591l4.275-14.617a10.33,10.33,0,0,1,4.254-5.649A52.235,52.235,0,0,0,227.793,48.737Zm-20.522-20.3c.121.027,11.651,2.746,16.316,11.989-1.248,3.782-6.052,16.132-17.588,23.786a17.335,17.335,0,0,0-7.1,9.517l-5.4,18.461-3.373,2.548c.173-3.857,1.078-20.5,1.3-24.68a18.844,18.844,0,0,0-4.384-13.244h0a38.234,38.234,0,0,1-9.168-23.938C180.508,30.525,189.508,24.269,207.271,28.438ZM166.365,68.926a37.793,37.793,0,0,1-1.3-8.467,29.57,29.57,0,0,0,9.261,9.7,3.478,3.478,0,0,0,1.932.585c3.325.126,4.836-4.638,1.939-6.417a23.113,23.113,0,0,1-10.341-18.468,34.12,34.12,0,0,1,3.606-6.206A46.142,46.142,0,0,0,181.7,61.336h0a11.865,11.865,0,0,1,2.738,8.348l-.778,14.485C170.564,79.727,166.719,69.9,166.365,68.926ZM41.639,271.565a5.469,5.469,0,0,1-5.266,4.117c-11.293.1-17.982-3.245-21.638-6.058-2.915-2.1-2.219-5.785-1.025-8.648,3.8,2.985,10.2,6.489,19.807,7.258a3.5,3.5,0,0,0,.558-6.978c-10.3-.823-15.821-5.271-17.969-7.48.685-2,1.327-3.831,1.907-5.456,4.252,4.805,16.061,9.134,27.485,7.958Zm38.336-99.8a32.05,32.05,0,0,0-6.085,11.607c-.786,2.526-1.707,6.614-2.91,8.934-1.725,4.081-13.844,27.962-14.5,31.841l-5.144,19.548a7.592,7.592,0,0,1-7.078,5.67c-18.163.774-26.836-8.456-25.7-16.4C42.779,139.413,67.865,91.91,110.932,51.474c11.75,28.351,3.281,64.432-1.077,79.092a38.772,38.772,0,0,1-7.244,13.628Zm144.5,120.964a168.314,168.314,0,0,1-44.824,4.507,3.5,3.5,0,0,0-3.636,3.358c.1,5.035,6.338,3.465,9.717,3.762a176.332,176.332,0,0,0,36.767-4,15.926,15.926,0,0,1-10.2,7.9c-22.721,5.4-43.194,6.283-63.959,1.962a50.852,50.852,0,0,1,2.914-19.577,3.5,3.5,0,0,0-6.618-2.285,59.118,59.118,0,0,0-3.378,20.118,106.728,106.728,0,0,1-46.588-26.59,11.964,11.964,0,0,1-3.29-10.564c6.559,5.514,22.446,17.589,43.391,24.222a3.5,3.5,0,0,0,1.192-6.792c-23.573-8.535-38.3-21.061-42.663-25.109l1.627-6.314c30.97,25.394,83.706,36.114,129.83,29.021Zm99.372,14.2a77.059,77.059,0,0,1-22.469.815c-3.893-.435-3.376-4.749-3.583-7.631a66.917,66.917,0,0,0,19.967.605,3.5,3.5,0,1,0-.851-6.948,57.4,57.4,0,0,1-19.654-.935c-.146-1.728-.294-3.342-.435-4.794a74.407,74.407,0,0,0,28.784-1.755l1.316,16.609A3.814,3.814,0,0,1,323.845,306.924Z" style="fill:#3f3f70"/><path d="M139.475,178.913c-27.039,14.148-39.7,28.829-40.231,29.446a3.5,3.5,0,0,0,.1,4.647l7.775,8.4a3.5,3.5,0,0,0,4.772.342c17.677-14.325,37.751-27.331,37.951-27.461a3.52,3.52,0,0,0,.923-5.009l-6.842-9.331A3.5,3.5,0,0,0,139.475,178.913Zm-29.437,35.342-3.339-3.606c4.306-4.322,15.222-14.243,33.37-24.119l2.873,3.918C136.934,194.453,123.138,203.855,110.038,214.255Z" style="fill:#3f3f70"/><path d="M193.533,202.579c.146.188,14.8,19.094,26.752,38.453a3.5,3.5,0,0,0,4.617,1.254l10.113-5.358a3.5,3.5,0,0,0,1.626-4.354c-.292-.757-7.4-18.8-28.249-41.081a3.5,3.5,0,0,0-4.536-.494l-9.54,6.546A3.522,3.522,0,0,0,193.533,202.579Zm11.782-4.093c13.819,15.264,20.877,28.276,23.528,33.79l-4.338,2.3c-8.93-14.143-18.847-27.574-23.195-33.339Z" style="fill:#3f3f70"/><path d="M161.826,295.451c-.064-.011-.127-.019-.19-.027v0c-4.808-.905-5.912,6.346-1.052,6.913v.006C165.178,303.168,166.45,296.294,161.826,295.451Z" style="fill:#3f3f70"/><path d="M193.617,115.933c2.626,3.78,8.317-.025,5.82-3.89C196.824,108.349,191.123,112.049,193.617,115.933Z" style="fill:#3f3f70"/><path d="M188.257,150.293c-4.075.8-3.454,6.961.69,6.94C193.993,157.055,193.252,149.477,188.257,150.293Z" style="fill:#3f3f70"/><path d="M182.417,204c-2.977-4.085-8.828.7-5.379,4.42C179.946,211.388,184.753,207.432,182.417,204Z" style="fill:#3f3f70"/><path d="M170.777,252.033c-4.487.99-3.15,7.686,1.371,6.87C176.644,257.919,175.308,251.225,170.777,252.033Z" style="fill:#3f3f70"/></svg>