<svg id="icons" xmlns="http://www.w3.org/2000/svg" viewBox="0 0 340 340"><path d="M300.711,214.684,170,224.631,39.289,214.684s-10.1,14.42-25.8,20.4a4.975,4.975,0,0,0-3.193,5.086,221.12,221.12,0,0,0,5.044,31.438c2.573,10.591,3.539,19.34,4.015,31.018a4.988,4.988,0,0,0,4.976,4.833c6.966.035,20.165.574,32.116,3.717,28.072,6.5,69.192,5.724,95.382-16.723,11.193-10.393,25.158-10.383,36.342,0,26.272,22.464,67.185,23.215,95.382,16.726,11.951-3.145,25.151-3.684,32.116-3.719a4.988,4.988,0,0,0,4.976-4.833,147.7,147.7,0,0,1,4.015-31.018,221.12,221.12,0,0,0,5.044-31.438,4.975,4.975,0,0,0-3.193-5.086C310.805,229.1,300.711,214.684,300.711,214.684Z" style="fill:#7b8bba"/><path d="M170,224.631V206.238c.368-15.675-14.558-24.178-24.347-11.81l-1.544,8.9Z" style="fill:#fff"/><path d="M145.653,194.428c2.634-8.459,1.158-27.873-15.618-25.823-3.459.327-8.485,2.754-11.944,6.806l-1.7,5.072Z" style="fill:#fff"/><path d="M118.091,175.411c6.893-11.921-4.869-28.575-19.03-17.92a15.729,15.729,0,0,0-5.659,7.985S98.384,179.023,118.091,175.411Z" style="fill:#fff"/><path d="M93.4,165.476s5.865-21.259-18.34-23.73l-6.041,24.2Z" style="fill:#fff"/><path d="M57.342,165.893s3.689-65.328-2.164-125.278a6.93,6.93,0,0,1,3.262-6.59l14.1-8.651S79.409,64.611,75,165.893Z" style="fill:#7b8bba"/><path d="M58.078,159.422s74.085,0,111.922,65.209c-10.133,92.229-140.518,86.906-130.711-9.947C39.289,214.684,55.315,192.026,58.078,159.422Z" style="fill:#bac9e8"/><path d="M150.5,269.249c17.745-19.58,19.5-44.618,19.5-44.618-26.359-45.429-70.3-59.205-94.544-63.386-2.368,20.815,3,59.043,31.643,70.759C119.547,237.7,143.842,250.875,150.5,269.249Z" style="fill:#fff"/><path d="M170,224.631V206.238c-.368-15.675,14.558-24.178,24.347-11.81l1.544,8.9Z" style="fill:#fff"/><path d="M194.347,194.428c-2.634-8.459-1.158-27.873,15.618-25.823,3.459.327,8.485,2.754,11.944,6.806l1.7,5.072Z" style="fill:#fff"/><path d="M221.909,175.411c-6.893-11.921,4.869-28.575,19.03-17.92a15.729,15.729,0,0,1,5.659,7.985S241.616,179.023,221.909,175.411Z" style="fill:#fff"/><path d="M246.6,165.476s-5.865-21.259,18.34-23.73l6.041,24.2Z" style="fill:#fff"/><path d="M282.658,165.893s-3.689-65.328,2.164-125.278a6.93,6.93,0,0,0-3.262-6.59l-14.1-8.651S260.591,64.611,265,165.893Z" style="fill:#7b8bba"/><path d="M281.922,159.422s-74.085,0-111.922,65.209c10.133,92.229,140.518,86.906,130.711-9.947C300.711,214.684,284.685,192.026,281.922,159.422Z" style="fill:#bac9e8"/><path d="M189.505,269.249c-17.745-19.58-19.5-44.618-19.5-44.618,26.359-45.429,70.3-59.205,94.544-63.386,2.368,20.815-3,59.043-31.643,70.759C220.453,237.7,196.158,250.875,189.505,269.249Z" style="fill:#fff"/><path d="M14.464,285.707c4.655,39.694-8.117,17.8,41.093,28.851,30.117,6.877,71.6,5.658,98.575-17.472,9.918-9.245,21.84-9.219,31.736,0,20.434,18.183,49.323,21.405,72.766,20.991a111.921,111.921,0,0,0,25.809-3.52c16.49-4.337,35.813-3.548,36.008-3.537a3.581,3.581,0,0,0,2.591-.986,3.5,3.5,0,0,0,1.063-2.559c.112-13.978,1.065-22.466,3.954-35.039a221.132,221.132,0,0,0,5.436-36.013,3.5,3.5,0,0,0-2.548-3.558c-16.237-4.576-27.255-20.026-27.377-20.2a119.637,119.637,0,0,1-17.429-47.172c-.216-4.067-3.6-70.315,2.6-128.828a3.5,3.5,0,0,0-1.649-3.352l-17.8-10.923a3.5,3.5,0,0,0-5.278,2.38c-.253,1.44-5.679,33.6-3.481,114.116-9.262,1.852-15.674,7.441-17.474,15.823-11.061-9-26.274-2.107-26.621,12.26-15.026-6.8-27.1,4.155-26.613,19.457-7.675-3.376-15.731-.368-19.826,6.581-4.095-6.949-12.154-9.957-19.826-6.581.489-15.31-11.6-26.255-26.613-19.457-.346-14.37-15.567-21.264-26.62-12.26-1.8-8.384-8.21-13.969-17.475-15.823,2.2-80.515-3.228-112.676-3.481-114.116a3.526,3.526,0,0,0-5.278-2.38l-17.8,10.923a3.5,3.5,0,0,0-1.649,3.352c6.2,58.513,2.817,124.761,2.6,128.828-7.135,37.619-19.461,58.363-44.8,67.374a3.5,3.5,0,0,0-2.549,3.557,221.2,221.2,0,0,0,5.435,36.013A121.413,121.413,0,0,1,14.464,285.707ZM270.209,31.165l11.344,6.961c-4.71,46.348-3.6,96.879-2.828,117.909-2.389.135-6.019.434-10.582,1.087C265.3,83.232,268.658,44.306,270.209,31.165ZM251.758,151.741c1.843-2.73,4.867-4.634,8.988-5.706q.189,5.961.435,12.254c-3.576.686-7.5,1.571-11.681,2.712A15.379,15.379,0,0,1,251.758,151.741ZM223.6,165.608c1.639-10.345,13.172-9.839,18.136-2.267a144.021,144.021,0,0,0-17.95,7.247A12.328,12.328,0,0,1,223.6,165.608Zm-25.916,14.4c2.23-8.649,11.189-10.239,18.234-5.3a134.13,134.13,0,0,0-19.051,13A21.933,21.933,0,0,1,197.684,180.011ZM173.5,206.238c-.167-10,7.083-18.27,16.02-12.028a127.806,127.806,0,0,0-16.02,18.528ZM151.386,193.61c9.018-5.09,15.117,3.15,15.114,12.628v6.5a127.778,127.778,0,0,0-16-18.511A6.1,6.1,0,0,1,151.386,193.61Zm-21.021-21.521c9.711-1.5,13.35,7.5,12.774,15.63a134.214,134.214,0,0,0-19.057-13.008A14.413,14.413,0,0,1,130.365,172.089ZM101.277,160.2c8.381-6.709,17.284.786,14.938,10.387a143.879,143.879,0,0,0-17.951-7.247A13.8,13.8,0,0,1,101.277,160.2ZM79.254,146.035A13.7,13.7,0,0,1,90.5,161c-4.182-1.141-8.105-2.026-11.681-2.712Q79.065,151.994,79.254,146.035ZM69.794,31.163c1.554,13.115,4.914,51.954,2.063,125.959-4.563-.653-8.193-.952-10.582-1.087.773-21.03,1.882-71.561-2.828-117.909ZM34.917,224.973A67.012,67.012,0,0,0,78.81,290.417a3.5,3.5,0,1,0,2.423-6.566C53.4,273.832,37.75,244.713,42.654,215.96a125.8,125.8,0,0,0,18.581-52.9c36.04,3.147,78.363,18.2,105.167,62.359-.518,4.369-3.272,21.821-15.073,37.267-9.095-16.468-30.211-28.108-42.774-33.86-21.116-9.865-28.357-29.546-29.867-52.977-.279-4.573-7.143-4.273-6.992.344,1.567,26,10.423,48.083,33.944,59,9.982,4.569,33.318,16.722,40.745,33.256C136,279.832,116.513,288.479,99.872,287.508a3.5,3.5,0,0,0-3.613,3.383c-.032,3.181,2.925,3.892,5.555,3.649a67.163,67.163,0,0,0,22.373-3.868c22.5-7.647,39-26.815,45.813-49.231,6.818,22.421,23.309,41.58,45.814,49.231a66.993,66.993,0,0,0,22.35,3.869c3.115-.079,8.524.582,8.335-3.957a3.489,3.489,0,0,0-3.759-3.22c-17.863,1.513-36.915-6.072-49.164-18.836,7.384-16.577,30.784-28.764,40.783-33.341,23.525-10.92,32.374-32.989,33.945-59,.145-4.585-6.687-4.946-6.992-.344-1.507,23.425-8.754,43.116-29.866,52.977-12.583,5.761-33.746,17.426-42.819,33.934-8.335-9.816-14.657-29.812-15.029-37.341,26.755-44.132,69.181-59.239,105.167-62.359a125.8,125.8,0,0,0,18.581,52.9c4.744,28.3-9.779,56.615-36.919,67.249a3.5,3.5,0,0,0,2.618,6.492,66.481,66.481,0,0,0,42.038-64.728c4.947,4.836,12.225,10.587,21.228,13.763a219.664,219.664,0,0,1-5.054,32.05c-2.847,12.147-3.666,19.864-4.143,33.165-6.614-.044-21.172.345-34.452,3.837a104.8,104.8,0,0,1-24.191,3.291c-20.752.49-49.411-2.449-67.906-19.183a35.006,35.006,0,0,0-12.542-7.485,23.917,23.917,0,0,0-16.045,0,35.013,35.013,0,0,0-12.543,7.484c-18.494,16.736-47.125,19.667-67.907,19.184a104.8,104.8,0,0,1-24.19-3.291c-13.281-3.493-27.843-3.9-34.452-3.837-.477-13.305-1.3-21.015-4.143-33.165a219.664,219.664,0,0,1-5.054-32.05C22.692,235.56,29.97,229.809,34.917,224.973Z" style="fill:#3f3f70"/></svg>