<svg id="icons" xmlns="http://www.w3.org/2000/svg" viewBox="0 0 340 340"><path d="M14.852,111.591C19.693,99.5,38.513,84.213,60.185,91.356A176.572,176.572,0,0,0,137.876,96.8S81.8,143.4,14.852,111.591Z" style="fill:#7b8bba"/><path d="M21.43,191.754s-3.858,19.855-2.978,53.067a3.337,3.337,0,0,0,3.329,3.261H86.254a3.336,3.336,0,0,0,3.318-2.991l2.11-20.289a3.714,3.714,0,0,1,4.7-3.191c29.933,7.565,87.922,27.845,118.5,28.342,25.344,1.341,62.918-.472,112.967-4.609,1.368-4.309,2.148-13.454,2.148-19.058L68.706,176.955Z" style="fill:#7b8bba"/><path d="M14.852,111.591s75.9,12.8,120.009-16.6a14.74,14.74,0,0,1,16.392-.1c9.024,6.02,24.369,17.337,43.746,35.806a167.9,167.9,0,0,0,80.114,42.782q1.406.3,2.84.6s48.589,9.044,52.043,52.209c0,0-66.842,11.1-138.373,2.056,0,0-50.046-10.243-94.082-24.556-23.868-8.33-50.952-10.679-76.111-12.032,0,0-1.311-15.523-6.274-28.16C8.844,146.41,7.49,130.86,14.852,111.591Z" style="fill:#bac9e8"/><path d="M220.415,150.693A171.622,171.622,0,0,1,195,130.7c-19.377-18.469-34.722-29.786-43.746-35.806a14.74,14.74,0,0,0-16.392.1c-19.845,13.228-46.126,17.91-69.036,19.061.42,16.293-2.268,54.151-33.1,78.493a247.69,247.69,0,0,1,72.018,13.526,44.562,44.562,0,0,1,42.884-22.692C166.585,184.959,203.277,183.294,220.415,150.693Z" style="fill:#bac9e8"/><path d="M333.485,226.007c-1.353-30.767-31.462-50.964-54.832-55.358a162.4,162.4,0,0,1-56.313-22.876,169.068,169.068,0,0,1-17.541-13c-17.582-16.558-42.013-37.189-51.605-42.8-8.111-5.387-16.595-2.99-24.045,2.449a175.122,175.122,0,0,1-67.928-6.417,40.711,40.711,0,0,0-28.226,1.333c-26.6,12.8-27.063,37.67-26.131,55.222A75,75,0,0,0,11.9,164.874c4.253,10.83,5.742,24.135,6,26.725-.626,3.48-3.989,23.968-2.845,56.606a3.5,3.5,0,0,0,3.5,3.377H89.26a3.5,3.5,0,0,0,3.482-3.137l2.448-23.533c30.817,7.675,88.206,28.042,119.508,28.536,5.5.292,11.641.439,18.487.438,22.945,0,53.792-1.652,94.951-5.053a3.5,3.5,0,0,0,3.048-2.429C332.791,241.253,333.533,231.455,333.485,226.007Zm-56.172-48.489c.447.083,43.512,8.534,48.835,45.808-14.229,2.032-72.655,9.292-133.952,1.56-2.6-.537-42.961-8.952-82.058-20.816a41.2,41.2,0,0,1,37.2-17.2c20.068,1.669,55.771-.331,74.313-31.25A169.251,169.251,0,0,0,277.313,177.518ZM35.78,95.768A33.716,33.716,0,0,1,59.15,94.7a179.177,179.177,0,0,0,52.505,7.686c-34.677,11.987-77.043,8.21-91.284,6.441A35.567,35.567,0,0,1,35.78,95.768Zm-18.705,19.7a268.594,268.594,0,0,0,45.283,2.314c-.092,14.739-3.069,39.12-19.131,59.384a3.5,3.5,0,1,0,5.485,4.349c17.474-22.045,20.6-48.387,20.65-64.08,18.866-1.216,39.744-4.973,57.45-13.774a94.628,94.628,0,0,0,9.99-5.757c7.723-5.134,14.026.833,20.565,5.537l-13.414,12.965a3.5,3.5,0,0,0,4.864,5.033L163.032,107.7q5.269,4.061,11.517,9.312L161.9,130.184a3.5,3.5,0,0,0,5.047,4.851l12.92-13.445q4.854,4.258,10.168,9.233L177,144.408a3.5,3.5,0,1,0,5.051,4.846l13.087-13.643a180.439,180.439,0,0,0,20.622,16.235c-16.616,27.846-49.4,29.581-67.837,28.049a48.134,48.134,0,0,0-44.772,22.011c-25.3-9.059-52.261-12.191-78.553-13.438-.642-5.244-2.36-16.422-6.182-26.153C12.654,146.579,11.346,133.368,17.075,115.471ZM215.067,246.458c-30.057-.374-92.362-22-121.981-29.409a3.5,3.5,0,0,0-4.429,3.007l-2.551,24.526H21.947c-.649-24.992,1.431-42.416,2.423-49.112,24.132,1.289,48.709,3.625,72.089,11.645,43.718,14.209,93.96,24.553,94.462,24.655C228.35,238,304,234.578,326.385,230.36a85.834,85.834,0,0,1-1.317,11.7C273.318,246.292,238.329,247.69,215.067,246.458Z" style="fill:#3f3f70"/></svg>