<svg id="icons" xmlns="http://www.w3.org/2000/svg" viewBox="0 0 340 340"><path d="M100.17,288.985l-2.153,16.146a12.234,12.234,0,0,0,8.167,13.189c18.281,6.274,61.591,18.151,116.7,13.3a12.258,12.258,0,0,0,11.225-12.19v-20.14Z" style="fill:#bac9e8"/><path d="M166.345,13.155s4.446-8.465,40.483-5.149c35.97,3.31,35.333,16.3,35.333,16.3l-7.718,18.167s-62.593-2.974-63.018-3.4S162.965,26.181,166.345,13.155Z" style="fill:#7b8bba"/><path d="M166.345,13.155c.8,14.4,28.53,24.676,49.609,21.745,9.567-.991,21.653-3.641,26.207-10.6V42.02a9.626,9.626,0,0,0,3,6.9,17.631,17.631,0,0,1,5.362,11.035,14.015,14.015,0,0,0,6.6,10.368A143.652,143.652,0,0,1,279.21,87.194a13.672,13.672,0,0,1,4.125,8.14c.777,4.339,10.374,85.335,11.806,86.3,2.831,8.775,2.153,18.425,2.452,27.5l6.463,97.744a10.928,10.928,0,0,1-8.279,11.354,57.273,57.273,0,0,1-22.794.752,7.485,7.485,0,0,1-6.285-6.78L265.97,303a7.452,7.452,0,0,1,.868-4.118,7.451,7.451,0,0,0-.293-7.56,12.808,12.808,0,0,1-1.961-5.564L252.419,171.922s-9.925,55.973-11.8,97.133a52.235,52.235,0,0,0,.783,11.57c.914,5.121,1.546,13.882-2.573,21.35-5.842,12.547-80.172,14.462-132.694-6.96C95.506,290.946,91.976,277.8,98.557,268.7l2.676-61.991L80.486,269.39a4.653,4.653,0,0,0-.233,1.231,44.54,44.54,0,0,1-7.04,21,4.67,4.67,0,0,1-3.974,2.116c-5.952-.058-21.047-1.352-31.959-12.185a4.631,4.631,0,0,1-1.3-4.048,50.7,50.7,0,0,1,5.877-16.479,49.331,49.331,0,0,0,5.207-12.734c2.984-12.139,8.295-35.73,9.116-52.86a38.418,38.418,0,0,1,4.665-16.476,67.945,67.945,0,0,0,4.841-9.9c4.55-12.776,23.138-65.4,33.268-100.584a17.478,17.478,0,0,1,12.827-12.185L145.3,48.452a8.587,8.587,0,0,0,5.852-4.783l1.743-3.8c2.372-5.313,8.587-4.08,9.707-10.726C163.214,25.909,164.33,20.769,166.345,13.155Z" style="fill:#bac9e8"/><path d="M188.922,32.515,182.865,78.6a3.5,3.5,0,0,0,6.94.912l5.96-45.347A64.268,64.268,0,0,1,188.922,32.515Z" style="fill:#7b8bba"/><path d="M266.779,110.924c-12.232,34.659-14.36,61-14.36,61l1.566,14.661c5.287-27.82,10.219-50.857,16.674-74.448A2.034,2.034,0,0,0,266.779,110.924Z" style="fill:#7b8bba"/><path d="M262.481,303.271l.728,9.217a10.964,10.964,0,0,0,9.212,9.959,61.407,61.407,0,0,0,24.186-.807,14.4,14.4,0,0,0,10.941-14.984s-.927-13.989-.925-13.994c-.362-7.407-6.362-89.137-5.661-94.452a63.8,63.8,0,0,0-2.456-17.534c-1.693-2.563-10.784-81.01-11.7-85.789a17.221,17.221,0,0,0-5.179-10.225,147.085,147.085,0,0,0-22.64-17.3A10.572,10.572,0,0,1,254,59.61a21.11,21.11,0,0,0-6.41-13.2,6.1,6.1,0,0,1-1.933-4.388V24.33c1.122-22.1-76.333-26.621-82.414-12.8-2.262,7.547-3.5,14.124-4.084,16.962a5.087,5.087,0,0,1-3.063,3.777,12.052,12.052,0,0,0-6.387,6.14l-1.743,3.8a5.122,5.122,0,0,1-3.466,2.833l-33.517,7.831A21,21,0,0,0,95.593,67.5c-9.969,34.624-27.934,85.585-33.2,100.38a72.311,72.311,0,0,1-4.619,9.4,42.172,42.172,0,0,0-5.086,17.978c-.8,16.749-5.994,39.89-9.017,52.193a45.984,45.984,0,0,1-4.847,11.829,54.415,54.415,0,0,0-6.291,17.645,8.145,8.145,0,0,0,2.284,7.106c11.876,11.758,27.981,13.139,34.474,13.2,9.876.492,14.124-21.575,14.3-24.465.173-1.053.058-1.561.223-2.279l12.841-38.8L95.1,267.651a20.653,20.653,0,0,0,1.147,24.278l-1.7,12.739a15.783,15.783,0,0,0,10.5,16.963c17.2,5.9,49.748,14.639,91.652,14.638,8.464,0,17.315-.357,26.491-1.165a15.681,15.681,0,0,0,14.418-15.675V308.462c8.633-6.314,8.724-21.045,7.242-28.452a48.993,48.993,0,0,1-.732-10.8c5.721-79.825,12.881-100.74,25.995-156.748.99-4.378-5.645-6.159-6.81-1.615l-14.29,60.263c-.175.885-9.985,56.6-11.887,97.783a55.9,55.9,0,0,0,.834,12.343c.987,4.953,1.9,20.923-7.722,22.935a196.8,196.8,0,0,1-32.166,3.377,3.5,3.5,0,1,0,.192,7,206.122,206.122,0,0,0,32.344-3.316v8.2a8.721,8.721,0,0,1-8.031,8.7c-55.322,4.871-99.032-7.554-115.259-13.122a8.763,8.763,0,0,1-5.832-9.417l1.118-8.383c18.165,7.8,37.66,12.525,57.331,15.3a3.5,3.5,0,0,0,.93-6.939,230.676,230.676,0,0,1-53.451-13.81,13.839,13.839,0,0,1-7.77-7.693,13.157,13.157,0,0,1,.255-10.529c.554-1.54,2.026-2.951,2.154-4.684l2.664-61.721c8.858-43.672,10.369-101.665,10.622-118.427a3.5,3.5,0,1,0-7-.106c-.25,16.621-1.746,74.132-10.5,117.221-.033.23-20.716,62.45-20.726,62.661-8.424-1.845-18.264-7.568-18.376-7.634-4-2.26-7.47,3.642-3.542,6.038.506.3,11.162,6.5,20.882,8.524a42.039,42.039,0,0,1-5.806,14.31,1.177,1.177,0,0,1-1,.517c-5.549-.054-19.537-1.251-29.527-11.169a1.13,1.13,0,0,1-.311-.989,47.2,47.2,0,0,1,5.459-15.313,52.907,52.907,0,0,0,5.571-13.639c3.085-12.549,8.383-36.191,9.213-53.529a35.132,35.132,0,0,1,4.246-14.974,70.432,70.432,0,0,0,5.06-10.394c5.286-14.841,23.311-65.973,33.335-100.79a14,14,0,0,1,10.26-9.745l33.518-7.83a12.169,12.169,0,0,0,8.236-6.734l1.743-3.8a5.071,5.071,0,0,1,2.689-2.585c6.563-2.626,7.243-8.484,8.584-15.12,3.162,4.2,11.06,9.722,21.111,12.4L182.865,78.6a3.5,3.5,0,0,0,6.94.912l5.5-41.872c12.879,2.635,33.439.642,43.354-5.483V42.02a13.03,13.03,0,0,0,4.065,9.417,14.2,14.2,0,0,1,4.313,8.87,17.612,17.612,0,0,0,8.224,12.982,140.2,140.2,0,0,1,21.531,16.437,10.2,10.2,0,0,1,3.069,6.056c.893,4.979,10.257,84.867,11.912,86.816,2.22,7.136,2.306,15.14,2.187,22.564,0,1.4.047,2.816.14,4.211l5.346,80.867c-7.778,1.5-18.9,1.162-19.026,1.159-4.6-.086-4.823,6.773-.229,7a109.312,109.312,0,0,0,19.719-1.131l.651,9.854a7.406,7.406,0,0,1-5.616,7.721,54.072,54.072,0,0,1-21.4.7,3.979,3.979,0,0,1-3.359-3.6l-.727-9.218a3.933,3.933,0,0,1,.46-2.183,10.949,10.949,0,0,0-.431-11.111,9.359,9.359,0,0,1-1.425-4.044l-7.745-72.474c-.537-4.52-7.374-3.88-6.961.744,1.2,4.473,6.487,77.817,10.243,79.56a3.951,3.951,0,0,1,.155,4.008A10.922,10.922,0,0,0,262.481,303.271ZM215.592,31.42c-16.228,2.453-42.526-4.709-45.521-17.1,7.413-6.506,64.028-4.234,68.335,9.122C234.877,27.435,226.879,30.25,215.592,31.42Z" style="fill:#3f3f70"/><path d="M178.574,307.257c-4.929-.125-4.823,7.168.076,7.015C183.556,314.34,183.5,307.163,178.574,307.257Z" style="fill:#3f3f70"/><path d="M220.2,62.04a472.357,472.357,0,0,0-6.157,64.7,3.5,3.5,0,0,0,7,.172,464.781,464.781,0,0,1,6.046-63.62C227.838,58.774,221.1,57.51,220.2,62.04Z" style="fill:#3f3f70"/><path d="M166.539,54.3c-.062.405-6.206,40.857-15.193,63.75-1.606,4.274,4.736,6.838,6.515,2.557,9.279-23.633,15.346-63.578,15.6-65.267C174.069,50.8,167.3,49.743,166.539,54.3Z" style="fill:#3f3f70"/><path d="M209.29,54.672c2.512-3.879-3.2-7.58-5.82-3.889C200.992,54.655,206.675,58.456,209.29,54.672Z" style="fill:#3f3f70"/><path d="M207.84,66.3c-2.922-4.108-8.847.737-5.38,4.421C205.43,73.656,210.15,69.778,207.84,66.3Z" style="fill:#3f3f70"/></svg>