<svg id="icons" xmlns="http://www.w3.org/2000/svg" viewBox="0 0 340 340"><path d="M10,98.328,20.6,117,170,148.3,319.4,117,330,98.328C278.517,72.082,61.483,72.082,10,98.328Z" style="fill:#7b8bba"/><path d="M79.032,123.331c-25.18-5.562-50.62-13.562-69.032-25V118.5a13.251,13.251,0,0,0,5.967,11.078c7.764,5.1,22.248,14.339,38.328,23.159,40.162,22.776,75.958,57.609,88.45,103.575,14.716,6.584,40.088,6.47,54.51,0,12.491-45.965,48.289-80.8,88.449-103.576,16.081-8.819,30.565-18.055,38.329-23.158A13.251,13.251,0,0,0,330,118.5V98.328C256.477,137.358,160.293,140.466,79.032,123.331Z" style="fill:#bac9e8"/><path d="M333.47,97.882C289.762,65.82,57.1,69.67,8.411,95.208A3.559,3.559,0,0,0,6.5,98.328V118.5a16.709,16.709,0,0,0,7.544,14c7.369,4.844,22.178,14.313,38.568,23.3,38.614,20.859,76.774,60.32,86.726,101.31a3.5,3.5,0,0,0,2.011,2.407,79.573,79.573,0,0,0,57.3,0,3.5,3.5,0,0,0,2.011-2.407c9.968-41.023,48.084-80.432,86.726-101.31,16.39-8.989,31.2-18.458,38.568-23.3a16.709,16.709,0,0,0,7.544-14V98.328C333.5,98.178,333.479,98.031,333.47,97.882Zm-11.191.871c-87.322,41.446-216.8,41.7-304.413-.056C75.484,76.683,264.883,76.7,322.279,98.753ZM326.5,118.5a9.726,9.726,0,0,1-4.39,8.153c-7.281,4.788-21.912,14.142-38.088,23.015-39.941,21.573-78.627,61.752-89.73,104.039-13.581,5.4-35.05,5.361-48.584,0-11.132-42.316-49.769-82.438-89.73-104.035C39.8,140.792,25.171,131.438,17.89,126.65A9.726,9.726,0,0,1,13.5,118.5V104.312c89.693,43.6,223.589,43.369,313,.116Z" style="fill:#3f3f70"/></svg>