<svg id="icons" xmlns="http://www.w3.org/2000/svg" viewBox="0 0 340 340"><path d="M237.558,52.785l9.267,51.13c24.344,41.48,51.105,82.46,79.756,123.048a6.165,6.165,0,0,1-.437,7.669c-6.786,7.594-23.536,24.748-42.686,32.585L203.443,100.035V48.187Z" style="fill:#bac9e8"/><path d="M226.368,289.085s32.874,3.491,61.632.961a6.161,6.161,0,0,0,5.03-8.7L215.082,110.263l-7.76-57.478-37.091,5.984Z" style="fill:#bac9e8"/><path d="M170.231,296.844s26.279,11,68.711,22.839A6.171,6.171,0,0,0,246.53,312l-57.2-194.332-7.406-58.9L146,59.731Z" style="fill:#bac9e8"/><path d="M108.212,291.2s25.227,21.593,69.359,36.774a6.174,6.174,0,0,0,8.134-6.741c-7.4-38.044-22.51-186.386-28.467-260.349L120.88,57.154Z" style="fill:#bac9e8"/><path d="M52.485,281.325s22.028,28.875,53.778,47.791a6.179,6.179,0,0,0,9.341-4.847l14.123-196.723L125.5,58.063,98.689,52.785Z" style="fill:#bac9e8"/><path d="M86.219,52.785l-16.1,57.126S28.148,204.788,12.277,262.279c0,0,8.64,30.816,31.645,53.411a6.172,6.172,0,0,0,10.3-2.929L100.453,126.84l1.411-74.055Z" style="fill:#bac9e8"/><path d="M86.219,28.626S113.7,10,166.1,10c0,0,49.842-.064,70.244,16.782l-5.431,16.081S123.184,54.738,86.219,28.626Z" style="fill:#7b8bba"/><path d="M86.219,28.626S154.981,51.4,236.343,26.781l1.215,26s-80.251,27.769-151.339,0Z" style="fill:#fff"/><path d="M328.754,236.964a9.625,9.625,0,0,0,.686-12.019c-29.487-41.772-56.159-82.9-79.282-122.267l-9.114-50.293-1.205-25.768a3.469,3.469,0,0,0-1.033-2.3C217.969,6.617,168.105,6.5,166.1,6.5c-53.955.344-80.439,18.027-82.631,19.986a3.586,3.586,0,0,0-.75,2.152V52.3l-15.9,56.424c-1.8,5.2-44.506,99.219-57.913,154.5.364,1.3,9.163,31.978,32.565,54.964a9.671,9.671,0,0,0,16.15-4.581L61.7,297.194c9.291,9.763,24.453,24.015,42.77,34.928,5.89,3.758,14.342-.6,14.624-7.6,0-.466,14.186-196.757,14.126-197.185l-3.678-60.377a230.029,230.029,0,0,0,24.9,1.613c6,74.7,20.037,211.59,27.8,253.185a2.648,2.648,0,0,1-3.536,2.909,254.292,254.292,0,0,1-48.486-22.5c-3.952-2.311-7.529,3.553-3.614,6,16.279,9.327,34.075,18.882,53.01,23.664a9.735,9.735,0,0,0,9.546-11.11c-.585-3.881-1.27-8.493-2.031-13.722,12.087,4.013,32.215,11.622,53.525,16.432,6.171.161,11.209-6.469,9.227-12.409l-5.024-17.073a327.139,327.139,0,0,0,43.444-.408c6.446-.391,10.745-7.849,7.908-13.639l-5.539-12.156C307.482,259.165,321.6,244.964,328.754,236.964ZM166.1,13.5c.646,0,40.369.13,62.03,11.993C167.891,41.8,115.25,32.326,95.558,27.546,106.759,22.238,130.585,13.5,166.1,13.5ZM112.112,324.018a2.648,2.648,0,0,1-4.058,2.091c-19.807-11.8-35.859-27.732-44.339-37.014l40.135-161.41c1.033-4.385-5.577-6.206-6.793-1.689-3.357,13.5-44.4,178.575-46.23,185.921a2.646,2.646,0,0,1-4.453,1.276c-19.877-19.524-28.83-45.786-30.453-50.956C31.994,204.786,72.786,112.75,73.489,110.86L88.557,57.392q4.814,1.747,9.658,3.182L97.28,109.62a3.5,3.5,0,1,0,7,.133l.9-47.28c5.791,1.459,11.573,2.621,17.292,3.513l3.748,61.541ZM89.719,50.374v-17.1c16.544,4.425,75.592,17.348,143.336-1.883l.882,18.874C220.139,54.491,151.31,73.342,89.719,50.374Zm152.8,265.24a2.628,2.628,0,0,1-2.633.7c-23.473-6.548-41.971-12.833-53.878-17.169-8.778-53.687-18.348-160.262-24.527-230.584,6.357-.105,12.4-.446,18.038-.925l6.346,50.473c-.085.2,57.271,194.569,57.311,194.883A2.614,2.614,0,0,1,242.515,315.614Zm47.205-30.348a2.586,2.586,0,0,1-2.027,1.294c-15.71,1.381-32.692.946-44.926.262l-50-169.869-6.287-50c6.435-.7,13.163-1.7,18.852-2.717l6.277,46.5a3.512,3.512,0,0,0,.284.982c3.468,7.614,76.652,168.234,77.949,171.083A2.659,2.659,0,0,1,289.72,285.266Zm-1.949-23.905-69.29-152.078-6.257-46.354c10.378-2.1,18.232-4.282,22.6-5.6l8.557,47.211c22.966,40.424,50.518,81.829,80.34,124.444a2.657,2.657,0,0,1-.186,3.318C318.066,238.419,304.094,252.933,287.771,261.361Z" style="fill:#3f3f70"/></svg>