<svg id="icons" xmlns="http://www.w3.org/2000/svg" viewBox="0 0 340 340"><path d="M105.018,12.308s64.906-5.866,141.336,1.624L237.1,49.206,150.346,70.9,110.911,28.43Z" style="fill:#7b8bba"/><path d="M163.908,36.676v4.467l-58.89-28.835-4.207,70.253L96.325,85A7.539,7.539,0,0,0,94.9,93.28l1.169,2.608a20.7,20.7,0,0,1,1.783,9.533L86.336,327.876s31.678,2.845,51.579,0L169.594,143.49a24.873,24.873,0,0,1,8.529-9.748c4.782,3.255,8.64,7.12,8.909,13.232l10.179,180.09s28.43,6.5,56.453-.407l-8.726-212.2c-.541-5.464,2.874-11.158,5.29-15.825,2.292-4.643-.451-9.191-5.093-10.779l1.219-73.917Z" style="fill:#bac9e8"/><path d="M82.841,327.7a3.5,3.5,0,0,0,3.181,3.667c1.311.118,32.318,2.85,52.388-.021a3.5,3.5,0,0,0,2.954-2.872l31.6-183.907a21.971,21.971,0,0,1,5.15-6.428,11.585,11.585,0,0,1,5.427,9.037l10.179,180.09a3.5,3.5,0,0,0,2.714,3.215c9.026,2.615,40.731,4.763,58.07-.421a3.5,3.5,0,0,0,2.66-3.541l-8.726-212.2c-.483-4.827,2.862-9.965,4.909-14.088a10.885,10.885,0,0,0-4.672-14.558l1.181-71.673a3.524,3.524,0,0,0-1.489-2.9C174.813,2.122,104.129,9.185,104.7,8.821a3.636,3.636,0,0,0-1.4.443,3.575,3.575,0,0,0-1.78,2.835l-4.09,68.313L94.655,81.92c-3.891,2.889-4.888,8.463-2.944,12.792,1.593,3.243,2.943,6.86,2.649,10.528ZM227.2,22.846l15.576-4.3L242.5,35.416l-15.3,4.526Zm-.669-7.076L162.977,33.3a3.5,3.5,0,0,0-2.4,2.311L118.3,14.913A878.119,878.119,0,0,1,226.532,15.77ZM220.2,24.778V42.013l-8.473,2.507V27.115Zm-15.473,4.268V46.591l-13.187,3.9V32.684Zm-20.187,5.569V52.564l-16.6,4.912c-.016-.807-.622-17.949-.532-18.135ZM108.2,17.762l14.489,7.094V43.6L107.114,35.87Zm-1.539,25.7,23.483,11.662c-4.554,12.4-18.2,19.41-25.52,22.369ZM101.351,105.6a24.29,24.29,0,0,0-2.084-11.146c-.951-2.035-2.434-4.632-.711-6.689l3.6-1.952c3.446-1.028,26.841-8.642,34.28-27.569l14.107,7.006a3.5,3.5,0,0,0,3.113-6.27l-23.966-11.9v-18.8l4.757,2.329v10.53c.079,4.6,6.922,4.6,7,0v-7.1l19.034,9.32,1.828,56.326a3.5,3.5,0,0,0,.367,1.453c.169.863,6.249,10.138,25.368,11.987a3.522,3.522,0,0,0,3.5-3.5V71.246c-.078-4.588-6.919-4.611-7,0v34.318c-10.238-1.9-14.189-5.785-15.272-7.1l-1.095-33.753,74.2-21.954-.66,40.013c-16.573-7.161-28.965-20.371-29.174-20.6-3.155-3.315-8.219,1.3-5.143,4.748.643.7,15.919,17.063,36.38,24.162,2.691.981,4.688,2.964,3.33,5.954-2.8,5.234-6.224,11.43-5.669,17.563l7.967,193.766c-3.224.731-7.936.454-7.394,4.9.958,3.979,4.636,2.749,7.685,2.176l.348,8.462c-21.2,4.538-42.324,1.538-49.5.253l-.417-7.368a167.154,167.154,0,0,0,19.9,1.241,3.5,3.5,0,1,0,0-7,160.438,160.438,0,0,1-20.3-1.348l-9.208-162.9a18.115,18.115,0,0,0-7.117-13.406c-2.011-1.669-14.991-10.847-17.4-12.58a3.5,3.5,0,1,0-4.069,5.7l10.408,7.434a27.8,27.8,0,0,0-5.973,8.19c-.364.446-28.758,167.4-28.967,168.03-3.469.412-6.562.677-9.032.9-4.391.444-4.083,6.939.307,6.986,2.244-.16,4.481-.39,7.491-.7l-1.273,7.407c-15.42,1.756-36.737.51-44.895-.08l.34-6.578c4.2.365,8.287.561,12.191.561a3.563,3.563,0,0,0,3.969-3.515,3.5,3.5,0,0,0-3.514-3.486c-3.93.019-8.046-.179-12.283-.555Z" style="fill:#3f3f70"/><path d="M116.017,318.684c5.042.431,5.547-6.885.489-7.012C111.576,311.318,111.085,318.463,116.017,318.684Z" style="fill:#3f3f70"/><path d="M232.707,317.674c5.046.227,5.237-7.138.169-7.021C228.161,310.612,228.009,317.554,232.707,317.674Z" style="fill:#3f3f70"/><path d="M172.746,47.011c1.822,4.215,8.152,1.591,6.46-2.68C177.374,40.112,171.047,42.739,172.746,47.011Z" style="fill:#3f3f70"/></svg>