<svg id="icons" xmlns="http://www.w3.org/2000/svg" viewBox="0 0 340 340"><path d="M105.829,12.837s68.877-8.984,142.888,0l-8.984,15.829-97.54,27.807Z" style="fill:#7b8bba"/><path d="M163.583,36.366v5.99L105.829,12.837s-17.112,228.877-18.4,306.311l21.818,11.978,34.225-20.107s16.257-145.882,31.23-177.112l10.7,4.278s10.268,127.059,8.556,170.268c0,0,18.4,14.808,39.359,20.534l19.251-12.834s-8.984-224.6-3.85-303.316Z" style="fill:#bac9e8"/><path d="M103.771,40.962l43.678,22.3a3.5,3.5,0,0,0,3.184-6.234L104.32,33.382Q104.064,36.915,103.771,40.962Z" style="fill:#7b8bba"/><path d="M191.763,311.179c.775.623,19.21,15.332,40.63,21.185a3.6,3.6,0,0,0,2.01-.066,4.155,4.155,0,0,0,.855-.4l19.251-12.835a3.5,3.5,0,0,0,1.555-3.052c-.3-2.579-8.66-226.252-3.942-303.921a3.463,3.463,0,0,0-2.531-2.627c-73.1-9.14-143.778-.155-144.215-.1a3.565,3.565,0,0,0-3.038,3.222c-5.187,70.717-16.9,233.762-18.4,306.5a3.5,3.5,0,0,0,1.816,3.126L107.567,334.2a3.555,3.555,0,0,0,3.457-.051l34.225-20.106a3.5,3.5,0,0,0,1.706-2.63c.157-1.411,15.411-137.2,29.606-172.99l5.524,2.209c1.336,16.937,9.936,128.262,8.376,167.687A3.5,3.5,0,0,0,191.763,311.179ZM229.839,14.424,182.538,27.5l-19.888,5.5a3.53,3.53,0,0,0-2.567,3.642L117.917,15.085C138.025,13.241,181.77,10.374,229.839,14.424Zm15.093,3.09c-.3,5.622-.547,11.869-.737,18.625l-18.74,5.122V22.9Zm-26.477,7.318V43.174l-5.076,1.387V26.235ZM206.379,28.17V46.475l-18.415,5.033-.9-18ZM181.049,53.4l-12.821,3.5c-.154-2.355-1.374-15.84-1.145-17.871l13.067-3.612ZM108.93,18.353l12.62,6.45V42.179l-13.843-7.068C108.233,27.85,108.651,22.138,108.93,18.353Zm-2.989,306.962L90.971,317.1c1.2-61.208,11.6-210.652,16.188-274.406l24.461,12.49C128.922,77.087,109.053,240.491,105.941,325.315ZM188.889,137.9a3.5,3.5,0,0,0-2.188-2.968c-5.07-2.109-15.275-6.031-20.448-7.787-4.352-1.481-6.675,4.955-2.369,6.588l6.142,2.208c-13.863,35.371-27.926,156.161-29.832,172.945l-27.232,16c3.078-81.993,21.671-236.715,25.294-266.318l11.638,5.942a3.5,3.5,0,1,0,3.184-6.234L128.55,45.753V28.38l6.15,3.144V42.356c.079,4.6,6.922,4.6,7,0V35.1l18.546,9.479s1.331,17.038,1.33,17.043l3.078,39.451a3.454,3.454,0,0,0,.272,1.1c.2.458,5,11.218,22.263,11.218a3.5,3.5,0,0,0,3.5-3.68l-2.021-39.407c-.311-4.615-7.143-4.235-6.99.36l1.821,35.51c-8.039-.988-11.129-5.071-11.917-6.364l-2.794-35.808,75.232-20.563c-1.909,88.717,4.214,251.154,4.978,270.885L236.6,322.592c-.766-20.5-2.451-48.934-5.019-84.664a3.5,3.5,0,0,0-6.983.5c2.62,36.449,4.318,65.257,5.057,85.77-14.949-5.107-27.993-14.327-32.137-17.427C198.878,262.214,188.991,139.159,188.889,137.9Z" style="fill:#3f3f70"/><path d="M223.372,221.668c.219,4.726,7.243,4.348,6.991-.349C230,216.765,223.258,217.113,223.372,221.668Z" style="fill:#3f3f70"/><path d="M225.6,208.4a3.506,3.506,0,0,0,3.494-3.77c-5.557-72.033-12.084-142.852-12.15-143.559a3.5,3.5,0,0,0-6.971.644c.066.706,6.589,71.475,12.142,143.454A3.5,3.5,0,0,0,225.6,208.4Z" style="fill:#3f3f70"/><path d="M174.7,49.344c4.148.038,4.762-6.154.69-6.93C170.4,41.578,169.655,49.184,174.7,49.344Z" style="fill:#3f3f70"/></svg>