<svg id="icons" xmlns="http://www.w3.org/2000/svg" viewBox="0 0 340 340"><path d="M23.5,43.833s181.333-8.925,269.18-11.744L286.57,49,144.7,94.1,31.483,55.578Z" style="fill:#7b8bba"/><path d="M23.5,43.833S58.26,65.913,150.806,76.717V71.08s107.108-.47,141.871-38.991l6.577,49.326V89.4c9.76,72.43,16.587,97.774,23.1,190.8a10.262,10.262,0,0,1-6.138,10.024c-17.181,7.5-65.844,25.423-116.529,13.919a12.924,12.924,0,0,1-9.4-8.526c-2.881-8.639-9.563-23.855-23.045-33.806,0,0-11.289,9.784-16.017,34.066A12.845,12.845,0,0,1,139.8,306.151c-22.381,2.12-77.324,5.2-115.827-10.4a10.236,10.236,0,0,1-6.34-9.858L24.437,90.811l-4.7-5.638S19.269,62.154,23.5,43.833Z" style="fill:#bac9e8"/><path d="M17.987,275.7l-.356,10.193a10.236,10.236,0,0,0,6.34,9.858c38.506,15.6,93.453,12.523,115.832,10.4a12.9,12.9,0,0,0,11.445-10.362,89.12,89.12,0,0,1,3.5-12.86C96.838,296.792,35.973,281.079,17.987,275.7Z" style="fill:#bac9e8"/><path d="M322.356,280.206c-.292-4.889-.629-9.835-1-14.767-46.733,24.478-113.3,22.652-134.594,21.322,3.6,7.454,3.956,15.368,12.921,17.378,50.686,11.506,99.352-6.422,116.533-13.918A10.256,10.256,0,0,0,322.356,280.206Z" style="fill:#bac9e8"/><path d="M239.391,59.6c-5.309,1.432-10.7,2.689-16.064,3.786l2.642,46.684s10.7.249,17.852-4.7Z" style="fill:#bac9e8"/><path d="M72.353,62.249v42.185a24.661,24.661,0,0,0,15.5,3.288l3.17-40.89Q80.849,64.567,72.353,62.249Z" style="fill:#bac9e8"/><path d="M24.405,91.7l-3.167,90.8C40,168.942,41.194,149.183,40.453,148.74L42.375,97.2Z" style="fill:#7b8bba"/><path d="M313.263,186.061,299.254,89.4v-7.08c-3.665,2.209-8.874,5.276-14.371,8.277l9.228,62.176S298.077,173.457,313.263,186.061Z" style="fill:#7b8bba"/><path d="M302.754,84.66V81.415c0-.085-.01-.17-.017-.255.191-.133-6.7-49.37-6.59-49.534a3.526,3.526,0,0,0-2.283-2.821C205.922,31.071,25.736,40.091,22.172,40.594a3.627,3.627,0,0,0-2.085,2.452C17.143,55.8,16.433,70.8,16.271,78.6a20.624,20.624,0,0,0,4.621,13.424l-6.4,183.553-.356,10.194a13.77,13.77,0,0,0,8.524,13.223c32.174,12.423,67.539,13.317,101.6,11.816,5.451-.315,10.928-.664,16.33-1.235a16.4,16.4,0,0,0,14.074-13.019c.505-2.485,1.063-4.958,1.772-7.385,2.021-8.624,8.64-20.142,11.171-22.62,9.162,7.933,13.931,16.583,17.786,25.866,2.26,7.3,5.5,13.278,13.508,15.135,36.2,9.9,90.279-1.274,113.478-11.93,7.674-2.594,13.823-6.716,13.472-15.618C320.963,196.453,310.3,152.58,302.754,84.66Zm-7.232-4.75C281,91.082,256.384,98.432,246.911,100.973l-3.748-38.73c18.073-5.147,35.082-12.438,46.967-22.776ZM283.473,35.9C244.749,66.771,151.784,67.575,150.79,67.58a3.5,3.5,0,0,0-3.484,3.5v1.694C88.44,65.57,53.746,53.719,37.238,46.668,79.229,44.636,208.65,38.462,283.473,35.9Zm-43.316,67.959c-3.582,2.556-8.089,2.973-10.866,2.958L227,66.26q4.662-1.005,9.314-2.174ZM87.3,69.6l-2.693,34.749a22.3,22.3,0,0,1-8.753-1.99V66.826Q81.267,68.22,87.3,69.6Zm196.674,38.6,5.183,37.474A72.886,72.886,0,0,0,304.75,181.6L310,188.077c.778,6.159,4.994,40.22,7.69,75.3-13.235,6.63-29.141,11.747-47.332,15.214a3.5,3.5,0,1,0,1.31,6.877c17.662-3.366,33.3-8.259,46.575-14.565-.068,5.419,2.895,13.243-3.416,16.105-33.446,13.56-68.952,22.928-114.368,13.718-5.08-1.055-6.836-5.633-8.276-10.171a385.282,385.282,0,0,0,46.377-.743,3.5,3.5,0,0,0-.547-6.979,376.538,376.538,0,0,1-49,.553c-8.7-18.008-19.384-24.442-36.224-35.758-3.827-2.539-7.716,3.1-3.963,5.77l13.113,9.007c-2.891,3.153-9.039,13.541-11.573,22.59-2.551,6.7-1.413,16.322-10.616,17.633-27.017,2.3-64.772,4.138-101.71-5.8A122.178,122.178,0,0,1,25.285,292.5a6.744,6.744,0,0,1-4.155-6.491l.2-5.71c18.542,5.161,65.34,15.991,113.315,9.836a3.5,3.5,0,0,0-.891-6.944C85.516,289.386,38.4,277.911,21.58,273.1l3.09-88.57c10.531-10.454,18.736-19.4,19.447-35.077l1.754-36.295a3.5,3.5,0,0,0-6.992-.338l-1.754,36.3c-.343,9.645-5.121,18.392-12.089,24.9L27.765,95.8c6.919,2.554,19.927,7.164,27.042,8.458a3.5,3.5,0,1,0,1.252-6.887c-8.1-1.473-25.515-7.986-29.52-9.506a13.63,13.63,0,0,1-3.269-9.124A196.628,196.628,0,0,1,25.964,49.2c6.379,3.274,20.025,9.41,42.89,15.754v39.48a3.5,3.5,0,0,0,1.507,2.878c.812.831,9,4.865,17.263,3.935,4.146.854,32.548,6.582,49.12,7a3.5,3.5,0,1,0,.175-7c-13.792-.345-37.08-4.715-45.334-6.343L94.2,71.126c15,3.2,32.628,6.214,53.146,8.7l2.089,149.016a3.5,3.5,0,0,0,3.214,3.439c5.77.135,15.6-.2,25.567-8.458,7.349-6.432,11.4-15.976,12.041-28.367.128-.227-.083-79.169,0-79.394,6.7-.425,13.347-.88,19.1-1.336,4.577-.445,4.042-7.254-.553-6.979-17.854,1.416-44.428,2.83-54.025,3.322L154.306,76.7V74.526c5.243-.119,15.774-.5,28.959-1.73v28.019a3.5,3.5,0,0,0,7,0V72.088c9.227-1.009,19.407-2.426,29.8-4.417l2.412,42.6a3.5,3.5,0,0,0,2.894,3.25c5.674.737,13.6.4,20.1-4.94,5.208-1.27,32.194-8.228,50.4-20.315-.6.315,11.93,83.472,12.172,86.105a65.886,65.886,0,0,1-11.941-29.653l-5.184-37.474C290.206,102.707,283.42,103.626,283.974,108.2Zm-129.088,9.869c5.365-.276,16.464-.86,28.379-1.579v78.689c-.561,18.339-11.7,29.226-26.877,30.069Z" style="fill:#3f3f70"/><path d="M255.211,281.03c-5.354-.049-5.388,7.345-.1,7.074C260.459,288.166,260.519,280.748,255.211,281.03Z" style="fill:#3f3f70"/><path d="M168.1,90.661c-4.5.994-3.157,7.685,1.37,6.87C173.961,96.54,172.627,89.863,168.1,90.661Z" style="fill:#3f3f70"/></svg>