<svg id="icons" xmlns="http://www.w3.org/2000/svg" viewBox="0 0 340 340"><path d="M140.371,19.6c29.266,2.634,61.654,0,61.654,0l11.964,26.845L171.325,267.469a55.277,55.277,0,0,0-55.4,4.444S115.447,78.928,140.371,19.6Z" style="fill:#7b8bba"/><path d="M212.2,39.478s-3.353,17.165-21.365,30.133a49.38,49.38,0,0,0-20.126,35.914c-4.332,50.345-12.874,158.9-11.248,214.874,0,0,44.181-4.473,68.567-25.991a20.907,20.907,0,0,0,6.963-16.875c-1.34-23.633-4.119-89.8,3.578-133.875,0,0,39.349,62.248,44.536,145.678,0,0,21.264,3.458,38.905-1.3,0,0,2.085-91.983-49.9-208.2a18.657,18.657,0,0,0-7.31-8.326Z" style="fill:#bac9e8"/><path d="M188.087,71.75s13.972,2.351,14.055,19.872a2.019,2.019,0,0,0,3.579,1.273c9.855-12.008,32-45.822-3.7-73.3C202.025,19.6,216.267,47.694,188.087,71.75Z" style="fill:#fff"/><path d="M140.371,19.6s-13.3,24.577,1.416,48.2a16.86,16.86,0,0,1,2.4,11.163c-4.376,32.487-23.56,177.935-25.072,241.434a114.7,114.7,0,0,1-37.989-31.1,28.893,28.893,0,0,1-5.156-24.384c3.055-12.94,7.407-32.809,7.627-41.852L49.1,272.239S32.671,270.26,17.985,254.55c2.649-6.027,52.759-89.081,50.978-93.269L82.468,88.756a15.44,15.44,0,0,1,6.122-9.677l28.476-20.631S120.563,32.918,140.371,19.6Z" style="fill:#bac9e8"/><path d="M184.006,139.1l36.838,3.869-2.523,28.644a7.945,7.945,0,0,1-4.12,6.282l-11.215,6.1a7.941,7.941,0,0,1-8.811-.82l-9.462-7.706a7.948,7.948,0,0,1-2.905-6.748Z" style="fill:#fff"/><path d="M140.371,19.6c-19.808,13.319-23.305,38.849-23.305,38.849s-.51,14.218,4.4,25.32a2.032,2.032,0,0,0,3.77-.073c1.891-5.193,6.389-13.209,16.554-15.893C127.072,44.176,140.371,19.6,140.371,19.6Z" style="fill:#fff"/><path d="M48.685,275.714a3.513,3.513,0,0,0,3.284-1.465l26.419-37.666c-1.279,7.288-3.247,16.61-5.824,27.525a32.217,32.217,0,0,0,5.8,27.337,117.254,117.254,0,0,0,39.29,32.134,3.525,3.525,0,0,0,4.961-3.1c.323-13.538,1.463-30.9,3.094-50.11a51.084,51.084,0,0,1,30.864-4.01c-.748,20.4-1.047,39.187-.612,54.138a3.5,3.5,0,0,0,1.189,2.529c2.665,2.6,47.391-4.147,73.192-26a24.251,24.251,0,0,0,8.141-19.7c-2.013-36.822-4.867-111.495,9.795-163.2,1.3-4.308-5.2-6.538-6.678-2.1-3.4,10.809-6.279,29.671-6.485,31.038-7.667,43.934-5.086,108.8-3.62,134.658,1.455,26.067-61.16,37.837-68.632,38.691-1.151-57.7,7.493-165.985,11.331-210.6a46.4,46.4,0,0,1,14.8-30.214c3.455,1.22,11.5,5.76,9.261,21.272a3.52,3.52,0,0,0,3.463,4c3.389.223,24.956-23.675,23.231-49.543L262.98,74.5a15.091,15.091,0,0,1,5.936,6.766c46.166,103.213,49.406,188.121,49.59,204.022-12.465,2.732-26.341,1.615-32.1.95-4.03-56.018-23.271-102.432-34.511-125.324-2.066-4.067-8.252-1.106-6.283,3.086,11.2,22.813,30.513,69.46,34,125.549a3.5,3.5,0,0,0,2.932,3.238,120.859,120.859,0,0,0,17.746,1.27,88.836,88.836,0,0,0,22.632-2.643,3.5,3.5,0,0,0,2.588-3.3c.021-.928,1.5-94.108-50.2-209.706a22.046,22.046,0,0,0-8.685-9.886L223.137,42.043a50.347,50.347,0,0,0-20.123-25.8,3.854,3.854,0,0,0-1.273-.137c-.32.026-32.42,2.581-61.056,0a3.673,3.673,0,0,0-2.267.581c-18.257,12.277-23.45,33.818-24.565,39.76L86.536,76.245a18.861,18.861,0,0,0-7.508,11.871c-1.916,6.648-12.848,78.646-17.167,82.258L14.944,252.819a3.5,3.5,0,0,0,.485,4.121C30.808,273.394,47.963,275.626,48.685,275.714ZM208.613,30.525c16.531,18.112,8.44,42.09-3.218,57.075-1.209-9.625-6.571-14.566-10.9-17.025C208.644,56.235,209.993,40.906,208.613,30.525Zm-66.094-7.238c16.023,1.55,46.086.91,57.241-.018,2.387,6.54,7.561,27.462-13.922,45.794a53.341,53.341,0,0,0-18.62,36.162c-2.784,32.369-8.091,98.179-10.372,154.081a57.942,57.942,0,0,0-30.448,3.151c6.283-70.3,18.287-160.967,21.257-183.025a20.4,20.4,0,0,0-2.9-13.48C133.649,48.116,139.948,29.356,142.519,23.287Zm-74.6,150.6A36.643,36.643,0,0,0,72.4,161.921L85.909,89.4a11.894,11.894,0,0,1,4.734-7.484L113.848,65.1c-.018,3.328,3.687,26.879,10.326,27.1a3.529,3.529,0,0,0,3.514-3.557c0-.248,0-6.136,5.626-11.841,3.173-3.325-1.7-8.139-4.984-4.915a27.691,27.691,0,0,0-4.912,6.717,73.944,73.944,0,0,1-2.853-19.886c.3-1.836,2.805-15.618,12.007-27.144-2.113,9.959-2.462,24.1,6.245,38.073a13.394,13.394,0,0,1,1.9,8.846c-3.813,28.308-22.473,169.382-24.929,236.163a113.212,113.212,0,0,1-31.9-27.514,25.251,25.251,0,0,1-4.511-21.431c8.234-31.773,16.561-111.98,21.751-144.132,1.006-5.674-.606-12.075-1.848-17.608-1.036-4.444-7.736-3.067-6.841,1.48.987,4.7,2.625,10.394,1.753,15.172L80.246,221.744,47.534,268.381a54.374,54.374,0,0,1-25.2-14.387Z" style="fill:#3f3f70"/><path d="M184.371,135.617a3.521,3.521,0,0,0-3.856,3.222l-2.2,29.618a11.45,11.45,0,0,0,4.186,9.721l9.461,7.706a11.41,11.41,0,0,0,7.22,2.579c4.077.435,12.948-5.785,16.687-7.494a11.415,11.415,0,0,0,5.934-9.051l2.524-28.644a3.5,3.5,0,0,0-3.121-3.788ZM214.834,171.3a4.43,4.43,0,0,1-2.305,3.514l-11.215,6.1a4.428,4.428,0,0,1-4.93-.458l-9.459-7.707a4.445,4.445,0,0,1-1.626-3.775l1.93-26.019,29.826,3.132Z" style="fill:#3f3f70"/><path d="M124.357,124.9c3.867,2.487,7.671-3.225,3.88-5.82C124.379,116.568,120.567,122.293,124.357,124.9Z" style="fill:#3f3f70"/><path d="M117.237,170.819c1.4,3.488,6.786,2.416,6.73-1.34C123.736,163.983,115.332,165.633,117.237,170.819Z" style="fill:#3f3f70"/><path d="M110.407,218.639c1.837,4.216,8.143,1.607,6.47-2.68C115.052,211.812,108.7,214.369,110.407,218.639Z" style="fill:#3f3f70"/><path d="M104.887,268.289c1.367,3.5,6.8,2.414,6.73-1.34C111.309,261.409,103.036,263.054,104.887,268.289Z" style="fill:#3f3f70"/></svg>