<svg id="icons" xmlns="http://www.w3.org/2000/svg" viewBox="0 0 340 340"><path d="M98.718,234.265s-12.538,31.5-33.291,48.96a12.825,12.825,0,0,0,3.492,21.6c6.244,2.6,14.6,4.752,25.673,5.484a71.439,71.439,0,0,1,30.664,9.381c12.785,7.3,34.647,14.879,63.449,6.571a68.215,68.215,0,0,1,32.286-1.37c13.9,2.789,34.766,3.274,53.221-11.24a12.823,12.823,0,0,0-.054-20.13c-9.479-7.481-22.218-21.623-30.049-46.884Z" style="fill:#bac9e8"/><path d="M253.584,276.143c1.075-.614,2.158-1.252,3.241-1.9a109.376,109.376,0,0,1-12.716-27.6L98.719,234.265a165.55,165.55,0,0,1-11.95,23.121,46.439,46.439,0,0,0,6.621,1.823,39.681,39.681,0,0,1,17.055,7.732c19.163,15.619,41.856,16.846,66.778,14.022,7.83-.264,15.178,2.354,22.7,4.082A77.361,77.361,0,0,0,253.584,276.143Z" style="fill:#7b8bba"/><path d="M158.447,16.818c-9.573,69.412,65.76,70.668,66.746,3.4l7.325.039-11.561,98.1L142.48,105.037l7.007-78.477Z" style="fill:#7b8bba"/><path d="M130.568,95.929c1.563-18.4,8.023-85.315,17.231-85.835h7.75a3.582,3.582,0,0,1,3.52,4.275c-3.281,16.5-12.072,75.343,28.255,80.158,0,0,41.589.338,37.406-76.715a3.59,3.59,0,0,1,3.949-3.775l8.1.844c7.1-.755,5.045,43.374-1.457,101.367,0,0-4.419,77.471,21.856,123.832a15.354,15.354,0,0,1-5.14,20.691c-1.683,1.043-3.491,2.125-5.4,3.218a63.093,63.093,0,0,1-48.227,6.3,80.645,80.645,0,0,0-31.143-2.613c-13.436,1.6-32.607.871-48.006-11.612A53.373,53.373,0,0,0,96.2,245.493c-12.289-1.27-19.445-15.3-11.9-25.616C97.69,201.315,123.188,158.79,130.568,95.929Z" style="fill:#bac9e8"/><path d="M67.575,308.057c7.539,3.136,16.551,5.069,26.786,5.745a68.382,68.382,0,0,1,29.16,8.928c16.087,10.075,43.759,14.2,66.154,6.894a64.914,64.914,0,0,1,30.627-1.3c14.873,2.983,36.673,3.336,56.073-11.922,8.208-6.117,8.154-19.512-.049-25.628a77.5,77.5,0,0,1-17.408-19.745,3.5,3.5,0,1,0-5.926,3.726,84.494,84.494,0,0,0,19,21.515c4.667,3.483,4.754,11.137.059,14.63-17.3,13.608-36.943,13.254-50.369,10.56a71.939,71.939,0,0,0-33.944,1.439c-27.336,7.886-48.121.955-60.745-6.249a75.418,75.418,0,0,0-32.168-9.833c-9.467-.625-17.73-2.382-24.558-5.223a9.389,9.389,0,0,1-5.714-7.3,8.96,8.96,0,0,1,3.13-8.394c12.357-10.4,21.844-25.388,27.945-36.95a50.143,50.143,0,0,1,21.432,9.832c16.473,13.354,36.826,14.072,51,12.322a70.7,70.7,0,0,1,28.616,2.328,64.787,64.787,0,0,0,18.183,2.607,67.611,67.611,0,0,0,33.518-9.015c11.705-5.408,18.408-16.26,11.849-28.673-25.015-44.137-21.58-118.518-21.413-121.8,7.278-59.627,5.809-87.8,4.839-97.146a9.229,9.229,0,0,0-8.189-8.183c-3.88-.529-8.211-1.055-11.219,2.031a9.244,9.244,0,0,0-2.893,6.886c-.556,34.563-20.284,51.4-42.079,44.24C156.448,55.4,162,17.736,162.06,17.356a9.192,9.192,0,0,0-9.054-10.762h-3.7a9.173,9.173,0,0,0-8.713,6.248c-7.573,22.554-10.97,53.09-13.511,82.734-7.229,61.462-31.754,103.062-45.732,122.39-7.188,9.335-3.308,24.248,7.443,28.911-5.807,10.806-14.524,24.331-25.624,33.669C53.856,288,56.493,303.793,67.575,308.057ZM176.706,70.9c15.922,5.763,31.542.031,41.953-14.611-10.694,47.056-55.607,43.958-58.791-1.239A31.328,31.328,0,0,0,176.706,70.9Zm-91.4,162.342a12.274,12.274,0,0,1,1.721-11.168c14.382-19.886,39.614-62.664,47.018-125.732,2.509-29.242,5.835-59.375,13.188-81.268a2.182,2.182,0,0,1,2.078-1.475h3.7a2.146,2.146,0,0,1,2.153,2.6c-3.062,16.783-7.854,57.656,13.716,74.655a30.193,30.193,0,0,0,35.952,1c11.784-8.094,25.43-27.118,23.516-71.779a2.189,2.189,0,0,1,.7-1.709,2.153,2.153,0,0,1,1.718-.582l3.978.415a2.195,2.195,0,0,1,1.952,1.943c7.963,43.514-25.6,134.866,17.445,221.676a11.844,11.844,0,0,1-3.937,15.99c-1.755,1.088-3.536,2.149-5.294,3.154a59.411,59.411,0,0,1-46.265,5.766,77.8,77.8,0,0,0-21.861-3.147c-18.039,1.042-36.59,4.488-55.309-10.222a57.211,57.211,0,0,0-24.578-11.285C91.725,241.266,86.9,238.457,85.305,233.237Z" style="fill:#3f3f70"/></svg>