<svg id="icons" xmlns="http://www.w3.org/2000/svg" viewBox="0 0 340 340"><path d="M269.828,61.368,215.242,28.793l-32.407-3.208L96.143,38.011a22.8,22.8,0,0,0-12.633,6.2L26.574,99.383,62.51,149.759l20.536-11.872s-14.63,88.787-31.793,143.921a9.864,9.864,0,0,0,3.005,10.465c15.732,13.376,69.388,50.384,162,29.085a9.831,9.831,0,0,0,7.467-7.9c3.919-22.55,17.5-100.263,28.1-155.673l9.626,22.46s29.173-11.872,51.98-38.183a620.652,620.652,0,0,0-35.492-72.436A22.779,22.779,0,0,0,269.828,61.368Z" style="fill:#bac9e8"/><path d="M167.548,79.785l12.122,16.3c8.114-3.987,36.384-13.285,45.368-16.3,0,0,11.147-36.229-4.782-58.685a78.725,78.725,0,0,0-37.222-8.943L157.726,24.04S147.289,56.383,167.548,79.785Z" style="fill:#7b8bba"/><path d="M183.034,12.157s-37.222,13.018-15.486,67.628c0,0-17.932-14.671-37.222-7.879C130.326,71.906,130.869,12.157,183.034,12.157Z" style="fill:#fff"/><path d="M192.271,90.859s41.841-24.93,27.985-69.759c0,0,36.134,15.215,19.018,74.987C239.274,96.087,224.331,86.24,192.271,90.859Z" style="fill:#fff"/><path d="M51.991,294.939c40.05,34.815,108.408,44.291,165.052,29.829a13.294,13.294,0,0,0,10.131-10.715c3.657-21.035,15.756-90.264,25.947-144.352l5.109,11.919a3.5,3.5,0,0,0,4.536,1.863c1.222-.5,30.215-12.494,53.305-39.132a3.5,3.5,0,0,0,.614-3.572,630.832,630.832,0,0,0-35.71-72.893,26.336,26.336,0,0,0-9.354-9.523l-14.8-8.834a3.5,3.5,0,1,0-3.587,6.01l14.8,8.835a19.314,19.314,0,0,1,6.864,6.984,637.911,637.911,0,0,1,34.474,70.007c-17.4,19.387-38.315,30.5-46.114,34.216l-8.22-19.179a3.52,3.52,0,0,0-6.654.722C237.8,212.461,224.2,290.312,220.277,312.855a6.312,6.312,0,0,1-4.8,5.092c-65.743,17.183-131.854-3.2-158.948-28.343a6.36,6.36,0,0,1-1.932-6.756c17.041-54.743,31.756-143.5,31.906-144.4l1.423-8.785a3.5,3.5,0,1,0-6.91-1.119l-1.423,8.785c-.2,1.229-14.818,89.276-31.68,143.439A13.356,13.356,0,0,0,51.991,294.939Z" style="fill:#3f3f70"/><path d="M213.6,86.245c-4.578-.157-4.948,6.69-.346,6.992,16.173.8,24.034,5.734,24.1,5.772a3.523,3.523,0,0,0,5.29-1.959c11.253-41.4,1.347-66.579-20.791-79.073-17.6-10.425-61.106-17.39-80.475,10.016L95.647,34.547A26.135,26.135,0,0,0,81.074,41.7L24.138,96.87a3.5,3.5,0,0,0-.414,4.546l35.937,50.376a3.5,3.5,0,0,0,2.852,1.468c1.29.285,6.975-3.672,8.149-4.17,3.946-2.391.516-8.285-3.5-6.06l-3.645,2.107L31.171,99.8,85.945,46.721a19.188,19.188,0,0,1,10.7-5.245l39.666-5.686C128.7,49.6,124.542,73.223,128.291,74.753a3.5,3.5,0,0,0,3.2.454c15.879-5.591,31.229,5.307,33.537,7.051l9.669,13c-5.61,3.667-10.858,7.057-12.109,14.188l-3.008,15.417a3.5,3.5,0,0,0,6.871,1.341l3.008-15.418a9.83,9.83,0,0,1,4.1-6.253l7.792-5.356,12.262-5.087c.15-.081.3-.154.452-.227,15.314-8.919,37.611-35.308,31.644-64.961,8.483,7.436,20.707,25.161,11.3,62.153C232.667,89.233,224.923,86.805,213.6,86.245ZM160.955,71.6c-6.6-3.493-17.816-6.358-26.8-4.348,1.7-19.518,12.306-44.543,35.087-49.9C155.8,31.5,154.5,49.75,160.955,71.6Zm47.829-1.075a71.557,71.557,0,0,1-18.116,17.214l-9.818,4.073-10.2-13.723c-11.206-26.333-7.889-53.153,13.068-62.429a77.441,77.441,0,0,1,33.578,7.828C222.116,40.367,219.273,56.187,208.784,70.521Z" style="fill:#3f3f70"/><path d="M185.943,115.157c-2.614-3.78-8.306.017-5.82,3.88C182.732,122.824,188.434,119.02,185.943,115.157Z" style="fill:#3f3f70"/></svg>