<svg id="icons" xmlns="http://www.w3.org/2000/svg" viewBox="0 0 340 340"><path d="M166,9.127a552.271,552.271,0,0,0,72.6,20.48L206.587,108.3,146.5,104.8l.671-48.2Z" style="fill:#7b8bba"/><path d="M155.567,18.005,100.183,29.3S77.358,77.417,60.575,111.654l29.538,29.874S68.3,227.122,45.47,285.862l55.179,22.9a26.368,26.368,0,0,0,23.19-1.46l7.56-4.32,47.735-195.845-5.117-34.415Z" style="fill:#bac9e8"/><path d="M176.64,116.61l-8.468-18.191c-3.462-7.457-14.88-4.359-14.1,3.824l1.078,11.439L148.53,107.9c-7.21-6.06-16.728,3.729-10.481,10.766l9.457,10.263-14.282-.923a7.7,7.7,0,0,0-8.08,6.36h0a7.7,7.7,0,0,0,5.479,8.729l14.4,4.095-8.8,5.151a9.492,9.492,0,0,0,7.518,17.285l21.744-6.508C166.25,159.878,176.528,118.311,176.64,116.61Z" style="fill:#fff"/><path d="M122.538,24.741l-8.075,5.947c-5.332,3.886-1.593,12.5,4.9,11.241l12.652-2.39-6.2,7.387a8.485,8.485,0,0,0,8.836,13.61l32.155-9.2L155.567,18.005Z" style="fill:#fff"/><path d="M79,126.428c7.424.557,9.6-9.933,3.193-13.307l-1.218-.679,7.307-3.056c7.089-2.844,4.849-13.4-2.717-13.082l-9.549.434,7.617-7.868c4.98-4.9.7-13.38-6.084-12.214-5.648,11.737-11.618,24.074-16.973,35l14.032,14.192Z" style="fill:#fff"/><path d="M113.454,210.991l-12.231-2.933,15.411-12.443a9.608,9.608,0,0,0,2.213-12.4h0a9.608,9.608,0,0,0-12.613-3.634l-12.243,6.24,2.2-11.087a12.624,12.624,0,0,0-10.9-14.991c-5.762,21.266-16.1,57.97-27.808,92.729a12.279,12.279,0,0,0,1.442.577h0a12.307,12.307,0,0,0,15.1-6.879l4.061-9.509,5.6,11.438a9.545,9.545,0,1,0,17.128-8.431l-5.578-11.272,15.251,1.237a9.466,9.466,0,0,0,9.849-6.776h0A9.465,9.465,0,0,0,113.454,210.991Z" style="fill:#fff"/><path d="M126.143,264.965a8.892,8.892,0,0,0-8.877,8.376l-.546,9.394-4.746-8.449a7.984,7.984,0,0,0-14.253,7.16l4.535,10.174L92.9,284.315c-8.524-6.489-19.3,4.46-12.651,12.876l3.787,4.676c13.492,5.164,25.328,13.738,39.8,5.434l7.56-4.32,5.3-21.751-1.842-9.131A8.892,8.892,0,0,0,126.143,264.965Z" style="fill:#fff"/><path d="M85.522,203.414A18.672,18.672,0,0,0,77.405,188c-3.012,10.5-6.437,22.1-10.142,34.086A18.686,18.686,0,0,0,85.522,203.414Z" style="fill:#fff"/><path d="M226.391,330.288c.162-8.9.6-17.8,1.227-26.58-17.212-9.456-35.561,10.986-24.357,27.06C214.357,331.094,227.385,330.272,226.391,330.288Z" style="fill:#fff"/><path d="M241.5,40.8l44.643,38.265L294.53,175.4s-26.853,5.706-46.992,6.377c0,0-19.8,74.476-21.147,148.51,0,0-42.057,3.426-84.007-6.848a20.989,20.989,0,0,1-15.692-24.23c8.38-44.757,31.645-159.678,60.129-221.3Z" style="fill:#bac9e8"/><path d="M286.139,79.066,265.848,61.674l-9.14-.778a6.533,6.533,0,0,0-2.319,12.8l10.579,2.967L252.326,86.11c-6.769,5.13.906,15.72,7.941,11.268l8.972-5.768-1.818,14.542a6.532,6.532,0,0,0,4.792,7.12,6.649,6.649,0,0,0,7.932-2.67l7.668-12.312Z" style="fill:#fff"/><path d="M291.058,135.539,286,131.716c-3.967-3.2-10.066,1.227-8.461,5.986l4.322,14.088-7.323-4.76c-5.06-3.281-10.828,3.246-6.963,7.864l7,8.349-6.609,1.61a5.41,5.41,0,0,0-3.942,6.438,5.307,5.307,0,0,0,3.385,4.362l8.265,3.149c10.7-1.668,18.859-3.4,18.859-3.4Z" style="fill:#fff"/><path d="M239.526,131.957c-3.98-6.494-13.944-1.493-11.138,5.571l6.684,16.443-10.455-6.618a7.353,7.353,0,0,0-10.735,3.418h0a7.353,7.353,0,0,0,3.249,9.234l11.147,6.15-9.576,3.153a7.93,7.93,0,0,0,3.613,15.381l10.04-1.451-8.091,10.613c-6.464,8.789,5.385,19.179,13.255,11.65l5.708-5.648c4.966-21.075,6.485-27.885,10.093-44.957Z" style="fill:#fff"/><path d="M220.713,284.369l2.443-22.178a6.5,6.5,0,0,0-12.786-2.325l-3.683,22.311-7.546-20.19c-3.273-8.676-16.156-4.658-13.912,4.342l8.016,24.468-14.984-14.463a7.878,7.878,0,0,0-10.52,11.72l14.1,15.556-14.593.57a9.245,9.245,0,0,0-9.213,10.012,9.493,9.493,0,0,0,5.82,7.836c19.243,9.227,46.489,9.722,62.536,8.26a559.778,559.778,0,0,1,4.069-56.09Z" style="fill:#fff"/><path d="M195.71,185.2,181.6,180.25l13.314-4.644a6.645,6.645,0,0,0-2.189-12.919H181.186l12.662-9.265a7.473,7.473,0,0,0,2.737-8.207h0a7.473,7.473,0,0,0-9.88-4.783l-25.624,10.054c-5.377,18.581-10.338,37.819-14.775,56.346l1.338,11.507a7.328,7.328,0,0,0,14.174,1.633l4.285-11.914,11.2,8.9a7.27,7.27,0,0,0,9.823-10.668l-8.933-9.512,14.723,1.322C200.621,198.77,203.008,187.779,195.71,185.2Z" style="fill:#fff"/><path d="M146.585,17.991,166,9.127s4.506,43.42,8.021,63.9c0,0-17.606-.78-28.323,8.583a1.7,1.7,0,0,1-2.8-1.3C142.863,69.159,143.126,38.131,146.585,17.991Z" style="fill:#fff"/><path d="M238.594,29.607l-51.773,48.3s19.94,6.789,26.445,23.707a1.7,1.7,0,0,0,2.994.344c5.64-8.233,22.224-33.035,34.1-56.917Z" style="fill:#fff"/><path d="M44.128,289.1l55.179,22.9c3.8,1.875,20.554,5.138,19.514-2.238a3.5,3.5,0,0,0-4.058-2.834,22.831,22.831,0,0,1-12.773-1.393L49.962,283.938c3.288-8.611,6.551-17.759,9.727-27.1,8.463,1.714,15.968-3.564,18.609-11.781l2.239,4.574c4.894,10.258,20.407,9.4,24.023-1.407,2.272-5.629-.96-10.961-3.451-15.847l9.091.737c15.876.921,19.452-21.509,4.07-25.53l-5.314-1.274,9.878-7.976c11.956-10.094-.089-28.695-14.189-21.878l-5.816,2.964.8-4.011c.825-4.5-5.884-5.878-6.866-1.363l-2.2,11.087a3.523,3.523,0,0,0,5.022,3.8l12.244-6.24c6.474-3.239,12.215,5.594,6.611,10.2L99.024,205.335a3.524,3.524,0,0,0,1.383,6.127l12.232,2.933c7.049,1.742,5.379,12.257-1.874,11.747L95.514,224.9a3.5,3.5,0,0,0-3.42,5.041l5.578,11.272a6,6,0,0,1,.284,4.688c-1.57,4.955-8.978,5.4-11.132.651l-5.6-11.437a3.5,3.5,0,0,0-6.363.164L70.8,244.792a8.752,8.752,0,0,1-8.846,5.312c2.741-8.238,5.4-16.558,7.942-24.73,18.522-2.475,25.857-26.428,11.511-38.682C97.172,128.656,95.23,139.2,109.268,78.879c.823-4.511-5.883-5.876-6.866-1.369-2.131,10.683-6.457,27.965-10.025,41.745a9.782,9.782,0,0,0-3.569-6.3c11.215-3.726,8.866-20.01-2.972-20.163l-.653-.118L86.5,90.934c2.229-2.2,4.018-6.915.071-8.317a3.5,3.5,0,0,0-4.421,2.228,4.654,4.654,0,0,1-1.119,1.716L76.162,93a3.524,3.524,0,0,0,2.172,5.555c.392.029,7.239,1.393,7.389,1.241,3.592-.215,4.724,4.936,1.408,6.273l-7.507,3.139a3.5,3.5,0,0,0-.355,6.286l4.779,2.666a2.784,2.784,0,0,1-1.715,5.175l-6.079-.806L64.812,110.961c14.762-30.173,33.8-70.188,37.783-78.58l7.086-1.445c-4.163,6.975,2.31,16.141,10.327,14.432l3.026-.572a11.979,11.979,0,0,0,.057,15.234c1.181,1.31,2.656,2.9,4.528,2.918,3.326.124,4.837-4.637,1.937-6.417a5,5,0,0,1-1.06-7.355l6.195-7.388A3.522,3.522,0,0,0,131.36,36.1l-12.651,2.389a2.787,2.787,0,0,1-2.171-4.983l7.454-5.489,18.121-3.7c-3.17,24.859-2.719,58.646-2.695,60.206a3.5,3.5,0,0,0,6.212,2.16c6.8-8.343,19.73-9.862,25.421-10.12l3.3,22.206c-7.321,19.331-14.185,41.5-20.411,64.148l-11.2,3.352A5.992,5.992,0,0,1,138,155.361l8.8-5.15a3.523,3.523,0,0,0-.811-6.387l-14.4-4.095A4.2,4.2,0,0,1,133,131.5l14.282.923a3.523,3.523,0,0,0,2.8-5.865l-9.457-10.263c-3.364-3.716,1.79-9.014,5.605-5.757l6.621,5.781a3.523,3.523,0,0,0,5.787-2.965l-1.079-11.439a3.913,3.913,0,0,1,6.9-2.87c2.991,3.5,8.268-.893,5.384-4.473-6.685-8.2-20.344-2.529-19.256,8l.254,2.7c-10.632-8.842-24.512,5.369-15.368,15.765l3.534,3.834-5.559-.359c-13.335-.618-16.562,18.078-3.784,21.948l6.514,1.853c-13.043,5.988-9.5,24.849,4.813,25.218,2.589.19,8.266-2.028,10.792-2.658-8.639,32.322-15.941,65.043-21.376,91.364a12.444,12.444,0,0,0-16.352,8.876c-7.468-9.55-22.906-2.227-20.257,9.577a12.626,12.626,0,0,0-17.414,4.533c-2.21,4.031,3.715,7.432,6.076,3.476a5.6,5.6,0,0,1,8.285-1.626l9.355,7.305a3.5,3.5,0,0,0,5.351-4.184l-4.535-10.173c-2.244-5.17,5.195-8.907,8-4.023l4.746,8.45c1.559,3.015,6.463,1.887,6.546-1.511l.546-9.394a5.42,5.42,0,0,1,8.209-4.273c-2.32,11.438-4.244,21.425-5.719,29.3a24.5,24.5,0,0,0,18.295,28.267c25.537,6.256,50.83,7.522,67.138,7.522,10.526,0,17.31-.528,17.992-.584a3.5,3.5,0,0,0,3.216-3.424c.15-8.33.563-17.218,1.218-26.408,4.607-63.538,19.593-120.412,19.85-121.429,2.477-11.856,7.913-36.534,10.674-48.229a3.5,3.5,0,0,0-6.823-1.562c-.01.045-4.9,21.4-4.911,21.435-7.613,40.852-16.4,55.144-25.407,144.532-16.578-5.05-32.866,12.158-26.943,28.425-15.257-.54-34.867-2.307-54.338-7.077a17.5,17.5,0,0,1-13.08-20.179c1.542-8.289,3.766-19.707,6.208-31.7,2.722-13.337,5.961-28.526,9.642-44.6,4.625,7.223,16.372,5.85,19.13-2.407l2.633-7.321,7.379,5.865c10.494,8.086,23.441-6.026,14.551-15.8l-2.636-2.807,5.562.5a10.154,10.154,0,0,0,4.267-19.7l-4.664-1.635,3.862-1.348c11.114-4.133,7.669-20.36-4.168-19.723l4.018-2.941c6.622-4.547,5.622-15.45-1.7-18.734a11.014,11.014,0,0,0-8.789-.337L174.7,141.382c-4.258,1.771-1.753,8.115,2.557,6.515l10.722-4.207c4.235-1.7,7.517,4.231,3.8,6.908l-12.662,9.264a3.5,3.5,0,0,0,2.067,6.325h11.538a3.154,3.154,0,0,1,1.036,6.114l-13.314,4.644a3.522,3.522,0,0,0,0,6.608l14.11,4.945a3.154,3.154,0,0,1-1.325,6.118L178.5,193.293a3.522,3.522,0,0,0-2.864,5.882l8.933,9.513a3.77,3.77,0,0,1-5.094,5.532l-11.2-8.9a3.524,3.524,0,0,0-5.471,1.556l-4.285,11.913c-1.267,3.744-7.008,3.1-7.4-.853l-1.268-10.9c9.381-39.224,22.619-87.308,37.158-120.959a30.526,30.526,0,0,1,7.25-10.322L238.154,34.8l8.1,10.623C235.721,66.2,221.783,87.534,215.191,97.3a42.294,42.294,0,0,0-12.933-14.9,3.5,3.5,0,0,0-4.185,5.612c6.766,5.045,11.084,10.991,12.834,17.671a3.5,3.5,0,0,0,6.246,1.13c.2-.285,18.853-26.832,33.1-53.9l5.23,4.483c-11.114.733-12.833,16.582-2.043,19.662l3.736,1.048-6.949,5.194a10.047,10.047,0,0,0-3.984,7.112c-.9,8.129,8.977,14.678,15.912,9.9l2.679-1.721-.89,7.117c-1.372,9.457,11.193,15.284,17.75,8.522,3.193-3.319-1.645-8.143-4.952-4.947-2,2.042-6.305.281-5.852-2.707l1.818-14.541a3.5,3.5,0,0,0-5.366-3.379l-8.972,5.768a3.029,3.029,0,0,1-3.871-.5,3.17,3.17,0,0,1-.081-5.023l12.641-9.448a3.524,3.524,0,0,0-1.15-6.174l-10.578-2.967a3.033,3.033,0,0,1,1.076-5.942l8.016.682,18.349,15.728,4.127,47.374c-6.7-3.759-15.14,3.237-12.714,10.562l1.513,4.933c-8.391-4.452-16.948,6.2-10.814,13.481l3.383,4.033c-7.7,1.063-10.431,10.478-5.128,15.824-2.837.233-6.562.386-6.3,4.208a3.5,3.5,0,0,0,3.476,3.132c5.433-.509,10.937-1.33,15.89-2.079,8.244-1.286,15.054-2.623,17.769-3.174a4.764,4.764,0,0,0,3.363-1.6,3.505,3.505,0,0,0,.674-2.386l-3.472-39.863c-1.091-12.5-3.86-44.334-4.919-56.472a3.506,3.506,0,0,0-1.209-2.354c-8.479-7.129-26.521-22.831-34.883-29.9a3.5,3.5,0,0,0-.388-3.588L241.377,27.485a4.9,4.9,0,0,0-.633-.623C201.756,17.774,166.4,6.038,167.231,5.852a3.714,3.714,0,0,0-2.689.091l-19.411,8.865a3.482,3.482,0,0,0-1.857,2.131L99.483,25.871a3.5,3.5,0,0,0-2.462,1.93c-.229.48-23.007,48.487-39.589,82.312a3.5,3.5,0,0,0,.654,4l28.142,28.462c-3.371,12.979-23.41,88.977-44.02,142.018A3.5,3.5,0,0,0,44.128,289.1Zm174.463,15.787a15.225,15.225,0,0,1,5.369.981c-.475,7-.814,14.086-1,21.129-3.494.177-9.722.4-17.738.305C199.662,317.567,207.353,304.611,218.591,304.882Zm72.181-132.293c-3.139.617-8.462,1.617-14.727,2.61l-7.393-2.816a2.15,2.15,0,0,1-1.231-2.165,1.814,1.814,0,0,1,1.371-1.964l6.608-1.61a3.5,3.5,0,0,0,1.853-5.65l-7-8.348a1.829,1.829,0,0,1,1.385-2.978c.448-.4,7.8,4.851,8.312,5.057a3.522,3.522,0,0,0,5.254-3.961l-4.322-14.088c-.54-1.638,1.613-3.291,3.006-2.167l3.819,2.884ZM231.327,31.6,189.485,70.636a39.669,39.669,0,0,0-9.978,15.206l-2.028-13.636a3.471,3.471,0,0,0-.154-.608c-2.688-16.01-5.946-45.166-7.259-57.3A584.785,584.785,0,0,0,231.327,31.6ZM149.736,20.4l13.293-6.071c1.188,11.019,4.22,38.31,6.881,55.27-5.562.318-15.5,1.68-23.515,7.072C146.447,63.946,146.927,38.266,149.736,20.4ZM83.924,130.291a9.7,9.7,0,0,0,6.579-3.849c-.838,3.2-1.586,6.018-2.191,8.287ZM79.16,194.547c5.9,7.748,2.111,19.769-6.844,23.009C74.585,210.121,76.876,202.418,79.16,194.547Z" style="fill:#3f3f70"/><path d="M232.578,132.941a2.757,2.757,0,0,1,3.948.82l3.695,6.144c2.433,3.9,8.305.378,6-3.607l-3.695-6.145c-6.292-10.1-21.711-2.419-17.379,8.693l2.572,6.327c-12.787-9.275-25.632,9.556-12.278,17.9l4.118,2.272c-15.831,3.713-11.088,25.816,4.821,22.585l-2.9,3.8a12.371,12.371,0,0,0,.545,15.638,3.5,3.5,0,1,0,5.253-4.627,5.355,5.355,0,0,1-.232-6.767l8.091-10.614a3.522,3.522,0,0,0-3.284-5.585l-10.039,1.45c-5.29.711-7.089-6.886-2.018-8.592l9.576-3.153a3.5,3.5,0,0,0,.6-6.389l-11.148-6.151a3.877,3.877,0,0,1,.693-7.046,3.793,3.793,0,0,1,3.231.416l10.455,6.619c2.733,1.869,6.463-1.258,5.114-4.276l-6.684-16.444A2.735,2.735,0,0,1,232.578,132.941Z" style="fill:#3f3f70"/><path d="M191.185,260.785a3.806,3.806,0,0,1,4.678,2.428l7.545,20.189a3.514,3.514,0,0,0,6.732-.655l3.665-22.2a3.017,3.017,0,0,1,3.565-2.206,3.5,3.5,0,0,0,4.175-2.658c.76-5.561-7.058-5.108-10.2-2.848a9.912,9.912,0,0,0-4.428,6.46l-1.546,9.364-2.931-7.839c-4.908-12.841-23.9-6.955-20.588,6.426.1.462,3.584,10.856,3.676,11.238l-4.836-4.669c-11.317-9.3-25.66,6.082-15.468,16.673l8.988,9.917c-4.535.283-10.978-.363-14.661,2.862-2.682,1.887-1.1,6.413,2.118,6.288,2.009-.038,3.432-2.132,5.58-1.875.142.037,14.58-.6,14.729-.573a3.524,3.524,0,0,0,2.456-5.848l-14.1-15.556c-4.234-3.787,1.1-10.213,5.595-6.756l14.886,14.369c2.469,2.545,6.972-.272,5.756-3.608l-7.983-24.369A3.77,3.77,0,0,1,191.185,260.785Z" style="fill:#3f3f70"/><path d="M184.343,114.562c-3.181,3.313,1.633,8.132,4.951,4.95C192.5,116.174,187.674,111.454,184.343,114.562Z" style="fill:#3f3f70"/><path d="M170.064,175.151c-2.922-4.116-8.86.729-5.381,4.411C167.638,182.507,172.365,178.622,170.064,175.151Z" style="fill:#3f3f70"/><path d="M155.923,234.191c-3.451-1.486-6.5,3.1-3.81,5.71C156.261,243.59,160.927,236.6,155.923,234.191Z" style="fill:#3f3f70"/><path d="M142.153,291.772c-4.276-1.7-6.9,4.637-2.68,6.46C143.742,299.926,146.368,293.6,142.153,291.772Z" style="fill:#3f3f70"/></svg>