<svg id="icons" xmlns="http://www.w3.org/2000/svg" viewBox="0 0 340 340"><path d="M79.226,61.464s-9.813,5.528-13.07,30.6c0,0-11.119,121.437-48.891,179.854a11.162,11.162,0,0,0,4.208,15.866c8.932,4.783,23.873,11.149,46.312,15.958l-1.591,5.016A9.233,9.233,0,0,0,72.035,320.3c13.246,4.493,40.574,11.841,71.716,9.158a9.211,9.211,0,0,0,8.379-9.2v-6.419s33.868,1.954,51.128-.326v4.905a9.233,9.233,0,0,0,8.758,9.221c13.312.7,39.791.242,65.289-11.018a9.264,9.264,0,0,0,5.064-11.459l-1.93-5.652s22.007-5.624,39.076-17.048A11.144,11.144,0,0,0,321.857,266c-13.663-16.064-40.644-61.7-51.448-178.385-1.151-10.214-4.264-22.632-12.738-28.973Z" style="fill:#bac9e8"/><path d="M79.226,26.744C81.757,16.6,192.967-3.1,257.671,24.322l-5.89,13.687S118.674,62.374,79.226,26.744Z" style="fill:#7b8bba"/><path d="M79.226,26.744S85.2,38.347,157.531,39.9a269.544,269.544,0,0,0,34.643-1.471c19.743-2.128,50.545-6.5,65.5-14.1V58.638c-15.186,9.316-119.225,28.327-178.445,2.826Z" style="fill:#fff"/><path d="M327.851,275.177a14.591,14.591,0,0,0-3.328-11.449c-14.372-16.9-40.06-62.291-50.629-176.44-.806-10.555-5.587-24.688-12.724-30.4V24.322a3.563,3.563,0,0,0-1.019-2.464C221.873,5.136,169.755,6.576,168.307,6.5,89.991,9.675,77.916,22.334,76.29,24.839a3.693,3.693,0,0,0-.564,1.905V59.721c-3.38,2.923-10.364,11.286-13.04,31.9-.131,1.323-11.452,121.287-48.36,178.4a14.548,14.548,0,0,0-1.855,11.508,14.842,14.842,0,0,0,7.349,9.345c8.285,4.435,22.413,10.607,43.473,15.459a12.958,12.958,0,0,0,7.617,17.279c12.678,5.05,48.505,12.275,73.141,9.331a12.781,12.781,0,0,0,11.579-12.682V189.439a3.5,3.5,0,1,0-7,0V320.261a5.738,5.738,0,0,1-5.18,5.709c-30.4,2.619-57.088-4.507-70.291-8.987a5.767,5.767,0,0,1-3.629-7.163l1.57-4.948c.973-2.646,22.74-62.288,27.849-110.2.058-.6,5.945-59.919,19.925-80.433a3.5,3.5,0,1,0-5.784-3.941c-14.988,21.99-20.865,81.19-21.105,83.666-4.465,41.874-21.991,93.142-26.448,105.7-17.765-4.275-45.352-12.694-46.288-19.878a7.433,7.433,0,0,1,.955-5.959C57.852,215.6,69.091,98.358,69.635,92.455,71.87,75.335,77.248,68.1,79.723,65.6c7.428,3.454,17.064,6.2,28.706,8.162a3.5,3.5,0,0,0,1.164-6.9c-11-1.856-20.027-4.4-26.867-7.576V33.389c6.649,6.245,77.51,13.392,109.823,8.514,19.866-2.139,45.686-5.935,61.621-12.2V56.376c-15.216,7.815-76.475,18-126.961,12.727a3.541,3.541,0,0,0-3.569,2.835l-2.63,13.946a3.5,3.5,0,1,0,6.879,1.3l2.044-10.842a395.659,395.659,0,0,0,61.994-.249c1.149,4.595,3.407,15.735,4.786,36.411a3.5,3.5,0,1,0,6.984-.465c-1.308-19.624-3.417-31.027-4.726-36.587,34.12-3.426,52.4-10.216,58.229-12.741,5.375,4.966,9.062,16.665,9.724,25.227,10.747,116.067,37.36,162.8,52.267,180.329a7.482,7.482,0,0,1,1.726,5.95c-.584,9.447-37.743,20.858-38.622,21.138-10.147-20.857-16.823-45.423-20.675-62.679a272.075,272.075,0,0,1-5.91-41.47c-4.4-67.517-11.652-93.79-11.958-94.876-1.3-4.3-7.906-2.641-6.737,1.9.073.26,7.374,26.831,11.709,93.429a279.2,279.2,0,0,0,6.064,42.54c4.084,18.295,11.285,44.677,22.411,66.658l1.858,5.44a5.737,5.737,0,0,1-3.166,7.126c-24.767,10.937-50.535,11.414-63.691,10.725a5.736,5.736,0,0,1-5.442-5.725v-4.906c-1.917-56.553-4.367-91.2-4.383-91.434-.379-4.56-7.242-4.109-6.983.5.024.332,2.347,33.183,4.256,87.815a276.113,276.113,0,0,1-29.686.612,3.5,3.5,0,1,0-.152,7,299.3,299.3,0,0,0,29.948-.59,12.828,12.828,0,0,0,12.076,13.721c2.391.126,5.177.214,8.291.214,14.831,0,37.026-2,58.594-11.526,7.117-3.133,9.368-11.123,6.225-17.948,7.086-2.125,23.137-7.547,36.517-16.5A14.722,14.722,0,0,0,327.851,275.177ZM191.8,34.945A266.984,266.984,0,0,1,157.607,36.4c-48.988-1.049-66.6-6.656-72.6-9.68,22.462-10.252,96.526-22.495,162.89-2.178C231.563,30.033,206.661,33.344,191.8,34.945Z" style="fill:#3f3f70"/><path d="M201.3,145.068a3.5,3.5,0,0,0,3.5-3.545l-.032-2.289a3.5,3.5,0,1,0-7,.11l.032,2.269A3.5,3.5,0,0,0,201.3,145.068Z" style="fill:#3f3f70"/></svg>