<svg id="icons" xmlns="http://www.w3.org/2000/svg" viewBox="0 0 340 340"><path d="M244.335,167.482s-4.988-3.74-16.963.5c-24.1,7.308-49.661,11.332-90.186,1.354V187.5H249.523Z" style="fill:#7b8bba"/><path d="M17.715,198.279s10.86,13.306,10.86,31h68.7s6.193-12.068,18.871-15.617v-15.38Z" style="fill:#7b8bba"/><path d="M149.847,108.066c4.94,3.455,11.121,6.171,8.233,13.466L141.1,158.6c-2.514,5.92-3.4,12.6,1.556,18.132l-34.566-12.192Z" style="fill:#fff"/><path d="M13.423,139.314c-2.04,7.934-12.934,62.012,20.6,69.875,13.154,3.477,36.329,7.13,72.437,4.993,55.284-1.608,79.554-5.905,123.211,10.483a90.626,90.626,0,0,0,61.715,3.4A80.617,80.617,0,0,0,325.2,207.9c9.461-9.5,3.694-25.711-9.62-27.291-19.126-3.368-40.821,7.463-71.245-13.127,0,0,1.853,15.937-14.826,16.308C133.061,192.744,131.211,139.627,13.423,139.314Z" style="fill:#bac9e8"/><path d="M315.992,177.133c-19.891-3.372-40.392,7.16-69.561-12.447l0,0c-.666-.5-6.874-4.73-20.231,0-22.928,7.018-46.209,10.451-83.575,2.467a18.413,18.413,0,0,1,.883-5.405l17.75-38.755a11.25,11.25,0,0,0-3.861-13.978l-5.571-3.829a3.5,3.5,0,0,0-4.8.8l-35.121,47.5c-21.906-8.741-57.367-19.251-98.623-17.668a3.5,3.5,0,0,0-3.25,2.606c-.29,1.1-7,27.108-.756,50.461a33.5,33.5,0,0,0,5.855,11.781c1.195,1.547,9.937,13.39,9.937,28.611a3.5,3.5,0,0,0,3.5,3.5h68.7a3.516,3.516,0,0,0,3.11-1.893c.055-.106,5.6-10.54,16.349-13.744,50.309-1.039,71.338-4.459,111.605,10.765a95.975,95.975,0,0,0,37.128,7.532c22.858.128,46.387-8.916,62.214-25.065C339.206,199.091,332.008,178.8,315.992,177.133Zm-100.5-2.1a99.935,99.935,0,0,0,13.047-3.752c6.432-2.277,10.38-1.945,12.325-1.46-.129,6.109-4.431,10.674-11.711,10.488a217.846,217.846,0,0,1-47.715-1.712A176.6,176.6,0,0,0,215.493,175.032Zm-64.842-62.166c2.643,1.749,5.814,3.474,4.246,7.208-.094.226-17.842,38.918-17.908,39.121a24.622,24.622,0,0,0-1.217,5.514,181.791,181.791,0,0,0-17.2-8.454ZM95.278,225.775H31.946a53.316,53.316,0,0,0-3.308-14.743c17.381,5.594,35.514,8.08,73.221,6.895A40.742,40.742,0,0,0,95.278,225.775ZM322.72,205.43c-23.126,23.446-60.665,29.132-91.19,16.217a159.969,159.969,0,0,0-54.659-12.008c-18.966-.762-38.2-.552-60.981.53-31.68,2.925-69.693-.36-80.974-4.364a26.568,26.568,0,0,1-18.87-18.73c-4.688-17.532-1.277-37.434.185-44.349,114.759,1.708,116.665,53.464,213.5,44.557,9.084.026,16.013-5.486,17.615-13.468,33.025,16.975,46.155,7.039,67.827,10.27C325.359,184.959,330.191,198.368,322.72,205.43Z" style="fill:#3f3f70"/></svg>