<svg id="icons" xmlns="http://www.w3.org/2000/svg" viewBox="0 0 340 340"><path d="M105.306,12.308s64.906-5.866,141.336,1.624l-9.251,35.274L150.634,70.9,111.2,28.43Z" style="fill:#7b8bba"/><path d="M163.908,36.676v4.467l-58.89-28.835-4.207,70.253L96.325,85A7.54,7.54,0,0,0,94.9,93.28l1.169,2.608a20.7,20.7,0,0,1,1.783,9.533L86.336,327.876s31.678,2.845,51.579,0L169.594,143.49a24.867,24.867,0,0,1,8.529-9.747c4.782,3.254,8.64,7.119,8.909,13.231l10.179,180.09s28.43,6.5,56.453-.406l-8.726-212.2c-.541-5.465,2.874-11.159,5.29-15.826,2.292-4.643-.451-9.191-5.093-10.779l1.219-73.917Z" style="fill:#bac9e8"/><path d="M143.117,188.705c-1.049-9.916-7.764-18.162-18.08-16.069a77.641,77.641,0,0,1-30.676.275l-1.475,28.476c10.922-8.054,22.545-3.19,26.749-.927a22.227,22.227,0,0,0,5.1,2.059C134.583,205.594,144.429,199.385,143.117,188.705Z" style="fill:#7b8bba"/><path d="M249.02,213.713l-1.589-38.64c-6.009,1.919-15.769,4.455-23.73,3.768,0,0-15.637-.748-19.376,11.477a13.6,13.6,0,0,0,4.205,14.114,13.907,13.907,0,0,0,13.1,3.11C228.2,205.754,239.953,204.43,249.02,213.713Z" style="fill:#7b8bba"/><path d="M100.811,82.561s18.68-5.346,29.75-21.36l4.184-7.817-31.2-16.39Z" style="fill:#7b8bba"/><path d="M205.272,50.081c2.324,25.88,39.863,37.768,39.863,37.768l.85-51.541Z" style="fill:#7b8bba"/><path d="M250.161,106.443l3.182-6.221a10.883,10.883,0,0,0-4.671-14.559l1.181-71.673a3.527,3.527,0,0,0-1.491-2.906C173.651,2.189,104.856,9.013,104.033,8.95a3.537,3.537,0,0,0-2.494,3.072c-.041.068-4.085,68.313-4.105,68.39L94.655,81.92c-3.89,2.894-4.888,8.461-2.944,12.791,1.6,3.281,2.939,6.836,2.649,10.529L82.841,327.7a3.5,3.5,0,0,0,3.182,3.667c1.31.116,32.314,2.849,52.387-.022a3.5,3.5,0,0,0,2.955-2.872c-1.209,8.245,31.464-184.013,31.6-183.906a22.033,22.033,0,0,1,5.15-6.429,11.586,11.586,0,0,1,5.426,9.038l10.179,180.09a3.5,3.5,0,0,0,2.715,3.215c9.032,2.619,40.725,4.762,58.071-.42a3.5,3.5,0,0,0,2.659-3.542l-8.726-212.2A15.868,15.868,0,0,1,250.161,106.443Zm-22.96-83.6,15.576-4.3L242.5,35.416l-15.3,4.526Zm-.667-7.077L162.977,33.3a3.5,3.5,0,0,0-2.4,2.311L118.3,14.912A877.352,877.352,0,0,1,226.534,15.769ZM220.2,24.777V42.013l-8.473,2.507V27.115Zm-15.473,4.269V46.591l-13.187,3.9V32.684Zm-20.187,5.569V52.564l-16.6,4.912c-.016-.8-.622-17.953-.532-18.135ZM108.2,17.761l14.49,7.1V43.6l-15.574-7.735Zm-1.539,25.7,23.483,11.663A26.075,26.075,0,0,1,128.67,58.4L113.6,56.8c-4.578-.406-5.307,6.4-.737,6.961l11.07,1.172C117.9,71.4,109.723,75.427,104.621,77.491ZM97.654,177a80.36,80.36,0,0,0,28.128-.947,10.454,10.454,0,0,1,11.568,5.467c5.392,10.147,1.235,21.032-11.768,17.6a18.788,18.788,0,0,1-4.288-1.747c-5.055-3.174-16.911-5.827-24.584-2.14ZM242.015,313.261c.843,3.945,4.881,2.772,7.682,2.1l.351,8.535c-21.195,4.539-42.324,1.539-49.5.253l-.414-7.319c4.244.474,11.409,1.109,19.859,1.192a3.5,3.5,0,0,0,.069-7,193.649,193.649,0,0,1-20.329-1.289l-9.21-162.96a18.121,18.121,0,0,0-7.118-13.406c-2.011-1.668-14.991-10.846-17.4-12.579a3.5,3.5,0,0,0-4.068,5.7l10.408,7.434a27.784,27.784,0,0,0-5.973,8.189c-.364.444-28.711,167.127-28.919,167.758-2.719.481-5.756.875-9.08,1.17-4.392.444-4.083,6.939.306,6.986,2.633-.189,5.191-.53,7.521-.866l-1.3,7.574c-15.423,1.755-36.739.51-44.9-.08l.341-6.586c2.885.188,7.3.431,12.569.567a3.5,3.5,0,1,0,.182-7c-5.173-.134-9.564-.377-12.389-.562l5.581-107.765c8.841-5.52,18.026-1.737,21.684.232a25.514,25.514,0,0,0,5.905,2.373c12.211,3.732,24.348-4.5,22.7-17.708-1.193-11.756-9.921-21.593-22.291-18.99a73.343,73.343,0,0,1-26.273.764l3.334-64.378a24.3,24.3,0,0,0-2.084-11.146c-.948-2.022-2.435-4.64-.711-6.689l3.6-1.952C105.6,84.787,129,77.173,136.433,58.246l14.107,7.007a3.5,3.5,0,0,0,3.113-6.27l-23.965-11.9v-18.8l4.756,2.329v10.53c.078,4.6,6.922,4.6,7,0v-7.1l19.034,9.32,1.828,56.327a3.479,3.479,0,0,0,.368,1.452c.168.864,6.248,10.139,25.367,11.986a3.521,3.521,0,0,0,3.5-3.5V71.246c-.078-4.589-6.919-4.611-7,0v34.318c-10.239-1.9-14.188-5.784-15.271-7.1l-1.1-33.754,74.2-21.954-.659,40.013A89.87,89.87,0,0,1,221.907,70.6h10.8c4.6-.078,4.6-6.922,0-7H213.956c-2.091-2.354-3.875-3.563-6.358-1.629a3.5,3.5,0,0,0-.2,4.946c.026.64,18.538,18.515,37.946,24.907a3.851,3.851,0,0,1,1.764,5.208c-2.8,5.228-6.222,11.433-5.67,17.563l2.382,57.916c-5.381,1.564-13.37,3.4-19.82,2.84-.957-.06-18.4-.776-23.026,13.942a17.088,17.088,0,0,0,5.254,17.777,17.407,17.407,0,0,0,16.321,3.848c6.513-1.776,15.671-2.371,23.029,4.36l3.824,92.97C246.523,309.041,241.348,308.875,242.015,313.261Zm3.2-106.886c-7.753-4.46-17.093-4.263-24.5-2.209A10.377,10.377,0,0,1,211.3,202.2a10.172,10.172,0,0,1-3.632-10.859c2.824-9.234,14.814-9.042,15.813-9.006,6.671.56,14.34-.9,20.633-2.628Z" style="fill:#3f3f70"/><path d="M116.524,311.672c-4.991-.368-5.43,6.881-.435,7.011C121.068,319.049,121.532,311.821,116.524,311.672Z" style="fill:#3f3f70"/><path d="M232.487,310.68c-4.876.469-3.941,7.669.884,6.956l-.508-6.981Z" style="fill:#3f3f70"/><path d="M174.029,48.579c3.869,2.488,7.661-3.2,3.89-5.82C174.047,40.278,170.26,45.949,174.029,48.579Z" style="fill:#3f3f70"/></svg>