<svg id="icons" xmlns="http://www.w3.org/2000/svg" viewBox="0 0 340 340"><path d="M60.658,130.585s-2.776,32.513-37.71,73.881a66.7,66.7,0,0,0-11.6,21.8,31.43,31.43,0,0,0,29.809,40.421q.36,0,.725,0l46.361-.291-17.3-17.629a82.145,82.145,0,0,1-23.195,1.211c-11.52-1.313-19.182-12.648-15.588-23.671a30.116,30.116,0,0,1,7.115-11.495c14.365-15.018,26.771-43.749,26.771-43.749Z" style="fill:#7b8bba"/><path d="M279.342,130.585s2.776,32.513,37.709,73.881a66.693,66.693,0,0,1,11.6,21.8,31.43,31.43,0,0,1-29.809,40.421q-.36,0-.726,0l-46.36-.291,17.3-17.629a82.154,82.154,0,0,0,23.2,1.211c11.52-1.313,19.182-12.648,15.588-23.671a30.116,30.116,0,0,0-7.115-11.495c-14.365-15.018-26.771-43.749-26.771-43.749Z" style="fill:#7b8bba"/><path d="M213.87,109.01c-7.558-17.492-10.813-34.76-33.9-35.7H159.89c-23.083.935-26.354,18.242-33.9,35.7h-7.8v11.1h19.326l11.752-23.264a17.547,17.547,0,0,1,15.662-9.635h10a17.547,17.547,0,0,1,15.662,9.635l11.752,23.264h19.326v-11.1Z" style="fill:#7b8bba"/><path d="M169.931,181.372,60.367,183.241v60.118A23.044,23.044,0,0,0,83.411,266.4c43.13-.009,129.921.007,173.04,0A23.044,23.044,0,0,0,279.5,243.359V183.241Z" style="fill:#bac9e8"/><path d="M279.5,199.813V183.241c-54.636-1.775-164.506-1.774-219.128,0v16.572a35.683,35.683,0,0,0,25.366,10.566h168.4A35.683,35.683,0,0,0,279.5,199.813Z" style="fill:#7b8bba"/><path d="M169.931,109.01H68.443a9.5,9.5,0,0,0-9.5,9.5v56.069a26.8,26.8,0,0,0,26.8,26.795h168.4a26.8,26.8,0,0,0,26.795-26.795V118.515a9.5,9.5,0,0,0-9.5-9.5Z" style="fill:#bac9e8"/><rect x="102.945" y="109.01" width="23.403" height="92.695" style="fill:#fff"/><rect x="102.945" y="231.859" width="23.403" height="34.543" style="fill:#fff"/><rect x="213.514" y="232.434" width="23.403" height="33.969" style="fill:#fff"/><rect x="213.514" y="109.01" width="23.403" height="90.829" style="fill:#fff"/><path d="M126.348,205.631h-23.4v27.611a11.7,11.7,0,0,0,23.4,0Z" style="fill:#fff"/><rect x="102.945" y="189.324" width="23.403" height="29.702" rx="8.328" style="fill:#7b8bba"/><path d="M236.917,205.631h-23.4v27.611a11.7,11.7,0,0,0,23.4,0Z" style="fill:#fff"/><rect x="213.514" y="189.324" width="23.403" height="29.702" rx="8.328" style="fill:#7b8bba"/><path d="M319.726,202.208c-23.671-28.03-32.263-51.829-35.3-63.767V118.514a13.02,13.02,0,0,0-13-13c-12.9.017-42.6-.012-55.219,0l-6.706-16.045a31.92,31.92,0,0,0-29.522-19.657H159.89a31.917,31.917,0,0,0-29.521,19.657l-6.707,16.045c-12.516-.012-42.4.009-55.219,0a13.02,13.02,0,0,0-13,13v20.463c-3.1,11.868-11.742,35.5-35.148,63.212A69.855,69.855,0,0,0,8,225.257C.959,246.8,18.468,270.488,41.117,270.189l.789,0,46.361-.29c25.553,0,98.616,0,125.248,0,23.091-.052,61.982.1,85.363.286C321.5,270.494,339.07,246.8,332,225.257A69.839,69.839,0,0,0,319.726,202.208Zm-63.275,60.7H240.417V204.879c13.8.045,25.3,1.453,35.578-9.359v47.839A19.567,19.567,0,0,1,256.451,262.9Zm-168.205,0c-.006.019-4.823-.014-4.835,0a19.567,19.567,0,0,1-19.544-19.544V195.52c10.293,10.82,21.785,9.4,35.578,9.359V262.9ZM57.1,246.814a61.724,61.724,0,0,1-8.957-.308c-9.04-.787-15.691-10.479-12.657-19.108A26.847,26.847,0,0,1,41.8,217.237c5.507-5.758,10.7-13.4,15.065-20.747C56.966,197.5,56.62,247.615,57.1,246.814ZM122.848,210.7a4.834,4.834,0,0,1-4.829,4.829h-6.746a4.834,4.834,0,0,1-4.828-4.829V197.653a4.834,4.834,0,0,1,4.828-4.829h6.746a4.834,4.834,0,0,1,4.829,4.829Zm-16.4,10.788a11.749,11.749,0,0,0,4.828,1.041c3.114-.106,8.782.491,11.575-1.042v11.757a8.2,8.2,0,0,1-16.4,0Zm23.4-10.788V112.509h80.167v85.37H140.658a3.5,3.5,0,0,0,0,7h69.357V262.9H129.848Zm18.967-105.189,3.578-7.083c4.952-9.436,13.691-7.577,22.538-7.713,9.871.243,12.362,7.227,16.116,14.8Zm84.6,105.189a4.834,4.834,0,0,1-4.828,4.829h-6.746a4.834,4.834,0,0,1-4.828-4.829V197.653a4.834,4.834,0,0,1,4.828-4.829h6.746a4.834,4.834,0,0,1,4.828,4.829Zm-16.4,10.788a11.749,11.749,0,0,0,4.828,1.041c3.114-.106,8.782.491,11.574-1.041v11.756a8.2,8.2,0,0,1-16.4,0Zm60.409-102.972v56.07a23.321,23.321,0,0,1-23.295,23.295H240.417v-85.37h31A6.012,6.012,0,0,1,277.424,118.514Zm-44.007,68.351a11.736,11.736,0,0,0-4.828-1.041c-3.114.1-8.782-.492-11.574,1.041V112.509h16.4Zm-96.59-94.7c8.816-19.323,25.984-14.878,43.145-15.357a24.934,24.934,0,0,1,23.063,15.357l5.579,13.345H198.89L193.717,95.27a20.945,20.945,0,0,0-18.786-11.558h-10A20.944,20.944,0,0,0,146.145,95.27l-5.173,10.239h-9.724Zm-13.979,20.345v74.356a11.757,11.757,0,0,0-4.829-1.041c-3.114.1-8.782-.492-11.574,1.041V112.509Zm-60.41,6a6.012,6.012,0,0,1,6-6h31v85.37H85.733a23.321,23.321,0,0,1-23.295-23.295ZM41.884,263.193c-18.364.682-32.913-18.419-27.183-35.914a63.805,63.805,0,0,1,10.921-20.555c15.036-17.8,24.222-34.06,29.816-46.823.18,5.551-.663,17.577,1.106,22.774-4.88,9.347-12.082,21.654-19.8,29.724a33.752,33.752,0,0,0-7.913,12.829c-4.471,12.683,5.194,27.07,18.52,28.233a69.488,69.488,0,0,0,11.632.276,26.65,26.65,0,0,0,6.643,9.307Zm64.561-.29V246.021a15.25,15.25,0,0,0,16.4,0V262.9Zm110.57,0V246.021a15.248,15.248,0,0,0,16.4,0V262.9Zm104.054-11.142a27.821,27.821,0,0,1-22.931,11.432l-23.9-.151A26.478,26.478,0,0,0,283,243.359v-47.1c4.389,7.414,9.635,15.161,15.2,20.982,5.957,6.164,9.644,14.845,4.726,22.428a15.116,15.116,0,0,1-11.066,6.841c-4.324.531-3.944,6.943.392,6.978,13.5-.866,23.448-15.452,18.92-28.256a33.752,33.752,0,0,0-7.913-12.829c-7.772-8.125-15.018-20.545-19.89-29.9,1.707-5.072.877-17.491,1.057-22.908,5.6,12.847,14.814,29.2,29.969,47.149C320.928,214.746,333.636,235.636,321.069,251.761Z" style="fill:#3f3f70"/></svg>