<svg id="icons" xmlns="http://www.w3.org/2000/svg" viewBox="0 0 340 340"><path d="M120.131,21.272c5.483-9.207,61.938-18.329,102.717-3.346L221.09,27.4S158.316,53.437,120.131,21.272Z" style="fill:#7b8bba"/><path d="M120.131,21.272s48.515,21.748,102.717-3.346c.094,12.372-.538,30.426,1.368,42.468,10.71,70.041-4.678,156.085,4.3,269.609H214.209a9.673,9.673,0,0,1-9.626-8.716L203,305.373c-3.379-31.924-19.211-61.792-14.281-98.742,0,0,.848-11.132.813-25.875.686-28.209-7.8-60.121-14.469-87.458a.906.906,0,0,0-1.744-.072c-2.962,9.3-11.708,39.28-15.585,80.16-4.2,40.962,8.088,54.682-8.044,105.562a96.722,96.722,0,0,0-3.863,17.619c-.762,6.277-1.658,14.893-2.209,24.342A9.668,9.668,0,0,1,133.966,330H120.131s-.334-75.527-5.353-137.425c0,0-8.97-68.045,2.532-136.63C119.208,45.811,119.581,31.641,120.131,21.272Z" style="fill:#bac9e8"/><path d="M226.341,17.8a3.519,3.519,0,0,0-2.313-3.17C183.264-.531,123.86,8.077,117.409,19.073a3.659,3.659,0,0,0-.773,2.042c-.469,10.523-.934,23.811-2.778,34.254-11.261,67.148-2.934,134.642-2.562,137.573,4.944,61.036,5.333,136.323,5.336,137.077a3.5,3.5,0,0,0,3.5,3.484h13.834a13.176,13.176,0,0,0,13.148-12.391c1.382-17.325,1.5-26.531,5.916-41.111,16.156-50.245,4.183-65.277,8.19-106.285a421.538,421.538,0,0,1,9.666-58.431c1-4.486-5.658-6.094-6.806-1.634-7.478,32.628-13.291,68.479-9.658,102.2,1.327,12.534,1,33.469-8.064,62.027-4.628,15.2-4.814,24.856-6.233,42.823a6.169,6.169,0,0,1-6.159,5.8H123.605c-.141-15.583-.975-80.4-5.339-134.207-.125-1.041-8.783-68.195,2.5-135.77,1.771-9.831,2.147-20.509,2.62-30.233a136.215,136.215,0,0,0,95.966-3.007c.023,11.659-.366,26.112,1.4,37.579,10.4,68.032-4.188,153.437,3.931,265.638h-10.47a6.153,6.153,0,0,1-6.143-5.562c-1.318-14.292-2.8-30.652-7.042-44.173-4.79-16.33-12.282-47.137-8.813-69.871.008-.113.858-11.438.824-26.149.657-28.019-7.555-59.785-14.276-87.052h6.282c4.593-.076,4.606-6.922,0-7h-24.82a3.5,3.5,0,0,0,0,7h11.34c6.648,27.158,15.143,59.228,14.473,87.068.032,13.609-.7,24.235-.795,25.479-3.554,24,4.151,55.708,9.067,72.492,4.094,13.062,5.524,29.119,6.795,42.9a13.129,13.129,0,0,0,13.108,11.87h14.306A3.524,3.524,0,0,0,232,329.66c-8.791-108.179,6.258-202.78-4.316-269.737C225.827,47.8,226.438,30.062,226.341,17.8Zm-98.526,2.545c16.686-7.118,48.148-10.5,84.776-1.928C175.056,32.479,141.321,24.674,127.815,20.346Z" style="fill:#3f3f70"/></svg>