<svg id="icons" xmlns="http://www.w3.org/2000/svg" viewBox="0 0 340 340"><path d="M135.054,9.95s27.057,16.181,83.089,4.022V42.249l-69.519,62.21S125.161,44.951,135.054,9.95Z" style="fill:#7b8bba"/><path d="M135.054,9.95s1.795,17.162,22.292,24.914a3.673,3.673,0,0,1,2.4,3.7,145,145,0,0,0,2.036,35.113,1.007,1.007,0,0,0,1.934.18A337.293,337.293,0,0,1,178.58,39.7a3.662,3.662,0,0,1,3.048-1.995c6.656-.419,27.622-3.367,36.515-23.734l16.745,10.247a12.316,12.316,0,0,1,5.821,11.919c-1.152,9.909-5.087,28.546-18.192,53.807-9.5,18.446-13.013,39.859-7.938,60.2,9.079,25.151,37.12,75.3,35.814,140.387a20.014,20.014,0,0,1-8.2,15.245c-19.417,14.286-74.488,45.335-143.2,1.968a20.289,20.289,0,0,1-9.483-18.382c1.357-22.228,6.648-72.474,27.273-117a83.068,83.068,0,0,0,5.153-55.964c-4.8-17.731-15-29.846-4.266-59.6a20.866,20.866,0,0,0,1.312-11.915C115.231,23.3,113.3,21.684,135.054,9.95Z" style="fill:#bac9e8"/><path d="M86.02,289.145a23.812,23.812,0,0,0,11.113,21.564c26.8,16.911,51.557,22.829,73.088,22.829,34.786,0,61.145-15.447,74.049-24.941a23.386,23.386,0,0,0,9.619-17.919c1.358-65.964-27.617-118.156-35.9-141.309-4.847-18.976-1.572-40.055,7.63-57.812,12.948-24.961,17.239-43.675,18.558-54.979a15.886,15.886,0,0,0-7.467-15.344L219.969,10.987a3.746,3.746,0,0,0-2.568-.435c-53.625,11.637-80.185-3.394-80.559-3.611a3.633,3.633,0,0,0-3.334-.13,96.763,96.763,0,0,0-14.066,8.775c-14,10.616.393,26.993-4.995,39.864-11.577,31.764-.189,44.365,4.618,63.935a79.845,79.845,0,0,1-5.454,51.508C92.431,216.614,87.26,268.821,86.02,289.145ZM178.552,22.022a184.078,184.078,0,0,0,32.818-3.146c-11.033,15.522-30.807,15.411-31.736,15.4a3.512,3.512,0,0,0-3.187,1.9c-5.4,10.523-9.642,20.293-12.573,27.548a128.894,128.894,0,0,1-.4-27.493,3.5,3.5,0,0,0-2.425-3.788c-12.087-3.788-17.73-10.9-20.338-16.191C147.957,18.848,160.494,22.022,178.552,22.022Zm-52.671,95.767c-4.409-19.154-15.676-30-4.987-59.617a24.356,24.356,0,0,0,1.532-13.927c-.882-4.783-1.659-9.763-2.311-14.8a8.826,8.826,0,0,1,3.489-8.228,100.56,100.56,0,0,1,9.126-6.042c2.105,6.314,7.9,17.187,23.529,23.024a148.423,148.423,0,0,0,2.792,39.819,3.514,3.514,0,0,0,6.744.42,324.4,324.4,0,0,1,15.943-37.221c6.85-.389,27.369-3.173,37.851-22.254L233.061,27.2a8.867,8.867,0,0,1,4.168,8.563c-1.024,8.779-4.7,27.281-17.819,52.566-10,19.273-13.479,42.208-8.18,62.837,8.446,24.154,36.839,73.921,35.665,139.218a16.418,16.418,0,0,1-6.773,12.571c-34.367,26.663-90.878,34.266-139.253,1.829a16.806,16.806,0,0,1-7.861-15.216c1.215-19.928,6.276-71.1,26.954-115.736A86.89,86.89,0,0,0,125.881,117.789Z" style="fill:#3f3f70"/></svg>