<svg id="icons" xmlns="http://www.w3.org/2000/svg" viewBox="0 0 340 340"><path d="M68.569,53.614c2.333,49.361-37.8,125.762-10.82,253.621,0,0,12.566,10.133,37.292,15.4l8.513-28.375s9.6,19.594,18.518,31.362c0,0,51.615,10.414,103.094-.936l10.126-30.831,11.35,27.564s28.374-2.432,43.372-10.945c0,0,10.134-119.983-24.321-216.05a187.1,187.1,0,0,1-3.9-38.867Z" style="fill:#bac9e8"/><path d="M69.505,26.006c-2.249-5.42,142.251-35.61,192.288,3.326l-6.234,14.426S118.958,72.7,69.505,26.006Z" style="fill:#7b8bba"/><path d="M69.505,26.006S92.083,43.752,168.89,43.114c0,0,75.739-2.554,92.9-13.782V55.56C250.082,67.431,131.887,87.935,68.569,53.614Z" style="fill:#fff"/><path d="M54.371,308.148c1.328,3.035,13.311,11.63,39.94,17.913a3.5,3.5,0,0,0,4.083-2.418l6.021-20.072c3.671,6.869,9.351,16.888,14.868,24.168a3.494,3.494,0,0,0,2.1,1.316,283.143,283.143,0,0,0,51.369,4.473,249.169,249.169,0,0,0,53.171-5.421,3.5,3.5,0,0,0,2.572-2.326l7.17-21.832,7.743,18.806a3.491,3.491,0,0,0,3.535,2.154c1.19-.1,29.316-2.6,44.8-11.388a3.5,3.5,0,0,0,1.76-2.749c.1-1.207,9.79-121.68-24.442-217.328a187.3,187.3,0,0,1-3.766-37.885V29.332a3.8,3.8,0,0,0-.3-1.42c-23.3-24.381-93.624-21.249-96.219-21.3-84.8,3.853-101.525,14.31-102.764,19.27,0,.073-.937,27.616-.936,27.681C66.529,104.4,27.591,183.378,54.371,308.148ZM169.038,13.611c.638-.027,60.342-2.327,86.2,15.043-48.768,15.8-151.962,13.034-178.164-2.437C86.93,22.419,112.2,15.56,169.038,13.611ZM72.805,31.973C100.029,47.7,198,53.351,258.293,34.936V53.623c-3.09,1.751-11.584,5.847-28.417,9.371a3.5,3.5,0,0,0,1.434,6.852c13.575-2.843,22.141-6.088,27.071-8.407a184.151,184.151,0,0,0,3.906,33.791c31.5,87.505,25.5,197.514,24.377,213.072-11.821,5.973-30.935,8.589-37.782,9.368l-10.064-24.442c2.755-70.648-11.972-151.485-18.451-183.043a182.84,182.84,0,0,1-3.51-40.839,3.53,3.53,0,0,0-3.97-3.469,387.115,387.115,0,0,1-40.8,3.1A347.267,347.267,0,0,1,126.751,66.6c-4.514-.483-5.442,6.312-.837,6.95,35.871,3.813,54.182,2.88,83.942-.235a180.32,180.32,0,0,0,3.654,38.276c6.437,31.348,21.078,111.7,18.3,181.642l-9.345,28.453c-45.033,9.441-90.253,2.2-98.408.745-7.636-10.434-15.692-26.357-17.134-29.248-12.4-75.941-1.8-166.49,1.754-192.479,1.541-9.648,1.077-23.927,1.137-33.82a3.5,3.5,0,0,0-2.853-3.434C92.6,60.532,80.9,56.563,72.138,51.643ZM67.632,96.889a277.877,277.877,0,0,0,4.243-37.47c8.339,4.192,18.7,7.651,30.942,10.313-.031,9.1.316,21.162-1.073,30.027-3.581,26.2-14.254,117.421-1.773,194.265L92.628,318.5c-18.06-4.339-28.812-11.239-31.814-13.356C38,218.768,67.332,98.1,67.632,96.889Z" style="fill:#3f3f70"/></svg>