<svg id="icons" xmlns="http://www.w3.org/2000/svg" viewBox="0 0 340 340"><path d="M274.444,26.827A17.071,17.071,0,0,1,257.373,43.9c-22.6-.781-22.592-33.364,0-34.142A17.071,17.071,0,0,1,274.444,26.827Z" style="fill:#7b8bba"/><path d="M52.562,158.161s2.8-7.29,7.89-18.089c5.4-12.629,19.634-36.827,27.592-48.357L99.676,72.577s52.2-84.67,150.987-48c25.193,10.308,51.62,32.306,66.432,70.906,0,0,11.156,29.326,2.161,74.347,0,0-12.535,59.649-37.173,92.5Z" style="fill:#bac9e8"/><path d="M21.526,222.168s8.8,9.636,25.557,18.434c0,0,113.96,58.237,191.888,84.632,0,0,24.364,11.188,31.842,0l2.513-17.178L33.257,202.476S23.2,204.99,21.526,222.168Z" style="fill:#cbcde5"/><path d="M67.194,150.524c14.323,6.753,64.875,32,78.521,37.417l48.659,20.2c18.609,7.273,63.038,31.584,81.467,40.838,0,0,4.336,2.192,9.609,4.966a20.246,20.246,0,0,1,9.521,25.046c-4.89,12.976-12.968,31.241-24.158,46.24,0,0-1.257-6.7-10.475-11.731,0,0-180.156-72.063-221.634-98.039,0,0-13.407-5.865-17.178,6.7a29.612,29.612,0,0,1,0-30.585l19.06-36.245a15.829,15.829,0,0,1,19.568-7.454Z" style="fill:#fff"/><path d="M61.467,137.9a3.5,3.5,0,0,0,4.684-1.6A311.417,311.417,0,0,1,87.257,99.385c16.528-23.648,16.044-36.913,56.891-64.2a3.5,3.5,0,1,0-3.6-6c-39.993,26.614-41.8,40.141-55.5,60.717-8.9,13.448-17.333,27.018-25.186,43.317A3.5,3.5,0,0,0,61.467,137.9Z" style="fill:#3f3f70"/><path d="M18.939,224.525c.377.416,9.411,10.193,26.552,19.194,1.141.583,114.917,58.571,192.189,84.773,2.156.976,12.14,5.253,21.5,5.252,5.669,0,11.106-1.577,14.43-6.4,11.5-15.395,19.744-34.124,24.64-47.112a23.768,23.768,0,0,0-6.474-26.1c20.273-33.709,30.474-81.5,30.916-83.606,12.8-71.018-10.362-105.811-46.456-135.491,9.742-24.4-24.078-40.594-37.018-17.87-29.37-8.279-57.351-6.88-83.343,4.2-4.2,1.871-1.523,8.175,2.745,6.439a110.388,110.388,0,0,1,37.524-8.76,88.6,88.6,0,0,0-27.073,22.688,149.643,149.643,0,0,1-11.8,13.3,133.488,133.488,0,0,0-23.084,31.316c-6.588,12.338-12.3,17.775-18.554,33.16-5.667,14.578-14.518,24.995-20.885,40.491-5.34-2.532-28.141-14.027-33.367-15.387a19.363,19.363,0,0,0-23.893,9.1L18.466,189.88a32.931,32.931,0,0,0,.16,34.249A3.471,3.471,0,0,0,18.939,224.525Zm221.493,97.528C163.816,296.115,49.756,238.065,48.71,237.5a104.412,104.412,0,0,1-23.1-16.2c1.854-4.746,8.694-3.971,11.484-2.716,41.4,25.768,211.932,94.158,221.742,98.085,5.026,2.788,7.157,6.02,8.011,7.819C261.029,329.651,245.693,324.461,240.432,322.053ZM291.7,277.76c-4.243,11.258-11.071,26.94-20.358,40.687-7.8-9.362-9.28-7.5-26.709-15.065.1-.236,16.452-35.585,16.525-35.809a53.1,53.1,0,0,0,3.565-20.415c7.724,4.03,9,4.621,19.1,9.888A16.764,16.764,0,0,1,291.7,277.76ZM290.208,57.416c1.409,3.536,9.521,26.321,2.952,66.8a3.5,3.5,0,0,0,6.911,1.121c3.908-24.09,2.869-42.139.909-54.068,28.861,42.012,23.688,104.784-15.047,178.978-3.489-1.791-57.441-29.752-62.812-32.545,19.058-30.489,15.718-52.577,28.1-80.208a126.775,126.775,0,0,0,10.7-37.793,65.208,65.208,0,0,1,2.744-13.13c6.894-21.113,5.782-38.5,4.047-48.394A132.032,132.032,0,0,1,290.208,57.416Zm-32.836-44.16A13.633,13.633,0,0,1,270.348,30.8,92.9,92.9,0,0,0,246.1,19.274,13.558,13.558,0,0,1,257.372,13.256Zm-145.4,128.891a137.875,137.875,0,0,0,10.146-20c6.1-14.944,11.776-20.27,18.236-32.485,12.327-22.828,21.293-27.34,34.2-43.584a81.621,81.621,0,0,1,38.657-26.7,137.077,137.077,0,0,1,29.33,6.108C237.19,29.506,229.2,37.1,220.179,50.92c-4.312,6.611-8.353,12.24-12.351,17.21-5.166,6.423-12.751,17.589-19.542,34.308-2.789,6.864-5.641,13.116-8.72,19.112-5.093,9.962-6.922,16.839-12.328,27.441l-8.384,17.129a3.5,3.5,0,1,0,6.287,3.077l8.385-17.129c5.394-10.564,7.245-17.435,12.266-27.321,3.175-6.181,6.112-12.616,8.979-19.674,6.472-15.932,13.639-26.5,18.513-32.556,4.143-5.152,8.317-10.965,12.758-17.772,11.9-18.244,21.611-24.624,24.775-26.351a80.3,80.3,0,0,1,9.492,4.457c1.444,4.965,6.274,25.3-2.3,51.55a72.178,72.178,0,0,0-3.049,14.545,119.722,119.722,0,0,1-10.131,35.685c-12.6,27.544-9.068,49.8-27.981,79.9-2.834-1.288-7.111-4.584-9.2-.56a3.5,3.5,0,0,0,1.65,4.666c7,3.24,40.547,20.879,48.043,24.7.521,3.066,1.245,11.089-2.7,21.659l-16.508,35.75c-9.816-4-22.136-9.051-35.843-14.736,5.777-11.171,12.613-27.006,12.926-27.732a64.249,64.249,0,0,0,5.249-22.147c.018-4.594-6.836-4.756-7-.146.145,10.608-7.781,27.716-17.665,47.329-21.006-8.743-44.7-18.75-67.394-28.654,1.336-10.556,8.231-22.3,8.278-22.376,7.574-12.29,15.37-29.551,18.466-36.629L181.1,206.424c4.263,1.69,6.913-4.622,2.683-6.465l-36.73-15.25c-12.048-4.852-34.044-15.942-46-21.655A153.651,153.651,0,0,1,111.972,142.147ZM24.54,193.361c-.051-.082,19.158-36.282,19.144-36.395a12.353,12.353,0,0,1,15.241-5.805c21.124,8.133,68.988,34,89.763,41.8-3.08,7.014-10.749,23.948-17.986,35.69-.318.537-6.9,11.712-8.923,23.1-18.885-8.3-36.808-16.425-51.582-23.572a22.139,22.139,0,0,1,2.659-8.582c10.379-15.608,19.5-38,19.886-38.945,1.654-4.279-4.682-6.875-6.487-2.63-.038.13-9.476,23.165-19.418,38a31.041,31.041,0,0,0-3.288,8.9c-9.625-4.779-17.54-9.014-22.988-12.426-2.143-1.447-13.206-4.14-18.658,2.056A25.8,25.8,0,0,1,24.54,193.361Z" style="fill:#3f3f70"/><path d="M196.017,212.633a6.372,6.372,0,0,0,2.478.755c3.7.074,4.861-5.284,1.384-6.716l-1.112-.477C194.5,204.462,191.819,210.754,196.017,212.633Z" style="fill:#3f3f70"/><path d="M265.158,228.412a3.5,3.5,0,0,0,4.575-1.887c14.748-35.459,19.749-62.9,19.954-64.051.732-4.519-6-5.766-6.891-1.232-.049.274-5.092,27.888-19.526,62.594A3.5,3.5,0,0,0,265.158,228.412Z" style="fill:#3f3f70"/><path d="M291.413,147.992c4.671,1.17,6.283-5.935,2.014-7.129C288.924,139.6,286.961,146.707,291.413,147.992Z" style="fill:#3f3f70"/></svg>