<svg id="icons" xmlns="http://www.w3.org/2000/svg" viewBox="0 0 340 340"><path d="M187.02,9.012s30.076-2.2,53.441,6.588L193.723,151.709,160,132.383Z" style="fill:#7b8bba"/><path d="M187.02,9.012l3.295,111.639L163.594,298.542,147.182,313a25.671,25.671,0,0,1-20.137,6.193c-14.31-1.774-38.637-6.852-57.52-21.378,0,0,31.478-78.7,36.969-133.235,0,0-39.532,53.806-59.663,109.077,0,0-20.864-1.83-35.139-18.667.338.307,40.854-152.792,102.92-207.7C124.994,40.9,163.724,17.512,187.02,9.012Z" style="fill:#bac9e8"/><path d="M183.814,163.931l6.5-43.28L187.02,9.012c-8.692,3.171-19.532,8.417-30.248,14.077l-5.423,20.2,17,8.645-17,11.239S156.317,109.193,183.814,163.931Z" style="fill:#fff"/><path d="M189.639,97.744l-19.618,35.05c3.809,9.848,8.36,20.321,13.793,31.137l6.5-43.28Z" style="fill:#cbcde5"/><path d="M240.461,15.6S185.19,130.168,155.908,173.36c0,0-3.994,82.87,6.425,144.2a13.115,13.115,0,0,0,10.626,10.719,210.722,210.722,0,0,0,80.313-1.92l-2.606-99.341a69.523,69.523,0,0,1,3.6-23.961l11.455-34.092,9.771,37.253c2.488,8.207,11.739,92.252,13.408,102.72,0,0,24.52,6.074,39.412-6,0,0-1.041-151.988-26.1-226.553a25.9,25.9,0,0,0-6.242-10.065C286.01,56.357,260.145,30.942,240.461,15.6Z" style="fill:#bac9e8"/><path d="M240.461,15.6S185.19,130.168,155.908,173.36c55.571-31.005,91.117-86.889,91.117-86.889L232.616,68.356l19.308-2.3c4.39-10.976,7.259-25.54,8.609-33.463C253.692,26.452,246.76,20.51,240.461,15.6Z" style="fill:#fff"/><path d="M50.12,274.85c14.171-38.906,38.339-77.494,50.965-96.329-8.574,52-34.524,117.275-34.81,117.989a3.5,3.5,0,0,0,1.116,4.074c22.034,16.25,46.314,20.873,62.825,22.3a29.185,29.185,0,0,0,19.28-7.264,3.5,3.5,0,0,0-4.627-5.253,22.167,22.167,0,0,1-17.394,5.346c-12.4-1.537-35.46-6.051-53.716-19.12,5.394-13.934,31.247-82.632,36.2-131.542.169-.984,1.361-8.015,2.726-18.469a3.5,3.5,0,1,0-6.941-.906c-1.171,8.967-2.21,15.363-2.569,17.508-4.565,6.34-39.542,55.753-58.643,106.583-5.531-1.043-18.781-4.589-28.961-15.673,4.663-16.467,41.077-140.605,93.782-197.466,1.664,17.523,1.364,39.168-.9,64.486a3.5,3.5,0,0,0,6.972.624c2.533-28.3,2.635-52.168.323-71.016,6.71-4.207,19.884-12.117,35.542-20.72-4.729,18.863-6.827,13.18,10.115,22.322L149.42,60.249a3.5,3.5,0,0,0-1.55,3.3c.124,1.152,3.209,28.653,17.43,66.69a3.5,3.5,0,1,0,6.557-2.451c-11.7-31.3-15.752-55.8-16.755-62.9l15.18-10.034a3.524,3.524,0,0,0-.344-6.04l-14.473-7.359,4.29-15.977c9.327-4.89,17.34-8.712,23.913-11.406l2.941,99.655c-12.308,23.35-24.777,43.967-34.1,58.847-.466,2.009-3.816,83.623,6.377,145.578a16.648,16.648,0,0,0,13.465,13.58,206.234,206.234,0,0,0,35.644,3.018,214.127,214.127,0,0,0,46.035-4.968,3.5,3.5,0,0,0,2.745-3.509l-2.605-99.341a65.809,65.809,0,0,1,3.414-22.754c6.305-18.618,19.188-57.3,25.444-76.1a3.5,3.5,0,0,0-6.641-2.211c-6.317,18.9-19.1,57.4-25.438,76.086a72.77,72.77,0,0,0-3.777,25.166l2.529,96.433a206.742,206.742,0,0,1-76.127,1.291,9.632,9.632,0,0,1-7.787-7.859c-9.365-55.13-6.966-128.789-6.461-141.53,54.712-31.232,89.2-84.808,90.656-87.1a3.5,3.5,0,0,0-.214-4.057l-10.5-13.205,13.078-1.562a3.5,3.5,0,0,0,2.835-2.175c3.52-8.8,6.073-19.78,7.67-27.951,13.769,12.735,24.774,23.264,32.035,30.924L287.2,93.374c-1.38,4.371,5.093,6.568,6.64,2.212l5.533-16.613c22.709,69.385,25.193,205.283,25.414,222.229-10.841,7.635-26.809,5.824-32.731,4.8-1.817-12.013-10.479-90.983-13.183-100.67l-3.922-14.953a3.5,3.5,0,0,0-6.772,1.776l3.922,14.953c2.454,8.454,11.653,91.7,13.321,102.263a3.5,3.5,0,0,0,2.631,2.966c9.328,2.568,31.575,3.107,42.459-6.685a3.665,3.665,0,0,0,1.3-2.741c-.991-1.283.447-165.885-30.279-235.425C289.167,53.8,262.314,28.119,241.693,12.324c-23.81-8.953-53.667-6.894-54.928-6.8-6.323,1.891-12.324,4.966-18.332,7.732C150.6,21.689,121.1,39.063,112.78,44.3a29.871,29.871,0,0,0-5.714,4.575C69.342,80.914,18.664,209.056,8.317,254.07a3.487,3.487,0,0,0,.705,3.178c15.032,17.731,36.593,19.811,37.5,19.891A3.529,3.529,0,0,0,50.12,274.85ZM235.588,17.622c-10.483,21.589-28.965,58.405-42.345,83.645L190.62,12.351C198.4,12.108,218.374,12.134,235.588,17.622ZM188.215,125.447C208.393,88.438,229.643,45.773,241.7,21.056c5.232,4.238,9.72,8.106,15.05,12.846-1.327,7.443-3.784,19.326-7.336,28.924L232.2,64.881a3.524,3.524,0,0,0-2.324,5.654L242.7,86.654c-6.374,9.371-34.478,48.6-75.679,75.837C174.426,150.356,181.386,137.944,188.215,125.447Z" style="fill:#3f3f70"/><path d="M178.89,184.272c-2.973-4.083-8.814.687-5.38,4.42C176.472,191.633,181.211,187.751,178.89,184.272Z" style="fill:#3f3f70"/><path d="M250.112,156.293a175.192,175.192,0,0,1-32.161-6.515c-4.39-1.34-6.514,5.169-2.153,6.661a177.742,177.742,0,0,0,33.969,6.837C254.122,163.233,254.483,156.781,250.112,156.293Z" style="fill:#3f3f70"/></svg>