<svg id="icons" xmlns="http://www.w3.org/2000/svg" viewBox="0 0 340 340"><path d="M102.956,120.747s-14.928,77.886-52.649,149.98a10.61,10.61,0,0,0,1.852,12.382l24.894,25.177S108.827,175.316,102.956,120.747Z" style="fill:#7b8bba"/><path d="M229.018,117.293s5.236,88.681,59.345,152.966a10.64,10.64,0,0,1,.965,12.48c-3.569,5.735-10.352,14.08-22.664,22.093C266.664,304.832,201.388,215.38,229.018,117.293Z" style="fill:#7b8bba"/><path d="M118.12,32.977S99.084,62.043,96.789,144.341c-1.972,70.7-18.463,142.611-23.071,161.474a8.666,8.666,0,0,0,2.931,8.805c5.579,4.512,17.334,11.364,38.306,12.768,5.967.371,7.038-4.5,10.28-8.381,8.332-9.923,26.458-4.843,26.966,8.618,0,0,24.548,6.344,47.5-1.746l-1.358-8.655s21.075-5.665,29.271,2.2l2.107,8.959s22.862.078,40.654-12.7a10.7,10.7,0,0,0,3.616-12.816c-7.235-17.335-25.383-67.011-37.115-152.953-4.815-34.392-3.714-84.694-15.649-116.943C221.226,32.977,159.124,42.273,118.12,32.977Z" style="fill:#bac9e8"/><path d="M120.575,14.677c-3.78-2.1,69.106-10.357,96.634,1.785V24.5S155.836,47.483,120.575,14.677Z" style="fill:#7b8bba"/><path d="M120.575,14.677c3.395,13.119,74.861,25.317,96.634,1.785,0,0,4.687,1.786,4.017,16.515,0,0-39.917,28.465-103.106,0C118.12,32.977,116.307,21.85,120.575,14.677Z" style="fill:#fff"/><path d="M292.3,284.588a14.119,14.119,0,0,0-1.259-16.583c-19.844-23.522-35.252-53.13-45.971-87.685q-2.483-14.572-4.727-30.874c-4.7-34.647-4.035-85.782-15.595-117.071.516-15.084-4.485-18.446-6.2-19.147-30.474-12.059-96.982-5.459-100.119-1.314l0,.007c-5.011,5.855-4.261,16.956-3.937,20.3C111.285,36.1,94.18,76.113,93.206,146.976c-8.177,31.281-22.77,77.731-46,122.128a14.065,14.065,0,0,0,2.464,16.465l11.741,11.875c3.288,3.209,8.159-1.587,4.977-4.922l-11.74-11.875a7.088,7.088,0,0,1-1.24-8.3c16.8-32.11,29.131-65.242,37.822-93.085-4.987,57.2-16.837,109.041-20.912,125.719-3.8,14.981,22.421,24.346,44.4,25.9a11.283,11.283,0,0,0,10.67-5.944,18.611,18.611,0,0,1,2.469-3.614c4.842-5.829,15.073-5.2,19.151,1.178a9.532,9.532,0,0,1,1.691,5.228,3.534,3.534,0,0,0,2.623,3.285,97.139,97.139,0,0,0,22.34,2.5,82.348,82.348,0,0,0,27.2-4.33,3.5,3.5,0,0,0,2.295-3.844l-.851-5.425c6.227-1.213,17.112-2.314,22.162,1.435l1.844,7.842a3.5,3.5,0,0,0,3.4,2.7c.951-.018,24.205-.069,42.708-13.356a14.139,14.139,0,0,0,4.771-17.084A70.84,70.84,0,0,0,292.3,284.588ZM172.574,13.49c.259,0,23.075.063,37.818,4.264-12.516,7.563-30.724,9.824-46.242,8.273-23.81-2.357-33.636-6.8-37.606-9.626C132.187,15.182,144.985,13.49,172.574,13.49Zm95.759,299.356c-13.134,9.43-29.483,11.475-35.869,11.919-2.682-11.812-4.945-25.857-7.678-68.7a3.5,3.5,0,1,0-6.99.361c1.332,25.726,3.885,46.386,5.32,56.609-7.358-2.264-16.49-1.106-21.712-.092-1.921-18.307-9.863-97.65-10.127-160.615a3.5,3.5,0,0,0-7,.029c.3,71.664,10.484,164.325,10.586,165.252a.76.76,0,0,1,.021.158l.9,5.709c-16.535,4.95-33.585,2.555-40.023,1.33l1.189-60.593a3.5,3.5,0,0,0-3.431-3.567h-.07a3.5,3.5,0,0,0-3.5,3.431l-.988,50.346a19.508,19.508,0,0,0-21.892-1.437c2.333-20.933,7.046-69.18,6.623-114.169a3.5,3.5,0,0,0-7,.067c.521,55.43-6.826,115.921-7.735,123.174a4.3,4.3,0,0,1-3.766,1.839c-18.727-1.121-40.242-9.6-38.071-17.25,4.863-19.9,20.709-89.474,23.07-158.98C101,84.316,115.516,44,119.649,37.465A154.358,154.358,0,0,0,140.2,44.641c-2.363,6.606-6,21.69-5.137,50.69a3.5,3.5,0,1,0,7-.209c-.885-29.667,3.073-43.807,4.985-48.82a118,118,0,0,0,37.587,2.214c4.556-.559,3.854-7.372-.738-6.961-20.782,2.285-42.715-2.246-62.52-10.964a34.225,34.225,0,0,1,.365-8.967c5.4,4.123,16.973,8.919,41.723,11.37,17.639,1.792,40.113-1.187,53.285-11.211a27.983,27.983,0,0,1,1.041,9.185,86.13,86.13,0,0,1-19.339,7.913,3.512,3.512,0,0,0-.91,6.329l-.007.011a1.066,1.066,0,0,1-.155-.1c.07.055,6.953,5.786,6.953,33.705a3.5,3.5,0,0,0,7,0c0-19.532-3.2-29.609-6.052-34.714a93.134,93.134,0,0,0,14.106-6.022c10.65,35.859,9.27,78.552,14.025,112.309,11.778,86.277,30.045,136.317,37.353,153.828A7.166,7.166,0,0,1,268.333,312.846Zm6.115-18.26c-5.352-13.924-13.595-38.427-21.561-74.264a233.145,233.145,0,0,0,32.8,52.191,7.136,7.136,0,0,1,.671,8.377A62.42,62.42,0,0,1,274.448,294.586Z" style="fill:#3f3f70"/><path d="M126.254,181.658c.15,4.8,7.3,4.446,6.991-.337Z" style="fill:#3f3f70"/></svg>