<svg id="icons" xmlns="http://www.w3.org/2000/svg" viewBox="0 0 340 340"><path d="M19.732,32.285S151.464,24.077,328.749,80.71l-10.67,13.132S121.917,116,25.067,46.648Z" style="fill:#7b8bba"/><path d="M11.524,90.148s12.722,89.464,76.331,204.37l18.057-32.83S103.039,87.276,11.524,90.148Z" style="fill:#7b8bba"/><path d="M138.332,307.24s93.157-40.628,174.412-148.148l-4.1-20.108-105.468,1.641S128.483,240.758,138.332,307.24Z" style="fill:#7b8bba"/><path d="M19.732,32.285S9.472,62.653,11.524,90.148c0,0,93.978,20.519,76.331,204.37,0,0,20.109,17.647,50.477,12.722,0,0,35.7-180.978,174.412-148.148,0,0,16.013-40.217,16-78.382C328.749,80.71,140.384,105.332,19.732,32.285Z" style="fill:#bac9e8"/><path d="M332.189,80.149a3.515,3.515,0,0,0-2.429-2.79C212.736,39.613,94.77,25.919,19.513,28.791a3.591,3.591,0,0,0-3.1,2.374c-.5,1.132-10.5,31.809-8.356,59.476.128.9,13.543,91.422,76.732,205.573,1.575,2.252,16.563,14.8,42.768,15.4a55.9,55.9,0,0,0,12.172-1.17c50.558-23.979,121.816-76.931,175.8-149.245a6.348,6.348,0,0,0,.46-.816C316.741,158.974,332.5,118.085,332.189,80.149ZM311.2,78.927c-81.19,5.86-191.113,2.761-278.887-43.488C67.617,35.06,175.14,37.873,311.2,78.927ZM85.347,282.58C36.154,190.531,19.806,115.937,15.967,95.326,68.559,120.793,91.208,179.877,85.347,282.58Zm58.077,18.309c12.825-55.9,64.371-162.366,163.193-139.546C239.947,247.709,165.491,289.694,143.424,300.889ZM310.54,155C231.6,135.793,175.768,194.556,151.115,256.3c-4.063.091-8.1.014-12.036-.253-4.586-.213-5.066,6.586-.473,6.984,3.156.21,6.386.326,9.627.31a287.472,287.472,0,0,0-12.811,40.784,62.609,62.609,0,0,1-43.9-11.178q2.037-22.065,2.019-42.206a98.546,98.546,0,0,0,24.674,9.241,3.5,3.5,0,1,0,1.617-6.81c-14.237-3.379-23.192-8.568-26.373-10.632.183-61.166-23.251-136.445-78.589-155.081a131.189,131.189,0,0,1,1.517-25.164c68.92,50.072,202.839,67.5,305.908,49.048A275.609,275.609,0,0,1,310.54,155Zm12.925-50.938C183.761,123.407,92.586,103,17.7,54.586c1.4-7.231,2.991-13.265,4.072-17.018,87.261,52.267,227.839,55.605,303.416,47.076A172.588,172.588,0,0,1,323.465,104.066Z" style="fill:#3f3f70"/></svg>