<svg id="icons" xmlns="http://www.w3.org/2000/svg" viewBox="0 0 340 340"><path d="M64.958,18.008s56.747-18.151,149.7,9.3c96.108,28.384,102.308,50.047,102.308,50.047l-19.93,23.031L156.194,96.4,67.173,43.253Z" style="fill:#7b8bba"/><path d="M64.958,18.008C50.221,28.831,49.077,54.029,42.371,90.2c0,0-14.859,75.075-19.226,139.621a47.616,47.616,0,0,0,9.223,31.591C44.676,278,71.183,299.157,126.161,298.526c13.394.1,23.585-6.054,34.462-13.009,1.894,10.177,3.17,19.252,12.075,25.944,18.251,14.731,72.47,29.642,111.672-1.217a49.786,49.786,0,0,0,16.967-34.172c1.178-15.963,3.643-46.43,6.771-68.947,4.428-31.889,8.857-129.769,8.857-129.769s-75.292,29.231-163.871,1.329C153.094,78.685,71.159,53.44,64.958,18.008Z" style="fill:#bac9e8"/><path d="M153.094,78.685S71.159,53.44,64.958,18.008c0,0-11.975,7.44-16.387,35.469,71.075,66.6,175.83,87.951,266.941,53.11.9-17.1,1.454-29.231,1.454-29.231S241.673,106.587,153.094,78.685Z" style="fill:#fff"/><path d="M320.331,76.393c-.69-2.406-9.479-24.324-104.683-52.44C121.408-3.295,67.127,13.443,63.114,15.034,46.953,26.861,45.888,51.643,38.938,89.521c-.149.752-14.954,76.036-19.285,140.065C18.161,272.623,62.8,302.754,126.2,302.027a51.9,51.9,0,0,0,21.147-4.752,3.5,3.5,0,1,0-2.916-6.363,46.18,46.18,0,0,1-20.679,4.128c-58.352-.031-98.446-27.492-97.117-64.981,8.02-95,18.442-128.466,24.45-169.667a292.4,292.4,0,0,0,55.266,37.414c-.786,5.02-2.532,17.011-3.744,31.54a3.5,3.5,0,1,0,6.977.582c1.04-12.483,2.48-23.046,3.341-28.8,30.1,15.355,72.416,26.61,107.39,25.742,1.519,23.27-5.841,45.895-24.026,61.059a3.523,3.523,0,0,0,2.258,6.176,3.483,3.483,0,0,0,2.253-.824c19.787-16.487,28.106-41.189,26.52-66.515a299.874,299.874,0,0,0,84.416-15.175c-2.153,60.393-10.141,113.561-13.892,164.223a46.542,46.542,0,0,1-15.756,31.774C245.472,338.6,170.7,323.112,165.936,294.236l-1.862-9.311c-.164-1.161-2.354-17.444.288-42.166,0-.339,1.9-19.256,21.717-37.746a3.5,3.5,0,0,0-4.764-5.129c-16.469,15.3-21.667,31.112-23.255,38.276-28.671-7.688-48.745-35.472-49.366-65.394-.323-4.57-7.194-4.187-6.986.428.754,33.156,23.441,63.885,55.383,71.935-2.326,24.71-.03,40.242.073,40.917a.83.83,0,0,1,.028.158l1.881,9.4c6.991,37.444,91.122,49.657,127.576,17.29a53.591,53.591,0,0,0,18.178-36.568c1.186-16.063,3.639-46.35,6.747-68.724,4.288-32.917,9.074-125.858,8.735-131.206ZM213.666,30.666c71.053,20.985,92.05,38.2,97.882,44.851-16.829,5.427-82.7,23.358-157.423-.176C153.351,75.1,79.1,51.885,69.168,20.5,82.177,17.33,134.9,7.4,213.666,30.666Zm98.471,73.4c-89.621,33.4-190.679,11.876-259.791-51.888C54.985,37.188,59.863,28.808,63.22,24.6c13.392,33.817,85.6,56.428,88.823,57.42,63.93,18.973,115.274,13.73,161.184.334C313,87.078,312.627,94.738,312.137,104.062Z" style="fill:#3f3f70"/><path d="M104.894,154.675c4.613.027,4.759-7.652.125-7.765C100.277,146.776,100.113,154.68,104.894,154.675Z" style="fill:#3f3f70"/></svg>