<svg id="icons" xmlns="http://www.w3.org/2000/svg" viewBox="0 0 340 340"><path d="M283.374,148.987s1.964,35.3-3.569,60.732H248.756L238.3,183.81S254.664,162.735,283.374,148.987Z" style="fill:#7b8bba"/><path d="M12.234,193.654,330,200.315c.3,7.523-.181,13.813-7.4,17.951-6.66,3.634-18.9,7.518-40.8,7.518H23.892a13.909,13.909,0,0,1-13.883-14.432A105.444,105.444,0,0,1,12.234,193.654Z" style="fill:#bac9e8"/><path d="M152.531,209.719h90a9.913,9.913,0,0,0,9.489-7c3.891-12.739,13.8-39.682,31.359-53.729,0,0-52.056-20.573-88.329-33.36a24.212,24.212,0,0,0-24.451,4.907c-13.351,12.288-32.552,37.51-29.123,79.093A11.312,11.312,0,0,0,152.531,209.719Z" style="fill:#bac9e8"/><path d="M198.672,116.913c-11.795,8.4-34.557,29.4-36.733,67.434a2.552,2.552,0,0,0,2.537,2.711h20.986a2.534,2.534,0,0,0,2.486-2.022c1.7-8.218,9.878-39.556,38.6-57.9C217.1,123.592,207.5,120.06,198.672,116.913Z" style="fill:#fff"/><path d="M264.974,141.8c-5.9-2.29-12.876-4.978-20.367-7.836-11.132,6.659-28.73,21.323-35.7,49.944a2.55,2.55,0,0,0,2.471,3.153h17.686a2.53,2.53,0,0,0,2.426-1.788C233.5,178.666,241.986,155.346,264.974,141.8Z" style="fill:#fff"/><path d="M330.073,196.816l-71.881-1.507c4.11-11.268,11.313-27.333,21.942-38.555.147,7.1.157,18.331-.727,30a3.5,3.5,0,0,0,6.981.528c1.326-21.429.945-37.761.073-39.933a3.531,3.531,0,0,0-1.8-1.621c-.193-.077-7.476-2.953-18.391-7.185-16.944-6.579-38.116-14.644-55.631-21.036-15.352-5.724-28.2-11.973-42.413.448-12.13,11.163-31.528,35.307-30.609,74.823L12.308,190.155a3.527,3.527,0,0,0-3.5,2.788,109.209,109.209,0,0,0-2.3,18.287c-.538,9.584,7.772,18.261,17.382,18.053H281.806c23.067,0,35.828-4.321,42.472-7.946A17.777,17.777,0,0,0,333.5,205.7v-5.383A3.5,3.5,0,0,0,330.073,196.816Zm-72.706-54.207c-19.1,13.9-26.761,33.76-29.018,40.949H212.605c6.65-25.743,22.4-39.4,32.363-45.71C249.33,139.515,253.5,141.118,257.367,142.609Zm-58.13-21.778c6.64,2.378,13.115,4.753,19.839,7.25-24.715,18.786-32.45,46.368-34.4,55.477H165.494C167.768,149.661,186.833,130.085,199.237,120.831Zm-26.273,2.278a20.5,20.5,0,0,1,18.3-4.9c-13.727,11.4-31.848,33.11-32.941,68.744a3.52,3.52,0,0,0,3.5,3.607h25.752a3.5,3.5,0,0,0,3.462-2.984c.055-.366,5.771-36.239,35.969-56.532,3.37,1.265,6.715,2.528,10,3.773-11.377,8.323-26.517,24.128-32.231,51.529a3.5,3.5,0,0,0,3.426,4.214h22.794a3.505,3.505,0,0,0,3.4-2.683c.066-.274,6.8-27.08,30.937-42.183,4.658,1.808,8.585,3.342,11.454,4.466-15.22,14.871-24.05,38.227-28.117,51.535a6.377,6.377,0,0,1-6.141,4.526H152.531a7.79,7.79,0,0,1-7.572-6.88C141.6,158.536,161.061,134.065,172.964,123.109ZM326.5,205.7c.21,12.934-22.078,16.209-44.694,16.586H23.893a10.459,10.459,0,0,1-10.386-10.81,99.084,99.084,0,0,1,1.6-14.259l122.868,2.576a14.812,14.812,0,0,0,14.557,13.428h90a13.631,13.631,0,0,0,13.3-10.958l70.677,1.482Z" style="fill:#3f3f70"/></svg>