<svg id="icons" xmlns="http://www.w3.org/2000/svg" viewBox="0 0 340 340"><path d="M155.3,8.16s1.15,7.215,7.472,15.415c20.69,26.134,57.077,20.422,79.277-3.231L240.2,55.512,222.988,85.633s-64.866.662-67.685.331-20.03-31.445-20.03-31.445S144.882,18.16,155.3,8.16Z" style="fill:#7b8bba"/><path d="M155.3,6.324S146.382,43.468,172.559,63a28.952,28.952,0,0,0,21.659,5.466c13.358-2.055,34.45-11.755,47.834-49.955A79.669,79.669,0,0,1,290.838,87.66c1.5,26.324,2.02,63.909-3.677,96.1,0,0-36.868-2.169-48.145-3.9,0,0-17,82.687-39.7,138.656a17.356,17.356,0,0,1-14.77,10.813c-24.16,1.832-84.458,2.278-129.132-32.195a17.255,17.255,0,0,1-4.956-21.059c10.075-21.231,31.1-68.364,44.553-118.336a299.783,299.783,0,0,1-46.844-18.651S83.3,14.093,155.3,6.324Z" style="fill:#bac9e8"/><path d="M46.576,144.042a291.092,291.092,0,0,0,32.906,14.074,3.5,3.5,0,0,0,2.37-6.587,290.137,290.137,0,0,1-29.483-12.411C57.9,121.346,90.979,23.505,151.012,12.325c-1.547,11.267-2.66,38.815,19.454,55.313a32.594,32.594,0,0,0,24.284,6.121c15.087-2.322,35.663-12.73,49.309-48.7a75.918,75.918,0,0,1,43.286,64.638c1.421,25,1.992,60.935-3.108,92.223-8.122-.5-29.986-1.918-41.1-3.209,2.033-10.976,8.072-44.524,10.878-70.484a3.5,3.5,0,1,0-6.959-.752c-3.306,30.584-11.161,71.909-11.469,73.52h0c-.169.824-17.194,83.011-39.512,138.045a13.791,13.791,0,0,1-11.792,8.639c-23.528,1.785-82.975,2.287-126.729-31.475a13.819,13.819,0,0,1-3.932-16.788c11-23.188,31.443-69.454,44.752-118.856,11.655-36.619,16.325-73.7,16.371-74.07a3.5,3.5,0,0,0-6.947-.859c-.017.282-4.716,37.164-16.164,73.039-13.165,48.9-33.429,94.759-44.336,117.745a20.858,20.858,0,0,0,5.98,25.331c44.964,32.721,91.343,34.836,131.534,32.915a20.755,20.755,0,0,0,17.75-12.99C222.6,272.258,238.374,201.391,241.768,185.6c13.705,1.637,43.8,3.418,45.188,3.5a3.5,3.5,0,0,0,3.651-2.884c5.777-32.647,5.215-70.722,3.726-96.914a82.882,82.882,0,0,0-48.64-71.2c-2.737-1.106-2.333-1.371-4.412-1.167a3.789,3.789,0,0,0-1.751.983,67.606,67.606,0,0,1-26.137,16.918c-22.941,9.026-50.055-5.9-54.636-27.242a3.525,3.525,0,0,0-2.311-2.725c-31.735,1.844-60.461,27.459-84.775,70.9A342.8,342.8,0,0,0,44.8,139.978,3.5,3.5,0,0,0,46.576,144.042ZM157.388,21.955c17.32,27,51.434,28.374,75.918,10.407C205.769,87.492,156.97,71.374,157.388,21.955Z" style="fill:#3f3f70"/></svg>