<svg id="icons" xmlns="http://www.w3.org/2000/svg" viewBox="0 0 340 340"><path d="M282.662,292.85v21.313a8.064,8.064,0,0,0,5.432,7.647c5.411,2.5,33.153,7.212,33.768-6.964v-22Z" style="fill:#bac9e8"/><path d="M24.55,271.7,14.542,285.443c-7.34,10.881,8.29,23.126,24.116,24.341a9.917,9.917,0,0,0,9.4-4.734L60.3,284.794Z" style="fill:#bac9e8"/><path d="M103.85,265.914l-1.5,19.9a15.707,15.707,0,0,0,8.761,15.288c19.893,9.754,68.774,23.583,126.508,5.87,6.015-1.846,9.891-7.734,10.164-14.02l1.329-30.567Z" style="fill:#bac9e8"/><path d="M254.059,61.161s-69.522-8.076-138.692-2.107c0,0-24.93,1.4-32.654,36.868-3.221,11.513-16.734,84.645-22.486,93.511L22.788,265.215a12.685,12.685,0,0,0,.521,12.284c4.074,6.582,13.036,15.023,31.692,12.476a12.872,12.872,0,0,0,9.546-6.475c7.921-14.27,29.723-54.325,35.722-73.464,0,0-5.883,29.414-1.674,51.583a20.746,20.746,0,0,0,13.721,15.734c21.724,7.411,75.885,21.532,130.672,1.759a18.6,18.6,0,0,0,12.174-15.677l9.431-95.885,11.413,23.074a45.717,45.717,0,0,1,4.738,20.268v76.623c.362,14.714,19.646,20.9,37.157,13.7a14.43,14.43,0,0,0,9.065-13.059c.431-19.085,1.108-65.532-1.629-94.271,0,0-4.944-44.757-15.056-83.2C303.388,84.342,281.105,64.4,254.059,61.161Z" style="fill:#bac9e8"/><path d="M152.36,211.355c9.557,1.932,28.378,4.773,46.6,1.95a9.075,9.075,0,0,1,9.608,5c2.994,6.822,10.96,15.118,15.751,20.812,4.253,4.678,3.784,10.6,3.35,16.435a9.655,9.655,0,0,1-7.7,8.977c-17.934,3.7-60.792,9.7-94.539-4.259-5.205-2.233-5.506-7.674-5.265-12.662a15.182,15.182,0,0,1,4.706-10.988c5.778-5.459,13.353-12.057,16.951-19.205C143.579,213.252,147.769,210.357,152.36,211.355Z" style="fill:#bac9e8"/><path d="M281.614,71.115a65.511,65.511,0,0,0-27.555-9.954S190.94,53.829,125.148,58.3C135.8,59.475,143.71,66,153.735,83.675c12.632,21.136,31.963,30.468,58.588,29.384,35.544-2.416,45.9-32.315,45.9-32.315S263.4,66.857,281.614,71.115Z" style="fill:#7b8bba"/><path d="M115.81,48.755c2.917-21.789,28.175-37.683,52.544-32.546,17.906,4.132,37.175,6.938,55.68,4.643,22.577-2.765,60.477,4.128,58.538,36.457a8.768,8.768,0,0,1-10.735,8.8c-5.651-1.4-13.539-.634-20.712,9.671-24.363,37.4-71.584,32.307-96.907-3.651A34.6,34.6,0,0,0,124.291,58.26,8.114,8.114,0,0,1,115.81,48.755Z" style="fill:#bac9e8"/><path d="M157.523,36.184c5.926-.332,15.949-.19,29.687,2.45,22.27,4.676,37.375-.562,62.124,2.706a.594.594,0,0,1,.166,1.138c-2.565,1.031-6.558,3.484-10.839,9.319-4.832,6.913-5.676,11.187-14.722,20.335-20.221,18.7-46.67,5.051-54.576-20.351A22.048,22.048,0,0,0,158.777,39.2q-.786-.407-1.639-.765A1.171,1.171,0,0,1,157.523,36.184Z" style="fill:#7b8bba"/><path d="M286.965,325.123c9.764,3.752,37.684,7.054,38.4-10.277V300.34a17.877,17.877,0,0,0,5.1-12.106c.425-18.81,1.117-65.692-1.649-94.734-.05-.45-5.089-45.456-15.151-83.7a71.467,71.467,0,0,0-32.026-42.769,12.562,12.562,0,0,0,4.423-9.452c1.168-15.206-8.193-29.731-22.763-35.322a84.638,84.638,0,0,0-39.636-4.883,138.709,138.709,0,0,1-44.818-2.58c-15.012-4.084-31.611-4.445-44.986,3.509-15.086,8.09-25.221,27.339-20.246,37.442-5.97.932-27.154,6.534-34.319,39.428l-17.254,78.6c-.573,9.093-38.281,80.155-42.389,89.893a16.214,16.214,0,0,0-1.343,10.663l-6.6,9.054C2.3,297.471,20.649,312.489,39.55,313.326a13.505,13.505,0,0,0,11.507-6.466l8.893-14.721a16.331,16.331,0,0,0,7.657-6.94c3.582-6.453,10.63-19.315,17.589-32.949a3.5,3.5,0,1,0-6.235-3.183c-6.911,13.54-13.915,26.321-17.474,32.735a9.428,9.428,0,0,1-6.959,4.7c-17.2,3.16-33.553-8.8-28.6-19.742,4.9-11.515,41.859-80.454,42.952-91.491L86.133,96.667C95.42,59.982,115.3,63.029,125.268,61.72a31.051,31.051,0,0,1,26.155,12.522c7.219,9.46,15.384,17.256,25.17,23.092V111.2c.346,14.667-3.525,35.525-5.645,50.172-.611,4.534,6.146,5.6,6.922,1.041,2.194-15.158,6.074-36.026,5.723-51.213V100.78a57.3,57.3,0,0,0,9.174,2.906c4.514.926,6-5.74,1.537-6.829a50.244,50.244,0,0,1-17.724-7.806,86.369,86.369,0,0,1-19.568-19.024,38.057,38.057,0,0,0-32.446-15.288,4.679,4.679,0,0,1-5.308-5.377c2.7-19.96,25.895-34.434,48.449-29.713,3.125.588,6.362,1.253,9.621,1.977A145.729,145.729,0,0,0,224.4,24.333a77.648,77.648,0,0,1,36.387,4.457c11.7,4.491,19.224,16.107,18.292,28.25a5.723,5.723,0,0,1-2.291,4.9,5.078,5.078,0,0,1-4.113.773C267.4,61.309,256.7,61.27,248.107,74.01a55.153,55.153,0,0,1-6.672,8.544,49.1,49.1,0,0,1-32.2,15.387,3.556,3.556,0,0,0-2.841,1.908,3.65,3.65,0,0,0-.373,1.373c-.019.325-1.864,32.953-1.4,63.287a3.5,3.5,0,0,0,7-.107c-.378-24.792.8-51.135,1.235-59.811a56,56,0,0,0,33.689-17.255,62.382,62.382,0,0,0,7.519-9.649c5.054-7.221,10.858-9.819,17.449-8.077A64.156,64.156,0,0,1,306.9,111.579c9.928,37.736,14.913,82.244,14.956,82.637,2.726,28.619,2.037,75.173,1.615,93.86a10.916,10.916,0,0,1-6.868,9.889c-14.816,6.2-32.044,1.568-32.355-10.45V210.892a49.466,49.466,0,0,0-5.1-21.819,3.5,3.5,0,1,0-6.274,3.1,42.452,42.452,0,0,1,4.375,18.716v76.623a18.023,18.023,0,0,0,1.918,8.1v18.547A11.556,11.556,0,0,0,286.965,325.123ZM48.492,293.936c.725,0,1.472-.024,2.23-.059l-5.656,9.364a6.448,6.448,0,0,1-6.087,3.058c-12.606-.75-27.05-10.847-21.608-18.8l4.4-6.045C25.908,287.031,33.956,293.937,48.492,293.936Zm237.67,9.091c8.328,5.534,21.287,6.3,32.2,1.752v10.067a4.564,4.564,0,0,1-2.783,4.231c-9.615,4.035-20.639,1.369-26.356-.58a4.558,4.558,0,0,1-3.061-4.334Z" style="fill:#3f3f70"/><path d="M198.406,285.082c-5.23.85-3.62,8.063,1.563,6.894C205.169,291.129,203.545,283.909,198.406,285.082Z" style="fill:#3f3f70"/><path d="M226.474,74.547a71.565,71.565,0,0,0,11.949-15.823,44.524,44.524,0,0,1,2.695-4.352c6.132-8.626,11.4-9.141,11.352-9.141,4.351.087,4.755-6.38.4-6.967-22.118-3.877-43.182,1.5-65.006-3.067-23.789-4.573-36.834-1.854-37.378-1.736a3.5,3.5,0,0,0,.327,6.9,18.13,18.13,0,0,1,15.235,12.549c5.563,16.7,19.01,31.509,36.873,31.356A33.562,33.562,0,0,0,226.474,74.547Zm-53.8-23.889a25.994,25.994,0,0,0-7.194-11.042,134.191,134.191,0,0,1,21.058,2.454c18.223,4.153,35.927.557,54.312,1.975-8.694,8.1-8.611,14.972-19.284,25.508C202.521,87.047,179.464,72.641,172.678,50.658Z" style="fill:#3f3f70"/><path d="M153.054,207.924h0c-6.078-1.293-11.859,2.224-14.3,7.811-3.379,6.743-10.892,13.192-16.3,18.353a18.772,18.772,0,0,0-5.79,13.522c-.4,6.867.851,13.017,7.427,15.9,26.355,12.357,75.142,9.638,96.585,4.45a13.154,13.154,0,0,0,10.489-12.231l.286-5.805a18.6,18.6,0,0,0-4.475-13.079l-9.1-10.616a43.284,43.284,0,0,1-6.155-9.434,12.513,12.513,0,0,0-13.3-6.946C180.754,212.583,162.412,209.817,153.054,207.924Zm46.447,8.84a5.553,5.553,0,0,1,5.915,3.058,50.327,50.327,0,0,0,7.151,10.96l9.1,10.615a11.64,11.64,0,0,1,2.8,8.18l-.286,5.8a6.158,6.158,0,0,1-4.913,5.722c-12.938,2.67-57.843,10.269-92.495-4.065a5.681,5.681,0,0,1-3.1-5.368c-.2-4.5,0-9.3,3.621-12.515l8.207-7.826a50.2,50.2,0,0,0,9.4-12.231c1.209-2.817,3.56-4.991,6.771-4.312h0C161.483,216.771,180.751,219.669,199.5,216.764Z" style="fill:#3f3f70"/><path d="M251.275,293.108l.676-15.56a22.193,22.193,0,0,0,6.694-13.77c3.517-35.753,11.66-118.151,14.777-153.113.36-4.506-6.447-5.29-6.969-.652l-5.343,57.193-9.432,95.887A15.159,15.159,0,0,1,241.8,275.82a163.422,163.422,0,0,1-26.763,7.122,3.5,3.5,0,1,0,1.226,6.891,166.2,166.2,0,0,0,28.481-7.658l-.462,10.63c-.22,5.05-3.384,9.5-7.694,10.825a187.822,187.822,0,0,1-55.243,8.387c-38.486,0-64.768-12.126-68.7-14.054-8.435-4.506-6.875-11.558-6.233-19.539,17.263,7.532,40.534,13.292,75.942,14.275a3.5,3.5,0,0,0,.024-7,222.215,222.215,0,0,1-68.934-11.658,17.279,17.279,0,0,1-11.413-13.074c-4.029-21.223,1.61-49.957,1.667-50.245,2.626-44.131,7.98-86.589,8.07-86.992l1.866-19.827a3.5,3.5,0,1,0-6.969-.656c-2.429,29.779-5.643,41.832-9.879,106.347-.3,2.563-9.106,46.882,3.048,62.983l-.981,12.977a19.12,19.12,0,0,0,10.71,18.695c31.518,16.289,88.544,19.728,129.076,6.073C245.847,308.111,250.924,301.193,251.275,293.108Z" style="fill:#3f3f70"/></svg>