<svg id="icons" xmlns="http://www.w3.org/2000/svg" viewBox="0 0 340 340"><path d="M131.9,71.65s16.064.322,25.41,13.856c0,0,9.93-14.179,28.622-15.79,0,0,9.706,11.292,22.849,12.581a129.883,129.883,0,0,1-11.792,50.114,39.431,39.431,0,0,0,3.626,39.359c17.848,24.62,44.541,70.372,45.742,125.058a19.622,19.622,0,0,1-1.736,8.7c-3.763,8.743-11.05,6.816-16.372,13.465-4.688,5.864-14.908,14.72-30.279,7.295a27.473,27.473,0,0,0-24.423.349c-7.676,3.82-18.3,5.794-29.782-1.976a42.8,42.8,0,0,0-28.71-6.747c-11.944,1.808-21.043-7.444-21.317-20.866-.544-15.283-.125-74.957,35.447-125.542a35.265,35.265,0,0,0,1.559-37.134C119.33,115.466,118.405,89.563,131.9,71.65Z" style="fill:#bac9e8"/><path d="M90.241,297.177c.234,14.061,10.06,26.414,25.18,24.222,9.79-1.022,18.913,1.109,26.384,6.165A32.112,32.112,0,0,0,160.06,333.5c15.023-.014,20.452-11.29,36.389-4.058,12.8,6.187,25.394,3.174,34.536-8.261a13.688,13.688,0,0,1,6.17-4.291c8.207-2.824,13.018-11.47,12.7-20.14-1.242-56.548-29.609-103.864-46.407-127.035a35.856,35.856,0,0,1-3.292-35.816,131.489,131.489,0,0,0,12.057-51.642,3.5,3.5,0,0,0-3.159-3.458c-9.585-.94-17.309-8.092-19.694-10.538-.279-5.814-1.213-31.165,2.516-51.45,1.033-4.94,6.385-4,6.987.143a212.257,212.257,0,0,1,2.559,49.016,3.5,3.5,0,1,0,6.988.4,219.189,219.189,0,0,0-2.655-50.639C204.625,9.359,199.7,6.5,195.3,6.5c-5.173,0-9.313,3.632-10.309,9.048-3.581,19.477-3.063,42.657-2.714,51.119A44.98,44.98,0,0,0,157.407,80c-7.586-8.391-17.415-10.838-22.346-11.552-.814-7.8-2.724-30.789.593-49.894.6-3.452,2.91-4.69,4.872-4.7,2-.006,4.345,1.23,4.984,4.721a221.734,221.734,0,0,1,3.045,43.346,3.5,3.5,0,0,0,7,.128A228.7,228.7,0,0,0,152.4,17.319c-1.326-7.257-6.913-10.483-11.9-10.467-4.939.021-10.485,3.275-11.74,10.5-3.767,21.694-1.2,47.245-.49,53.394-13.319,18.6-12.621,45.293-.565,65.356a31.789,31.789,0,0,1-1.378,33.393C90.447,220.516,89.636,280.123,90.241,297.177ZM133.79,132.649c-10.6-17.561-11.534-40.939-.185-57.34,4.09.529,14.326,2.772,20.827,12.186a3.516,3.516,0,0,0,5.747.019,38.062,38.062,0,0,1,24.4-14.129c2.929,2.971,10.528,9.765,20.548,11.879a127.791,127.791,0,0,1-11.3,45.659,42.948,42.948,0,0,0,3.961,42.9c15.269,21.283,50.052,77.912,43.668,130.229a11.546,11.546,0,0,1-6.677,6.255,20.863,20.863,0,0,0-9.258,6.5c-4.972,6.22-13.525,12.367-26.023,6.329a31.035,31.035,0,0,0-27.5.368c-9.06,4.508-17.9,3.921-26.262-1.741a45.091,45.091,0,0,0-25.555-7.619c-9.356.614-16.605,1.495-20.96-8.227-5.481-20.914-2.1-80.909,32.835-132.4C140.3,161.786,141,145.361,133.79,132.649Z" style="fill:#3f3f70"/></svg>