<svg id="icons" xmlns="http://www.w3.org/2000/svg" viewBox="0 0 340 340"><path d="M133.761,311.682a235.993,235.993,0,0,1,52.794,1.03L255.832,97.928l-18.285-59.49L142,45.134,128.61,96.126Z" style="fill:#7b8bba"/><path d="M176.492,183.883s-24.244,50.2-.352,136.643A15.571,15.571,0,0,0,189.1,332.045c12.386,1.552,34.126,2.132,56-7.568,0,0-12.595-67.068-6.3-125.319,0,0,16.373,39.989,18.892,89.424,0,0,18.263,6.3,36.211-2.2,0,0-8.817-108.631-37.47-177.9C256.433,108.475,204.238,122.636,176.492,183.883Z" style="fill:#bac9e8"/><path d="M166.181,263.629c8.65-30.023,8.5-61.084,7.966-73.789C170.372,200.689,163.622,226.077,166.181,263.629Z" style="fill:#7b8bba"/><path d="M168.645,174.018s7.739,77.968-29.2,148.7a15.285,15.285,0,0,1-15.99,7.979c-11.091-1.792-28.122-5.667-38.309-13.458,0,0,30.428-60.455,31.372-119.336,0,0-24.13,14.484-38.614,72.735,0,0-22.041,2.2-31.8-9.446,0,0,15.2-107.744,78.605-175.728C124.7,85.46,157.687,108.889,168.645,174.018Z" style="fill:#bac9e8"/><path d="M124.7,89.72s29.594,36.544,43.942,84.3c0,0-6.95-78.021-23.54-109.184Z" style="fill:#fff"/><path d="M176.492,183.883s9.865-58.292,64.569-98.423l9.64,31.612S203.172,139.267,176.492,183.883Z" style="fill:#fff"/><path d="M145.1,64.834,124.7,89.72s4.1,5.071,9.994,13.894c4.421-.044,9.5-1.849,11.977-8.969A65.573,65.573,0,0,1,152.248,82.6,108.6,108.6,0,0,0,145.1,64.834Z" style="fill:#cbcde5"/><path d="M241.061,85.46a166.309,166.309,0,0,0-16.655,13.98c.884,5.147,3.484,11.222,10.729,12.482a24.165,24.165,0,0,0,4.474,11.213c6.768-4.042,11.092-6.063,11.092-6.063Z" style="fill:#cbcde5"/><path d="M252.271,119.426c-9.954.219-9.548-14.246-9.641-14.237-5.466.566-8.447-3.25-7.785-8.706,5.52-45.468-34.14-48.24-34.14-48.24-40-3.652-54.907,26.558-59.582,40.293a13,13,0,0,1-14.332,8.777C116.5,95.54,116.632,82.321,116.632,82.321s-28.7-9.864,8.071-39.458c0,0-5.829-15.808,10.537-25.783,0,0,21.448-13.676,40.318.9,0,0,14.834-15.246,42.635-9.641,0,0,23.092,2.466,13.452,17.488,0,0,27.771.212,35.488,25.785,1.33,5.086-1.022,10.678-7.912,9.862C259.221,61.471,287.5,118.651,252.271,119.426Z" style="fill:#fff"/><path d="M43.415,263.436c8,9.55,22.672,10.871,30.174,10.871,4.534-.265,6.338.6,7.708-2.828,7.437-29.914,17.447-47.779,24.534-57.5a3.5,3.5,0,1,0-5.656-4.124c-7.252,9.944-17.39,27.909-25.035,57.424-5.356.148-18.293-.279-25.324-7.218C51.93,247.086,67.856,159.029,119,97.254a14.324,14.324,0,0,0,9.656,3.718c9.888,14.16,26.721,41.259,36.534,73.727.475,5.568,5.986,79.694-28.854,146.395a11.76,11.76,0,0,1-12.329,6.144c-8.776-1.418-24.317-4.691-34.414-11.158a356.648,356.648,0,0,0,16.879-43.245c3.236,1.033,8.593,2.622,15.689,4.305-.5,3.029-2.5,7.3,1.837,8.467,4.391.624,4.282-3.965,5-6.942,1.592.29,3.287.769,4.975.932a3.505,3.505,0,0,0,.66-6.937,234.061,234.061,0,0,1-26.1-6.521c11.793-40.648,13.69-69.513,10.866-119.6-.59-4.5-7.4-3.829-6.954.806,1.87,16.21.583,50.032.569,50.494-.921,57.369-30.7,117.223-31,117.821a3.5,3.5,0,0,0,1,4.353c11.6,8.518,29.262,12.937,42.907,14.377,12.838-.176,16.946-9.9,21.546-20.085,5.993-.191,14.32-.228,23.7.384,1.713,10.492,5.981,19.123,17.5,20.826,18.587,1.983,36.669,1.155,57.855-7.841a3.5,3.5,0,0,0,2.02-3.846c-.112-.6-10.173-55.02-7.553-107.621,4.939,15.993,11.688,42.623,13.213,72.55a3.5,3.5,0,0,0,2.355,3.131c.8.276,19.831,6.658,38.848-2.35,5.546,1.121-6.5-91.594-27.192-159a3.5,3.5,0,0,0-6.662,2.155c19.54,60.378,27.3,136.844,28.647,151.49-12.181,4.9-24.292,2.869-29.146,1.7-2.743-45.369-16.527-81.784-18.73-87.356.109-4.424.69-28.285.929-42.7,0-4.576-6.858-4.76-7-.115-.23,47.195-4.944,75.637-1.143,116.526a201.94,201.94,0,0,1-42.942,4.97,3.5,3.5,0,0,0-3.439,3.559c.443,5.378,7.535,2.9,11.023,3.209l.525,5.035a3.5,3.5,0,1,0,6.962-.725l-.492-4.725a200.632,200.632,0,0,0,28.952-4.286c1.86,20.687,4.418,36.844,5.477,43.074-20.7,8.416-41.085,7.55-51.638,6.228a11.878,11.878,0,0,1-9.994-8.884c-19.77-80.064-1.407-130.339.092-134.22,16.287-27.123,40.307-45.841,57.614-56.773a3.5,3.5,0,1,0-3.738-5.918c-13.992,8.838-32.231,22.6-47.643,41.648a169.225,169.225,0,0,1,45.405-66.543c-.079,5.308,2.993,9.717,8.114,10.658,1.123,9.221,5.839,14.541,12.967,14.385,32.562-.5,19.213-43,12.063-58.515,5.34-1.884,7.8-8.449,6.072-13.813-6.226-20.632-24.515-26.212-33.587-27.719,4.217-13.015-13.158-17.719-18.164-18C195.5.242,180.75,9.284,175.35,13.527c-19.929-13.157-41.066.011-41.931.564-6.332,3.859-10.453,8.957-12.251,15.155-1.184,4.462,5.355,6.339,6.723,1.95,1.3-4.464,4.38-8.208,9.231-11.165.194-.123,19.567-12.2,36.3.716a3.5,3.5,0,0,0,4.647-.329c.136-.139,13.8-13.82,39.435-8.65,2.841.321,10.7,1.881,12.646,5.751.754,1.583.268,3.741-1.448,6.414a3.527,3.527,0,0,0,2.912,5.391c1.03.012,25.312.569,32.171,23.3a5.053,5.053,0,0,1-.277,3.81c-1.446,3.172-5.092.061-7.126,3a3.5,3.5,0,0,0-.3,3.594c4.59,9.293,14.987,35.911,8.072,47.315-2.2,3.633-6.115,5.461-11.962,5.59-4.869.09-5.892-6.568-6.045-10.557a3.692,3.692,0,0,0-1.226-2.826,3.512,3.512,0,0,0-2.652-.836c-2.928.435-4.4-1.6-3.95-4.8,4.774-32.252-16.336-50.293-37.3-52.147-37.683-2.561-54.047,18.5-63.214,42.65a9.527,9.527,0,0,1-10.424,6.456c-7.2-1.24-7.255-11.1-7.254-11.507a3.519,3.519,0,0,0-2.347-3.34c-13.507-6.137-10.8-17.1,9.077-33.4a38.541,38.541,0,0,1,7.568-4.284,3.5,3.5,0,1,0-2.695-6.461,45.5,45.5,0,0,0-9.157,5.21c-20.343,15.742-28.254,34.411-9.325,44.57a23.961,23.961,0,0,0,1.67,6.581C57.5,159.334,42.775,259.686,42.632,260.7A3.5,3.5,0,0,0,43.415,263.436Zm107.178,43.791a265.856,265.856,0,0,0,13.364-40.9,312.439,312.439,0,0,0,5.68,41.254C162.417,307.174,155.875,307.13,150.593,307.227ZM200.461,51.735c13.847,1.261,32.046,12.249,31.4,36.435-47.392,38.776-57.775,89.4-58.753,94.74-.105.265-.256.654-.441,1.158-1.089-16.644-4.138-64.408-19.992-110.873C160.926,61.288,175.5,49.456,200.461,51.735ZM144.437,89.664a69.4,69.4,0,0,1,3.613-8.635c6.408,19.056,10.883,44.7,13.643,64.284A293.029,293.029,0,0,0,136,99.286,16.827,16.827,0,0,0,144.437,89.664Z" style="fill:#3f3f70"/></svg>