<svg id="icons" xmlns="http://www.w3.org/2000/svg" viewBox="0 0 340 340"><path d="M149.888,304.2s28.1-8.312,53.435,6.333l-10.292-52.643-36.414-9.5L142.763,282.83Z" style="fill:#7b8bba"/><path d="M108.464,11.056s58.387-2.383,128.689,0l-3.178,23.831-112.8,15.491Z" style="fill:#7b8bba"/><path d="M155.332,45.687c-13.851-9.4-21.669-10.871-46.868-34.631,0,0-5.1,8.91-9.757,27.123-7.6,19.292-11.293,98.212-.48,136.284,4.446,16.538,16.237,64.726,16.714,112.418a27.617,27.617,0,0,0,10.625,21.447,219.2,219.2,0,0,0,30.844,19.708,2.4,2.4,0,0,0,3.538-2.126c-.784-6.587,3.225-42.116,11.669-59.86Z" style="fill:#bac9e8"/><path d="M228.278,313.6a11.205,11.205,0,0,0,3.052-12.974c-4.046-9.4-9.5-28.647-6.873-60.92a226.228,226.228,0,0,1,5.863-35.593c.333-1.358,18.531-121.173,18.531-121.173.331-26.1-2.625-51.734-11.7-71.884,0,0-31.425,28.416-78.938,28.815,0,0-8.646,1.347-13.172.888L114.422,74.606c1.372,10.45,3.993,32.253,3.993,32.253,13.084,68.489,53.2,159.191,53.2,159.191L207,326.656a3.243,3.243,0,0,0,4.9.838Z" style="fill:#bac9e8"/><path d="M145.006,39.256s-21.051-12.312-36.542-28.2c0,0-8.787,15.37-13.837,46.99,13.058,26.805,50.723,90.094,135.7,146.069,6.187-24.1,17.6-69.9,18.519-121.176C229.387,77.248,171.912,59.36,145.006,39.256Z" style="fill:#bac9e8"/><path d="M112.33,19.605a215.164,215.164,0,0,0,29.45,21.8c27.949,20.463,83.269,38.739,107.261,45.019a3.537,3.537,0,0,0,3.309-3.438c.382-30.137-3.657-54.821-12-73.363A3.754,3.754,0,0,0,238.651,7.9c-67.942-3.258-130.644-.087-130.329-.336a3.588,3.588,0,0,0-2.968,1.888c-1.9,3.4-27.7,51.84-13.466,151.614a123.581,123.581,0,0,0,3.01,14.507c4.819,17.953,16.077,64.741,16.543,111.348a30.943,30.943,0,0,0,11.969,24.169c9.69,7.224,22.316,16.22,36.688,22.413a3.529,3.529,0,0,0,3.488-3.8c-.014-.158-.744-9.506,1.336-24.228a69.954,69.954,0,0,1,28.012,4.032l13,22.26a3.5,3.5,0,0,0,5.287.9l19.324-16.4a14.59,14.59,0,0,0,4.02-16.987c-3.593-8.334-9.233-27.118-6.616-59.292,4.25-42.315,15.248-60,21.583-116.252a3.33,3.33,0,0,0,.206-1.733c.915-7.951,1.646-16.1,2.1-24.281a3.5,3.5,0,1,0-6.988-.391c-.392,7.014-.991,14.005-1.734,20.868C192.98,106.63,140.541,53.363,140,52.812a3.5,3.5,0,0,0-5.011,4.888c.728.746,6.668,6.786,16.131,15.023a93.854,93.854,0,0,1,16.223,20.235c8.319,13.936,21.84,33.547,39.013,47.82a3.5,3.5,0,0,0,4.475-5.383c-15.566-12.937-28.078-30.612-36.186-43.891,19.306,14.053,43.513,28.319,67.657,33.691a585.641,585.641,0,0,1-14.154,73.264C147.22,143.931,110.772,82.8,98.324,57.635q.9-5.483,1.927-10.287c13.89,21.58,58.915,90.476,115.1,123.035a3.5,3.5,0,0,0,1.869-6.463C156.011,125.383,109.023,48.592,102.54,37.671A144.394,144.394,0,0,1,109.5,16.993Q110.9,18.322,112.33,19.605ZM245.371,78.257c-18.515-5.571-60.3-19.044-87.184-34.6-.073-.1-.164-.191-.247-.286,39.482-.187,67.935-19.037,77.806-26.642C242.071,32.839,245.3,53.492,245.371,78.257ZM227.139,14.248C213.85,23.313,184.25,39.459,146.1,35.834a208.96,208.96,0,0,1-29.22-21.555C134.282,13.767,177.192,12.844,227.139,14.248ZM166.076,298.414a175.358,175.358,0,0,1,6.294-24.133l15.352,26.294A79.353,79.353,0,0,0,166.076,298.414Zm60.281-92.737c-8.565,31.674-7.663,78.348,1.778,96.376a7.632,7.632,0,0,1-2.122,8.878l-16.143,13.7-35.13-60.17c-1.965-4.481-39.134-89.725-52.3-155.3C144.156,137.913,177.389,173.06,226.357,205.677ZM113.023,96.089c9.706,64.722,49.542,157.91,54.817,170.059-9.842,26.186-11.35,47.762-11.408,57.916a213.088,213.088,0,0,1-28.71-18.493,23.974,23.974,0,0,1-9.281-18.725c-1.012-58.524-13.313-94.873-19.624-126.773C93.488,122.7,93.982,92.607,96.66,69.58A309.506,309.506,0,0,0,113.023,96.089Z" style="fill:#3f3f70"/></svg>