<svg id="icons" xmlns="http://www.w3.org/2000/svg" viewBox="0 0 340 340"><path d="M195.6,294.212c-2.1-23.822-9.257-109.067-10.882-184.638a31.248,31.248,0,0,0-3.753-10.119L170,100.749l-10.961-1.294a31.248,31.248,0,0,0-3.753,10.119c-1.625,75.571-8.778,160.816-10.883,184.638a19.43,19.43,0,0,0,3.52,13.026C156.763,319.585,170,330,170,330s13.237-10.415,22.077-22.762A19.424,19.424,0,0,0,195.6,294.212Z" style="fill:#bac9e8"/><path d="M170,10a226.9,226.9,0,0,0-48.213,5.142c2.977,17.864,12.179,23.547,12.179,23.547a70.838,70.838,0,0,1,72.067,0s9.2-5.683,12.18-23.547A226.9,226.9,0,0,0,170,10Z" style="fill:#7b8bba"/><path d="M159.039,61.228s-29.674-28.222-37.252-46.086a206.981,206.981,0,0,1-6.322,22.365,14.02,14.02,0,0,0,3.163,14.357,202.34,202.34,0,0,0,29.45,24.8Z" style="fill:#bac9e8"/><path d="M180.961,61.228s29.673-28.222,37.252-46.086a206.707,206.707,0,0,0,6.322,22.365,14.024,14.024,0,0,1-3.163,14.357,202.3,202.3,0,0,1-29.451,24.8Z" style="fill:#bac9e8"/><path d="M180.961,61.228H159.039L148.078,76.666c1.446,8.88,6.068,16.654,8.971,20.83,2.71,4.34,8.7,3.1,12.951,3.252h6.744a7.558,7.558,0,0,0,6.207-3.253c2.9-4.176,7.525-11.95,8.97-20.83Z" style="fill:#bac9e8"/><path d="M195.1,78.706a205.21,205.21,0,0,0,28.783-24.4,17.433,17.433,0,0,0,3.959-17.939,205.554,205.554,0,0,1-6.205-21.941,3.565,3.565,0,0,0-2.6-2.68,232.045,232.045,0,0,0-98.078,0,3.565,3.565,0,0,0-2.6,2.68,205.4,205.4,0,0,1-6.2,21.941A17.434,17.434,0,0,0,116.116,54.3,205.3,205.3,0,0,0,144.9,78.706a56.618,56.618,0,0,0,9.8,21.449,35.33,35.33,0,0,0-2.87,8.883c-1.674,75.088-8.739,160.673-10.911,184.866a22.939,22.939,0,0,0,4.162,15.371c9.025,12.607,22.2,23.038,22.757,23.475a3.5,3.5,0,0,0,4.329,0c.556-.437,13.732-10.868,22.758-23.475a22.936,22.936,0,0,0,4.161-15.371c-2.171-24.19-9.238-109.781-10.911-184.866a35.364,35.364,0,0,0-2.869-8.883A56.648,56.648,0,0,0,195.1,78.706Zm23.759-29.279a196.768,196.768,0,0,1-26.107,22.364l-7.2-10.142c5.929-5.828,22.3-22.443,31.426-36.869,1.051,3.895,2.472,8.742,4.249,13.873A10.466,10.466,0,0,1,218.859,49.427Zm-5.775-31.791c-8.305,15.079-28.81,35.482-33.54,40.092H160.455c-2.707-2.637-10.569-10.438-18.372-19.465,18.911-7.569,31.366-6.872,46.627-3.285,4.452,1.131,6.257-5.477,1.83-6.756-17.114-4.009-31.842-4.852-53.1,4.494a109.024,109.024,0,0,1-10.528-15.081,226.5,226.5,0,0,1,86.17,0ZM121.139,49.427a10.469,10.469,0,0,1-2.366-10.774c1.777-5.131,3.2-9.977,4.249-13.872,9.125,14.425,25.5,31.04,31.426,36.868l-7.2,10.142A196.966,196.966,0,0,1,121.139,49.427Zm30.65,28.06,9.058-12.759h18.306l9.058,12.759c-1.592,7.751-5.724,14.544-8.134,18.012a4.068,4.068,0,0,1-3.333,1.75H163.256a4.066,4.066,0,0,1-3.333-1.751C157.513,92.033,153.382,85.241,151.789,77.487ZM192.11,294.521a15.932,15.932,0,0,1-2.879,10.679c-6.35,8.869-15.194,16.825-19.232,20.258-4.036-3.428-12.869-11.372-19.23-20.258a15.939,15.939,0,0,1-2.88-10.68c2.144-24.261,9.256-109.2,10.89-184.6a29.408,29.408,0,0,1,1.88-5.983,11.028,11.028,0,0,0,2.6.314c1.932-.109,14.481.293,16.086-.314a29.206,29.206,0,0,1,1.878,5.982C182.854,185.318,189.966,270.259,192.11,294.521Z" style="fill:#3f3f70"/></svg>