<svg id="icons" xmlns="http://www.w3.org/2000/svg" viewBox="0 0 340 340"><path d="M9.466,243.327S123.8,302.105,330.527,304.192l-23.746-27.325S125.636,192.121,9.466,243.327Z" style="fill:#7b8bba"/><path d="M66.78,192.1A404.329,404.329,0,0,0,9.466,243.327S223,237.241,330.527,304.192c0,0-16.737-54.271-39.562-76.081,0,0,47.676-116.4-31.371-171.181A118.663,118.663,0,0,0,153.9,42.081C105.121,57.229,68.737,109.281,66.78,192.1Z" style="fill:#bac9e8"/><path d="M291.163,227.613a203.388,203.388,0,0,0,7.318-23.5c-29.572-3.573-59.571-13.934-89.878-29.208,0,0-71.625-17.567-139.39-12.449-1.237,9.208-2.07,19.067-2.433,29.639l-.006,0c8.03.081,118.234,1.818,223.7,36.007Z" style="fill:#fff"/><path d="M252.985,194.819c1.2.364-24.167-55.067-44.729-32.13-6.609,8.688-14.4,25.146-14.2,54.365A14.12,14.12,0,0,0,208.125,231.1a88.07,88.07,0,0,0,42.593-10.65Z" style="fill:#fff"/><path d="M268.569,196.929s13.746-15.328,40.507-13.383a15.567,15.567,0,0,1,14.429,15.961c-.352,12.275-3.627,30.568-17.841,45.088a12.823,12.823,0,0,1-15.463,2.173,75.911,75.911,0,0,1-28.149-27.454Z" style="fill:#fff"/><path d="M264.045,186.454a12.884,12.884,0,0,1,9.4,14.85c-.957,5.222-2.258,12-3.663,18.392-3.793,15.548-26.35,12.312-25.459-3.694a85.8,85.8,0,0,1,4.352-21.392A12.828,12.828,0,0,1,264.045,186.454Z" style="fill:#fff"/><path d="M333.97,303.593c-.547-2.11-9.957-32.175-24.942-57.459,14.151-15.044,17.6-33.539,17.976-46.526-.578-29.842-42.579-19.227-53.551-11.028-4.7-6.226-14.515-7.881-21-3.74-9.332-18.929-35.352-50.5-52.478-15.425C177.061,164.638,124.831,155.5,73.3,158.678,97.762-20.2,321.246,17.451,300.919,169.667a3.5,3.5,0,0,0,6.972.644c3.335-36.086-1.992-85.549-46.3-116.258C181.842,3.562,81.561,40.425,65.757,161.934c-1.261,9.318-2.019,18.777-2.411,28.334-5.988,4.412-33.41,25.006-56.994,51.46a3.543,3.543,0,0,0,.9,4.308c75.639,35.1,185.7,59.627,323.28,61.656A3.532,3.532,0,0,0,333.97,303.593ZM308.821,187.037a12.035,12.035,0,0,1,11.185,12.369c-.344,12-3.546,29.157-16.843,42.741a9.328,9.328,0,0,1-11.241,1.573,74,74,0,0,1-21.041-17.759,16.517,16.517,0,0,0,2.323-5.514c1.468-6.683,2.815-13.755,3.687-18.511a16.346,16.346,0,0,0-.274-7.068C282.558,190.924,293.346,185.911,308.821,187.037Zm-48.048,2.487a9.445,9.445,0,0,1,9.233,11.15c-.862,4.7-2.193,11.686-3.64,18.271a9.44,9.44,0,0,1-5.309,6.595c-6.26,3.088-13.963-2.259-13.241-9.279a82.309,82.309,0,0,1,4.168-20.5A9.33,9.33,0,0,1,260.773,189.524Zm-49.731-24.716c13.43-15.756,33.2,18.439,36.1,25.1-4.454,7.975-7.379,25.081-5.824,31.187a86.185,86.185,0,0,1-33.18,6.5,10.661,10.661,0,0,1-10.584-10.566C198.083,191.636,201,179.654,211.042,164.808ZM67.886,195.619c8.631.062,54.838,1.424,111.668,10.223a3.5,3.5,0,0,0,.534-6.959A875.243,875.243,0,0,0,70.425,188.666q.51-11.5,1.9-22.917c50.069-3.312,101.2,5.381,124.742,10.212-3.784,9.79-6.632,23.148-6.512,41.117a17.69,17.69,0,0,0,17.852,17.52,93.087,93.087,0,0,0,36.048-7.223,16.39,16.39,0,0,0,21.407,3.5,81.208,81.208,0,0,0,22.62,18.941,16.279,16.279,0,0,0,14.929.57c9.488,16.042,16.9,35.088,20.78,45.991C242.419,249.481,94.931,238.9,17.665,239.711A410.425,410.425,0,0,1,67.886,195.619ZM25.512,246.694c80.032.423,209.591,9.963,291.565,53.768C182.406,295.121,111.753,279.442,25.512,246.694Z" style="fill:#3f3f70"/></svg>