<svg id="icons" xmlns="http://www.w3.org/2000/svg" viewBox="0 0 340 340"><path d="M65.712,33.83c17.045-20.21,121.729-29.766,205.6-16.1l8.794,9.036L265.076,51.821l-187.9,9.743S62.315,54.531,65.712,33.83Z" style="fill:#7b8bba"/><path d="M294.993,145.68,289.3,134.562s-3.8-70.43-4.292-101.23a15.969,15.969,0,0,0-13.693-15.6c17.161,25.323-70.949,27.874-109.5,24.5A6.234,6.234,0,0,0,155.129,48l-.14,2.024S74.8,56.346,65.712,33.83c0,0-8.691,3.555-7.9,36.737L38.455,298.105s32,32.393,103.1,22.122c0,0,8.69-84.932,28.837-112.189,0,0,16.2,53.4,21.727,114.2,0,0,53.724,17.344,109.423-7.147l-3.813-158.628A24.958,24.958,0,0,0,294.993,145.68Z" style="fill:#bac9e8"/><path d="M294.993,145.68,289.3,134.562s-3.8-70.43-4.292-101.23a15.969,15.969,0,0,0-13.693-15.6c17.161,25.323-70.949,27.874-109.5,24.5A6.234,6.234,0,0,0,155.129,48l-.14,2.024S74.8,56.346,65.712,33.83c0,0-8.691,3.555-7.9,36.737L38.455,298.105s32,32.393,103.1,22.122c0,0,8.69-84.932,28.837-112.189,0,0,16.2,53.4,21.727,114.2,0,0,53.724,17.344,109.423-7.147l-3.813-158.628A24.958,24.958,0,0,0,294.993,145.68Z" style="fill:#bac9e8"/><path d="M155.125,48.056l-.136,1.97v116.2s26.862-1.248,35.157-20.21V44.047c-8.227-.027-18.455-.882-28.263-1.759A6.222,6.222,0,0,0,155.125,48.056Z" style="fill:#bac9e8"/><path d="M256.853,75.23c1.4,31.94,32.446,59.332,32.446,59.332s-2.156-40-3.431-72.9C273.27,73.322,256.853,75.23,256.853,75.23Z" style="fill:#7b8bba"/><path d="M52.312,135.216a69.069,69.069,0,0,1,9.663-11.477c13.594-12.851,20.577-31.69,22.532-43.5L57.73,71.519Z" style="fill:#7b8bba"/><path d="M48.212,142.123c-.006,0-.475,5.618-.479,5.623L34.967,297.809a3.5,3.5,0,0,0,1,2.757c10.76,11.939,53.2,32.1,106.094,23.123a3.5,3.5,0,0,0,2.982-3.106c.058-.569,5.977-57.35,18.953-92.1a3.5,3.5,0,0,0-6.559-2.449c-11.787,31.565-17.7,79.113-19.06,91.093-59.323,7.768-90.158-15.239-96.285-20.459l13.1-153.959a19.046,19.046,0,0,1,4.388-10.646c4.535-5.707,14.548-16.323,17.556-22.882l4.173-8.157c2.023-4.114-4.061-7.258-6.232-3.187L70.9,106c-2.511,5.44-10.383,13.841-14.167,18.556l3.282-38.586a3.5,3.5,0,1,0-6.974-.594Z" style="fill:#3f3f70"/><path d="M54.312,70.65A3.66,3.66,0,0,0,55.5,73.191c.679.6,7.16,5.98,25.175,10.113a3.5,3.5,0,1,0,1.565-6.822c-12.246-2.81-18.555-6.206-20.959-7.74-.243-17.239,2.2-25.374,4.059-29.04,4.983,5.628,14.239,9.187,25,11.393V97.488a8.585,8.585,0,0,0,8.575,8.575h8.67a8.1,8.1,0,0,0,8.089-8.09v-10.3a353.606,353.606,0,0,0,35.821-.338v78.892a3.522,3.522,0,0,0,3.5,3.5c1.737.816,38.139-5.251,38.657-26.823V87.917c8.084-.062,17.562-.392,27.4-1.268l.321,6.007a8.389,8.389,0,0,0,8.362,7.932c.149,0,.3,0,.451-.012l8.564-.457a8.389,8.389,0,0,0,7.921-8.813l-.439-8.224c15.669-3.2,27.881-7.95,36.431-14.161.673,16.354,1.49,33.347,2.075,45.044a3.5,3.5,0,0,0,6.992-.35c-1.06-21.2-2.888-59.822-3.217-80.34A19.583,19.583,0,0,0,271.983,14.3c-43.1-7.88-99.594-5.876-102.044-5.786l-1.491,0c-76.974,0-101.226,19.178-104.8,22.452C60.522,32.806,53.59,40.333,54.312,70.65Zm54.356,27.323a1.092,1.092,0,0,1-1.089,1.09h-8.67a1.576,1.576,0,0,1-1.575-1.575V52.319c3.712.548,7.523.965,11.334,1.278Zm42.821-17.645a350.537,350.537,0,0,1-35.821.333v-26.6a328.832,328.832,0,0,0,35.821-.285Zm18.762.022c-4.584-.245-5.091,6.57-.5,6.982.13.01,6.774.472,16.9.577v55c-1.509,13.258-21.441,18.5-28.157,19.409V50.147c.037-.371.094-1.488.128-1.851a2.73,2.73,0,0,1,2.954-2.521c8.531.762,17.413,1.511,25.075,1.717V70.567a3.5,3.5,0,0,0,7,0V47q13.247.03,25.237-.855l1.79,33.515A355.554,355.554,0,0,1,170.251,80.35Zm68.12,12.779-8.564.457a1.381,1.381,0,0,1-1.45-1.3l-2.5-46.732q5.655-.6,11.275-1.39l2.537,47.518A1.379,1.379,0,0,1,238.371,93.129Zm38.292-66.585A12.515,12.515,0,0,0,277,23.957a12.612,12.612,0,0,1,4.507,9.432c.116,7.21.416,16.634.8,26.748-7.392,7-19.629,12.333-36.46,15.88l-1.763-33.012C254.171,40.737,273.7,38.559,276.663,26.544Zm-108.2-11.032c.554,0,1.12.007,1.677,0,.563-.022,56.215-2.149,99.163,5.418a5.782,5.782,0,0,1-2.322,7.779,44.168,44.168,0,0,1-7.537,3.565A200.854,200.854,0,0,1,221.863,38.9c-17.687,1.54-37.666,1.494-59.788-.155a9.785,9.785,0,0,0-10.315,8.009c-21.549,1.055-67.883,2.468-81.538-12.066C77.058,29.828,102.79,15.512,168.464,15.512Z" style="fill:#3f3f70"/><path d="M305.044,315.008,301.231,156.38c.323-7.641-5.565-16.8-8.817-23.413a5.679,5.679,0,0,0-.624-.862L280.28,120.44a58.373,58.373,0,0,1-11.949-17.611L264.1,93.2a3.5,3.5,0,0,0-6.41,2.815l4.229,9.633c4.625,11.857,15.664,22.142,24.509,30.992,2.558,5.478,8.081,13.657,7.8,19.912l3.757,156.263c-46.806,19.673-92.258,9.486-102.606,6.72-5.7-59.479-21.479-111.978-21.639-112.508a3.811,3.811,0,0,0-1.365-1.868L147.553,188.06a3.5,3.5,0,1,0-3.971,5.765l23.807,16.393c2.36,8.1,16.255,57.464,21.247,112.339a3.5,3.5,0,0,0,2.41,3.013c22.9,8.158,76.89,9.913,111.908-7.275A3.5,3.5,0,0,0,305.044,315.008Z" style="fill:#3f3f70"/><path d="M174.6,58.657c-3.426-2.348-7.372,2.48-4.41,5.38C173.861,67.512,178.723,61.564,174.6,58.657Z" style="fill:#3f3f70"/></svg>