<svg id="icons" xmlns="http://www.w3.org/2000/svg" viewBox="0 0 340 340"><path d="M43.876,202.3a85.164,85.164,0,0,1-31.452,15.185,2.379,2.379,0,0,0-1.759,2.939c1.7,6.257,6.166,23.362,7.831,35.74a2.382,2.382,0,0,0,2.278,2.061l44.394,1.669Z" style="fill:#7b8bba"/><path d="M71.451,166.7s5.418-53.307,2.246-96.551c-.3-6.363,4.25-8.377,9.273-10.518,0,0,3.5,63.314,4.018,109.626Z" style="fill:#7b8bba"/><path d="M177.57,223.566l-7.57-.324-7.57.324-7.57,29.885c6.617-4,15.14-3.331,15.14-3.331s8.523-.668,15.139,3.331Z" style="fill:#7b8bba"/><path d="M296.124,202.3a85.164,85.164,0,0,0,31.452,15.185,2.379,2.379,0,0,1,1.759,2.939c-1.7,6.257-6.166,23.362-7.831,35.74a2.382,2.382,0,0,1-2.278,2.061l-44.394,1.669Z" style="fill:#7b8bba"/><path d="M268.549,166.7s-5.418-53.307-2.246-96.551c.3-6.363-4.25-8.377-9.273-10.518,0,0-3.5,63.314-4.018,109.626Z" style="fill:#7b8bba"/><path d="M170,223.242S144.754,175.421,71.451,166.7c0,0-9.075,21.292-27.575,35.6-3.392,33.545,24.306,97.174,89.26,69.149,15.421-6.762,31.7-34.478,31.7-34.478A101.5,101.5,0,0,0,170,223.242Z" style="fill:#bac9e8"/><path d="M170,223.242s25.246-47.821,98.549-56.547c0,0,9.075,21.292,27.575,35.6,0,0,2.577,46.195-30.129,68.177-17.939,12.058-39.2,12.158-57.93,1.362C192.577,263.779,175.776,245.755,170,223.242Z" style="fill:#bac9e8"/><path d="M150.369,252.061C118.462,278.549,70.292,266.3,55.482,227.57a106.327,106.327,0,0,1-6.493-29.606c-1.617,1.493-3.32,2.947-5.113,4.335,0,0-3.575,46.913,29.131,68.9,17.939,12.058,41.265,12.126,59.991,1.33,11.185-6.448,23.385-17.305,31.84-35.554A95.363,95.363,0,0,1,150.369,252.061Z" style="fill:#7b8bba"/><path d="M296.124,202.3c-1.794-1.388-3.5-2.842-5.113-4.335-2.4,65.953-73.155,94.485-115.849,39.006,8.455,18.249,20.655,29.106,31.84,35.554,18.726,10.8,42.052,10.728,59.991-1.33C299.7,249.212,296.124,202.3,296.124,202.3Z" style="fill:#7b8bba"/><path d="M330.675,214.572c-34.87-7.463-51.5-33.8-58.7-48.786-.555-5.744-5.126-55.273-2.184-95.385a12.269,12.269,0,0,0-7.026-11.97l-4.264-1.98a3.526,3.526,0,0,0-4.969,2.982c-.033.621-3.37,61.424-3.988,107.018-39.666,9.986-61.916,26.64-79.546,50.226-17.659-23.607-39.852-40.22-79.546-50.225-.618-45.595-3.955-106.4-3.989-107.02A3.524,3.524,0,0,0,81.5,56.451l-4.265,1.98A12.27,12.27,0,0,0,70.206,70.4c2.942,40.109-1.627,89.632-2.182,95.384-7.35,15.171-23.69,41.207-58.7,48.788a3.523,3.523,0,0,0-2.693,4.386c.069.245,6.942,24.69,8.634,39.586a3.5,3.5,0,0,0,3.346,3.1l40.148,1.51c27.218,31.777,74.117,24.918,98.422-6.99,5.882-3.191,12.6-2.478,13.083-2.555.071-.008,7.213-.478,12.706,2.639,24.3,31.927,71.121,38.592,98.269,6.906l40.149-1.51a3.5,3.5,0,0,0,3.345-3.1c1.693-14.9,8.565-39.341,8.634-39.586A3.521,3.521,0,0,0,330.675,214.572ZM260.249,65.005a5.244,5.244,0,0,1,2.564,4.884c-2.7,36.809.824,81.3,1.938,93.768q-4.2.581-8.183,1.331C257.121,127.538,259.444,80.477,260.249,65.005ZM77.187,69.889a5.242,5.242,0,0,1,2.564-4.884c.8,15.471,3.128,62.53,3.681,99.983q-3.985-.744-8.182-1.331C76.363,151.192,79.888,106.7,77.187,69.889ZM21.836,254.762c-1.692-11.869-5.643-27.262-7.491-34.142a88.44,88.44,0,0,0,25.928-11.457c.255,10.316,2.316,29.923,13.14,46.786ZM170,246.613a34.97,34.97,0,0,0-6.466.324c1.484-3,5.9-7.793,1.543-10.32a3.5,3.5,0,0,0-4.7,1.547c-6.868,13.605-16.667,24.145-29.125,31.328-17.822,10.274-39.917,9.8-56.291-1.2C47.54,249.86,47.079,212.016,47.3,204.052c14.643-11.828,23.233-27.432,26.2-33.473,41.256,4.468,78.909,28.978,93.272,54.062a98.99,98.99,0,0,0,9.76,22.3A34.849,34.849,0,0,0,170,246.613Zm95.041,21.676c-37.313,24.052-80.3-5.231-91.247-44.607,15.012-25.09,52.269-48.7,92.705-53.1,2.965,6.041,11.558,21.646,26.2,33.473C292.921,212.02,292.458,249.861,265.041,268.289Zm53.124-13.527-31.579,1.187c10.824-16.863,12.886-36.47,13.141-46.786a88.453,88.453,0,0,0,25.928,11.457C323.807,227.5,319.856,242.893,318.165,254.762Z" style="fill:#3f3f70"/></svg>