<svg id="icons" xmlns="http://www.w3.org/2000/svg" viewBox="0 0 340 340"><path d="M9.995,123.418S48.476,221.984,133.539,294.9h18.9S174.046,99.115,9.995,123.418Z" style="fill:#7b8bba"/><path d="M330,123.418S291.514,221.984,206.451,294.9h-18.9S165.944,99.115,330,123.418Z" style="fill:#7b8bba"/><path d="M310.417,39.03c-87.059,16.3-193.787,16.3-280.844,0,0,0-14.852,29.03-19.578,84.388,0,0,59.409-10.126,103.291,58.06,0,0,37.806,56.033,20.253,113.417,10.081,8,63.15,7.879,72.912,0C188.9,237.511,226.7,181.478,226.7,181.478,270.586,113.292,330,123.418,330,123.418,325.269,68.06,310.417,39.03,310.417,39.03Z" style="fill:#bac9e8"/><path d="M309.693,35.6c-49.312,10.047-136.247,15.348-193.8,10.328C78.954,43.2,49.356,39.632,30.3,35.6a3.5,3.5,0,0,0-3.84,1.831c-.373-.487-16.542,34.221-19.725,87.25.2.865,40.105,100.646,124.707,173.009.925.693,9.864,6.776,38.556,6.776s37.631-6.083,38.556-6.776c65.383-55.911,103.935-128.14,117.361-156.44,1.817-4.179-4.194-7.153-6.322-3-12.972,27.311-49.42,95.739-111.244,150.349-13.111-53.241,20.905-104.639,21.3-105.228,28.037-44.5,69.112-59.785,99.761-56.5a3.524,3.524,0,0,0,4.074-3.747c-4.729-55.407-19.33-84.475-19.949-85.685A3.506,3.506,0,0,0,309.693,35.6Zm-178.049,253C60.982,226.2,23.445,145.838,15.072,126.481c14.313-.626,60.012,2.1,95.313,56.955C110.742,183.965,144.783,235.29,131.644,288.6ZM170,297.471c-19.019,0-28.5-2.814-32.29-4.37,4.883-17.724,4.692-35.173,2.34-50.447,14.462,5.65,41.353,7.71,59.885.093-2.339,15.249-2.519,32.661,2.353,50.347C198.457,294.669,188.975,297.471,170,297.471Zm123.821-173.95c-37.548,9.389-81.151,54.024-92.4,111.088-28.569,12.3-56.171,2.7-62.839,0C124.378,165.648,68,115.758,13.865,119.514c4.14-42.647,14.349-68.8,17.723-76.5,74.566,15.246,202.259,15.243,276.818,0,3.377,7.684,13.572,33.751,17.719,76.5A95.758,95.758,0,0,0,293.816,123.521Z" style="fill:#3f3f70"/></svg>