<svg id="icons" xmlns="http://www.w3.org/2000/svg" viewBox="0 0 340 340"><path d="M96.4,292.648v22.941s76.386,3.7,149.059-1.968L245,289.371Z" style="fill:#7b8bba"/><path d="M137.993,25.137s33.717,8.913,79.953-2.048l12.728,68.127L119.892,99.542Z" style="fill:#7b8bba"/><path d="M137.993,25.137s-1.145,36.46,35.366,46.292l5.822,19.664,6.865-17.206s31.9-13.109,31.9-50.8c0,0,31.014,17.82,54.8,31.423a32.261,32.261,0,0,1,15.987,24.681c5.488,58.143,1.388,105.788,29.355,224.106,0,0-15.749,9.013-33.92,12.29,0,0-27.459-61.449-33.112-112.248l-2.019,49.979s11.71,22.532-4.038,36.051c0,0-105.8,10.651-148.6,3.277,0,0-8.884-7.374,1.615-26.218L96,205.8s-19.382,71.692-44.418,109.79c0,0-18.827-8.2-33.509-22.13,0,0,44.113-106.8,54.892-213.943A31.074,31.074,0,0,1,86.317,56.885C99.63,47.832,121.33,33.589,137.993,25.137Z" style="fill:#bac9e8"/><path d="M137.993,25.889c-.007-.476,0-.752,0-.752-5.072,2.573-10.612,5.685-16.238,9.021L118.3,316.325c5.665.372,12.3.453,19.689.353Z" style="fill:#fff"/><path d="M213.03,315.589c6.077,0,11.865-.395,17.778-.949l5.039-281.62c-10.421-5.981-17.9-10.278-17.9-10.278Z" style="fill:#fff"/><path d="M52.007,319.091a3.5,3.5,0,0,0,2.913-1.558c14.368-21.552,26.862-53.64,34.813-76.763,1.421-4.355-5.045-6.617-6.619-2.275C75.6,260.334,64,290.263,50.729,311.14c-5.349-2.588-17.81-9.128-28.494-18.584C28.748,276.4,67.182,177.911,77.146,80.273A27.373,27.373,0,0,1,89.139,60.232C96.5,55.3,107.871,47.843,119.505,40.837L116.4,291.158c-6.66-.393-12.447-.971-17.242-1.729-1.38-1.855-4.463-8.113,2.929-21.192a3.512,3.512,0,0,0,.451-1.84l-2.043-60.487c-.812-36.675-1.4-61.372-1.375-93.968a3.5,3.5,0,1,0-7,0c-.122,45.693,1.609,105.114,3.39,153.722-8.856,16.266-4.158,25.191-1.606,28.378v21.549a3.5,3.5,0,0,0,3.333,3.5c9.83.534,45.067,1.313,59.913,1.175,26.859,0,59.624-.694,91.49-3.146a3.5,3.5,0,0,0,3.23-3.557l-.434-22.611c12.326-11.764,8.362-29.554,4.094-38.288l.721-17.573c10.061,41.79,27.914,81.454,28.139,81.949a3.5,3.5,0,0,0,3.8,2c18.776-3.337,34.788-12.287,35.461-12.666a3.5,3.5,0,0,0,1.657-3.972c-27.45-113.574-24.258-165.077-29.627-223.174a35.75,35.75,0,0,0-17.954-27.318c-11.864-6.688-25.5-14.393-36.285-20.495a3.5,3.5,0,0,0-1.084-.96c-10.172-5.752-17.575-9.946-18.092-10.239a3.5,3.5,0,0,0-3.9.264c-44.65,10.115-77.623,1.852-77.953,1.766a3.751,3.751,0,0,0-1.142-.1C120.972,30.4,100.716,44.385,85.242,54.417A34.349,34.349,0,0,0,70.183,79.562c-10.736,105.192-54.9,211.522-55.341,212.584a3.5,3.5,0,0,0,.838,3.909C31.974,310.859,49.545,318.705,52.007,319.091Zm64.124-6.363c-6.871-.181-12.1-.369-15.228-.492V296.752c4.488.605,9.635,1.081,15.409,1.415ZM242.02,39.782C252.053,45.456,263.855,52.124,274.288,58a28.742,28.742,0,0,1,14.431,21.961c5.373,57.455,1.754,105.3,29.1,221.562a122.2,122.2,0,0,1-28.166,10.094c-5.207-12.008-27.122-64.5-32.113-108.289.007-3.516.174-51.88,4.02-85.868a3.5,3.5,0,0,0-6.955-.787c-3.949,34.894-4.062,84.6-4.065,86.782L248.5,253.285a3.505,3.505,0,0,0,.4,1.776c.1.195,9.986,19.349-2.465,30.982-1.547.148-4.635.438-8.88.809ZM237.427,293.89c2.872-.25,5.258-.466,7.052-.632l.329,17.126q-3.84.281-7.689.527ZM223.9,29.528l11.193,6.335-4.973,275.129c-3.6.206-7.291.4-11.029.573Zm-50.286,3.048a209.344,209.344,0,0,0,43.214-4.593c-3.255,34.571-29.183,40.634-31.874,45l-3.219,7.953-3.034-10.1a3.5,3.5,0,0,0-2.454-2.376c-26.872-7.132-32.03-29.1-33-38.459A168.067,168.067,0,0,0,173.611,32.576ZM143.027,51.7c5.144,9.19,14.055,18.369,29.52,22.989l5.344,17.791a3.5,3.5,0,0,0,6.6.306l6.436-15.9A62.306,62.306,0,0,0,216.5,52.836L212.475,288.83c-19.19,1.358-45.514,2.849-69.448,2.946Zm0,247.074c23.871-.1,50.077-1.565,69.328-2.918l-.279,16.354c-25.273,1.018-49.466,1.163-69.049.988ZM126.557,36.669c3.136-1.814,6.29-3.584,9.47-5.282V313.121c-4.638-.062-8.956-.14-12.9-.225Z" style="fill:#3f3f70"/><path d="M199.927,86.96c-1.39-3.483-6.79-2.422-6.741,1.34C193.518,93.839,201.739,92.206,199.927,86.96Z" style="fill:#3f3f70"/></svg>