<svg id="icons" xmlns="http://www.w3.org/2000/svg" viewBox="0 0 340 340"><path d="M135.25,10.02S142.134,37.783,172,36.905s36.124-17.877,36.124-17.877,6.41,24.629,7.085,28-7.085,23.954-7.085,23.954l-60.054.337L128.84,50.067S127.49,22.267,135.25,10.02Z" style="fill:#7b8bba"/><path d="M135.25,10.02c-7.853,58.465,66.824,70.946,72.874,9.008,0,0,39.136,16.869,56.68,50.27,0,0-4.386,19.568-32.389,37.786l-8.1-6.747c-25.538,57.328,16.942,77.176,12.3,201.157a17.707,17.707,0,0,1-10.665,15.667c-21.954,9.487-76,26.49-127.9-6.8A17.733,17.733,0,0,1,90,293.147c1.932-14.761,6.033-43.124,12.522-73.715a274.81,274.81,0,0,0,5.743-47.239,169.06,169.06,0,0,0-4.253-43.789c-2.5-10.849-4.773-27.374.2-40.213,0,0-21.592-12.483-29.015-36.437C75.2,51.754,103.536,22.267,135.25,10.02Z" style="fill:#bac9e8"/><path d="M209.51,15.814a3.568,3.568,0,0,0-4.658,1.973c-.237.605-6.109,14.829-32.954,15.619-.428.013-.848.018-1.264.018-27.712-.7-30.488-23.435-33.109-26.055a3.514,3.514,0,0,0-3.536-.614C102.863,19.2,68.812,49.808,71.852,52.789c4.172,13.461,12.594,23.4,18.925,29.373a3.5,3.5,0,0,0,4.8-5.093C90.178,71.976,83.1,63.713,79.2,52.7c5.768-5.674,27.635-26.239,52.2-37.274-.155,8.189,1,23.243,10.136,34.423,12.982,17.466,59.9,25.765,69.465-25.543,10.245,5.266,36.428,20.57,50.05,45.389-1.379,4.148-7.476,18.736-28.395,33.029l-6.09-5.074a3.5,3.5,0,0,0-2.95-.74c-3.62-.1-17.545,32.8-8,64.608.2.595,20.208,60.408,17.517,139.858a14.271,14.271,0,0,1-8.556,12.573c-20.558,8.884-73.858,26.031-124.623-6.529A14.3,14.3,0,0,1,93.472,293.6c1.867-14.268,5.972-42.782,12.476-73.443a277.411,277.411,0,0,0,5.817-47.844,172.708,172.708,0,0,0-4.34-44.695c-3.688-16.628-5.447-34.266,6.939-49.882,2.757-3.607-2.683-7.913-5.549-4.268a89.486,89.486,0,0,0-7.763,13.215,1.536,1.536,0,0,1-.105.243c-5.222,13.489-3.069,30.428-.343,42.263a165.711,165.711,0,0,1,4.165,42.882A270.38,270.38,0,0,1,99.1,218.706c-6.553,30.9-10.688,59.616-12.569,73.987a21.331,21.331,0,0,0,9.634,20.618c40.114,27.763,97.614,22.878,131.178,7.061a21.3,21.3,0,0,0,12.776-18.76c2.7-79.622-17.13-140.085-17.866-142.291-6.881-22.418-.057-44.416,3.423-53.3l4.5,3.75a3.5,3.5,0,0,0,4.149.244c28.866-18.78,33.7-39.1,33.895-39.954C255.139,35.971,209.677,15.944,209.51,15.814ZM170.565,56.359c-19.358-.774-29.848-14.624-31.638-31.505C152.24,44.817,185.035,44,202.24,31.328,194.242,57.494,171.65,56.429,170.565,56.359Z" style="fill:#3f3f70"/></svg>