<svg id="icons" xmlns="http://www.w3.org/2000/svg" viewBox="0 0 340 340"><path d="M78.416,69.391C72.5,96.858,50.542,188.325,10,243.159A89.445,89.445,0,0,0,43.923,263.4S82.213,210.613,97.8,164.94c8.5,11.46,13.912,29.4,12.67,44.221a213.207,213.207,0,0,1-15.787,68.882,13.145,13.145,0,0,0,4.3,15.768c18.792,13.614,69.518,40.184,152.3,10.649a13.279,13.279,0,0,0,8.743-13.686c-1.56-17.46-5.808-54.391-15.683-85.236-7.43-22.571-6.649-50.464,1.693-72.051,0,0,34.734,53.059,45.127,143.586,0,0,24.614,4.1,38.836-5.2,0,0-20.793-128.4-63.394-205.043a21.15,21.15,0,0,0-9.3-8.742c-10.094-4.883-30.615-14.529-42.453-18.14L138.553,32.02S115.662,50.5,87.622,59.273A13.585,13.585,0,0,0,78.416,69.391Z" style="fill:#bac9e8"/><path d="M142.385,22.148h60.483L196.62,58.763l-23.743,8.123-21.244-4S139.886,34.645,142.385,22.148Z" style="fill:#7b8bba"/><path d="M172.877,66.886s23.243-22.994,29.991-44.738l10.634,8.33a11.468,11.468,0,0,1,4.387,9.435c-.406,11.646-3.579,37.57-22.8,54.05a2.04,2.04,0,0,1-2.986-.345Z" style="fill:#fff"/><path d="M142.385,22.148l30.492,44.738a218.447,218.447,0,0,0-27.171,24.748,2.07,2.07,0,0,1-3.4-.553,182.193,182.193,0,0,1-14.247-49.89,11.492,11.492,0,0,1,3.946-10.221Z" style="fill:#fff"/><path d="M228.949,45.184a3.5,3.5,0,0,0,1.844,4.594c9.158,3.913,18.647,8.4,24.993,11.465a17.9,17.9,0,0,1,4.445,3.043L250.09,106.409a3.5,3.5,0,1,0,6.8,1.639l8.636-35.872c37.395,69.838,57.59,180.437,60.616,197.911-10.412,5.5-25.776,4.527-31.828,3.866C282.05,183.511,250.919,129.7,245.745,130c-5.371-.13-8.562,22.954-9.539,32.324a109.632,109.632,0,0,0,4.805,44.284c9.632,30.086,13.865,65.843,15.53,84.48a9.766,9.766,0,0,1-6.433,10.077,226.828,226.828,0,0,1-49.972,11.992,3.5,3.5,0,0,0,.8,6.954,233.867,233.867,0,0,0,51.524-12.353,16.771,16.771,0,0,0,11.053-17.294c-1.692-18.925-6-55.262-15.837-85.991-6.721-19.559-6.063-43.839-.84-62.705,9.179,16.565,32.7,64.708,40.849,135.706a3.5,3.5,0,0,0,2.9,3.053c1.059.177,26.138,4.213,41.327-5.719a3.5,3.5,0,0,0,1.54-3.489c.132.707-22.718-139.03-66.812-210.448a24.713,24.713,0,0,0-7.808-5.927c-6.414-3.1-16.009-7.635-25.292-11.6A3.5,3.5,0,0,0,228.949,45.184Z" style="fill:#3f3f70"/><path d="M91.457,276.689a16.587,16.587,0,0,0,5.477,19.957c12.922,9.36,40.554,24.706,82.8,24.706,2.265-.189,5.284.661,6.915-1.378a3.548,3.548,0,0,0,.777-2.174v-101c-.99-26.522-8.278-39.654-12.193-47.646-9.507-24.218-4.084-40.9-2.15-55.161l3.26-21.828c.609-4.413-6.091-5.708-6.924-1.034-2.5,25.589-13.127,50.264-.56,80.92,3.931,8.053,10.555,19.581,11.568,44.821v97.477c-40.655.177-67.087-14.462-79.382-23.369a9.615,9.615,0,0,1-3.129-11.58,216.022,216.022,0,0,0,16.055-70.033c1.254-21.122-3.587-32.32-12.977-45.884-10.976-27.217,7.469-55.706,7.658-55.991a3.5,3.5,0,0,0-5.838-3.863c-.865,1.111-20.921,32.558-8.107,62.942a57.692,57.692,0,0,0,4.054,6.466c6.342,8.65,9.107,20.736,8.222,35.922A208.918,208.918,0,0,1,91.457,276.689Z" style="fill:#3f3f70"/><path d="M42.855,266.731a3.5,3.5,0,0,0,3.9-1.278c.293-.4,29.48-40.825,47.221-81.218a3.5,3.5,0,1,0-6.409-2.815c-15.15,34.5-38.855,69.1-44.991,77.829a86.153,86.153,0,0,1-27.9-16.576c41-57.553,60.8-145.935,67.94-174.787l11.387,21.5a3.5,3.5,0,1,0,6.185-3.276l-12.287-23.2a169.761,169.761,0,0,0,37.235-17.391,181.008,181.008,0,0,0,15.376,49.949,3.523,3.523,0,0,0,5.706.768,231.962,231.962,0,0,1,18.539-18.181,3.5,3.5,0,1,0-4.615-5.263c-5.4,4.735-10.6,9.727-15.518,14.885a179.629,179.629,0,0,1-13.1-46.929,7.972,7.972,0,0,1,2.741-7.111l7.413-6.3c11.584,17.179,36.641,53.729,48.844,70.085a3.5,3.5,0,0,0,5.009.7c22.109-17.445,25.442-46.436,25.849-58.092a15.024,15.024,0,0,0-5.728-12.31l-10.634-8.33a3.7,3.7,0,0,0-2.158-.745H142.385a3.737,3.737,0,0,0-1.793.509c-.166.1-.315.217-.474.324L129.739,28.3a14.922,14.922,0,0,0-5.115,9.268c-9.208,5.936-22.869,13.615-38.047,18.362a16.976,16.976,0,0,0-5.583,3,17.147,17.147,0,0,0-6,9.725c-5.753,26.715-27.645,118.1-67.808,172.425a3.5,3.5,0,0,0,.427,4.64A93.319,93.319,0,0,0,42.855,266.731ZM204.525,27.893l6.819,5.34a8,8,0,0,1,3.048,6.557C214.037,49.947,211.3,74.435,194,90.255L177.431,67.222C182.922,61.433,197.641,44.958,204.525,27.893Zm-6.652-2.245c-6.063,14.733-18.795,29.483-24.54,35.692L149.006,25.648Z" style="fill:#3f3f70"/><path d="M155.319,109.064a3.531,3.531,0,0,0,2.481-5.98,3.619,3.619,0,0,0-4.95,0A3.526,3.526,0,0,0,155.319,109.064Z" style="fill:#3f3f70"/><path d="M148.63,148.024a3.5,3.5,0,0,0,.69,6.93C154.372,154.788,153.618,147.2,148.63,148.024Z" style="fill:#3f3f70"/><path d="M167.44,202.784c-1.369-3.5-6.794-2.413-6.73,1.34C161.025,209.666,169.288,208.021,167.44,202.784Z" style="fill:#3f3f70"/><path d="M165.51,261.634c-4.486.971-3.152,7.694,1.37,6.86C171.38,267.524,170.033,260.809,165.51,261.634Z" style="fill:#3f3f70"/></svg>