<svg id="icons" xmlns="http://www.w3.org/2000/svg" viewBox="0 0 340 340"><path d="M133.689,10.081s44.439,48.479,109.814,14L234.35,49.411S172.7,75.481,136.818,33.462C136.818,33.462,130.867,21.971,133.689,10.081Z" style="fill:#7b8bba"/><path d="M133.689,10.252c12.307,53.876,85.22,52.531,109.814,14l5.774,7.964a13.157,13.157,0,0,1,.148,15.281c-5.109,7.266-12.715,14.428-20.98,21.562,0,0,5.877,34.156-19.465,47.378,0,0,26.344,92.206,24.943,179.45a24.916,24.916,0,0,1-11.1,20.386c-24.1,16.956-82.416,23.238-126.248-11.352a24.854,24.854,0,0,1-8-22.823C93.5,253.323,108.421,176.91,137,112.765c0,0-29.44-19.148-9.182-60.233a111.812,111.812,0,0,1-8.6-21.8,13.159,13.159,0,0,1,5.4-14.4Z" style="fill:#bac9e8"/><path d="M94.253,307.542c40.995,33.519,102.8,31.192,130.5,11.647a28.421,28.421,0,0,0,12.668-23.246c1.261-78.525-20.088-161.984-24.347-177.806,21.342-13.109,19.957-40.056,19.091-47.673,7.1-6.191,14.818-13.412,20.122-20.954a16.655,16.655,0,0,0-.178-19.349L246.7,22.7a3.475,3.475,0,0,0-4.829-1.711c-26.055,13.741-51.7,15.723-76.2,5.89a88.244,88.244,0,0,1-29.4-19.164,3.478,3.478,0,0,0-5.21.089l-8.4,5.621a16.626,16.626,0,0,0-6.827,18.236A117.483,117.483,0,0,0,123.9,52.6c-19.515,41.609,9.9,62.232,11.149,63.078.7.469,9.225,5.926,23.281,5.95,4.594-.088,4.61-6.914,0-7-11.937,0-19.277-4.7-19.4-4.775-1.112-.738-26.541-18.1-7.976-55.768a3.5,3.5,0,0,0-.072-3.233,109.516,109.516,0,0,1-8.3-21.043c-1.778-7.531,3.573-10.424,9.015-13.941,14.638,47.928,82.388,52.431,111.868,14.3,3.8,4.89,7,9.332,3.1,15.32-5.225,7.43-13.246,14.748-20.4,20.927A3.5,3.5,0,0,0,225,69.653c.054.316,5.179,31.778-17.635,43.681a3.5,3.5,0,0,0-1.746,4.065c.261.917,26.185,92.733,24.808,178.432a21.419,21.419,0,0,1-9.539,17.526c-23.357,16.6-80.374,21.851-121.994-11.058a21.219,21.219,0,0,1-6.872-19.609c4.56-26.582,17.858-94.988,42.806-155.926a3.5,3.5,0,0,0-6.479-2.652c-25.21,61.579-38.627,130.585-43.225,157.4A28.17,28.17,0,0,0,94.253,307.542ZM181.835,48.321c-24.058-2.768-35.429-16.771-40.621-27.142,23.4,17.92,58.041,24.586,88.835,12.69C220.543,41.973,204.552,50.935,181.835,48.321Z" style="fill:#3f3f70"/><path d="M179.37,122.9c5.138-.334,4.609-7.013-.112-7C174.145,116.255,174.68,122.889,179.37,122.9Z" style="fill:#3f3f70"/></svg>