<svg id="icons" xmlns="http://www.w3.org/2000/svg" viewBox="0 0 340 340"><path d="M167.7,9.1S189,44.049,239.054,28.117l-41.079,78.07L159.645,93.76S158.78,42.969,167.7,9.1Z" style="fill:#7b8bba"/><path d="M237.915,37.026l44.01,38.509a13.793,13.793,0,0,1,4.624,8.8c1.586,13.782,5.805,52.282,8.007,90.026l-46.684,7.061s-22.754,88.66-22.361,149.467c-31.462-1.6-60.864-4.458-83.275-11.572a22.365,22.365,0,0,1-15.048-17.015c0-.02-.007-.03-.008-.028-17.079,19.218-59.265.914-81.736-18.069,5.071-11.853,11.4-25.942,14.594-38.345L89.382,139.45,61.921,111.2l36.4-72.792a13.789,13.789,0,0,1,8.947-7.206c12.194-3.093,42.024-9.315,60.594-15.093l9.869,75.178Z" style="fill:#bac9e8"/><path d="M167.7,9.1,175.037,70.8s-10.859-2.036-25.7,8.323a2.955,2.955,0,0,1-4.645-2.258c-.564-10.541-1.234-34.342,2.507-55.11a9.607,9.607,0,0,1,6.047-7.424Z" style="fill:#fff"/><path d="M193,77.523a45.224,45.224,0,0,1,19.283,20.984,2.958,2.958,0,0,0,5.235.353l29.3-48.282a11.166,11.166,0,0,0-.471-12.3l-7.286-10.163Z" style="fill:#fff"/><path d="M199.741,135.211,237.3,146.046l-7.921,29.3a8.381,8.381,0,0,1-5.442,5.766l-12.782,4.261a8.384,8.384,0,0,1-9-2.482l-8.406-9.759a8.385,8.385,0,0,1-1.771-7.548Z" style="fill:#fff"/><path d="M102.019,313.746a46.022,46.022,0,0,0,14.6-1.117,3.5,3.5,0,1,0-1.735-6.783c-18.24,3.992-43.029-5.592-65.214-22.632,4.962-11.542,10.6-24.347,13.738-36.42l29.33-106.366c1.158-4.055,11.481-36.609,12.01-39.958l5-22.748c.913-4.467-5.76-6.011-6.837-1.5l-5,22.747c-.487,3.079-9.109,30.156-10.144,33.806L66.163,110.546l35.284-70.569a10.293,10.293,0,0,1,6.678-5.379c9.749-2.418,23.6-5.449,34.776-8.181-3.818,26.438-1.445,54.986-1.335,56.267a3.524,3.524,0,0,0,5.716,2.4c11.332-9.353,20.483-10.841,24.663-10.953l2.22,16.913c-2.634,9.746-35.057,127.4-50.477,211.321a25.741,25.741,0,0,0,17.489,20.292c24.83,7.874,58.1,10.416,84.334,11.736a3.521,3.521,0,0,0,3.5-3.522c-.384-59.647,22.025-147.692,22.252-148.575.1-.44,6.613-28.884,15.066-44.464,2.1-3.965-3.827-7.425-6.148-3.346-8.812,16.187-15.344,44.509-15.711,46.119-.535,2.1-21.945,86.634-22.454,146.6-25.127-1.363-55.846-3.959-78.72-11.22a18.879,18.879,0,0,1-12.531-13.755c15.62-83.2,46.833-197.281,50.065-209.022l14.513-13.085C195.511,80,238.514,33.809,238.7,33.63l4.8,6.69a7.655,7.655,0,0,1,.324,8.442l-28.762,47.4a48.426,48.426,0,0,0-8.331-12.255c-3.176-3.316-8.208,1.333-5.13,4.762a41.137,41.137,0,0,1,9.4,16.407,3.5,3.5,0,0,0,6.348.82c.111-.324,32.5-53.434,32.582-53.717l29.7,25.987a10.274,10.274,0,0,1,3.452,6.57c1.628,14.151,5.578,50.338,7.8,86.643l-28.14,4.257a3.5,3.5,0,0,0,1.047,6.921l31.3-4.735a3.5,3.5,0,0,0,2.971-3.664c-2.189-37.533-6.341-75.6-8.024-90.222a17.268,17.268,0,0,0-5.8-11.038L251.925,44.634a14.631,14.631,0,0,0-2.741-8.393L241.9,26.078a3.5,3.5,0,0,0-2.8-1.445c-47.751,15.406-67.421-16.28-69.71-18.588a3.545,3.545,0,0,0-2.88-.24l-14.455,5.237a12.964,12.964,0,0,0-7.653,7.8c-7.839,1.931-15.742,3.753-22.78,5.375-11.354,3.192-20.953,2.258-26.436,12.626l-36.4,72.793a3.5,3.5,0,0,0,.621,4.005l26.063,26.808L56.664,244.934c-3.134,12.16-9.465,26.289-14.44,37.9a3.5,3.5,0,0,0,.912,4C61.23,302.705,86.978,312.543,102.019,313.746ZM182.845,27.605c9.975,6.592,30.1,10.326,45.578,6.783-7.068,7.421-40.62,44.464-48.093,49.844-1.326-9.059-6.609-54.248-7.811-64.272A58.815,58.815,0,0,0,182.845,27.605Zm-32.2-5.228a6.125,6.125,0,0,1,3.795-4.754l10.308-3.734,6.336,53.3c-4.839.262-13.1,1.865-22.94,8.512C147.609,64.847,147.1,42.073,150.644,22.377Z" style="fill:#3f3f70"/><path d="M199.5,185.172a11.855,11.855,0,0,0,12.763,3.519l12.782-4.261a11.857,11.857,0,0,0,7.714-8.173l7.921-29.3a3.5,3.5,0,0,0-2.409-4.277l-37.562-10.835a3.522,3.522,0,0,0-4.362,2.5l-7.763,30.369a11.894,11.894,0,0,0,2.51,10.7Zm-4.134-18.725,6.87-26.873,30.788,8.881-7.022,25.975a4.876,4.876,0,0,1-3.171,3.359l-12.782,4.261a4.87,4.87,0,0,1-5.246-1.446l-8.405-9.759A4.888,4.888,0,0,1,195.369,166.447Z" style="fill:#3f3f70"/><path d="M192.285,102.424c3.205-3.329-1.607-8.042-4.95-4.95C184.154,100.792,188.981,105.63,192.285,102.424Z" style="fill:#3f3f70"/><path d="M176.045,148.594a3.5,3.5,0,0,0,.68,6.93C181.773,155.373,181.033,147.77,176.045,148.594Z" style="fill:#3f3f70"/><path d="M160.185,208.014c-3.2,3.31,1.639,8.134,4.95,4.95C168.321,209.621,163.525,204.916,160.185,208.014Z" style="fill:#3f3f70"/><path d="M152.405,271.254c-2.927-4.12-8.849.743-5.38,4.42C150,278.6,154.712,274.728,152.405,271.254Z" style="fill:#3f3f70"/></svg>