<svg id="icons" xmlns="http://www.w3.org/2000/svg" viewBox="0 0 340 340"><path d="M264.27,58.357a22.884,22.884,0,0,0-10.059-9.46c-10.923-5.284-33.131-15.723-45.941-19.631L125.7,20.683s-24.771,20-55.115,29.492a14.7,14.7,0,0,0-9.963,10.949c-2.874,13.348-9.252,40.663-19.377,72.081l37.71,16.727a42.559,42.559,0,0,0,6.735,21.112c17.841,29.87,8.279,75.255-7.578,116.155a14.028,14.028,0,0,0,4.766,16.78c20.33,14.731,75.227,43.494,164.816,11.528a14.37,14.37,0,0,0,9.462-14.81c-1.7-18.957-6.316-59.128-17.079-92.573-8-24.305-7.015-54.4,1.939-77.637a212.641,212.641,0,0,1,12.549,23.47c8.7-1.095,28.445-4.405,44.2-13.111C289.273,111.811,277.787,82.676,264.27,58.357Z" style="fill:#bac9e8"/><path d="M129.843,10H195.3l-6.761,39.623-25.695,8.79L139.85,54.086S127.138,23.523,129.843,10Z" style="fill:#7b8bba"/><path d="M129.843,10l33,48.413a237.425,237.425,0,0,0-30.2,27.64,1.444,1.444,0,0,1-2.372-.357,196.631,196.631,0,0,1-15.925-55.088,12.439,12.439,0,0,1,4.271-11.062Z" style="fill:#fff"/><path d="M162.839,58.413S187.993,33.53,195.3,10L206.8,19.014a12.413,12.413,0,0,1,4.748,10.21c-.444,12.736-3.946,41.252-25.338,59.053A1.448,1.448,0,0,1,184.12,88Z" style="fill:#fff"/><path d="M242.8,138.678c2.181,3.882,5.177,9.516,8.6,16.771a3.5,3.5,0,0,0,3.6,1.98c8.171-1.027,28.955-4.4,45.456-13.52a3.5,3.5,0,0,0,1.634-4.15C289.876,104.2,279.623,76.038,264.1,52.094a26.454,26.454,0,0,0-8.361-6.347c-7.055-3.413-17.589-8.386-27.716-12.7-4.243-1.718-6.963,4.546-2.744,6.44,10,4.262,20.426,9.184,27.411,12.563a19.608,19.608,0,0,1,5,3.462l-11.013,45.741a3.5,3.5,0,1,0,6.805,1.639L263,63.342c11.034,20.478,21.622,45.935,31.509,75.786-13.5,6.777-29.478,9.808-37.888,11.018a206.181,206.181,0,0,0-11.683-21.575,3.527,3.527,0,0,0-6.137.516c-3.389,7.763-5.794,18.744-7.145,32.636A117.08,117.08,0,0,0,236.74,209.2c10.5,32.639,15.112,71.533,16.925,91.813a10.858,10.858,0,0,1-7.152,11.2A244.15,244.15,0,0,1,190.4,325.42c-4.532.5-3.861,7.4.734,6.961A251.1,251.1,0,0,0,248.865,318.8a17.857,17.857,0,0,0,11.772-18.418c-1.839-20.57-6.522-60.048-17.233-93.335C236.123,186.106,236.985,158.967,242.8,138.678Z" style="fill:#3f3f70"/><path d="M80.819,306.813c12.916,10.392,50.756,28.7,94.424,26.584a3.418,3.418,0,0,0,2.632-1.827,3.589,3.589,0,0,0,.419-1.627V220.648c-.533-25.591-9.182-43.8-11.82-48.767-12.031-24.976-5.916-47.408-3.7-62.536L166.3,85.724c.616-4.394-6.1-5.72-6.924-1.034l-3.527,23.621c-2.579,16.873-8.016,37.076,2.9,63.785C163,180.809,170.2,193.36,171.294,220.72V326.49c-44.254.259-73-15.663-86.368-25.345a10.478,10.478,0,0,1-3.594-12.587A233.373,233.373,0,0,0,98.8,212.582,77.593,77.593,0,0,0,88.72,169.3c-3.695-5.809-6.338-13.189-6.261-18.938.007-1.225-.151-21.161,11.117-38.688a3.5,3.5,0,0,0-5.836-3.866C75.42,126.4,75.443,149,75.45,149.958c-.123,7.217,2.723,15.724,7.2,22.828,17.332,28.676,7.37,74.273-7.769,113.054A17.447,17.447,0,0,0,80.819,306.813Z" style="fill:#3f3f70"/><path d="M65.16,58.867,77.745,82.629a3.5,3.5,0,1,0,6.185-3.276L70.482,53.96A185.664,185.664,0,0,0,111.4,34.818a195.566,195.566,0,0,0,16.678,54.394,3.523,3.523,0,0,0,5.706.768A251.87,251.87,0,0,1,153.164,70.9a3.5,3.5,0,1,0-4.635-5.245c-5.693,5.03-11.175,10.319-16.349,15.767a194.748,194.748,0,0,1-14.367-51.261,8.906,8.906,0,0,1,3.065-7.95l8.265-7.025c12.565,18.631,39.8,58.368,53.033,76.1a3.5,3.5,0,0,0,5.009.7c23.832-18.8,27.425-50.076,27.863-62.648a15.965,15.965,0,0,0-6.087-13.087L197.454,7.245A3.7,3.7,0,0,0,195.3,6.5H129.842a3.744,3.744,0,0,0-1.794.509c-.165.1-.314.217-.472.324l-11.231,9.546a15.858,15.858,0,0,0-5.459,9.982c-9.98,6.443-24.836,14.81-41.351,19.974A18.273,18.273,0,0,0,57.2,60.388c-2.881,13.384-9.218,40.5-19.286,71.743a3.5,3.5,0,0,0,1.912,4.273l22.333,9.906a3.5,3.5,0,1,0,2.838-6.4l-19.461-8.633C56.25,98.557,60.429,74.849,65.16,58.867ZM196.965,15.754l7.68,6.016a8.943,8.943,0,0,1,3.407,7.332c-.385,11.075-3.38,37.845-22.4,55.03L167.4,58.752C173.228,52.622,189.528,34.473,196.965,15.754ZM190.321,13.5c-6.6,16.339-20.872,32.753-27.023,39.371L136.464,13.5Z" style="fill:#3f3f70"/><path d="M141.905,103.17c3.854,2.5,7.653-3.2,3.88-5.82C141.911,94.862,138.116,100.584,141.905,103.17Z" style="fill:#3f3f70"/><path d="M140.254,147.99c-2.61-3.775-8.312.022-5.819,3.88C137.042,155.657,142.749,151.855,140.254,147.99Z" style="fill:#3f3f70"/><path d="M150.985,204.45c-3.2,3.3,1.639,8.148,4.95,4.95C159.136,206.053,154.319,201.363,150.985,204.45Z" style="fill:#3f3f70"/><path d="M153.134,270.4c-3.2,3.31,1.649,8.151,4.951,4.95C161.288,272.012,156.47,267.309,153.134,270.4Z" style="fill:#3f3f70"/></svg>