<svg id="icons" xmlns="http://www.w3.org/2000/svg" viewBox="0 0 340 340"><path d="M237.529,122.189s32.734,9.182,77.717,3.563c11.956-1.493,19.047,13.051,10.463,21.507-3.631,3.577-7.833,7.461-12.688,11.632a324.572,324.572,0,0,0-42.9,45.785,225.406,225.406,0,0,0-20.242,31.871c-9.036,17.075-38.821,61.461-106.209,66.392,0,0-99.92,8.79-128.087-66.87-7.729-20.764-6.793-43.937,3.877-63.354C30.254,153.076,52.675,132.571,99.2,129.1Z" style="fill:#bac9e8"/><path d="M275.183,162.667a76.247,76.247,0,0,0,17.37-35.193c-32.879.918-55.024-5.285-55.024-5.285L145.348,126.8c-7.22,20.669-29.323,75.948-29.323,75.948S211.653,236.032,275.183,162.667Z" style="fill:#7b8bba"/><path d="M211.518,41.874a80.07,80.07,0,0,1-31.579-2.7,56.9,56.9,0,0,0-30.552-.633S87.76,48.024,89.02,179.437a21.1,21.1,0,0,0,14.74,19.887c30.409,9.642,102.279,23.44,148.207-40.781a41.244,41.244,0,0,0,7.685-22.988c.43-17.678.064-51.436-7.432-76.232C252.22,59.323,246.353,38.017,211.518,41.874Z" style="fill:#bac9e8"/><path d="M163.669,187.048c-35.165,4.894-58.969-6.157-74.576-19.95q-.129,5.986-.073,12.339a21.1,21.1,0,0,0,14.74,19.886c30.409,9.643,102.279,23.441,148.207-40.78,8.135-10.966,8.053-23.062,7.787-36.6C247.793,142.863,219.366,179.3,163.669,187.048Z" style="fill:#fff"/><path d="M124.676,115.152s21.961-23.733,64.329-28.646c0,0,25.743-3.219,39.61-12.2a7.83,7.83,0,0,0,.3-12.886c-4.219-3.012-11.556-5.467-24.256-4.17a80.859,80.859,0,0,1-25.931-1.9C146.019,50.7,127.037,78.137,124.676,115.152Z" style="fill:#7b8bba"/><path d="M249.149,137.791a78.3,78.3,0,0,1-11.677,37.75c10.363-10.394,22.32-23.986,22.179-39.986.095-3.858.151-8.482.1-13.612A137.491,137.491,0,0,1,249.149,137.791Z" style="fill:#cbcde5"/><path d="M89.329,301.268c81.411,21.119,142.645-20.434,163.647-63.086A223.173,223.173,0,0,1,272.9,206.806a324.15,324.15,0,0,1,42.4-45.26c4.623-3.973,8.951-7.94,12.862-11.794a16.134,16.134,0,0,0-13.353-27.473,233.586,233.586,0,0,1-40.923,1.483,3.5,3.5,0,1,0-.363,6.991,240.417,240.417,0,0,0,42.153-1.528,9.1,9.1,0,0,1,7.575,15.54c-3.8,3.743-8.01,7.6-12.488,11.45a324.836,324.836,0,0,0-43.418,46.331,230.113,230.113,0,0,0-20.559,32.363c-9.43,17.821-38.381,59.784-103.42,64.543-40.045,3.508-107.728-12.5-124.5-64.606C.983,185.4,34.045,140.194,87.917,133.88a321.088,321.088,0,0,0-2.326,33.37c-.078,4.061-.111,8.128-.071,12.221A24.54,24.54,0,0,0,102.7,202.66c49.751,15.14,111.353,14.623,152.111-42.081,8.661-11.545,8.76-24.765,8.44-38.68-.174-18.662-1.708-43.825-7.659-63.5-.27-.987-7.095-24.139-44.461-20a76.092,76.092,0,0,1-30.2-2.582,59.968,59.968,0,0,0-32.28-.7c-31.025,6.217-54.8,50.6-59.733,91.56C-29.223,143.574-10.494,280.042,89.329,301.268ZM249.12,156.507c-44.848,62.709-115.856,48.5-144.3,39.48-9.708-3.091-13.179-12.11-12.307-21.6,53.962,41.128,138.5,2.4,163.672-40.259A37.913,37.913,0,0,1,249.12,156.507ZM121.01,62.458c19.9-24.212,39.858-24.572,57.933-19.934a83.041,83.041,0,0,0,32.96,2.829c31.175-3.45,36.729,14.176,36.966,14.983,5.641,18.655,7.166,42.588,7.375,60.679-21.339,44.167-106.3,91.636-163.6,44.519C94.164,108.3,108.628,78,121.01,62.458Z" style="fill:#3f3f70"/><path d="M106.129,118.758c5.16,8.142,17,6.925,21.271-1.391,1.919-1.97,23.124-22.875,62.04-27.388,1.083-.136,26.7-3.426,41.079-12.74a11.281,11.281,0,0,0,5.127-9.232c.478-4.46-4.91-13.628-9.581-8.625a3.5,3.5,0,0,0,.814,4.882,4.352,4.352,0,0,1-.167,7.1C213.69,79.8,188.82,83,188.6,83.029,158.714,86.5,138.781,98.942,129.038,106.6c4.273-29.86,21.342-51.97,49.031-47.824a84.451,84.451,0,0,0,26.944,1.949A60.158,60.158,0,0,1,212.3,60.4a3.489,3.489,0,0,0,3.571-3.427c-.271-5.529-7.692-3.185-11.564-3.211a77.958,77.958,0,0,1-24.919-1.86c-34.246-4.97-55.242,22.67-58.128,62.052-1.677,3.711-6.994,4.713-9.254.992C109.434,111.131,103.689,114.857,106.129,118.758Z" style="fill:#3f3f70"/></svg>