<svg id="icons" xmlns="http://www.w3.org/2000/svg" viewBox="0 0 340 340"><path d="M99,68.909S39.615,164.117,6.34,287.928c0,0,19.346,14.234,44.108,15.049,0,0,19.4-61.412,42.2-103.618H99S110.8,114.925,99,68.909Z" style="fill:#bac9e8"/><path d="M263.221,180.391s27.061,59.457,23.855,136.716c0,0,30.151,4.316,46.584-11.193,0,0-13.115-146.989-46.584-222.237l-11.394-2.619Z" style="fill:#bac9e8"/><path d="M164.323,28.76c12.337-9.835,38.949-7.938,51.709,3.812l3.517,19.368-14.8,55.445L182.418,120.43,162.1,112.653,151.309,67.607A142.056,142.056,0,0,1,164.323,28.76Z" style="fill:#7b8bba"/><path d="M147.406,43.563S123.847,60.014,99,68.909c0,0-9.427,125.234-6.666,229.831l76.029,4.237,16.524-192.351s-2.362-11.59-9.31-19.445C175.578,91.181,154.707,72.51,147.406,43.563Z" style="fill:#bac9e8"/><path d="M164.323,28.76s-1.741,22.473,11.255,62.421L147.19,98.016s-3.327-21.121.216-54.453Z" style="fill:#fff"/><path d="M197.823,90.816S177.93,95.183,171.355,129.7c0,0-11.732,108.737-13.3,162.294a10.672,10.672,0,0,0,10.314,10.981l87.81,2.937s10.52-164.048,30.9-222.237l-64.6-37.807S214.758,84.805,197.823,90.816Z" style="fill:#bac9e8"/><path d="M216.032,32.572a156.7,156.7,0,0,1-18.209,58.244L222.6,102.642s6.056-28.076,4.443-53.348a10,10,0,0,0-2.148-5.612Z" style="fill:#fff"/><polygon points="215.613 144.727 214.302 173.27 234.467 185.289 253.429 173.27 257.465 148.95 215.613 144.727" style="fill:#fff"/><polygon points="215.854 133.608 215.613 144.727 237.473 158.249 257.465 148.95 258.86 136.397 215.854 133.608" style="fill:#fff"/><polygon points="113.803 140.349 113.803 172.017 132.803 181.067 151.839 173.27 154.949 140.349 113.803 140.349" style="fill:#fff"/><polygon points="112.873 128.261 155.879 129.656 154.949 140.349 136.352 152.437 113.803 140.349 112.873 128.261" style="fill:#fff"/><path d="M334.806,283.636c-5.76-44.256-18.131-146.479-45.952-202.976L241.825,52.971A3.5,3.5,0,0,0,238.273,59l44.575,26.246c-.784,2.392-1.552,4.943-2.306,7.617-20.174-10.78-43.561-23.853-49.865-27.387a152.3,152.3,0,0,0-.4-19.742,3.5,3.5,0,0,0-.75-1.862l-10.76-13.486c-.129-.141-.25-.284-.391-.411-9.874-9.272-29.986-13.526-43.344-9.8-8.556,2.12-12.606,5.58-13.044,5.973L145.255,40.8c-1.942,1.336-24.292,16.534-47.433,24.819a3.5,3.5,0,0,0-2.311,3.032c-2.376,34.308-4.684,72.933-6.318,129.756-19.887,37.063-37.3,88.862-41.247,100.938-17.78-1.309-32.441-9.651-37.572-12.92q1.968-7.23,4.054-14.313a116.368,116.368,0,0,0,26.579,13.086c4.355,1.4,6.583-5.086,2.228-6.637a110.315,110.315,0,0,1-26.7-13.5C40,187.6,72.028,124.021,90.047,91.4a3.5,3.5,0,1,0-6.127-3.385C65.578,121.208,32.751,186.452,9.064,265.581Q5.9,276.146,2.96,287.02a3.5,3.5,0,0,0,1.306,3.728c.754.62,20.736,14.955,46.183,15.729a3.5,3.5,0,0,0,3.337-2.445c.172-.547,15.711-49.448,35.02-89.417-.572,27.792-.694,56.769.03,84.218a3.5,3.5,0,0,0,3.3,3.4l50.716,2.827c4.575.186,5-6.649.389-6.988l-47.492-2.647q-.207-8.64-.307-17.443l59.425,5.287c-.131,3-.239,5.891-.319,8.623a14.2,14.2,0,0,0,13.7,14.582l87.81,2.937a3.5,3.5,0,0,0,3.609-3.275c.1-1.556,9.718-148.854,27.875-212.3,22.717,57.222,35.321,147.85,40.217,189.763-13.7,8.768-30.381,9.5-37.131,9.387a348.1,348.1,0,0,0-12.611-80.475,3.5,3.5,0,0,0-6.74,1.889c6.58,23.477,14.055,60.326,12.3,102.557a3.5,3.5,0,0,0,3,3.61c13.781,1.492,35.324.976,49.482-12.113a3.5,3.5,0,0,0,1.084-2.857c-.029-.323-.7-7.63-2.07-19.631A3.47,3.47,0,0,0,334.806,283.636ZM218.457,41.222l4.94,6.192c1.582,19.241-1.74,41.007-3.377,50.117l-17.37-8.29A162.393,162.393,0,0,0,218.457,41.222ZM167.76,30.6c11.7-7.723,33.49-5.4,44.612,3.411-.719,6.425-4.142,30.3-16.949,53.892a33.606,33.606,0,0,0-13.075,9.181C169.562,71.982,167.344,32.522,167.76,30.6ZM155.206,276.272l-9.854-.877c3.007-31.165,11.466-115.523,14.014-145.436a3.522,3.522,0,0,0-3.374-3.8l-43.006-1.4a3.525,3.525,0,0,0-3.6,3.767l.92,11.956v31.531a3.5,3.5,0,0,0,2,3.161l19,9.05a3.49,3.49,0,0,0,1.5.34c.046.577,14.539-5.8,14.986-5.855l-9.41,96.063-22.006-1.958v-81.18a3.5,3.5,0,0,0-7,0v80.557L95.381,270.95C94.86,199.469,98.956,123.922,101.156,89l29.9-12.782c4.2-1.878,1.511-8.176-2.752-6.436l-26.639,11.39c.293-4.426.524-7.749.668-9.757C119.151,65.1,134.9,55.8,143.24,50.5c-1.931,30.35-.813,48.729,2,50.427a3.5,3.5,0,0,0,2.765.492l14.509-3.493c4.451-1.151,2.854-7.808-1.639-6.805L150.2,93.693c-.733-7.271-1.868-24.615.55-48.4l10.11-8.846c.463,9.921,2.7,29.147,11.428,55.914a38.351,38.351,0,0,0,5.6,10.488c-4.035,6.1-7.741,14.533-9.963,26.2C167.714,130.609,158.176,219.64,155.206,276.272ZM117.3,146.2l17.4,9.325a3.5,3.5,0,0,0,3.561-.15l12.525-8.141-2.23,23.6-15.644,6.407L117.3,169.806Zm-.157-8.027-.484-6.284,35.41,1.148-.462,5.311-15.429,10.029ZM254.83,276.581H242.954l13.937-102.794c1.421-8.228,4.894-28.894,5.447-37a3.521,3.521,0,0,0-3.252-3.879l-43.005-2.79a3.518,3.518,0,0,0-3.726,3.416l-.24,11.081c-1.648,37.444-2.543,48.582-3.5,118.422a3.5,3.5,0,0,0,7,.051c.246-33.511,1.457-69.854,1.961-83.787l15.1,9a3.5,3.5,0,0,0,3.665-.051l12.61-7.993-13.06,96.329H193.258A1282.667,1282.667,0,0,1,205.2,110.006c.616-4.539-6.142-5.6-6.921-1.053a1290.6,1290.6,0,0,0-12.016,167.628h-12.6c-4.595.076-4.606,6.921,0,7h80.616c-.659,8.5-1.116,14.985-1.37,18.722l-84.425-2.824a7.189,7.189,0,0,1-6.932-7.381c1.525-51.932,12.787-157.373,13.271-161.879,3.039-16.882,11.287-31.115,22.729-35.655L221.094,105.8a3.5,3.5,0,0,0,4.928-2.421,246.719,246.719,0,0,0,4.2-30.134c9.16,5.12,30.321,16.894,48.467,26.564C266.337,148.752,258.388,232.4,254.83,276.581Zm-19.2-115.356a3.5,3.5,0,0,0,3.318.2l13.976-6.5-2.693,16.23L234.411,181.18l-16.517-9.843.942-20.5ZM219.155,142.8l.119-5.466,35.7,2.316-.773,6.954-16.5,7.672Zm71.537,171.138c.145-4.717.173-9.36.11-13.927,8.888.038,23.263-.826,37.824-8.786.7,6.337,1.158,10.919,1.383,13.252C317.837,314.715,298.258,314.474,290.692,313.941Z" style="fill:#3f3f70"/><path d="M189.249,117.519c-3.435-2.318-7.362,2.464-4.419,5.38C188.507,126.368,193.366,120.463,189.249,117.519Z" style="fill:#3f3f70"/><path d="M183.3,156.75c-3.447-2.318-7.374,2.47-4.419,5.39C182.57,165.586,187.4,159.7,183.3,156.75Z" style="fill:#3f3f70"/><path d="M179.669,207.22c-3.865-2.484-7.666,3.218-3.879,5.82C179.653,215.536,183.458,209.83,179.669,207.22Z" style="fill:#3f3f70"/><path d="M178.81,250.21c-1.376-3.492-6.8-2.413-6.73,1.34C172.39,257.1,180.649,255.441,178.81,250.21Z" style="fill:#3f3f70"/></svg>