<svg id="icons" xmlns="http://www.w3.org/2000/svg" viewBox="0 0 340 340"><path d="M170,142.78s-17.379-.968-27.182,9.193l4.021,14.749c14.761-10.971,31.707-10.864,46.322,0l4.021-14.749C187.38,141.812,170,142.78,170,142.78Z" style="fill:#7b8bba"/><path d="M37.64,169.991H15.506A5.506,5.506,0,0,1,10,164.485V156.62a5.506,5.506,0,0,1,5.506-5.506H37.64Z" style="fill:#7b8bba"/><path d="M154.012,170a62.67,62.67,0,0,1-62.671,62.67c-82.96-2.867-82.939-122.486,0-125.34A62.67,62.67,0,0,1,154.012,170Z" style="fill:#bac9e8"/><path d="M302.36,169.991h22.134A5.506,5.506,0,0,0,330,164.485V156.62a5.506,5.506,0,0,0-5.506-5.506H302.36Z" style="fill:#7b8bba"/><path d="M185.988,170a62.67,62.67,0,0,0,62.671,62.67c82.96-2.867,82.939-122.486,0-125.34A62.67,62.67,0,0,0,185.988,170Z" style="fill:#bac9e8"/><path d="M138.571,170a47.23,47.23,0,0,1-47.23,47.23c-62.521-2.161-62.5-92.308,0-94.46A47.23,47.23,0,0,1,138.571,170Z" style="fill:#fff"/><path d="M201.429,170a47.23,47.23,0,0,0,47.23,47.23c62.521-2.161,62.505-92.308,0-94.46A47.23,47.23,0,0,0,201.429,170Z" style="fill:#fff"/><path d="M87.857,134.6a37.864,37.864,0,0,0-32.272,35.739,4.865,4.865,0,0,0,8.3,3.649L95.33,142.544a4.866,4.866,0,0,0-3.65-8.3Q89.787,134.326,87.857,134.6Z" style="fill:#7b8bba"/><path d="M244.8,134.6a37.865,37.865,0,0,0-32.272,35.739,4.865,4.865,0,0,0,8.3,3.649l31.445-31.444a4.866,4.866,0,0,0-3.65-8.3Q246.73,134.326,244.8,134.6Z" style="fill:#7b8bba"/><path d="M15.505,173.491h9.759c7.888,88.267,135.746,80.031,132.024-8.689a29.943,29.943,0,0,1,25.424,0c-3.708,88.775,124.173,96.9,132.024,8.69H324.5a9.016,9.016,0,0,0,9-9.006V156.62a9.016,9.016,0,0,0-9-9.006H310.923c-19.567-55.314-98.171-58.67-122.365-5.248a55.219,55.219,0,0,0-37.116,0C127.227,88.914,48.625,92.331,29.077,147.614H15.505A9.016,9.016,0,0,0,6.5,156.62v7.865A9.016,9.016,0,0,0,15.505,173.491ZM324.5,154.614a2.008,2.008,0,0,1,2,2.006v7.865a2.008,2.008,0,0,1-2,2.006h-9.761A65.817,65.817,0,0,0,313,154.614ZM248.659,110.83A59.238,59.238,0,0,1,307.829,170c-2.78,78.313-115.573,78.293-118.341,0A59.238,59.238,0,0,1,248.659,110.83Zm-78.854,35.445a43.859,43.859,0,0,1,16.164,2.593,65.448,65.448,0,0,0-2.3,8.757,35.922,35.922,0,0,0-27.332,0,65.462,65.462,0,0,0-2.3-8.758A43.461,43.461,0,0,1,169.805,146.275ZM91.341,110.83A59.238,59.238,0,0,1,150.512,170c-2.78,78.313-115.573,78.293-118.341,0A59.237,59.237,0,0,1,91.341,110.83ZM13.5,156.62a2.008,2.008,0,0,1,2.005-2.006H27a65.817,65.817,0,0,0-1.73,11.877H15.505a2.008,2.008,0,0,1-2.005-2.006Z" style="fill:#3f3f70"/><path d="M91.341,220.729A50.787,50.787,0,0,0,142.071,170c-2.383-67.142-99.087-67.124-101.46,0A50.787,50.787,0,0,0,91.341,220.729Zm0-94.459A43.779,43.779,0,0,1,135.071,170c-2.055,57.877-85.414,57.862-87.46,0A43.78,43.78,0,0,1,91.341,126.27Z" style="fill:#3f3f70"/><path d="M248.659,220.729A50.787,50.787,0,0,0,299.389,170c-2.383-67.142-99.087-67.125-101.46,0A50.787,50.787,0,0,0,248.659,220.729Zm0-94.459A43.78,43.78,0,0,1,292.389,170c-2.055,57.877-85.414,57.862-87.46,0A43.779,43.779,0,0,1,248.659,126.27Z" style="fill:#3f3f70"/></svg>