<svg id="icons" xmlns="http://www.w3.org/2000/svg" viewBox="0 0 340 340"><path d="M150.538,10.281s25.768,20.475,54.192,3.457L201.9,73.276l-62.747-3.15S142.539,24.811,150.538,10.281Z" style="fill:#7b8bba"/><path d="M87.246,297.469s83.386,34.521,169.2,4.133L214.877,187.585l-92.624,12.4S87,254.925,87.246,297.469Z" style="fill:#7b8bba"/><path d="M214.032,19.251l19.082,7.22A15.822,15.822,0,0,1,251.245,40.56c2.157,21.617,10.72,90.542,34.473,120.772,0,0-7.22,8.519-21.661,10.706,0,0-24.754-38.618-37.647-94.413,0,0-7.4,19.1-13.656,37.326a21.961,21.961,0,0,0-1.176,6.2l-.6,14.208a21.819,21.819,0,0,0,3.353,12.586c11.927,18.887,50.383,81.82,74.146,144.418a12.594,12.594,0,0,1-3.485,13.936,54.346,54.346,0,0,1-25.223,12.152,8.78,8.78,0,0,1-10.4-6.793c-5.1-22.8-18.955-84.565-48.9-111.6,0,0-2.277-1.979-3.448-2.88l-14.7-47.962,1.266-84.345Z" style="fill:#bac9e8"/><path d="M204.73,13.738l10.953,2.932c9.261,35.5,10.056,19.8-10.953,26.906a63.793,63.793,0,0,1,9.445,9.768,1.884,1.884,0,0,1-.257,2.556,180.691,180.691,0,0,1-32.046,21.725l-6.429-11.191A173.776,173.776,0,0,0,204.73,13.738Z" style="fill:#fff"/><path d="M211.578,121.152a21.884,21.884,0,0,1,.711-4.667H182.806l-.4,26.824h29.715C209.965,138.248,211.587,126.563,211.578,121.152Z" style="fill:#fff"/><path d="M141.236,14.343s-15,4.52-28.889,5.282A13.517,13.517,0,0,0,99.791,30.408c-4.527,22.383-17.734,74.608-49.069,120.286L71.9,166.07s37.714-57.151,48.738-101.248c0,0,10.458,27.714,10.774,70.483a44.863,44.863,0,0,1-2.994,16.6c-3.217,8.264-9.731,21.284-22.575,36.8,0,0-47.187,61.932-54.445,106.671a10.027,10.027,0,0,0,3.813,9.613c4.532,3.426,12.911,7.952,26.976,9.857a6.816,6.816,0,0,0,7.545-5.2c3.922-16.728,16.778-65.233,38.971-89.861a2.067,2.067,0,0,1,3.554,1.807c-3.46,16.861-12,61.771-12.258,95.715a8.239,8.239,0,0,0,6.463,8.122,205.319,205.319,0,0,0,86.056-.49,8.264,8.264,0,0,0,6.471-8.491c-.939-18.134-4.759-69.408-19.28-120.021a110.384,110.384,0,0,1-4.25-30.447V84.539S154.581,52.057,141.236,14.343Z" style="fill:#bac9e8"/><path d="M141.236,14.343s-15,4.52-28.889,5.282A13.517,13.517,0,0,0,99.791,30.408c-4.527,22.383-17.734,74.608-49.069,120.286L71.9,166.07s37.714-57.151,48.738-101.248c0,0,10.458,27.714,10.774,70.483a44.863,44.863,0,0,1-2.994,16.6c-3.217,8.264-9.731,21.284-22.575,36.8,0,0-47.187,61.932-54.445,106.671a10.027,10.027,0,0,0,3.813,9.613c4.532,3.426,12.911,7.952,26.976,9.857a6.816,6.816,0,0,0,7.545-5.2c3.922-16.728,16.778-65.233,38.971-89.861a2.067,2.067,0,0,1,3.554,1.807c-3.46,16.861-12,61.771-12.258,95.715a8.239,8.239,0,0,0,6.463,8.122,205.319,205.319,0,0,0,86.056-.49,8.264,8.264,0,0,0,6.471-8.491c-.939-18.134-4.759-69.408-19.28-120.021a110.384,110.384,0,0,1-4.25-30.447V84.539S154.581,52.057,141.236,14.343Z" style="fill:#bac9e8"/><polygon points="182.806 116.485 182.404 143.309 202.187 143.309 202.187 116.485 182.806 116.485" style="fill:#cbcde5"/><path d="M130.6,116.485c.459,8.236,1.507,18.093.164,26.824h64.69V116.485Z" style="fill:#fff"/><path d="M199.709,196.423a110.384,110.384,0,0,1-4.25-30.447V84.539s-24.71-19.638-41.979-46.1c-.152,28.971-.052,69.592,1.356,94.644,5.89,46.563,24.253,100.59,14.712,196.643a204.419,204.419,0,0,0,42.966-4.789,8.268,8.268,0,0,0,6.475-8.494C218.049,298.3,214.229,247.032,199.709,196.423Z" style="fill:#bac9e8"/><path d="M150.538,10.281l-8.787,1.366a8.88,8.88,0,0,0-6.894,5.5c-1.91,4.812-5,12.955-8.2,22.8a1.874,1.874,0,0,0,1.908,2.454,49.349,49.349,0,0,1,16.776,1.5,37.753,37.753,0,0,0-6.754,14.774,1.875,1.875,0,0,0,1.555,2.283c7.347,1.047,33.714,5.889,55.315,23.587a78.68,78.68,0,0,0-21.543-29.511C160.48,43.587,151.828,28.636,150.538,10.281Z" style="fill:#fff"/><path d="M48.666,153.526,69.844,168.9a3.493,3.493,0,0,0,2.682.612c4.981-2.711,32.8-48.706,48.156-92.31,2.768,11.088,11.736,54.355,4.475,73.427-3.078,7.946-9.547,20.818-22.1,35.946-1.948,2.558-47.8,63.143-55.113,108.228-2.213,14.032,16.1,20.7,33.765,23.5a10.3,10.3,0,0,0,11.431-7.873c.423-1.807.962-4.021,1.607-6.544,5.406,1.788,12.829,4,21.924,6.145-.094,2.46-.154,4.881-.173,7.245a11.8,11.8,0,0,0,9.22,11.563,202.145,202.145,0,0,0,42.561,4.366,208.111,208.111,0,0,0,44.992-4.858c6.568-1.392,10.142-7.837,9.094-14.259A221.349,221.349,0,0,0,245.2,308.87c.833,8.3,6.614,14.594,15.27,13.011,17.5-3.964,37.207-14.654,31.276-30.758-25.7-68.685-64.056-125.309-76.768-150.512-1.131-3.679.122-15.453.1-19.332a19.15,19.15,0,0,1,.988-5.191c3.309-9.637,6.966-19.593,9.655-26.777,13.375,49.908,35.158,84.251,35.392,84.616a3.5,3.5,0,0,0,3.471,1.572c15.558-2.357,23.476-11.515,23.805-11.9a3.5,3.5,0,0,0,.082-4.425c-23.248-29.588-31.7-98.532-33.741-118.957-.8-10.365-10.888-18.644-21.2-17.327l-14.682-5.555c-2.769-4.7-8.341-5.734-13.213-6.974a3.527,3.527,0,0,0-2.236.159c-25.492,15.767-49.879-2.055-50.689-2.98A3.582,3.582,0,0,0,150,6.822l-8.787,1.367a12.422,12.422,0,0,0-7.819,4.6A126.061,126.061,0,0,1,112.16,16.13a17.038,17.038,0,0,0-15.8,13.589c-4.162,20.578-17.223,73.367-48.524,119A3.5,3.5,0,0,0,48.666,153.526ZM285.2,293.607a9.142,9.142,0,0,1-2.522,10.063,51.014,51.014,0,0,1-23.618,11.354,5.294,5.294,0,0,1-6.266-4.072c-3.478-16.847-13.519-59.345-31.617-90.041a3.5,3.5,0,0,0-6.03,3.555c14.6,24.764,23.844,57.675,28.507,77.563a214.515,214.515,0,0,1-21.734,5.039c-1.651-23.595-6.253-67.713-18.847-111.611-4.74-14.687-4.205-33.232-4.114-48.649h10.793C222.607,168.524,260.231,227.984,285.2,293.607ZM207.483,137.368c.047.816.125,1.631.217,2.44h-8.741V119.985h9.186C208.039,122.341,207.382,135.133,207.483,137.368Zm14.889-92.442a3.525,3.525,0,0,0,3.588-4.433l-4.049-14.519,7.7,2.915V40.546a3.5,3.5,0,1,0,7,0V29.831a12.391,12.391,0,0,1,11.148,11.077c2.03,20.349,10.332,87.815,33.3,120.043a35.051,35.051,0,0,1-15.27,7.218c-5.091-8.524-24.983-43.77-35.973-91.332a3.5,3.5,0,0,0-6.674-.476c-.073.189-7.268,18.789-13.416,36.624H198.959V84.539c-.021-.2-.03-.407-.062-.613-.371-1.357-1.289-3.744-4.5-9.529a164.012,164.012,0,0,0,23.138-17.016,3.5,3.5,0,0,0,.55-4.606,56.961,56.961,0,0,0-6.277-7.439A59.223,59.223,0,0,1,222.372,44.926Zm-15.4-26.965c2.921.628,5.95,1.568,6.784,4.822l4.206,15.084c-3.843.125-21.766.73-15.429,8.432a61.479,61.479,0,0,1,7.917,7.966,161.268,161.268,0,0,1-19.774,14.209,84.448,84.448,0,0,0-6.239-8.012A179.865,179.865,0,0,0,206.97,17.961Zm-25.834,5.981a47.711,47.711,0,0,0,17.294-3.235,175.323,175.323,0,0,1-18.936,34.626C167,45.323,157.7,32.216,154.9,17.1A56.878,56.878,0,0,0,181.136,23.942Zm-77.915,7.165a10.024,10.024,0,0,1,8.446-7.9l.657,11.991a3.5,3.5,0,0,0,6.99-.383l-.671-12.237c3.868-.461,7.65-1.115,11.053-1.808-2.088,5.5-4.666,12.671-7.248,20.85a3.5,3.5,0,0,0,3.843,4.517,52.676,52.676,0,0,1,13.347.09,45.968,45.968,0,0,0-4.918,13.838,3.524,3.524,0,0,0,3.1,4.123,119.7,119.7,0,0,1,38.214,11.891,3.5,3.5,0,1,0,3.19-6.231,128.35,128.35,0,0,0-36.789-12.09,34.135,34.135,0,0,1,5.57-11.595,3.525,3.525,0,0,0-1.662-5.619,50.419,50.419,0,0,0-15.625-1.763c2.821-8.515,5.507-15.609,7.387-20.346a5.406,5.406,0,0,1,4.179-3.328l5.066-.788c2.053,16.3,10.813,32.244,24.3,43.384a76.547,76.547,0,0,1,20.3,27.507v80.767a113.9,113.9,0,0,0,4.385,31.412c14.289,49.8,18.152,99.975,19.149,119.234a4.754,4.754,0,0,1-3.737,4.9,202.581,202.581,0,0,1-84.534.49,4.768,4.768,0,0,1-3.723-4.673c.319-41.312,13.207-99.946,13.6-101.718.219-.862,3.867-15.079,7.381-21.673,2.1-4.065-3.944-7.333-6.178-3.292-4,7.514-7.841,22.661-8,23.3-.172.666-10.705,48.379-13.267,88.972-8.52-2.046-15.444-4.134-20.48-5.813,4.286-15.514,11.556-37.9,21.843-56.375a3.5,3.5,0,1,0-6.116-3.405c-14.322,25.721-22.921,58.573-25.954,71.5a3.3,3.3,0,0,1-3.674,2.534c-13.278-1.8-21.1-5.984-25.326-9.177a6.512,6.512,0,0,1-2.471-6.267C61.8,253.132,106.98,193,108.586,190.873c15.575-19.79,20.709-29.6,25.059-44.065h9.249a3.5,3.5,0,0,0,0-7h-8.153a174.132,174.132,0,0,0-.372-19.823h16.386c.409,12.091.786,22.322,3.524,33.811,5.558,23.992,17.991,87.331,13.4,157.139-.262,4.46,6.592,5.15,6.985.459,5.2-87.3-10.419-133.293-16.338-178.509-.731-13.03-1.182-31.63-1.339-55.284-.085-4.528-6.949-4.611-7,.047.089,13.421.273,25.23.549,35.337h-16.71c-2.709-29.975-9.562-48.458-9.917-49.4a3.52,3.52,0,0,0-6.67.388c-9.308,37.235-38.407,84.672-46.283,97.088L55.517,149.85C86.171,103.831,99.059,51.683,103.221,31.107Z" style="fill:#3f3f70"/><path d="M167.818,103.073c6.573-.728,2.779-10.041-2.481-5.97A3.523,3.523,0,0,0,167.818,103.073Z" style="fill:#3f3f70"/><path d="M179.167,100.913c2.4,5,9.423.333,5.71-3.81C182.246,94.5,177.69,97.438,179.167,100.913Z" style="fill:#3f3f70"/><path d="M164.587,119.283c1.372,3.5,6.79,2.408,6.731-1.34C171.075,112.465,162.68,114.092,164.587,119.283Z" style="fill:#3f3f70"/><path d="M179.177,119.283c2.382,5.01,9.416.325,5.7-3.81C182.251,112.861,177.671,115.819,179.177,119.283Z" style="fill:#3f3f70"/><path d="M165.877,139.253c3.428,2.331,7.376-2.478,4.41-5.38C166.607,130.4,161.753,136.341,165.877,139.253Z" style="fill:#3f3f70"/><path d="M180.457,139.253c3.872,2.484,7.672-3.189,3.89-5.82C180.477,130.947,176.686,136.634,180.457,139.253Z" style="fill:#3f3f70"/></svg>