<svg id="icons" xmlns="http://www.w3.org/2000/svg" viewBox="0 0 340 340"><path d="M14.478,122.579s-10.59,31.7.843,74.769c5.857,26.189,6.877,44.924,7.725,81.088H56.764l4.182-55.545c1.039-12.559,12.261-24.333,26.116-18.918l6.4-6.4Z" style="fill:#7b8bba"/><path d="M263.859,212.775c-3.827-2.264-16.661,1.66-27.82,14.14-5.729,6.053-26.482,26.928-40.2,26.928l44.277,13.8S266.426,251.6,263.859,212.775Z" style="fill:#7b8bba"/><path d="M43.509,71.14V81.8s1.159.221,3.317.556a305.158,305.158,0,0,0,76.739,1.359,38.9,38.9,0,0,0,11.3-3.613,11.034,11.034,0,0,0,5.783-9.8A8.537,8.537,0,0,0,129.7,61.919C118.69,64.526,97.967,66.966,52.111,63.4A7.791,7.791,0,0,0,43.509,71.14Z" style="fill:#bac9e8"/><path d="M84.242,75.264a10.193,10.193,0,0,0,10.3,10.206q4.18-.052,8.581-.226c13.468-.949,12.731-20.5-.781-20.4-2.522.1-5.227.173-8.086.222A10.2,10.2,0,0,0,84.242,75.264Z" style="fill:#fff"/><path d="M43.509,81.8s20.9,17.038,34.962,34.774a26.819,26.819,0,0,1,5.771,16.667v20.38a35.45,35.45,0,0,0,12.866,27.34c21.856,18.047,67.414,53.935,103.921,71.2,16.361,7.737,35.983,5.169,49.306-7.08,7.689-7.068,13.765-17.385,13.524-32.305l55.358,33.334a22.645,22.645,0,0,1,9.931,12.523,14.892,14.892,0,0,1-14.091,19.8H207.105a51.444,51.444,0,0,1-29.815-9.518C146.458,247,69.7,192.132,23.992,156.984-.206,137.06,17.815,103.144,43.509,81.8Z" style="fill:#bac9e8"/><path d="M331.493,255.017a25.578,25.578,0,0,0-10.47-11.906c-.344-.183-55.292-33.338-55.6-33.459l0-.007c-1.91-.844-10.573-3.892-25.991,9.163-9.486,8.364-20.166,22.427-37.171,30.061-35.644-16.923-79.764-51.481-102.926-70.607a31.844,31.844,0,0,1-11.595-24.641v-20.38A30.434,30.434,0,0,0,81.213,114.4c-12.294-15.5-29.386-30.208-34.2-34.244V71.14a4.293,4.293,0,0,1,4.742-4.264c10.767,1.113,21.264,1.588,30.763,1.7a13.713,13.713,0,0,0-.073,13.3c-7.834-.206-14.756-.676-20.4-1.2a3.5,3.5,0,1,0-.65,6.97,318.585,318.585,0,0,0,62.652-.467A42.382,42.382,0,0,0,136.5,83.2c8.215-3.982,10.746-17.056,2.846-22.723C134.04,56.208,128.326,58.9,122.451,60a371.7,371.7,0,0,1-69.98-.086A11.294,11.294,0,0,0,40.009,71.14v9.009c-29.747,25.921-41.621,56.57-28.072,118.1a136.149,136.149,0,0,1,3.426,17.619,515.058,515.058,0,0,1,4.183,62.571,3.5,3.5,0,0,0,3.5,3.5H56.764a3.5,3.5,0,0,0,3.49-3.237l4.182-55.545c.531-10.3,10.691-20.361,20.967-16.059,35.389,25.839,71.092,51.332,89.859,64.675a54.653,54.653,0,0,0,31.843,10.166H315.057C328.767,282.024,337.74,267.192,331.493,255.017ZM103.054,81.74c-4.377-.254-9.776,1.644-13.314-1.692-4.225-3.914-1.191-11.551,4.577-11.486,4.335.351,9.562-1.634,13.078,1.652C111.62,74.052,108.8,81.641,103.054,81.74Zm20.27-14.8c3.918-.136,8.339-3.369,11.824-.866,3.738,2.822,1.827,9.124-1.91,10.926-9.73,4.3-10.658,3.036-18.165,4.006a13.75,13.75,0,0,0-.767-13.308C119.91,67.319,123.219,66.956,123.324,66.945ZM238.581,229.321c6.428-7.373,17.235-13.97,21.725-13.563-.314,24.5-25.6,41.886-48.8,36.286C222.65,245.48,233.683,234.5,238.581,229.321ZM68.646,202.849a26.024,26.024,0,0,0-11.19,19.779l-3.939,52.308H26.532a518.148,518.148,0,0,0-4.226-59.96,143.472,143.472,0,0,0-3.6-18.526,152.085,152.085,0,0,1-5-45.886,32.806,32.806,0,0,0,8.158,9.195c15.311,11.773,34.105,25.759,53.492,39.978A21.99,21.99,0,0,0,68.646,202.849Zm255.78,67.223a11.334,11.334,0,0,1-9.369,4.864H207.105a47.689,47.689,0,0,1-27.787-8.871C148.459,244.123,71.758,189.3,26.125,154.21,4.477,136.66,21.587,105.525,43.5,86.356c5.687,4.838,21.2,18.482,32.232,32.393a23.4,23.4,0,0,1,5.014,14.492C80.827,152.6,78.073,169.8,94.88,183.66c23.765,19.586,69.038,55.13,105.8,72.179,28.008,13.387,64.16-5.81,66.443-37.016l50.293,30.285C324.284,253.223,329.537,262.818,324.426,270.072Z" style="fill:#3f3f70"/></svg>