<svg id="icons" xmlns="http://www.w3.org/2000/svg" viewBox="0 0 340 340"><path d="M33.562,75.41s88.877-21.082,257.123-8.681l-9.921,13.642S91.849,127.083,33.562,75.41Z" style="fill:#7b8bba"/><path d="M290.685,66.729,164.129,83.577a8.025,8.025,0,0,0-6.966,7.955L33.562,75.41c.291,8.257,3.32,23.21-.527,30.912a31.768,31.768,0,0,0-1.953,7.533s1.968,48.58-12.222,67.531c-6.156,8.179,1.62,13.524-2.567,21.574l-4.933,9.865A12.888,12.888,0,0,0,10,218.589v34.824a2.665,2.665,0,0,0,4.44,1.988l13.9-12.414A19.056,19.056,0,0,1,39.571,238.2l4.924-.379a19.047,19.047,0,0,0,8.809-2.949A19.078,19.078,0,0,1,68.1,232.412a94.715,94.715,0,0,1,42.611,23,10.919,10.919,0,0,0,10.525,2.617c4.613-.794,8.007-4.805,12.7-4.94,6.992-.357,15.008,1.407,18.732-6.519,1.651-3.561,4.215-7.82,7.805-10.354l10.748-.414s3.493,6.781,6.568,14.258a10.443,10.443,0,0,0,12.753,6.047,185.549,185.549,0,0,1,25.43-6.013c4.944-1.115,9.561,1.468,14.459,1.375l47.905-.675a47.033,47.033,0,0,0,11.119-1.382c5.594-1.448,16.776-1.165,21.642,21.512a1.443,1.443,0,0,0,2.812.063,131.37,131.37,0,0,0,3.687-26.849,4.564,4.564,0,0,1,8.676-1.814,1.443,1.443,0,0,0,2.7-.419,66.443,66.443,0,0,0,.571-19.212,9.379,9.379,0,0,0-7.153-7.97c-4.861-1.079-11.119-3.819-11.884-9.548-.735-3.837,2.16-7.18,4.513-9.859a11.079,11.079,0,0,0,2-10.435c-1.5-4.677-3.883-11.582-6.93-18.564a56.849,56.849,0,0,1-5.693-20.174,47.13,47.13,0,0,0-4.211-16.529,56.008,56.008,0,0,1-4.13-12.586A252.237,252.237,0,0,1,290.685,66.729Z" style="fill:#bac9e8"/><path d="M120.661,86.771l-14.083-1.837v34.539a7.075,7.075,0,0,0,4.39,6.546L120.661,130Z" style="fill:#bac9e8"/><path d="M218.111,130l8.939-3.851a7.073,7.073,0,0,0,4.27-6.8l-1.867-44.469-14.336,1.908Z" style="fill:#bac9e8"/><path d="M34.759,100.11c-.756,5.159-2.969,7.877-3.677,13.745a232.143,232.143,0,0,1-.77,26.423c58.014,12.869,54.715-32.813,54.715-32.813Z" style="fill:#7b8bba"/><path d="M300.189,129.614c-4.789-10.841-5.3-18.619-7.406-31.953l-46.452,9.8s-5.626,57.579,55.462,26.055A40.535,40.535,0,0,0,300.189,129.614Z" style="fill:#7b8bba"/><path d="M312,208.907c-3.5-5.105-.656-9.649,3.018-13.591a11.047,11.047,0,0,0,2.014-10.4c-1.5-4.678-3.887-11.6-6.941-18.6-33.047,9.985-13.2-15.561-61.748.663a20.468,20.468,0,0,0-12.13,11.5c-3.525,8.465-6.84,21.214,1.236,27.873a14.474,14.474,0,0,0,13.1,2.549l12.882-3.6a21.345,21.345,0,0,1,17.173,2.406C287.35,211.985,298.7,216.165,312,208.907Z" style="fill:#fff"/><path d="M102.381,173.77c-9.789-2.981-25.271-5.372-46.922-2.111a14.509,14.509,0,0,0-7.942,3.8c-5.865,5.408-5.836,15.733-.282,21.59,5.977,6.738,17.839,18.207,31.826,21.612,8.614,2.264,44.034,12.169,40.3-23.89A24.07,24.07,0,0,0,102.381,173.77Z" style="fill:#fff"/><path d="M10,262.865a3.5,3.5,0,0,0,3.5-3.5c.33-1.839-.914-45.139.991-44.974,3.215-6.883,8.887-14.371,5.822-22.378a9.315,9.315,0,0,1,1.349-8.529c6.967-9.3,10.253-24.9,11.772-39C62.466,150.536,86.5,140,88.478,111.411l14.6,1.777v6.285a10.538,10.538,0,0,0,6.563,9.784l9.693,3.977A3.524,3.524,0,0,0,124.161,130V116.707l18.124,2.129a3.5,3.5,0,1,0,.817-6.952l-18.941-2.225v-18.9l29.572,3.858,3.2,139.949a28.834,28.834,0,0,0-7.733,11.525,96.7,96.7,0,0,0-.341,19.5,3.5,3.5,0,1,0,6.974-.6,92.391,92.391,0,0,1,.237-17.418,23.612,23.612,0,0,1,5.649-7.905l7.381-.284c1.241,2.519,3.446,7.13,5.447,12a13.907,13.907,0,0,0,17.045,8.063,183.289,183.289,0,0,1,24.934-5.895,16.1,16.1,0,0,1,7.057.475,3.5,3.5,0,0,0,4.346-2.37c2-12.13-35.987.566-38.421,1.107a6.92,6.92,0,0,1-8.486-4.042c-2.059-5.006-4.269-9.64-5.565-12.273,4.633-5.364,15.508-21.906,13.938-57.758l.146-57.8,24.328-4.026.75,13.332a3.524,3.524,0,0,0,4.879,3.017c6.776-3.208,15.48-4.53,15.321-14.007l-.259-6.184c8.338-1.028,46.306-9.294,55.272-11.158,1.649,10.3,2.982,20.688,7.518,29.974-20.687,9.7-38.542,13.006-45.556-6.573-1.521-4.334-8.026-2.178-6.64,2.216,8.619,24.948,33.186,21.464,54.491,11.013,1.742,8.508,1.842,17.347,5.645,25.55-17.818,5.017-16.706-7.706-33-6.1a116.876,116.876,0,0,0-25.09,5.732,23.874,23.874,0,0,0-9.146,5.806c-3.172,3.306,1.721,8.148,5,4.9a16.823,16.823,0,0,1,6.449-4.1,109.649,109.649,0,0,1,23.565-5.388,15.427,15.427,0,0,1,10.9,2.923,22.231,22.231,0,0,0,14.7,4.347,49.954,49.954,0,0,0,12.68-2.595c2.79-1.181,2.578-4.074,1.2-6.372a54.258,54.258,0,0,1-4.687-17.786,49.912,49.912,0,0,0-4.5-17.307c-3.058-6.277-4.294-13.528-5.537-20.6a246.227,246.227,0,0,1-3.627-40.785,3.881,3.881,0,0,0-.386-1.57,3.453,3.453,0,0,0-2.593-1.874C124.766,50.857,33.4,71.827,32.754,72.005a3.565,3.565,0,0,0-2.682,3.679c.21,7.549,3.211,22.347-.279,29.317-5.641,10.562,3,47.691-13.735,74.288a16.313,16.313,0,0,0-2.386,14.938,9.324,9.324,0,0,1-.51,7.167C11.5,205.285,5.926,213.877,6.5,218.589v40.776A3.5,3.5,0,0,0,10,262.865ZM117.161,124.777l-4.865-2a3.563,3.563,0,0,1-2.219-3.308V88.92l7.084.924Zm53.872-7.923c-4.2.731-3.652,6.93.568,6.954a3.644,3.644,0,0,0,.575-.047l10.359-1.715c0,.165-.151,56.72-.138,56.87,1.562,35.3-9.646,50.11-12.677,53.441l-5.832.225L160.664,91.525a4.538,4.538,0,0,1,3.927-4.478l47.244-6.29,1.637,29.075Zm54.632,6.077-4.341,1.87-2.53-44.97,7.323-.975c.008.2,1.305,31.083,1.312,31.251l.394,9.39A3.594,3.594,0,0,1,225.665,122.931ZM288.919,94.9c-8.425,1.74-46.968,10.139-54.657,11.069l-1.178-28.041,54.139-7.207C287.385,79.4,288.056,87.618,288.919,94.9ZM254.536,68.011c-9.241,1.232-30.9,4.113-39.882,5.31l-50.987,6.787a11.566,11.566,0,0,0-9.32,7.527L56.569,74.882C88.876,70.075,155.953,63.152,254.536,68.011Zm-151.459,20v18.129c-11.685-1.142-52.231-7.206-64.52-9.007.209-2.405-1.029-15.054-1.17-17.69Zm-68.486,26.04c.475-3.862,1.9-6.557,2.9-10l44.013,6.44c-1.149,23.146-20.174,32.838-47.443,27A232.263,232.263,0,0,0,34.591,114.047Z" style="fill:#3f3f70"/><path d="M287.286,253.469c12.684-4,18.271,4.464,21.429,24.156a3.513,3.513,0,0,0,6.78.641,127.829,127.829,0,0,0,5.6-34.021.992.992,0,0,1,.836-.994.919.919,0,0,1,1.127.483,40.551,40.551,0,0,1,1.792,3.744c1.109,3.014,5.862,2.744,6.607-.413a69.986,69.986,0,0,0,1.566-24.782,12.936,12.936,0,0,0-9.847-10.971c-4.812-.844-12.456-4.964-7.862-10.854,4.434-4.711,7.163-10.091,5.057-16.609-.451-2.4-2.21-4.8-4.959-3.887a3.5,3.5,0,0,0-2.227,4.42c1.219,2.9,1.278,6.217-.861,8.7-3.488,3.782-6.363,8.185-5.135,13.388,1.214,5.736,6.2,9.768,14.417,11.659a5.91,5.91,0,0,1,4.473,5.034,60.465,60.465,0,0,1,.019,14.052c-4.959-2.957-12.057.92-12,6.813a126.072,126.072,0,0,1-1.89,18.012c-4.66-13.377-14.269-19.31-26.179-15.46C281.516,247.486,282.746,254.226,287.286,253.469Z" style="fill:#3f3f70"/><path d="M108.289,257.941c5.961,6.134,15.837,4.149,21.891-.039a7.1,7.1,0,0,1,3.825-1.314l4.524-.093c4.578-.15,4.478-7.064-.144-7l-4.525.093c-5.306-.071-8.135,3.785-13.578,5.071a7.463,7.463,0,0,1-7.156-1.78c-2.114-2.057-5.124-5.448-7.933-2.4C102.62,253.638,106.153,255.943,108.289,257.941Z" style="fill:#3f3f70"/><path d="M19.89,245.842c-3.376,3.118,1.176,8.231,4.662,5.222,4.22-3.717,9.2-9.29,15.288-9.372l4.924-.379c4.3-.242,8.233-2.044,11.837-4.293a3.5,3.5,0,0,0,1.559-4.7c-1.469-2.852-4.643-2.015-6.742-.4a15.6,15.6,0,0,1-7.191,2.407C31.666,234.748,28.737,237.724,19.89,245.842Z" style="fill:#3f3f70"/><path d="M118.82,190.286c-4.6.5-3.751,8.44.833,7.971C124.451,197.921,123.585,189.619,118.82,190.286Z" style="fill:#3f3f70"/><path d="M121.482,210.726c1.3-4.411-5.214-6.47-6.677-2.1-3.9,15.162-33.112,7.514-34.666,6.705-5.01-2.3-8.277,4.4-3.138,6.411C87.949,225.354,115.8,229.948,121.482,210.726Z" style="fill:#3f3f70"/><path d="M297.355,216.352c2.8.125,6.654-.273,6.352-4.014a3.493,3.493,0,0,0-3.845-3.117,27.371,27.371,0,0,1-17.383-4.471c-11.069-7.14-21.476-2.3-32.872.779a10.936,10.936,0,0,1-9.93-1.879,9.593,9.593,0,0,1-3.161-4.881,3.5,3.5,0,0,0-2.971-2.5,28.217,28.217,0,0,0-9.905,1.14,3.5,3.5,0,1,0,1.859,6.748,26.551,26.551,0,0,1,5.238-.913c3.5,7.693,12.529,11.4,20.754,9.024l12.882-3.6a17.847,17.847,0,0,1,14.356,1.991A35.077,35.077,0,0,0,297.355,216.352Z" style="fill:#3f3f70"/><path d="M35.138,192.4a3.505,3.505,0,0,0,3.772,3.2,166.457,166.457,0,0,1,28.5.786,3.5,3.5,0,0,0,.776-6.957,183.392,183.392,0,0,0-21.445-1.108c-1.19-6.135,2.859-12.425,9.241-13.206,21.465-3.236,36.526-.7,45.38,2a20.471,20.471,0,0,1,7.334,4.006,3.512,3.512,0,0,0,1.5.748,41.694,41.694,0,0,0,12.09.642,3.5,3.5,0,0,0-.72-6.963,35.145,35.145,0,0,1-9.073-.365c-12-8.569-32.151-10.283-57.554-6.988-9.8,1.221-16.594,10.745-15.238,20.342C37.078,188.42,35.021,189.756,35.138,192.4Z" style="fill:#3f3f70"/><path d="M42.685,201.92c-4.559.541-3.884,7.34.7,6.965-.018-.166,20.737-1.619,41.643,2.993a3.5,3.5,0,0,0,.753-6.919A150.108,150.108,0,0,0,42.685,201.92Z" style="fill:#3f3f70"/><path d="M57.319,271.175c6.18,3.61,9.3-10.778,9.112-14.919v-5.828c-.377-6.175,4.256-11.813,7.621-16.543a3.5,3.5,0,0,0-5.731-4.019l-4.364,6.221a24.859,24.859,0,0,0-4.526,14.341v5.828a17.91,17.91,0,0,1-3.02,9.971A3.506,3.506,0,0,0,57.319,271.175Z" style="fill:#3f3f70"/><path d="M87.774,237.972c2.787-3.649-2.574-7.905-5.494-4.339-3.22,3.962-7.25,8.406-6.72,13.917a78.387,78.387,0,0,1-.2,11.413c-.455,4.561,6.336,5.382,6.953.8a84.974,84.974,0,0,0,.245-12.526A6.76,6.76,0,0,1,84,242.753Z" style="fill:#3f3f70"/><path d="M96.237,238.171a17.4,17.4,0,0,0-7.584,12.581c-.431,4.57,6.361,5.349,6.957.774a10.324,10.324,0,0,1,4.259-7.37C103.731,241.7,100.206,235.877,96.237,238.171Z" style="fill:#3f3f70"/><path d="M225.724,190.248c3.964-.456,14.909-1.455,18.656-2.293l12.032-2.513a3.5,3.5,0,0,0-1.431-6.852L242.949,181.1c-2.989.693-14.386,1.766-17.608,2.167C221.012,183.8,221.378,190.208,225.724,190.248Z" style="fill:#3f3f70"/><path d="M239.381,241.9c-.3.447-2.932,4.65-3.272,14.557-.08,4.594,6.757,4.841,7,.24.261-7.62,2.032-10.792,2.13-10.962C247.632,241.87,241.979,238.148,239.381,241.9Z" style="fill:#3f3f70"/><path d="M260.873,244.487c.766-4.528-5.961-5.8-6.883-1.28-.724,5.345-3.8,13.615-.715,18.672,1.172,1.763.486,8.792.657,10.833a3.5,3.5,0,1,0,7,0v-8.129a12.951,12.951,0,0,0-1.438-5.915,5.92,5.92,0,0,1-.555-3.782Z" style="fill:#3f3f70"/><path d="M275.529,239.683a3.5,3.5,0,0,0-4.595,1.839c-.13.3-3.161,7.541-2.326,19.911.394,4.589,7.218,4.12,6.985-.472-.708-10.477,1.725-16.56,1.781-16.7A3.5,3.5,0,0,0,275.529,239.683Z" style="fill:#3f3f70"/><path d="M173.119,99.959c-3.19,3.318,1.647,8.155,4.95,4.95C181.27,101.57,176.455,96.869,173.119,99.959Z" style="fill:#3f3f70"/></svg>