<svg id="icons" xmlns="http://www.w3.org/2000/svg" viewBox="0 0 340 340"><path d="M98.349,84.675S55.663,157.477,15.036,199.8a18,18,0,0,0-1.6,23.085c6.257,8.574,15.638,19.059,26.892,24.19C40.325,247.079,100.5,141.164,98.349,84.675Z" style="fill:#7b8bba"/><path d="M102.958,65.832S58.988,166.67,29.924,249.95a22.658,22.658,0,0,0,8.152,25.892c11.457,8.216,29.259,18.423,49.164,20.531A9.914,9.914,0,0,0,97.893,289.1l2.447-9.175s32.168-12.718,71.444,5.236v3.855a9.869,9.869,0,0,0,7.761,9.652c11.571,2.522,34.739,6.435,60.271,4.4A17.346,17.346,0,0,0,253.7,277.675s20.947-13.84,41.52-10.473l2.812,4.218a8.064,8.064,0,0,0,10.853,2.46A60.046,60.046,0,0,0,321.506,263.7a31.069,31.069,0,0,0,1.033-41.516l-7.866-9.223a66.586,66.586,0,0,0,7.536-7.359,20.045,20.045,0,0,0-.98-27.617c-17.722-17.3-52.535-56.078-83.985-119.508Z" style="fill:#bac9e8"/><path d="M102.958,47.878s59.849-28.054,134.286-2.619l-4.489,8.23S148.593,70.695,102.958,47.878Z" style="fill:#7b8bba"/><path d="M102.958,47.878s75.185,19.451,134.286-2.619V58.005c-3.721,9.309-65.365,27.323-134.286,7.827Z" style="fill:#fff"/><path d="M319.575,215.061c12.032-9.591,15.793-26.139,4.1-37.835-17.667-17.244-51.874-55.443-82.929-117.835V45.259a3.5,3.5,0,0,0-.483-1.745,3.55,3.55,0,0,0-1.824-1.538,202.539,202.539,0,0,0-96.8-8.4c-26.387,4.677-38.893,9.926-41.5,12.25a3.655,3.655,0,0,0-.685,2.054V65.116c-1.276,2.99-6.817,16.013-14.663,35-14.99,23.852-44.189,68-72.286,97.266a21.486,21.486,0,0,0-1.9,27.572c2.212,3.032,5.744,7.513,8.647,10.693,3.165,3.337,8.212-1.264,5.169-4.721-2.724-2.983-6.062-7.222-8.162-10.1a14.494,14.494,0,0,1,1.3-18.6c18.832-19.62,38.089-45.72,53.357-68.123-14.082,34.923-30.845,77.883-44.3,116.433a26.309,26.309,0,0,0,9.417,29.891C47.817,288.876,66.2,299.407,86.872,301.6a13.353,13.353,0,0,0,14.4-9.858l1.966-7.373c6.685-2.113,33.32-8.9,65.043,4.808A13.676,13.676,0,0,0,178.8,303.824a223.917,223.917,0,0,0,46.473,5.046c4.8,0,9.767-.174,14.82-.577,13.122-.669,22.538-15.195,18.022-27.436,5.726-3.221,20.482-10.433,35.062-8.669l1.944,2.915a11.55,11.55,0,0,0,15.564,3.521,63.328,63.328,0,0,0,13.359-10.771,34.486,34.486,0,0,0,1.158-46.2ZM225.744,45.349c-41.592,11.911-88.862,5.605-110.276,1.607A194.441,194.441,0,0,1,225.744,45.349Zm93.221,217.687a56.32,56.32,0,0,1-11.879,9.584,4.557,4.557,0,0,1-6.14-1.4l-2.734-4.1L273.29,222.176a3.5,3.5,0,1,0-6.121,3.4l21.824,39.356c-14.4-.14-27.732,6.165-33.8,9.534-11.747-24.479-23.355-56.2-34.527-94.389-1.361-4.355-7.934-2.51-6.719,1.965,11.809,40.37,24.13,73.655,36.619,98.931,4.775,8.34-1.35,19.908-11.027,20.347-25.09,2-47.888-1.855-59.246-4.33a6.407,6.407,0,0,1-5.007-6.232v-3.812l2.476-81.158a3.5,3.5,0,1,0-7-.212l-2.322,76.1C139.787,270.1,115.6,273.842,104.9,276.6l24.545-124.56a3.5,3.5,0,0,0-6.867-1.353L96.929,280.868l-2.418,9.066a6.381,6.381,0,0,1-6.9,4.7c-19.151-2.028-36.4-11.938-47.492-19.894a19.271,19.271,0,0,1-6.888-21.9C59.267,178.234,97.764,87,104.986,70a249.67,249.67,0,0,0,32.243,6.349l-2.218,11.257a3.5,3.5,0,1,0,6.867,1.353l2.331-11.826a216.431,216.431,0,0,0,32.982.751,3.5,3.5,0,1,0-.383-6.99,225.362,225.362,0,0,1-70.349-7.739V52.305c16.6,3.709,76.3,14.934,127.285-2.1v7.84c-5.017,2.347-20.185,8.681-43.195,11.606a3.606,3.606,0,0,0-3,4.327c.017.09,1.743,9.142,4.915,23.589,1.079,4.485,7.748,3,6.838-1.5C197.292,86.9,195.871,79.95,195.1,76.09c20.675-3.029,34.616-8.508,40.57-11.212,31.2,61.912,65.355,100.025,83.115,117.358,8.739,9.046,5.1,20.258-3.692,27.429a418.335,418.335,0,0,1-40-59.924c-2.174-4.016-8.275-.9-6.2,3.242a425.646,425.646,0,0,0,43.076,63.94c.041.055,7.866,9.22,7.913,9.278A27.5,27.5,0,0,1,318.965,263.036Z" style="fill:#3f3f70"/><path d="M203.408,114.149c-1.124-4.46-7.787-2.907-6.817,1.592l.275,1.168c1.154,4.474,7.8,2.866,6.812-1.613Z" style="fill:#3f3f70"/></svg>