<svg id="icons" xmlns="http://www.w3.org/2000/svg" viewBox="0 0 340 340"><path d="M166.144,10.862s15.93,19.612,54.157,6.5l2.3,10.122L208.266,50.5,155.05,41.138S148.973,24.9,166.144,10.862Z" style="fill:#7b8bba"/><path d="M166.144,10.862s2.579,23.744,23.018,26.583c0,0,17.427,2.983,31.139-20.083l12.131,4.766s18.329,44.555,23.439,126.309H236.852s-3.691-39.174-23.562-81.47l-10.5,19.587-51.664-4.826-6.994-19.39s-31.044,36.422-40.7,70.77l-19.3-9.083S108.764,43.85,153.363,9.563Z" style="fill:#fff"/><path d="M153.363,9.135l12.781,1.3s-2.712,30.676-2.139,55.151a12.421,12.421,0,0,0,9.878,11.872c10.4,2.467,21.153,2.65,26.459-8.7,5.768-13.172,15.53-36.321,19.959-51.823L232.432,21.7s-17.113,49.608-17.98,86.868c0,0,.217,10.4-5.632,13.431,8.568,4.851,7.805,14.7,8.443,29.579,1.866,23.882,8.906,96.687,27.222,127.845a12.586,12.586,0,0,1-1.676,14.9,67.925,67.925,0,0,1-38.032,20.41c.928,7.144-3.879,13.98-11.233,14.627-13.375,1.288-35.9,1.484-54.288-8.165-7.438-3.8-11.2-11.938-10.546-20.106-3.685-.865-47.032-18.549-36.5-42.829,6.01-15.13,17.164-44.482,23.2-68.372l16.719-55.733a24.037,24.037,0,0,1,10.91-13.853c-1.878-3.609-3.531-7.646-3.121-11.79C140.984,92.375,145.08,38,153.363,9.135Z" style="fill:#bac9e8"/><path d="M82.639,127.192l19.3,9.083a3.5,3.5,0,0,0,4.86-2.22c6.429-22.879,22.847-47.039,32.531-59.964-1.532,15.064-2.476,28.056-2.911,34.618a21.234,21.234,0,0,0,2.151,10.79,27.431,27.431,0,0,0-9.8,14.078c-.041.15-16.729,55.742-16.76,55.881-5.967,23.628-17.007,52.707-23.057,67.938-10.5,24.333,24.913,42.45,36.253,46.6a23.182,23.182,0,0,0,12.419,20.725c13.641,7.16,29.264,9.215,42.7,9.215,4.869,0,9.452-.27,13.549-.665a16.007,16.007,0,0,0,14.446-16.283c.211-18.527-5.092-48.225-5.357-49.051-4.936-26.031-5.221-97.24-5.223-97.945a87.775,87.775,0,0,0-1.451-16.314c-1-4.411-7.7-3.163-6.854,1.424a82.285,82.285,0,0,1,1.305,14.9c.01,2.951.29,72.574,5.348,99.244-.024-.07,5.577,30.16,5.233,47.924a8.984,8.984,0,0,1-8.118,9.133c-11.832,1.139-34.368,1.645-52.326-7.781a16.2,16.2,0,0,1-8.673-14.392c.176-6.883,7.6-61.82,23.072-108.867a3.5,3.5,0,0,0-6.63-2.244c-13.324,39.394-20.784,88.841-22.832,103.675-6.169-2.554-18.364-8.551-27.5-19.035a17.139,17.139,0,0,1-2.854-17.68c12.585-28.707,29.57-89.986,40.016-124.392a20.448,20.448,0,0,1,8.332-11.195c2.057.307,6.384.893,12.507,1.433-1.192,3.48-2.167,8.791-1.6,16.462a3.5,3.5,0,1,0,6.98-.512c-.631-8.59.945-13.322,1.953-15.4,2.951.115,7.968,1.333,8.3-3.072a3.5,3.5,0,0,0-3.329-3.662c-11.429-.545-19.756-1.6-23.217-2.095a15.352,15.352,0,0,1-1.991-8.376c1.022-15.421,4.879-66.7,12.547-95.827l6.424.652c-.707,9.091-2.46,34.4-1.807,54.419A13.109,13.109,0,0,0,170.477,80.7c12,2.817,25.989,5.266,32.249-8.239C208.118,60.222,217.5,38.2,222.561,22.01l5.5,2.161c-3.807,11.656-16.407,52.545-17.108,84.89.032,2.022-.518,7.913-3.247,9.94-3.4.277-6.86.5-10.311.665a3.5,3.5,0,0,0,.325,6.993c3.445-.16,6.9-.387,10.3-.662,6.486,4.466,5,16.122,5.757,26.281,2.227,28.514,9.384,98.2,27.693,129.347a9.208,9.208,0,0,1-1.338,10.868A63.337,63.337,0,0,1,217.706,307.8c-4.216,1.748-1.678,8.166,2.629,6.487a70.385,70.385,0,0,0,24.909-17.02,16.248,16.248,0,0,0,2.258-19.193c-18.064-30.73-25.041-104.475-26.749-126.345-.666-11.794.472-22.465-6.494-29.49,3.639-4.849,3.712-11.953,3.694-13.236.63-26.421,9.692-59.586,14.632-75.837,5.384,16.833,15.677,55.149,19.55,111.767H239.968A275.893,275.893,0,0,0,228.762,96.7c-1.526-4.38-8-2.2-6.657,2.166,9.11,27.994,11.241,49.687,11.262,49.9a3.5,3.5,0,0,0,3.484,3.17h19.02a3.5,3.5,0,0,0,3.493-3.718c-5.324-82.1-22.651-125.135-23.921-127.846a3.449,3.449,0,0,0-1.731-1.5L221.581,14.1a4.015,4.015,0,0,0-.855-.2C183.79,25.71,170.646,10.408,167.8,7.777c-.118-.541-13.38-1.523-14.08-1.7C107.354,35.727,81.8,121.048,80.783,123A3.5,3.5,0,0,0,82.639,127.192ZM195.564,25.408a72.22,72.22,0,0,0,16.016-1.922c-17.754,18.737-33.4,9.645-39.268-3.567A48.086,48.086,0,0,0,195.564,25.408Zm-27.089,2.068c8.208,12.474,23.787,20.17,42.692,6.049-4.893,13.13-10.932,27.226-14.847,36.111-4.306,9.579-16.127,5.843-24.17,4.264a6.085,6.085,0,0,1-4.583-5.712C167.132,54.837,167.789,39.053,168.475,27.476Zm-21.139-8.141c-2.712,12.447-4.878,27.325-6.553,41.545-4.529,5.444-29.49,36.325-39.525,67.336l-12.842-6.042C92.948,108.689,113.671,51.209,147.336,19.335Z" style="fill:#3f3f70"/><path d="M183,119.992c-4.921.2-4.445,7.376.468,7C188.391,126.787,187.915,119.615,183,119.992Z" style="fill:#3f3f70"/></svg>