<svg id="icons" xmlns="http://www.w3.org/2000/svg" viewBox="0 0 340 340"><path d="M228.79,49.027a21.236,21.236,0,0,0-22.741,21.947l42.033,3.086A21.237,21.237,0,0,0,228.79,49.027Z" style="fill:#7b8bba"/><path d="M19.826,220.929c-18.719,7.324-8.1,35.867,10.884,28.965a22.842,22.842,0,0,0,7.216-4.3,64.405,64.405,0,0,1,16.921-10.689c7.992-3.429,18.81-6.774,29.73-6.179C84.577,228.73,54.2,209.791,19.826,220.929Z" style="fill:#bac9e8"/><path d="M19.826,220.929C47,214.581,83.356,223.674,127.89,278.2a35.97,35.97,0,0,0,47.661,6.627l73.228-49.98L108.761,183.093Z" style="fill:#7b8bba"/><path d="M278.424,84.416c28.446,17.639,55.494,50.33,51.086,110.636a33.331,33.331,0,0,1-15.3,25.67c-35.291,24.03-144.532,29.89-215.534-33.34,0,0-18.022-89.773,78.924-116.548C211.38,61.487,248.488,65.8,278.424,84.416Z" style="fill:#bac9e8"/><path d="M24.914,254.486c5.367.025,11.162-2.588,15.313-6.25,8.93-7.989,21.173-13.1,32.416-15.182a115.274,115.274,0,0,1,26.329,19.7,348.063,348.063,0,0,1,26.241,27.7,39.393,39.393,0,0,0,52.29,7.28l69.442-46.643c41.361-1.175,83.2-12.373,86.056-45.784C337.2,118.549,298.087,84.7,251.89,68.494c-2.08-27.1-39.917-31.569-48.232-5.636C124.169,68.882,86.357,128,94.788,185.234c-.5.271-76.42,32.4-76.83,32.746C-1.267,226.078,5.61,254.082,24.914,254.486ZM228.534,52.518a17.67,17.67,0,0,1,16,13.908,141.864,141.864,0,0,0-16.945-3.077l0,.03a133.021,133.021,0,0,0-16.337-.814A17.688,17.688,0,0,1,228.534,52.518ZM105.222,139.876c11.4-47.27,71.125-75.62,120.647-69.642,38.311,27.52,56.743,93.053,45.37,148.94a3.5,3.5,0,0,0,6.909,1.134c13.881-84.463-20.7-130.228-39.071-147.971,57,12.587,92.919,59.029,86.941,122.459C321.849,241.558,213,245.017,143.242,212.911c-.718-28.978,4.826-95.106,64.93-132.381a3.5,3.5,0,0,0-3.69-5.949c-60.762,37.683-68.464,103.07-68.292,134.912-11.848-6.045-24.069-13.878-34.251-23.813A109.719,109.719,0,0,1,105.222,139.876Zm-7.315,51.638c49.724,42.974,99.841,46.077,136.785,49.375l-61.1,41.041a32.4,32.4,0,0,1-43.023-5.983c-29.832-35.888-59.827-58.5-90.133-59.982ZM20.286,224.54a3.638,3.638,0,0,0,.372-.225c.666-.119,17.651-5.245,41.816,4.053a71.917,71.917,0,0,0-26.849,14.593,19.449,19.449,0,0,1-6.117,3.646C15.3,251.74,6.683,231.07,20.286,224.54Z" style="fill:#3f3f70"/></svg>