<svg id="icons" xmlns="http://www.w3.org/2000/svg" viewBox="0 0 340 340"><path d="M58.25,272.461l14.678,55.114A3.272,3.272,0,0,0,76.089,330h52.839a3.271,3.271,0,0,0,3.264-3.059l1.48-22.739a2.227,2.227,0,0,1,3.011-1.939c35.081,12.847,62.975,39.758,108.236,17.243,11.1-5.724,23.544-11.726,35.631-16.68a12.679,12.679,0,0,0,6.906-16.556L129,267.183S75.13,264.257,58.25,272.461Z" style="fill:#7b8bba"/><path d="M156.252,39.883a20.133,20.133,0,0,1-9.776-8.009c-3.651-5.726-11.3-13.655-25.637-13.655,0,0-16.115-.732-26.079,11.3A18.694,18.694,0,0,1,87.781,34.7,102,102,0,0,0,58.644,53.839a22.694,22.694,0,0,0-6.077,22.94c8.466,28.162,26.5,104.907,5.683,195.682,0,0,55.763-1.789,113.753,31.066a78.628,78.628,0,0,0,75.625,1.274c12.784-6.775,26.936-13.654,39.828-18.527-1.294-11.343-19.313-30.659-47.189-26.08-20.088,3.941-42.919.392-59.513-12.514-11.311-7.521-19.451-19.364-18.165-33.461,1.342-18.555,4.969-53.077,14.365-81.613a241.04,241.04,0,0,0,11.292-54.733C189.539,61.2,174.631,47.439,156.252,39.883Z" style="fill:#bac9e8"/><path d="M156.252,39.883a20.133,20.133,0,0,1-9.776-8.009c-3.651-5.726-11.3-13.655-25.637-13.655,0,0-16.115-.732-26.079,11.3A18.694,18.694,0,0,1,87.781,34.7,102,102,0,0,0,58.644,53.839a22.694,22.694,0,0,0-6.077,22.94c8.466,28.162,26.5,104.907,5.683,195.682,0,0,55.763-1.789,113.753,31.066a78.628,78.628,0,0,0,75.625,1.274c12.784-6.775,26.936-13.654,39.828-18.527-1.294-11.343-19.313-30.659-47.189-26.08-20.088,3.941-42.919.392-59.513-12.514-11.311-7.521-19.451-19.364-18.165-33.461,1.342-18.555,4.969-53.077,14.365-81.613a241.04,241.04,0,0,0,11.292-54.733C189.539,61.2,174.631,47.439,156.252,39.883Z" style="fill:#bac9e8"/><path d="M162.589,214.213c1.343-18.556,4.97-53.074,14.365-81.607a241.088,241.088,0,0,0,11.292-54.729,26.424,26.424,0,0,0-5.052-17.82,59.459,59.459,0,0,0-26.942-20.174,20.133,20.133,0,0,1-9.776-8.009c-3.651-5.726-11.3-13.655-25.637-13.655,0,0-16.113-.732-26.077,11.3a18.718,18.718,0,0,1-6.984,5.19A102,102,0,0,0,58.649,53.834a22.706,22.706,0,0,0-6.08,22.952c6.9,22.95,20.142,78.147,13.554,146.9,13.685,40.29,78.355,35.7,99,6.191A34.361,34.361,0,0,1,162.589,214.213Z" style="fill:#bac9e8"/><path d="M110.689,11.224c8.86-2.462,27.993-2.531,26.621,12.327L130.055,79.59a9.663,9.663,0,0,1-19.144.234L102.23,23.953A11.4,11.4,0,0,1,110.689,11.224Z" style="fill:#bac9e8"/><path d="M259.672,257.337c-9.829-2.773-21.118-.166-31.3.724-19.277,1.639-38.418-5.764-52.431-18.8a30.436,30.436,0,0,1-9.857-24.789c1.3-18.02,4.882-52.476,14.2-80.77a245.776,245.776,0,0,0,11.457-55.545,29.928,29.928,0,0,0-5.721-20.173A63.119,63.119,0,0,0,157.5,36.615a16.553,16.553,0,0,1-8.076-6.623,33.1,33.1,0,0,0-8.6-9.169c-1.449-14.856-19.214-16.042-31-12.99h0A14.864,14.864,0,0,0,98.771,24.49l8.68,55.854a13.162,13.162,0,0,0,26.075-.3L140.082,29.4a27.258,27.258,0,0,1,3.443,4.36A23.507,23.507,0,0,0,155,43.152a56.125,56.125,0,0,1,25.379,18.984,22.927,22.927,0,0,1,4.379,15.455,238.559,238.559,0,0,1-11.129,53.92c-9.551,29.01-13.2,64.113-14.532,82.456a37.878,37.878,0,0,0,2.056,15.262c-6.363,7.6-17.566,16.577-36.074,19.351a3.5,3.5,0,0,0,1.037,6.923c18.751-2.81,30.83-11.4,38.269-19.381,6.883,10.829,19.436,18.864,31.134,23.789L194.214,274c-.346,4.579,6.461,5.228,6.971.645l1.146-12.37q3.2.933,6.475,1.578l-1,11.991a3.5,3.5,0,0,0,6.977.583l.964-11.547c8.371.9,16.678.053,25.063-1.223,20.227-3.663,39,8.39,42.45,20.492a379.111,379.111,0,0,0-37.268,17.565,74.837,74.837,0,0,1-72.261-1.227,246.532,246.532,0,0,0-64.556-25.212c15.962-56.347,15.19-178.184,14.294-175.051-.227-4.524-7.086-4.387-6.993.263.034.913,2.841,80.826-9.021,148.756-22.857-1.79-33.143-14.859-37.764-26.072,6.438-68.722-6.713-123.92-13.771-147.394a19.126,19.126,0,0,1,5.145-19.4A98.632,98.632,0,0,1,89.174,37.914c2.724-1.056,6.366-3.238,4.324-6.578-2.1-2.855-4.586-1.223-7.11.157A105.786,105.786,0,0,0,56.225,51.31a26.093,26.093,0,0,0-7.01,26.477c8.723,28.245,26.033,105.492,5.545,194.769a6.525,6.525,0,0,0,.109.806l15.324,57.543a3.5,3.5,0,0,0,3.382,2.6h58.418a3.5,3.5,0,0,0,3.492-3.273l1.567-24.072c37.42,14.54,62.761,39.017,109.5,16.448,12.9-6.655,24.788-12.219,35.327-16.538a16.233,16.233,0,0,0,8.965-20.736C290.23,282.217,285.5,263.419,259.672,257.337ZM133.839,23.1l-7.256,56.054a6.163,6.163,0,0,1-12.213.131l-8.679-55.854a7.878,7.878,0,0,1,5.866-8.818h0C119.446,12.779,134.5,11.758,133.839,23.1ZM68.358,235.327c6.418,9.337,17.833,19.042,37.829,20.824-1.156,6.011-2.435,11.9-3.849,17.6a222.122,222.122,0,0,0-39.72-4.79C65.108,257.494,66.987,246.261,68.358,235.327Zm210.865,64.265c-36.859,15.057-60.939,37.774-103.928,16.415a321.4,321.4,0,0,0-40.28-18.081,3.523,3.523,0,0,0-4.641,3.079l-1.661,25.5H76.264L62.814,276c14.2.4,60.268,3.837,107.464,30.577a82.679,82.679,0,0,0,40.8,10.84,81.428,81.428,0,0,0,38.185-9.52A377.143,377.143,0,0,1,284.9,291.029,9.21,9.21,0,0,1,279.223,299.592Z" style="fill:#3f3f70"/><path d="M123.865,70.814c-1.395-3.491-6.78-2.413-6.74,1.34C117.453,77.7,125.693,76.057,123.865,70.814Z" style="fill:#3f3f70"/></svg>