<svg id="icons" xmlns="http://www.w3.org/2000/svg" viewBox="0 0 340 340"><path d="M55.663,20.628s95.517-8.9,220.984-6.88l-29.141,22.26-108.873,25.5S70.233,49.364,55.663,20.628Z" style="fill:#7b8bba"/><path d="M276.647,13.748S198.533,38.032,159.679,40.46v8.5S88.446,27.913,55.663,20.628l-5.272,29a6.154,6.154,0,0,0,.675,4.09,6.154,6.154,0,0,1,.736,3.672l-9.09,81.421c-3.338,4.788-8.8,9.576-6.058,16.019A27.3,27.3,0,0,1,38.487,169C35.225,192.793,24.854,270.49,22.475,313.654c0,0,51.4,14.166,121.015,10.118,0,0,3.642-97.135,24.284-114.944,0,0,17.4,30.191,25.093,115.671,0,0,69.209,7.368,124.658-5.584,0,0-4.948-84.417-16.631-136.876a161.637,161.637,0,0,1-3.712-38.971c.334-8.66-4.382-15.021-9.2-21.662,0,0-1.976-36.55-6.521-59.159A117.189,117.189,0,0,1,279.367,46.4C278.829,37.744,277.891,24.445,276.647,13.748Z" style="fill:#bac9e8"/><path d="M51.8,57.389l-9.09,81.421c32.989-28.8,51.18-72.375,51.18-72.375L51.607,55.093A6.143,6.143,0,0,1,51.8,57.389Z" style="fill:#7b8bba"/><path d="M24.941,282.192H76.924a5.97,5.97,0,0,0,5.914-5.157l9.172-66.652L34,202.854C31.009,226.266,27.414,256.069,24.941,282.192Z" style="fill:#bac9e8"/><path d="M304.593,200.854l-64.686,8.252,5.319,63.792a6.31,6.31,0,0,0,5.9,5.773c11.306.712,38.3,1.5,62.826-4.783C311.847,251.722,308.769,224.71,304.593,200.854Z" style="fill:#bac9e8"/><path d="M23.438,299.449c-.393,5.03-.72,9.8-.963,14.2,0,0,51.4,14.166,121.015,10.118,0,0,.219-5.825.851-14.871C103.867,313.8,44.264,303.471,23.438,299.449Z" style="fill:#bac9e8"/><path d="M191.4,309.9q.775,7.019,1.463,14.6s69.209,7.367,124.657-5.585c0,0-.4-6.764-1.229-17.649C267.062,314.565,208.673,311.274,191.4,309.9Z" style="fill:#bac9e8"/><path d="M235.909,73.786l16.628-5.116L247.931,22.1c-5.292,1.465-11.072,3.024-17.121,4.593Z" style="fill:#bac9e8"/><path d="M90.482,29.394,84.346,75.385,101.932,80.5l7.333-45.969C103.054,32.806,96.7,31.065,90.482,29.394Z" style="fill:#bac9e8"/><path d="M84.927,60.784,50.371,49.841a6.141,6.141,0,0,0,.7,3.876h0a6.2,6.2,0,0,1,.713,3.881l31.089,9.876a3.487,3.487,0,0,0,1.031.156C87.806,67.688,88.734,61.91,84.927,60.784Z" style="fill:#7b8bba"/><path d="M251.868,61.911c4.6,26.6,19.582,39.844,35.967,59.326.194-2.933-3.425-46.414-7.741-66.3Z" style="fill:#7b8bba"/><path d="M32.13,217.739l46,3.5A13.065,13.065,0,0,0,92.01,210.383l4.735-28.134-58.779-9.434C36.59,182.937,34.427,199.192,32.13,217.739Z" style="fill:#bac9e8"/><path d="M300.894,182.039c-.767-3.445-1.4-6.915-1.929-10.4-11.495,3.179-39.784,10.476-60.4,11.4l1.346,26.067a11.234,11.234,0,0,0,12.711,10.555l53.885-7.216C304.84,201.735,302.974,191.379,300.894,182.039Z" style="fill:#bac9e8"/><path d="M96.259,305.791c-5.09-1-6.449,6.216-1.321,6.924C100.021,313.72,101.394,306.5,96.259,305.791Z" style="fill:#3f3f70"/><path d="M319.77,300.917c-3.015-41.037-8.428-87.894-17.329-129.7a161.692,161.692,0,0,1-1.76-28.1c.3-9.089-4.049-15.9-9.263-22.9-.357-6.138-2.35-37.88-6.529-58.661a114.34,114.34,0,0,1-2.029-15.37c-.566-9.121-1.5-22.223-2.737-32.845a3.576,3.576,0,0,0-1.53-2.5c-121.563-3.839-223.734,6.8-223.254,6.3A3.583,3.583,0,0,0,52.22,20L46.947,49a9.681,9.681,0,0,0,1.011,6.32A2.717,2.717,0,0,1,48.324,57l-6.785,60.773c-.392,4.528,6.319,5.4,6.957.777l6.688-59.9,17.57,5.409a3.481,3.481,0,0,0,1.03.156c3.908.058,4.835-5.72,1.029-6.846L53.807,50.9a2.641,2.641,0,0,1,.027-.646l4.619-25.4c8,1.857,17.818,4.373,28.153,7.13l-5.729,42.94a3.62,3.62,0,0,0,3.095,4C78.931,88.212,63.1,114.365,39.9,136.727l-4.83,6.52a13.241,13.241,0,0,0-1.664,12.884c2.545,5.686,1.89,11.627.9,17.639-1.4,10.335-3.459,25.863-5.647,43.539-3.73,30.612-7.574,63.419-9.463,92.545-.036,2.275-.942,5.208,1.3,6.683a7.216,7.216,0,0,0,2.376.834c5.287,1.32,10.621,2.421,15.984,3.429a437.208,437.208,0,0,0,63.856,6.907c13.815.475,26.679.374,40.98-.441a3.513,3.513,0,0,0,3.207-2.705c1.4-30.322,6.762-90.032,19.993-109.433,3.8,6.826,17.7,52.076,21.836,102.844.795,3.286-.768,9.307,3.767,10.008,21.748,3.042,93.508,3.429,125.824-5.658a3.5,3.5,0,0,0,2.7-3.612C320.955,318.708,320.653,311.592,319.77,300.917ZM303.555,216.37c2.778,18.513,4.965,37.926,6.607,54.834a173.337,173.337,0,0,1-25.858,3.774c-1.249-22.639-6.144-45.953-8.192-54.932Zm-26.239,59.022a248.6,248.6,0,0,1-28.4-.387l-4.449-53.354a14.727,14.727,0,0,0,8.618,1.479l16.054-2.15C271.024,229.23,276.073,252.956,277.316,275.392Zm18.821-99.357c2.2,11.136,4.657,22.176,6.344,33.417l-50.328,6.741a7.737,7.737,0,0,1-8.754-7.327l-1.164-22.542C260.73,184.949,283.819,179.325,296.137,176.035ZM275.874,46.621c.116,1.878.3,3.77.508,5.666l-21.428,5.262L251.705,24.7c9.66-2.7,17.45-5.019,21.923-6.372C274.621,27.911,275.385,38.757,275.874,46.621ZM77.74,22.415c32.074-2.25,96.825-5.883,175.429-5.424-25.252,6.977-61.375,16.876-90.636,19.743-2.765.169-6.207.073-6.354,3.726v3.824C140.989,39.8,99.444,27.947,77.74,22.415ZM248.772,66.166l-9.839,3.029L234.617,29.34c3.537-.929,6.965-1.849,10.241-2.745ZM172.278,78.281h-8.3c-.079-3.679-.951-31.712-.8-34.575,6.362-.553,13.551-1.591,21.148-2.944.776,21.631,2.521,70.668,3.311,92.712-1.805,18.046-15.264,21.474-21.549,22.085l-1.918-70.278h8.107C176.879,85.2,176.878,78.358,172.278,78.281ZM105.315,37.073,99.1,76.032,88.213,72.865l5.211-39.049C97.379,34.888,101.365,35.98,105.315,37.073ZM35.2,221.483l25.3,1.926L55,266.584a3.5,3.5,0,1,0,6.944.885l5.543-43.528c5.489.251,14.332,2.071,19.26-1.009l-7.672,55.76H28.8C30.614,260.035,32.952,239.768,35.2,221.483Zm.861-6.955c1.881-15.074,3.638-28.373,4.9-37.688l51.754,8.306L88.558,209.8A9.5,9.5,0,0,1,78.4,217.751ZM301.536,318.507c-43.8,6.794-81.533,4.545-105.449,2.778q-.364-3.872-.752-7.59c18.126,1.226,63.488,3.041,105.771-5.311a3.5,3.5,0,0,0-1.356-6.867c-42.5,8.4-88.289,6.309-105.191,5.107-8.259-71.953-23.079-98.374-23.753-99.544a8.078,8.078,0,0,0-.55-.718l-9.225-9.287a3.5,3.5,0,1,0-4.965,4.934l6.827,6.873c-14.159,17.359-19.8,69.115-21.849,96.856a232.737,232.737,0,0,1-29.6.821,3.5,3.5,0,0,0-.1,7,241.683,241.683,0,0,0,29.217-.733c-.2,3.162-.336,5.758-.427,7.625-52.925,2.9-100.5-6.035-114-9.482.149-2.42.316-4.881.5-7.35,11.477,2.141,30.759,5.415,51.926,7.64,4.571.409,5.307-6.4.731-6.961-21.4-2.25-40.857-5.585-52.112-7.7.289-3.529.608-7.173.952-10.906h54a3.5,3.5,0,0,0,3.467-3.023c2.728-19.926,10.908-81.1,14.6-99.839a3.522,3.522,0,0,0-2.9-4.037L41.9,169.9a30.91,30.91,0,0,0-1.858-16.035,6.342,6.342,0,0,1,.655-6.452l4.667-6.3a258.107,258.107,0,0,0,45.5-60.187l10.091,2.936a3.524,3.524,0,0,0,4.434-2.809l1.056-6.625L133.2,82.667a40.489,40.489,0,0,0,13.088,2.124c4.591.066,4.815-6.777.211-7a34.333,34.333,0,0,1-11.24-1.818l-27.7-8.529L112.1,38.96c19.932,5.567,37.809,10.781,44.147,12.639l2.936,107.6v6.1c.075,4.593,6.921,4.606,7,0v-2.68c10.647-.623,26.877-7.709,28.455-29.171l-1.907-53.416,27.3-6.7a3.5,3.5,0,0,0-1.67-6.8l-25.887,6.358-1.194-33.434c11.993-2.35,24.655-5.331,36.484-8.346l4.662,43.05a3.5,3.5,0,0,0,4.509,2.969l16.627-5.116c3.437-1.1,2.28-4.772,2.084-7.429l21.7-5.329c3.254,15.651,5.444,37.766,6.413,51.55-10.635-13-23.723-29.4-23.885-29.6-2.912-3.53-8.29.7-5.473,4.366.481,1.186,26.512,31.851,35.262,44.378a23.417,23.417,0,0,1,3.986,15.234,166.559,166.559,0,0,0,1.4,23.9c-12.617,3.393-37.958,9.627-56.652,10.465a3.52,3.52,0,0,0-3.338,3.677c.361,17.337,5.588,77.053,7.118,95.312a3.5,3.5,0,0,0,3.118,3.19c.716.076,9.175.943,21.325.943,12.344,0,28.5-.9,44.2-4.435,1.645,17.845,2.631,32.032,3.016,37.929C309.8,317.045,305.686,317.822,301.536,318.507Z" style="fill:#3f3f70"/><path d="M257.425,202.188c1.807,4.23,8.158,1.6,6.46-2.67C262.072,195.29,255.725,197.918,257.425,202.188Z" style="fill:#3f3f70"/><path d="M75.725,202.907c-3.423-2.346-7.367,2.468-4.42,5.38C74.991,211.752,79.841,205.835,75.725,202.907Z" style="fill:#3f3f70"/><path d="M177.271,192.737l-21.88-13.721c-3.93-2.375-7.581,3.415-3.719,5.93,1.607.67,22.3,14.76,23.736,14.256C178.776,199.329,180.256,194.464,177.271,192.737Z" style="fill:#3f3f70"/><path d="M193.4,199.518c-1.829-4.223-8.156-1.609-6.47,2.67C188.747,206.415,195.08,203.793,193.4,199.518Z" style="fill:#3f3f70"/><path d="M176.865,60.707c-.09-4.591-6.917-4.595-7,0C169.94,65.314,176.78,65.305,176.865,60.707Z" style="fill:#3f3f70"/></svg>