<svg id="icons" xmlns="http://www.w3.org/2000/svg" viewBox="0 0 340 340"><path d="M59.026,17.288s95.8-19.372,231.555,7.267l-4.61,21L150.726,61.44,67.735,35.963Z" style="fill:#7b8bba"/><path d="M145.6,39.924s59.454,6.183,114.658,2.967c11.17-.617,22.418-8.945,30.32-18.336,4.168,5.374,2.248,90.966,2.728,106.228a30.61,30.61,0,0,0,3.5,14.143,30.6,30.6,0,0,1,3.5,14.218c0,6.746,0,130.591,0,133.339l-59.426,19.468-54.3-11.783L178.9,289.922l-11.783-93.749-16.393,95.8S82.079,311.438,39.559,270.455c0,0-4.611-10.758,0-26.127V190.542a22.829,22.829,0,0,1,2.626-10.631,22.821,22.821,0,0,0,2.621-10.1l1.327-57.06a6.564,6.564,0,0,1,3.255-5.517,6.561,6.561,0,0,0,3.237-5.175l6.4-84.771s23.053,22.123,85.552,28.271Z" style="fill:#bac9e8"/><path d="M86.07,32.409c-.089,6.645-.184,18.611.084,29.031L102.407,69.3l1.854-30.908A174.818,174.818,0,0,1,86.07,32.409Z" style="fill:#bac9e8"/><path d="M207.454,43.587V79.206H224.9l1.863-35.388C220.157,43.824,213.685,43.737,207.454,43.587Z" style="fill:#bac9e8"/><path d="M290.582,24.555c-4.964,6.423-12.085,11.343-17.3,14.392.47,6.186,1.16,17.814,1.16,32.727a54.593,54.593,0,0,0,18.7-8.635C294.286,38.551,290.575,23.545,290.582,24.555Z" style="fill:#bac9e8"/><path d="M293.166,61.271c-18.71,17.19-56.951,16.966-56.951,16.966,7.551,35.9,42.062,44.75,57.08,46.913C293.318,124.189,293.1,62.191,293.166,61.271Z" style="fill:#7b8bba"/><path d="M56.73,47.694l-4.1,54.365a6.562,6.562,0,0,1-3.237,5.175,6.564,6.564,0,0,0-3.255,5.517c17.411-.083,27.625-2.854,31.938-4.378a17.465,17.465,0,0,0,3.935-2c14.258-9.678,27.1-15.694,28.523-34.7A71.679,71.679,0,0,1,84.5,60.747Z" style="fill:#7b8bba"/><path d="M38.151,265.251s31.414,27.625,110.834,20.425a7.8,7.8,0,0,1,8.484,7.874,46.515,46.515,0,0,1-2.3,14.278,17.14,17.14,0,0,1-15.514,11.587c-18.589.805-61,.4-97.777-16.27a14.423,14.423,0,0,1-8.421-12.308C33.059,283.964,33.587,274.107,38.151,265.251Z" style="fill:#fff"/><path d="M178.9,289.922a63.827,63.827,0,0,0,1.772,23.041,16.226,16.226,0,0,0,12.49,11.9c20.326,4.109,70.511,11.174,107.527-9.3a11.682,11.682,0,0,0,5.957-10.245v-19.46a6.708,6.708,0,0,0-6.333-6.7S252.291,309.691,178.9,289.922Z" style="fill:#fff"/><path d="M237.365,292.818c-5.342-.658-6.532,6.544-1.153,7.065,2.4.229,5.026-1.043,4.845-3.769A3.5,3.5,0,0,0,237.365,292.818Z" style="fill:#3f3f70"/><path d="M303.815,276.429V159.143a34.244,34.244,0,0,0-3.9-15.842c-3.013-5.3-3.3-11.821-3.115-17.78l-.109-44.973c-.081-4.575-6.932-4.6-7,.017l.1,40.66c-37.77-8.753-47.829-30.815-50.368-39.531,18.931-2.01,38.6-4.165,55.779-15.819,2.034-1.408,1.313-4.13,1.527-6.24.356-10.442-.234-37.088-4.724-38.274-133.843-26.869-233.285-7.65-233.695-7.5a3.5,3.5,0,0,0-2.77,3.159L49.471,97.347c-.2,4.573,6.5,5.148,6.981.527L59.858,52.76C68.383,57.8,81.657,63.37,84.5,64.543c6.958,4.725,12.845,7.031,22.041,9.652A31.245,31.245,0,0,1,95,93.7c-6.75,5.281-12.971,9.248-17.99,11.471A23.226,23.226,0,0,1,69.778,107L45.8,109.266a3.534,3.534,0,0,0-2.41,1.318,3.7,3.7,0,0,0-.759,2.086l-1.327,57.059a19.422,19.422,0,0,1-2.219,8.552,26.425,26.425,0,0,0-3.029,12.261v53.281a48.746,48.746,0,0,0-1.543,20.905c-4.454,9.314-4.954,19.386-4.553,26.311a17.862,17.862,0,0,0,10.471,15.294c31.59,14.321,67.5,16.8,88.593,16.8,4.245,0,7.891-.1,10.779-.226a20.747,20.747,0,0,0,18.679-13.965c2.1-7.538,5.62-19.818-2.823-25.072l6.68-39.033a3.5,3.5,0,0,0-6.9-1.182l-6.592,38.523c-69.18,6.35-101.886-14.624-107.462-18.842a41.945,41.945,0,0,1,1.523-18.007,3.5,3.5,0,0,0,.148-1.006V190.542a19.4,19.4,0,0,1,2.224-9,26.469,26.469,0,0,0,3.022-11.65l1.255-53.949c6.8-.989,24.293-1.244,30.286-4.369,5.618-2.488,12.168-6.645,19.469-12.357a38.205,38.205,0,0,0,13.994-23.169A212.557,212.557,0,0,0,140.2,81.368l-1.632,66.714a38.088,38.088,0,0,0,10.19,26.958l8.638,9.323a25.2,25.2,0,0,1,6.268,12.392l11.708,93.159a68.369,68.369,0,0,0,1.91,23.919A19.855,19.855,0,0,0,192.471,328.3a235.068,235.068,0,0,0,45.377,4.634c20.909,0,44.56-3.252,64.537-14.3a15.17,15.17,0,0,0,7.763-13.308v-19.46A10.208,10.208,0,0,0,303.815,276.429ZM149.3,289.161a4.319,4.319,0,0,1,4.668,4.353,42.6,42.6,0,0,1-2.116,13.195,13.7,13.7,0,0,1-12.35,9.209c-16.738.721-59.6.619-96.18-15.96a10.885,10.885,0,0,1-6.372-9.323,49.97,49.97,0,0,1,2.634-19.977C50.148,277.705,83.561,295.121,149.3,289.161ZM224.808,75.706H210.954V47.165c4.1.081,8.156.13,12.115.147L222.1,65.718a3.5,3.5,0,0,0,6.99.367l.989-18.788c10.03-.053,20.29-.324,30.385-.911a32.772,32.772,0,0,0,9.677-2.074c.36,5.937.744,14.564.8,24.924C256.168,74.22,226.093,75.648,224.808,75.706Zm60.5-40.853q1.645-1.361,3.2-2.83c.936,5.069,1.669,19.79,1.157,29.171A52.969,52.969,0,0,1,277.922,67c-.11-11.422-.607-20.6-.991-26.166A77.276,77.276,0,0,0,285.308,34.853Zm-224.853,10,1.572-20.825A111.642,111.642,0,0,0,82.541,34.794c-.06,5.455-.1,13.479.008,21.311C75.535,53.046,65.258,48.256,60.455,44.85Zm38.736,19.6a53.668,53.668,0,0,1-9.58-4.891c-.165-7.651-.149-15.945-.1-22.085,3.395,1.212,7.086,2.406,11.082,3.55Zm41.182,9.89c-13.875-1.758-28.511-5.854-34.308-7.581L107.5,42.86A252.443,252.443,0,0,0,141,48.7ZM142.16,39.3l-.445,2.444c-40.732-4.467-63.766-15.906-73.922-22.363C93.072,15.616,175.542,6.5,283.816,26.82c-6.795,6.068-14.453,12.057-23.758,12.577-54.272,3.164-113.5-2.893-114.093-2.955A3.513,3.513,0,0,0,142.16,39.3ZM303.148,305.322a8.171,8.171,0,0,1-4.15,7.183c-36.076,19.953-85.545,12.893-105.14,8.93a12.647,12.647,0,0,1-9.8-9.342,64.628,64.628,0,0,1-1.983-17.735,193.253,193.253,0,0,0,37.5,5.533,3.5,3.5,0,1,0,.322-6.992,186.959,186.959,0,0,1-37.823-5.778c-.033-.215-11.475-91.406-11.519-91.6a32.189,32.189,0,0,0-8.027-15.918c-9-9.592-17.4-16.985-16.964-31.351l2.5-102.339.4-2.2c7.877.725,29.341,2.524,55.483,3.266V75.568l-46.349-1.8a3.5,3.5,0,1,0-.271,6.994c17.866.491,57.379,2.993,74.994,1.5,2.428,9.5,13.137,36.473,57.475,46.137a35.75,35.75,0,0,0,3.91,18.148,27.214,27.214,0,0,1,3.1,12.59v118c-4.911,2.715-20.786,10.629-44.637,14.164a3.5,3.5,0,1,0,1.027,6.924c26.408-3.914,43.283-12.8,47.794-15.4a3.212,3.212,0,0,1,2.149,3.029Z" style="fill:#3f3f70"/><path d="M163.227,62.679c3.859,2.5,7.666-3.2,3.88-5.821C163.24,54.368,159.435,60.088,163.227,62.679Z" style="fill:#3f3f70"/><path d="M170.61,92.467c.264-4.567-6.563-5.109-6.982-.508-.147,2.014-3.534,49.632,1.871,73.436,1.1,4.468,7.77,2.953,6.826-1.551C167.151,141.058,170.575,92.95,170.61,92.467Z" style="fill:#3f3f70"/></svg>