<svg id="icons" xmlns="http://www.w3.org/2000/svg" viewBox="0 0 340 340"><path d="M15.062,202.392v17.094s35.49,18.241,103.322,3.354a82.28,82.28,0,0,1,42.021,1.73c19.623,6.092,50.126,13.84,78.316,13.84,0,0,63.389,1.123,87.547-23.175a13.2,13.2,0,0,0,3.755-9.321V192.539L77.2,185.268Z" style="fill:#fff"/><path d="M25.205,120.959s9.47,10.768,42.293,10.768,50.662-9.038,50.662-9.038v28.542s-57.322,30.207-90.383-5.708C27.777,145.523,20.731,143.726,25.205,120.959Z" style="fill:#7b8bba"/><path d="M126.588,104.161c-7.856,5.8-19.154,16.8-18.79,35.345-1.071,2.688-4.608,4.531-8.793,6.153a63.884,63.884,0,0,1-16.228,6.074c-6.609,1.6-13.67,1.776-20.454,1.683-18.706.044-34.954-13.872-37.118-32.457,0,0-25.792,33.906-10.143,81.433,0,0,32.6,18.593,82.525,6.59a138.694,138.694,0,0,1,42.717-3.765,124.366,124.366,0,0,1,32.119,6.448s57.12,17.618,108.719,5.7c0,0,33.493-12.289,47.412-25.376-.474-13.407-10.037-33.347-37.885-43.825,0,0-14.064-4.4-44.659-4.889a165.776,165.776,0,0,1-52.821-9.639c-15.94-5.68-34.686-14.208-52.8-28.493C136.08,101.748,131,100.9,126.588,104.161Z" style="fill:#bac9e8"/><path d="M290.95,147.33s-14.258-4.139-44.824-4.634a165.113,165.113,0,0,1-52.967-9.566,186.413,186.413,0,0,1-52.6-28.9,12.2,12.2,0,0,0-14.793-.319c-7.856,5.8-18.334,17.05-17.97,35.6,36.308-3.042,124.633,63.353,206.589,22.3l-21.067-13.68Q292.161,147.716,290.95,147.33Z" style="fill:#bac9e8"/><path d="M293.3,148.191c-9.32,10.728-24.4,34.823-12.143,69.235,17.824-4.15,34.985-11.814,48.89-24.95C330.045,192.476,329.166,160.879,293.3,148.191Z" style="fill:#fff"/><path d="M333.522,192.452c-.159-8.791-6.5-24.615-15.22-32.8-5.022-5.4-11.665-9.562-18.428-12.656a55.061,55.061,0,0,0-10.5-3.662,171.358,171.358,0,0,0-23.212-3.213c-5.688-.456-12.321-.8-19.983-.928a161.761,161.761,0,0,1-45.573-7.264,184.511,184.511,0,0,1-47.051-22.581c-2.707-1.8-5.34-3.7-7.942-5.646-3.3-2.7-6.929-5.363-11.359-5.571-11.792-1.365-23.821,14.976-27.32,24.94-8.4,2.46-21.65,5.153-39.44,5.153-30.1,0-39.461-9.373-39.7-9.617a3.527,3.527,0,0,0-2.941-1.126c-4.2.469-28.6,36.754-13.3,85.448v16.553a3.5,3.5,0,0,0,1.9,3.113c1.494.769,37.394,18.646,105.671,3.66a78.888,78.888,0,0,1,40.232,1.654c20.967,6.54,52.446,14.284,81.016,14.009,10.652,0,65.431-1.149,88.369-24.219a16.8,16.8,0,0,0,4.772-11.789C333.522,205.827,333.524,192.53,333.522,192.452Zm-10.164,1.272c-11.554,9.552-25.763,15.822-40,19.431-9.047-29.08,2.251-49.935,11.1-60.837,19.173,6.908,30.833,24.887,31.945,38.795C325.406,192.012,324.4,192.884,323.358,193.724Zm-142.12-61.495c5.006,2.1,10.08,4.054,15.247,5.729a82.753,82.753,0,0,0-13.874,20.129c-12-4.33-10.666-4.144-16.795-6.685C168.061,146.731,173.136,137.805,181.238,132.229Zm22.987,8.046a166.72,166.72,0,0,0,16.625,3.641c-6.654,7.773-10.192,17-11.726,21.893-7.42-1.734-14.123-3.659-19.8-5.473C191.844,155.433,197.085,146.415,204.225,140.275Zm25.181,4.841a173.28,173.28,0,0,0,17.344,1.094c-6.946,7.684-10.369,18.891-11.666,24.139-6.641-.751-13.047-1.811-19.084-3.038C217.708,162.079,221.765,152.04,229.406,145.116Zm28.1,1.464a201.4,201.4,0,0,1,29.834,3.483,72.351,72.351,0,0,0-10.676,19.971,155.271,155.271,0,0,1-34.517.986C243.862,164.551,248.458,150.914,257.508,146.58ZM111.367,136.122c.487-11.748,7.039-22.6,16.481-29.4a8.8,8.8,0,0,1,10.545.251q6.948,5.481,14.455,10.286c-7.92,6.973-15.059,18.3-17.983,23.248A124.6,124.6,0,0,0,111.367,136.122Zm-6.458-5.241a49.792,49.792,0,0,0-.616,7.07c-8.937,7.629-25.228,12.88-41.971,11.965a33.66,33.66,0,0,1-31.61-21.261C46.221,137.4,87,136.314,104.909,130.881Zm-81.141-.79a40.606,40.606,0,0,0,38.554,26.825c18.832,1.045,37.218-5.417,46.814-13.9,3.776.129,16.42,1.15,37.49,8.471,4.367,1.437,6.619-5.029,2.3-6.612q-3.72-1.293-7.1-2.34c3.434-5.626,10.39-16.139,17.329-21.411,4.817,2.848,9.784,5.437,14.834,7.849-10.835,9.174-15.848,22.433-16.085,23.071a3.6,3.6,0,0,0,.409,3.208c11.627,6.061,44.251,21.816,96.781,23.325a156.148,156.148,0,0,0,19.507-1.2c-2.33,10.527-2.436,23.033,1.93,37.342-32.2,8.216-89.477-1.312-103.008-6.384a127.3,127.3,0,0,0-32.953-6.612,142.159,142.159,0,0,0-43.8,3.853c-42.742,10.275-72.694-2.639-78.817-5.636A91.131,91.131,0,0,1,23.768,130.091Zm300.018,82.676c-22.822,22.953-84.387,22.157-85.065,22.144-27.44,0-57.17-7.441-77.278-13.684a85.914,85.914,0,0,0-43.809-1.805c-57.009,12.51-90.957,1.092-99.071-2.215v-9.269c11.319,4.812,40.161,13.988,79.842,4.447a135.3,135.3,0,0,1,41.638-3.678,120.284,120.284,0,0,1,31.349,6.3c36.065,11.156,113.751,19.784,155.131-14.844C326.524,204.189,327.111,209.853,323.786,212.767Z" style="fill:#3f3f70"/><path d="M150.542,188.768a3.528,3.528,0,0,0,2.471-5.98,3.57,3.57,0,0,0-5.71,1.14A3.527,3.527,0,0,0,150.542,188.768Z" style="fill:#3f3f70"/><path d="M166.792,188.968c1.823,4.223,8.161,1.587,6.46-2.68C171.419,182.072,165.1,184.7,166.792,188.968Z" style="fill:#3f3f70"/></svg>