<svg id="icons" xmlns="http://www.w3.org/2000/svg" viewBox="0 0 340 340"><path d="M35.575,45.834C15.325,103.978-40.844,235.122,120.327,314.6c21.339,8.436,35.235-11.361,45.861-38.18,0,0,12.921,21.949,33.526,39.992a18.57,18.57,0,0,0,21.02,2.332C245.059,305.66,303,270.523,325.4,222.12c11.845-25.2,1.84-110.4-28.427-166.809Z" style="fill:#bac9e8"/><path d="M10.927,181.878c.124,1.463.258,2.928.415,4.393,0,0,7.961,82.671,108.988,128.324,13.541,5.8,24.692-1.387,33.173-13.4-11.074,2.9-21.889.736-31.734-4.33C55.632,262.082,24.549,212.3,10.927,181.878Z" style="fill:#7b8bba"/><path d="M325.4,222.12a51.388,51.388,0,0,0,4.652-18.56c-33.288,47.671-97.088,92.137-114.866,99.409a41.272,41.272,0,0,1-28.124.992c9.216,9.493,18.693,22.4,33.67,14.778C245.059,305.66,303,270.523,325.4,222.12Z" style="fill:#7b8bba"/><path d="M43.153,23.577S174.34,7.532,288.6,29.791V44.116S110.054,74.772,43.153,23.577Z" style="fill:#7b8bba"/><path d="M46.61,23.664C74.627,30.307,183.6,52.913,284.436,29.726c11.452-1.884,13.574,12.588,12.364,26.582,0,0-122.013,66.731-261.4-9.477C34.825,45.335,32.463,20.711,46.61,23.664Z" style="fill:#fff"/><path d="M6.8,176.408c1.215,43.14,32.463,97.926,88.876,130.455a240.782,240.782,0,0,0,23.034,11.918c15.474,6.977,29.35-2.406,37.916-15.2a107.8,107.8,0,0,0,12.807-25.5c2.589-69.89,8.267-170.371,8.374-171.238.184-4.459-6.609-5.116-6.989-.407-.058.994-5.812,99.963-8.286,170.255a113.108,113.108,0,0,1-9.4,19.437c-9.421,2.809-20.3.954-29.333-3.833-44.214-23.252-72.334-53.42-89.88-79.524a492.3,492.3,0,0,1,10.681-90.109c.906-4.5-5.779-5.981-6.839-1.492a492.439,492.439,0,0,0-10.445,81.175,211.3,211.3,0,0,1-13.558-26.86C10.983,119.056,31.377,65.523,37.111,51.716q9.732,5.17,19.327,9.435c-1.523,3.411-4.04,9.424-7,17.98a3.5,3.5,0,1,0,6.614,2.291c2.892-8.35,5.365-14.238,6.815-17.484A298.3,298.3,0,0,0,91.2,74.16a3.465,3.465,0,0,0,1.194.354,291.153,291.153,0,0,0,37.758,8.638,3.113,3.113,0,0,0,1.56.249c46.708,8.171,106.155.8,145.155-14.582,1.34,3.46,3.643,9.737,6.372,18.576a3.5,3.5,0,1,0,6.689-2.065c-2.8-9.077-5.145-15.468-6.533-19.047,5.353-2.172,9.357-4.032,11.9-5.279,28.45,55.085,31.364,115.183,31.187,139.9a220.426,220.426,0,0,1-14.024,18.05A597.715,597.715,0,0,0,297.97,115.158c-1.119-4.448-7.792-2.91-6.815,1.6a595.492,595.492,0,0,1,14.66,109.656c-33.928,36.786-78.9,67.082-92.195,72.519a37.9,37.9,0,0,1-27.075.377q-4-4.6-7.848-9.644c-2.813-3.61-8.311.527-5.57,4.239a188.39,188.39,0,0,0,18.178,20.65c5.534,5.7,12.112,11.22,20.434,10.894a22.12,22.12,0,0,0,10.478-2.629c35.945-19.436,82.752-52.514,103.938-93.638a57.28,57.28,0,0,0,7.318-27.069c.278-24.83-2.408-88.622-33.107-146.546.873-12.6-.4-27.605-12.545-29.484C180.641,5.531,57.816,18.4,44.018,19.954c-13.679.6-13.134,20.284-12.248,26.433C28.119,54.775,3.558,113.848,6.8,176.408Zm20.56,39.133c18.158,27.327,47.1,58.688,93.186,82.956a49.162,49.162,0,0,0,26.608,5.827c-6.255,7.72-15.768,12.6-25.561,8.077-51.145-23.111-77.489-55.972-90.583-79.47a149.486,149.486,0,0,1-14.1-34.713C19.891,203.685,23.357,209.505,27.364,215.541Zm296.871.439C305.986,262.2,257.257,295.3,218.9,316.654c-10.236,5.14-17.052-1.226-23.888-8.279a43.209,43.209,0,0,0,21.256-2.965c17.531-7.171,73.508-46.018,108.119-89.924C324.339,215.651,324.287,215.816,324.235,215.98ZM285.22,33.137c7.263-1.424,8.929,10.291,8.264,20.941-2.214,1.106-6.63,3.209-12.935,5.753A129.266,129.266,0,0,0,278.993,34.5C281.071,34.064,283.147,33.613,285.22,33.137ZM96.078,68.306a273.41,273.41,0,0,1-.064-31.737c9.2,1.361,19.24,2.647,29.934,3.734-.2,6.87-.42,22.838,1.26,35.261A284.305,284.305,0,0,1,96.078,68.306Zm118.275,8.875a284.441,284.441,0,0,1-79.9-.458c-1.885-11.68-1.712-28.4-1.519-35.748,12.454,1.129,25.7,1.963,39.476,2.315V61.256a3.5,3.5,0,0,0,7,0V43.425c11.778.156,23.9-.055,36.209-.744C215.7,49.779,215.683,65.761,214.353,77.181Zm59.019-14.588a283.093,283.093,0,0,1-51.861,13.521c1.212-11.927,1.191-27.185,1.111-33.876q10.182-.72,20.478-1.909a166.987,166.987,0,0,1-.189,20.6,3.5,3.5,0,1,0,6.969.652,174.672,174.672,0,0,0,.191-22.128q11.019-1.47,22.046-3.566A121.061,121.061,0,0,1,273.372,62.593Zm-6.018-32.939c-44.629,8.161-92.631,8.323-136.9,4.069-21.776-2.095-42.628-5.185-62.188-8.992C108.08,21.609,189.867,17.728,267.354,29.654Zm-227.449.781a5.007,5.007,0,0,1,5.9-3.365h0c3.156.748,7.141,1.653,11.839,2.646.023,3.107.043,8.418-.028,14.038a3.5,3.5,0,0,0,7,.089c.062-4.854.056-9.483.038-12.69,7.03,1.4,15.233,2.9,24.408,4.351a281.334,281.334,0,0,0-.129,30.6A297.725,297.725,0,0,1,38.59,44.58,35.524,35.524,0,0,1,39.905,30.435Z" style="fill:#3f3f70"/><path d="M48.011,95.047a3.5,3.5,0,0,0-4.321,2.414c-.9,2.634-1.809,5.985,1.673,7.073,3.5.85,4.468-2.451,5.063-5.166A3.5,3.5,0,0,0,48.011,95.047Z" style="fill:#3f3f70"/></svg>