<svg id="icons" xmlns="http://www.w3.org/2000/svg" viewBox="0 0 340 340"><path d="M123.411,112.679c-13.122,11.462-34.236,34.855-40.637,58.182a435.067,435.067,0,0,0-15.658,64.475s-21.34,5.472-40.764-16.141C41.543,170.12,63.705,41.664,183.591,8.1l52.524,11.533c23.57,14.074,54.5,49.487,72.213,114.265a143.557,143.557,0,0,1,4.026,57.831c-3.118,23.268-7.72,59.236-9.952,84.645,0,0-22.982,4.651-42.954-3.283,0,0,8.308-41.721,13.094-83.31a62.007,62.007,0,0,0-16.973-50.2l-5.7,29.547a14.511,14.511,0,0,1-10.67,7.113c-1.307,5.452-1.435,11.816-1.368,18.331,0,0,5.2,7.387,1.915,21.066,0,0-10.794,55.486-11.737,96.558a13.983,13.983,0,0,1-9.673,13c-16.931,5.467-52.672,14.082-78.723.148,0,0-7.113-5.472-10.944-12.859,0,0-9.028,10.4-21.066,4.1a173.316,173.316,0,0,1-15.755-10.17,13.914,13.914,0,0,1-5.529-12.4c2.181-24.7,10.352-104.916,25.647-120.608,2.014-6.534,3.9-12.9,4.325-17.3-2.277-2.633-3.036-6.465-.444-13.637Z" style="fill:#bac9e8"/><path d="M198.793,7.2s11.781-.638,25.279,6.441l10.439,11.308-34.444,77.37h-27.5l-5.141-59.891S172.328,10.27,198.793,7.2Z" style="fill:#7b8bba"/><path d="M198.793,7.2s-26.748,6.221-22.705,48.83c0,0,6.221,30.48,5.288,51.007l-9.331,14S161.885,92.418,146.9,76.245l12.7-12.13A82.687,82.687,0,0,0,143.12,43.277S153.7,5.021,198.793,7.2Z" style="fill:#fff"/><path d="M172.045,121.031l9.331-14a144.125,144.125,0,0,0-.588-18.486c-4.241,4.944-9.26,11.084-14.685,18.292C169.888,114.963,172.045,121.031,172.045,121.031Z" style="fill:#cbcde5"/><path d="M224.072,13.639c7.331,10.088,2.193,35.788-16.09,55.012-13.81,15.14-52.407,55.8-63.3,96.912,0,0,31.874-44.7,93.2-65.821,0,0-1.624-13.809-7.31-23.963l24.369-.812S262.656,26.229,224.072,13.639Z" style="fill:#fff"/><path d="M116.3,156.118l-4.325,17.3c44.594,27.293,125.865,21.156,125.865,21.156l1.368-18.331C171.6,179.949,116.3,156.118,116.3,156.118Z" style="fill:#7b8bba"/><path d="M23.749,221.534c20.4,22.771,47.168,19.553,46.825,14.344a432.8,432.8,0,0,1,15.531-63.944c5.531-18.321,17.576-35.089,30.875-48.139l-4.522,17.826c-2.109,5.771-2.522,11.306.048,15.223l-3.716,14.862c-15.229,17.5-23.207,90.916-25.953,122.01a17.527,17.527,0,0,0,6.926,15.514,174.821,174.821,0,0,0,16.125,10.41,20.248,20.248,0,0,0,9.54,2.475c2.477.279,5.3-1.059,4.992-3.915a3.506,3.506,0,0,0-3.824-3.142,13.013,13.013,0,0,1-7.318-1.543,170.224,170.224,0,0,1-15.336-9.9,10.482,10.482,0,0,1-4.133-9.282c4.157-47.07,12.291-101,22.974-116.382a123.193,123.193,0,0,0,22.706,9.788c-2.063,13.706-11.713,74.531-10.1,125.906,4.611,9.4,13.361,16.181,23.82,19.4,21.143,7.164,53.954,1.211,70.217-4.521a17.49,17.49,0,0,0,12.089-16.243c.91-39.636,11.22-93.62,11.661-95.907,2.849-11.962-.264-19.772-1.767-22.622l1.091-14.613c7.746-2.592,10.349-7.884,10.813-9.351l5.683-29.474c.447-1.864,10.076-41.675,23-63.9,43.139,86.279,25.115,105.99,17.163,196.938-5.963.835-21.395,2.266-35.707-2.527,1.966-10.261,8.544-45.693,12.566-80.647a65.546,65.546,0,0,0-5.843-35.562,3.5,3.5,0,0,0-6.328,2.994,58.548,58.548,0,0,1,5.217,31.767c-4.714,40.961-12.966,82.611-13.049,83.027a3.5,3.5,0,0,0,2.141,3.936c9.714,3.859,19.987,4.9,28.262,4.9a91.439,91.439,0,0,0,16.678-1.44,3.5,3.5,0,0,0,2.792-3.125c2.181-24.828,6.607-59.648,9.935-84.486,9.058-44.514-21.913-110.8-32.342-127.79a173.278,173.278,0,0,0-13.848-19.141,3.5,3.5,0,1,0-5.375,4.483,152.916,152.916,0,0,1,13.932,19.51c-14.867,22.71-25.566,67.571-26.026,69.521-.035.12-5.58,28.949-5.612,29.087a10.991,10.991,0,0,1-7.672,4.889c-34.48,1.868-65.908-3.59-88.119-9.252,9.445-11.377,39.468-43.647,88.26-60.45a3.5,3.5,0,0,0,2.336-3.718,84.443,84.443,0,0,0-5.3-20.235l19-.633a3.5,3.5,0,0,0,3.341-2.951c3.494-22.078-3.992-56.541-32.917-65.086A57.292,57.292,0,0,0,198.78,3.7C135.474.874,72.83,77.776,53.249,125.3c-14.734,31.945-29.661,90.554-30.29,93.034A3.5,3.5,0,0,0,23.749,221.534Zm212.6-6.713c-.136.82-10.886,56.19-11.833,97.3a10.485,10.485,0,0,1-7.242,9.742c-18.41,6.128-69.121,17.509-85.11-10.309-.727-50.093,7.676-106.654,10.091-121.781,34.241,9.113,66.093,9.626,93.532,8.436C236.864,200.8,238.373,206.377,236.346,214.821Zm-11.383-34.693c3.444,0,6.937-.066,10.455-.2-.2,2.695-.642,8.595-.846,11.332-14.7.733-79.9,2.572-118.573-19.523.324-1.294,2.456-9.825,2.722-10.889,4.566,1.734,13.06,4.745,24.454,7.878A312.228,312.228,0,0,0,224.963,180.128ZM230.18,20.04c17.948,8.75,23.527,34.071,21.615,51.53l-21.34.711a3.5,3.5,0,0,0-2.938,5.208c3.807,6.8,5.7,15.543,6.465,19.916a211.877,211.877,0,0,0-79.7,51.614c14.186-32.077,41.414-61.782,54.152-75.68C222.815,59.11,233.909,35.393,230.18,20.04Zm-30.874-9.355A50.835,50.835,0,0,1,221.6,16.306c6.24,10.638-1.183,34.419-16.2,49.987-6.283,6.886-12.411,13.44-20.969,23.73a323.916,323.916,0,0,0-4.87-34.507C176.131,18.68,196.585,11.475,199.306,10.685ZM59.624,128.189c9.148-23.735,48.866-84.234,90.062-104.033a55.352,55.352,0,0,0-9.939,18.188,3.5,3.5,0,0,0,1.063,3.562A78.689,78.689,0,0,1,155.2,63.483l-10.712,10.23a3.5,3.5,0,0,0-.15,4.91c5.553,5.995,11.089,14.493,16.455,25.255a3.5,3.5,0,1,0,6.264-3.123c-4.944-9.918-10.082-18.074-15.3-24.3l10.27-9.809a3.5,3.5,0,0,0,.679-4.161A86.61,86.61,0,0,0,147.16,42.224c1.808-7.111,15.326-28.24,38.021-30.85-8.218,8.4-14.669,20.316-12.522,45.354.046.227,4.558,22.545,5.226,41.406-14.007,17.88-28.735,40.258-35.607,63.08a243.6,243.6,0,0,1-23.76-7.964c-1.8-2.447-.276-6.532.725-9.908,4.323-17.663,14.942-57.651,19.782-75.544,1.113-4.437-5.494-6.252-6.763-1.806L120.3,110.777c-14.674,13.009-34.5,36.078-40.853,59.009A443.012,443.012,0,0,0,64.058,232.3c-5.418.609-19.859.54-33.84-14.086C32.909,207.875,46.588,156.433,59.624,128.189Z" style="fill:#3f3f70"/><path d="M59.153,205.179a3.523,3.523,0,0,0,2.48-5.97,3.569,3.569,0,0,0-5.71,1.14A3.517,3.517,0,0,0,59.153,205.179Z" style="fill:#3f3f70"/><path d="M52.233,219.539c3.859,2.5,7.666-3.2,3.88-5.821C52.245,211.227,48.441,216.95,52.233,219.539Z" style="fill:#3f3f70"/><path d="M157.813,209.559c-1.842-4.208-8.146-1.591-6.47,2.68C153.173,216.455,159.5,213.843,157.813,209.559Z" style="fill:#3f3f70"/><path d="M183.183,213.719c-3.875-2.48-7.673,3.208-3.89,5.82C183.161,222.03,186.951,216.353,183.183,213.719Z" style="fill:#3f3f70"/><path d="M279.382,243.239c2.928,4.124,8.849-.743,5.381-4.42C281.79,235.9,277.075,239.762,279.382,243.239Z" style="fill:#3f3f70"/><path d="M275.4,258.239c.072,4.606,6.926,4.592,7,0C282.4,253.713,275.4,253.7,275.4,258.239Z" style="fill:#3f3f70"/><path d="M195.113,150.409c-2.636-3.691-8.323.008-5.82,3.89C191.9,158.066,197.6,154.283,195.113,150.409Z" style="fill:#3f3f70"/></svg>