<svg id="icons" xmlns="http://www.w3.org/2000/svg" viewBox="0 0 340 340"><path d="M109.172,42.571c-6.549-3-22.328-1.583-23.654,18.584-.538,9.05-1.081,35.647,6.913,75.352l-15.74,60.96S58.807,135.354,57.808,77.13c0,0-.01-45.246,15.475-57.724C73.283,19.406,89.27,18.587,109.172,42.571Z" style="fill:#7b8bba"/><path d="M73.283,19.406s34.279,16.381,39.436,52.177l32.342-14.258s-7.578-17.154-25.454-33.415A27.4,27.4,0,0,0,102.445,16.9,108.275,108.275,0,0,0,73.283,19.406Z" style="fill:#bac9e8"/><path d="M230.828,42.571c6.549-3,22.328-1.583,23.654,18.584.538,9.05,1.082,35.647-6.913,75.352l15.741,60.96s17.883-62.113,18.882-120.337c0,0,.01-45.246-15.475-57.724C266.717,19.406,250.73,18.587,230.828,42.571Z" style="fill:#7b8bba"/><path d="M266.717,19.406s-34.278,16.381-39.435,52.177L194.939,57.325s7.578-17.154,25.454-33.415A27.4,27.4,0,0,1,237.555,16.9,108.275,108.275,0,0,1,266.717,19.406Z" style="fill:#bac9e8"/><path d="M219.879,67.964C207.933,61.086,202.5,34.716,202.5,34.716,196.349,6.9,170,10.157,170,10.157S143.651,6.9,137.5,34.716c0,0-5.43,26.37-17.376,33.248l31.132-8.688V42.443A17.345,17.345,0,0,1,170,25.248a17.345,17.345,0,0,1,18.747,17.195V59.276Z" style="fill:#bac9e8"/><path d="M78.48,223.714a229.047,229.047,0,0,1-15.9,17.812,16.971,16.971,0,0,0-4.777,11.8v38.708c.618,20.961,13.469,37.535,41.651,37.9Z" style="fill:#7b8bba"/><path d="M261.52,223.714a228.964,228.964,0,0,0,15.9,17.812,16.974,16.974,0,0,1,4.776,11.8v38.708c-.618,20.961-13.468,37.535-41.651,37.9Z" style="fill:#7b8bba"/><path d="M170,51.639S73.283,49.787,76.691,153.814L170,73.147l93.31,80.667C266.717,47.935,170,51.639,170,51.639Z" style="fill:#7b8bba"/><path d="M170,73.147c-99.223,0-93.309,80.667-93.309,80.667V307.165a22.768,22.768,0,0,0,22.768,22.769H240.541a22.769,22.769,0,0,0,22.769-22.769V153.814S269.223,73.147,170,73.147Z" style="fill:#bac9e8"/><path d="M214.111,201.54c-21.989.024-66.238-.017-88.222,0a22.626,22.626,0,0,0-22.625,22.625v69.792a14.5,14.5,0,0,0,14.5,14.5c26.04-.024,78.441.016,104.475,0a14.5,14.5,0,0,0,14.5-14.5V224.165A22.625,22.625,0,0,0,214.111,201.54Z" style="fill:#fff"/><path d="M165.7,74.945A23.485,23.485,0,0,1,170,88.484v23.385c-.238,9.557-14.267,9.578-14.511,0V87.182a23.49,23.49,0,0,1,1.875-9.2l.961-2.256A4.277,4.277,0,0,1,165.7,74.945Z" style="fill:#fff"/><path d="M180.215,74.945a23.485,23.485,0,0,1,4.3,13.539v23.385c-.238,9.557-14.267,9.578-14.511,0V87.182a23.49,23.49,0,0,1,1.875-9.2l.96-2.256A4.278,4.278,0,0,1,180.215,74.945Z" style="fill:#fff"/><rect x="103.264" y="233.459" width="133.472" height="19.139" style="fill:#cbcde5"/><path d="M214.111,201.54c-22,0-66.228,0-88.222,0a22.626,22.626,0,0,0-22.625,22.625v14.524H236.736V224.165A22.625,22.625,0,0,0,214.111,201.54Z" style="fill:#fff"/><path d="M114.435,246.36v27.122c-.253,10.109-15.085,10.122-15.342,0V246.36C99.347,236.251,114.179,236.238,114.435,246.36Z" style="fill:#fff"/><path d="M285.692,77.131c-.128-1.6.075-49.893-18.184-61.135a112.354,112.354,0,0,0-30.119-2.6c-13.831.267-23.222,10.861-31.448,20.658C199.754,5.533,173.659,6.317,170,6.644c-3.66-.306-29.683-1.161-35.941,27.415-8.223-9.795-17.617-20.393-31.448-20.658-7.117-.144-20.049-.545-31.441,3.224-38.3,42.539.071,169.536,2.02,181.326V224.67c-2.38,2.832-6.741,7.833-13.12,14.422a20.36,20.36,0,0,0-5.762,14.233v38.708a41.711,41.711,0,0,0,6,21.911c5.471,8.891,16.705,19.49,39.154,19.49H240.542c22.448,0,33.682-10.6,39.153-19.49a41.711,41.711,0,0,0,6-21.911V253.325a20.36,20.36,0,0,0-5.762-14.233c-6.387-6.6-10.744-11.594-13.12-14.423V197.951C268.478,191.99,284.742,132.5,285.692,77.131Zm-7-.061c-.57,33.218-6.768,68.015-11.883,91.424.5-25.416.3-49.685-10.124-70.523a210.759,210.759,0,0,0,1.29-37.024c-.061-8.169-5.455-18.421-11.753-21.031a82.4,82.4,0,0,1,19.929-16.23C276.377,34.731,278.691,65.6,278.693,77.07ZM99.459,326.434A19.291,19.291,0,0,1,80.19,307.165V153.814c-1.351-38.054,24.779-72.665,73.777-76.372-3.382,6.571-1.543,27.505-1.978,34.807-.13,9.242,11.386,14.236,18.011,7.917,6.629,6.315,18.138,1.329,18.011-7.917V88.864a26.829,26.829,0,0,0-2.574-11.476c47.977,3.457,74.148,36.167,74.421,73.044-.012,1.123-.014,2.241-.048,3.382V307.165a19.291,19.291,0,0,1-19.268,19.269Zm4.429-245.025c36.657-33.646,85.475-32.941,121.309-9.95a3.447,3.447,0,0,0,.964.692,74.325,74.325,0,0,1,25.063,30.716c-29.683-44.211-130.9-44.432-161.492-1.266A75.613,75.613,0,0,1,103.888,81.409Zm81.359-32.241a95.379,95.379,0,0,0-15.28-1.03,97.171,97.171,0,0,0-15.214,1.285v-6.98a13.711,13.711,0,0,1,13.7-13.7c8.945-.861,16.554,4.313,16.8,13.7Zm56.43-3.588c12.633,5,9.432,24.822,9.031,41.892a81.039,81.039,0,0,0-19.086-20.024A60.283,60.283,0,0,1,241.677,45.58ZM158.989,87.563a19.881,19.881,0,0,1,1.595-7.824l.961-2.257a.753.753,0,0,1,1.3-.138,19.877,19.877,0,0,1,3.655,11.52v23.385a3.756,3.756,0,0,1-7.511,0Zm14.511,1.3a21,21,0,0,1,1.6-9.126l.96-2.255a.752.752,0,0,1,1.3-.14,19.877,19.877,0,0,1,3.656,11.521v23.385c-.085,4.926-7.423,4.941-7.511,0ZM222.749,26.5c9.585-8.38,20.691-6.442,34.155-5.313-9.832,6.7-25.562,20.382-31.456,42.066A92.814,92.814,0,0,0,214.832,57.6a69.982,69.982,0,0,1-6.6-15.126A115.5,115.5,0,0,1,222.749,26.5ZM169.57,13.63c1.672.12,23.777-3.045,29.5,21.792a101.989,101.989,0,0,0,5.9,18.34,110.859,110.859,0,0,0-12.73-3.388V42.443c.085-12.767-11.383-21.995-23.8-20.695a20.717,20.717,0,0,0-20.7,20.695v8.291a113.979,113.979,0,0,0-13.011,3.657,101.458,101.458,0,0,0,6.173-18.919C146.286,11.193,168.633,13.522,169.57,13.63Zm-67.291,6.763A23.937,23.937,0,0,1,117.251,26.5a115.472,115.472,0,0,1,14.522,15.974,67.259,67.259,0,0,1-7.193,16.044,95.171,95.171,0,0,0-9.857,5.369c-5.754-22.05-21.7-35.931-31.626-42.7A108.249,108.249,0,0,1,102.279,20.393ZM61.308,77.129c0-11.529,2.3-42.4,12.543-53.447,6.912,3.935,29.046,18.382,34.676,44.444A82.478,82.478,0,0,0,89.34,88.2a218.629,218.629,0,0,1-.329-26.837,22.4,22.4,0,0,1,3.328-10.886c2.434-3.9-3.312-7.627-5.877-3.8a26.718,26.718,0,0,0-2.256,4.358,30.874,30.874,0,0,0-2.182,9.916,247.4,247.4,0,0,0,1.181,37.986C72.834,119.694,72.717,143.418,73.19,168.5,68.075,145.1,61.877,110.313,61.308,77.129Zm4.959,233.147a34.72,34.72,0,0,1-4.959-18.243V253.325c-.412-7.6,8.17-13.227,11.882-18.013v71.853A26.1,26.1,0,0,0,77.209,321.1,31.617,31.617,0,0,1,66.267,310.276ZM274.9,243.961a13.4,13.4,0,0,1,3.791,9.364v38.708c.086,11.945-5.824,23.164-15.9,29.07a26.1,26.1,0,0,0,4.019-13.938V235.313C269.022,237.767,271.717,240.673,274.9,243.961Z" style="fill:#3f3f70"/><path d="M214.111,198.04H125.889a26.155,26.155,0,0,0-26.125,26.125v13.819a11.137,11.137,0,0,0-3.8,8.377v27.121c.522,14.778,21.817,14.787,22.342,0-.283-2.929.777-29.224-.816-31.291H233.236v51.767a11.01,11.01,0,0,1-11,11H117.763a11.01,11.01,0,0,1-11-11,3.5,3.5,0,0,0-7,0,18.019,18.019,0,0,0,18,18H222.237a18.019,18.019,0,0,0,18-18V224.165A26.154,26.154,0,0,0,214.111,198.04ZM111.3,246.361v27.121c-.1,5.473-8.244,5.487-8.342,0v-27.12C103.055,240.887,111.2,240.873,111.3,246.361ZM233.236,235.19H106.764V224.165a19.147,19.147,0,0,1,19.125-19.125h88.222a19.146,19.146,0,0,1,19.125,19.125Z" style="fill:#3f3f70"/></svg>