<svg id="icons" xmlns="http://www.w3.org/2000/svg" viewBox="0 0 340 340"><path d="M16.839,126.159c2.166,18.026,12.064,82.175,33.894,109a56.614,56.614,0,0,1,12.855,24.884l5.88,31.853a23.877,23.877,0,0,0,23.48,19.543H180.6c15.688-5.868,14.284-41.828,13.649-62.465-.481-19.206,11.637-17.819,10.953-45.078,0,0,1.837-32.191,1.478-59.109-.125-9.364.092-18.722.571-28.074.847-16.5,1.752-43.058.287-63.832-.864-12.928-15.22-20.891-26.4-14.328a47.416,47.416,0,0,0-2.095-7.022c-5.941-15.7-28.137-17.26-35.447-2.142A30.61,30.61,0,0,0,135.2,17.43C124.45,8.607,105.87,11.5,103.462,28.066c-6.366-9.839-24.219-8.295-29.507,3.777-2.219,4.711-3.7,11.533-3.157,21.4,0,0-.3,47.726,2.586,74.2,0,0,.762,20.241.01,35.269a3.692,3.692,0,0,1-7.067,1.3A323.91,323.91,0,0,1,50.462,119.9C44.635,99.741,14.867,105.167,16.839,126.159Z" style="fill:#7b8bba"/><path d="M106.489,108.816c-1.457,19.316-4.166,89.574,13.307,122.144a60.956,60.956,0,0,1,8.445,28.949l1.783,52.55A18.161,18.161,0,0,0,148.175,330H241.73a18.144,18.144,0,0,0,17.207-12.35,233.955,233.955,0,0,0,9.663-42.493,32.908,32.908,0,0,1,9.1-18.359c4.2-4.337,9.093-12.339,11.776-26.975,0,0,8.586-33.627,13.767-62.143,1.8-9.928,3.966-19.78,6.407-29.572,4.3-17.254,10.737-45.118,13.481-67.364C324.89,56.9,311.375,45.513,298.2,50.141a51.147,51.147,0,0,0-.762-7.851c-3.035-17.82-26.168-24.051-37.015-9.585a33.14,33.14,0,0,0-5.911-13.748c-9.408-12.049-30.08-13.351-36.226,4.061-4.695-11.712-23.878-13.767-31.959-2.1-3.318,4.519-6.3,11.422-7.756,21.961,0,0-10.171,50.37-12.593,78.945,0,0-3.372,21.532-7.269,37.256a3.979,3.979,0,0,1-7.743-.086,348.484,348.484,0,0,1-7.658-50C141.268,86.556,108.68,86.255,106.489,108.816Z" style="fill:#bac9e8"/><path d="M69.881,162.662a.352.352,0,0,1-.286.055A315.517,315.517,0,0,1,53.84,118.981a20.634,20.634,0,0,0-20.887-15.237c-11.622.142-21.2,11.3-19.591,22.819,2.082,17.277,12.122,83.48,34.754,110.922A53.258,53.258,0,0,1,60.16,260.756l5.866,31.775a27.378,27.378,0,0,0,26.922,22.408h22.887a3.5,3.5,0,0,0,0-7h-7.713a347.669,347.669,0,0,1-4.356-49.653c-.094-4.6-6.939-4.579-7,.024a356.95,356.95,0,0,0,4.258,49.629H92.948a20.38,20.38,0,0,1-20.039-16.678c-.031-.153-5.876-31.867-5.911-32.006A60.308,60.308,0,0,0,53.35,232.834a53.139,53.139,0,0,1-9.08-14.242C28.6,182.315,22.534,144.856,20.315,125.755a13.378,13.378,0,0,1,3.054-10.22c6.762-8.356,21.1-5.274,23.715,5.279a327.2,327.2,0,0,0,16.04,44.615,7.192,7.192,0,0,0,13.766-2.537c.75-15.008,0-35.371-.009-35.576C74.031,101.1,74.3,53.928,74.292,53.049c-.451-8.137.5-14.77,2.829-19.714,3.723-8.748,17.05-11.185,22.91-4.077l2.95,46.184A3.5,3.5,0,0,0,109.968,75l-2.985-46.722c1.418-12.683,17.49-15.581,25.969-8.163a27.278,27.278,0,0,1,7.172,10L142.38,84.1a3.5,3.5,0,0,0,6.994-.292l-2.241-53.624a14.8,14.8,0,0,1,9.134-7.273,16.484,16.484,0,0,1,12.465,1.6,3.5,3.5,0,1,0,3.467-6.081,23.523,23.523,0,0,0-17.8-2.264,21.758,21.758,0,0,0-10.338,6.357,32.281,32.281,0,0,0-6.609-7.771c-10.93-9.018-29.137-7.763-35.777,6.7-10.556-7.064-25.568-2.757-30.887,8.907C67.97,36.336,66.8,44.067,67.3,53.329c-.013,2.565-.2,48.585,2.594,74.372C69.94,129.386,70.627,148.618,69.881,162.662Z" style="fill:#3f3f70"/><path d="M186.134,266.314c-1.451-.092-3.192.457-3.672,3.366l-.038,0c-1.081,5.107,6.23,6.566,6.92,1.371C189.87,268.56,188.21,266.341,186.134,266.314Z" style="fill:#3f3f70"/><path d="M240.705,266.481a3.5,3.5,0,0,0-3.811,3.16c-.029.324-2.893,31.3-3.54,56.863h-7.289c-4.56.059-4.649,6.9,0,7h15.663a21.625,21.625,0,0,0,20.525-14.735,238.181,238.181,0,0,0,9.813-43.132,29.257,29.257,0,0,1,8.151-16.4c6.062-6.262,10.329-15.9,12.682-28.66.563-2.218,8.8-34.8,13.789-62.266,1.7-9.381,3.844-19.256,6.36-29.351,4.7-18.838,10.859-45.889,13.558-67.783,2.09-14.093-11.03-27.551-25.166-25.375-.472-19.811-23.209-31.958-39.233-19.821a35.091,35.091,0,0,0-4.912-9.139c-9.494-12.37-29.463-15.091-39.49-.766-9.5-9.734-26.313-8.449-34.3,2.769-4.19,5.706-7.011,13.6-8.387,23.446-.526,2.623-10.241,51.274-12.617,79.109-.277,1.751-3.524,22.046-7.19,36.836a.421.421,0,0,1-.467.361c-3.744-11.654-6.306-30.551-8.046-49.858A21.874,21.874,0,0,0,128.11,88.689C115.933,86.417,103.7,96.212,103,108.546c-1.63,21.033-2.979,62.659,6.288,105.123a64.469,64.469,0,0,0,7.5,19.072,57.63,57.63,0,0,1,7.96,27.286l1.783,52.55A21.577,21.577,0,0,0,148.175,333.5c.035,0,35.793,0,35.825,0h26.674a3.515,3.515,0,0,0,3.515-3.533,524.5,524.5,0,0,1,3.382-59.578c.461-4.61-6.3-5.391-6.947-.854a539.294,539.294,0,0,0-3.448,56.965H187.449c-.009-12.177.417-31.925.759-40.882a3.5,3.5,0,1,0-6.994-.267c-.345,9.008-.773,28.87-.765,41.149H159.217c-.214-21.963.036-57.276.039-57.649a3.5,3.5,0,0,0-7-.051c0,.374-.253,35.664-.04,57.7h-4.041a14.6,14.6,0,0,1-14.653-14.164l-1.783-52.55a64.646,64.646,0,0,0-8.929-30.61,57.451,57.451,0,0,1-6.682-17c-9.076-41.589-7.748-82.441-6.15-103.091a14.748,14.748,0,0,1,5.458-10.408c8.972-7.535,23.779-1.236,24.378,10.561a351.744,351.744,0,0,0,7.735,50.521,7.479,7.479,0,0,0,14.554.159c3.889-15.691,7.3-37.339,7.331-37.556,2.4-28.288,12.435-78.1,12.6-79.007,1.21-8.737,3.6-15.59,7.11-20.37,5.858-8.666,20.814-8.413,25.544.529L203.1,112.7l-2.7-.365a3.5,3.5,0,0,0-.935,6.938l3.073.414A6.662,6.662,0,0,0,210,113.972L221.7,23.9c4.291-13.6,22.612-13.092,30.024-2.825a29.949,29.949,0,0,1,5.151,11.675c-.549.488-12.382,87.227-13.733,86.976-2.455-.658-4.939-.174-5.512,2.643-.357,2.847,1.84,4.106,4.377,4.265a7.508,7.508,0,0,0,8.593-6.244l13.14-86.227c9.074-11.4,28.166-5.356,30.248,8.727a49.533,49.533,0,0,1,.706,6.962L280.767,125.8a2.523,2.523,0,0,1-2.81,2.051l-1.666-.214a3.5,3.5,0,1,0-.893,6.942c5.4,1.336,11.258-1.762,12.253-7.517l13.594-74.133c9.976-2.4,19.984,7.323,18.415,17.393-2.656,21.544-8.756,48.3-13.4,66.946-2.551,10.241-4.723,20.264-6.453,29.793-5.1,28.063-13.629,61.567-13.715,61.9-2.532,14.1-7.4,21.868-10.9,25.407a36.2,36.2,0,0,0-10.056,20.318,231.023,231.023,0,0,1-9.513,41.853,14.845,14.845,0,0,1-15.264,9.965c.65-25.282,3.479-55.893,3.51-56.213A3.5,3.5,0,0,0,240.705,266.481Z" style="fill:#3f3f70"/></svg>