<svg id="icons" xmlns="http://www.w3.org/2000/svg" viewBox="0 0 340 340"><path d="M27.718,99.888s45.98,79.1,121.47,137.628h6.919S144.789,117.841,27.718,99.888Z" style="fill:#7b8bba"/><path d="M304.1,99.888s-45.98,79.1-121.47,137.628h-6.919S183.228,121.335,304.1,99.888Z" style="fill:#7b8bba"/><path d="M165.911,106.328c-74.38,0-138.193-6.44-138.193-6.44s101.568,44.593,121.47,137.628c10.712,3.6,21.892,3.337,33.446,0C202.536,144.481,304.1,99.888,304.1,99.888S240.291,106.328,165.911,106.328Z" style="fill:#bac9e8"/><path d="M334.236,126.79c-4.573-23.445-28.175-30.158-30.162-30.389-1.055.034-64.473,6.434-138.163,6.427C92.772,102.823,30.245,96.571,27.754,96.4a3.084,3.084,0,0,0-1.267.222,3.179,3.179,0,0,0-.872.477c-.719.526-14.423,11.647-19.777,35.894-1.89,7.793,5.956,16.335,14.066,14.018a184.188,184.188,0,0,0,.441,32.766c.635,4.568,7.422,3.734,6.95-.834a151.792,151.792,0,0,1-.886-19.725c5.063,3.507,13.005,1.694,15.83-3.784a138.882,138.882,0,0,1,.165,16.092c-.144,4.592,6.689,4.935,6.992.336a140.624,140.624,0,0,0-3.24-38.077C67.026,162.38,102.493,206.5,148.09,240.839c11.549,3.859,23.5,3.5,35.515.039a3.5,3.5,0,0,0,2.451-2.63c15.663-65.7,63.3-103.689,108.416-129.575-13.812,21.219-48.615,70.665-98.126,113.133a3.5,3.5,0,0,0,2.281,6.156c39.026-29.794,69.011-70.317,87.606-94.945a51.364,51.364,0,0,0-.048,9.83c.41,8.014,10.787,12.3,16.744,7.014a216.568,216.568,0,0,1-2.279,23.6,3.5,3.5,0,1,0,6.906,1.142c2.059-12.438,2.668-27.894,2.822-38.5a111.375,111.375,0,0,1,4.993,30.6,3.5,3.5,0,0,0,7-.1,116.49,116.49,0,0,0-4.138-28.6C325.855,142.726,336.064,135.582,334.236,126.79Zm-313.1,11.53c-1.769,2.374-5.387,2.791-7.24.442a5.221,5.221,0,0,1-1.221-4.272c3.307-15.119,10.363-24.633,14.343-29.018.9,1.443,2.048,3.27,3.444,5.434C32,122.748,24.492,133.988,21.137,138.32Zm15.312,13a4,4,0,0,1-3.895,2.708c-5.364.458-5.228-10.24-5.217-12.3a54.659,54.659,0,0,0,9.053-18C39.938,136.069,38.543,145.349,36.449,151.324Zm.905-42.653c42.515,24.169,87.445,59.931,105.9,119.64C89.622,184.464,51.882,130.974,37.354,108.671ZM248.618,131.1c-25.5,20.835-57.975,55.62-68.945,103.593-9.885,2.554-18.922,2.58-27.5.085C135.185,168.757,90.459,132.342,45.027,104.9c46.081,5.926,195.687,5.926,241.768,0A279.74,279.74,0,0,0,248.618,131.1Zm50.6,12.467a3.118,3.118,0,0,1-3.469,1.546,3.2,3.2,0,0,1-2.59-2.922c-.676-7.232.2-18.307,7.861-30.7C304.338,121.69,304.8,133.4,299.213,143.571Zm26.379-11.645a3.7,3.7,0,0,1-4.276-.246c-4.013-3.107-8.857-8.522-12.184-17.693-.826-4.254-1.912-6.593-2.553-9.442,6.062,2.621,18.26,9.536,20.768,23.483A3.692,3.692,0,0,1,325.592,131.926Z" style="fill:#3f3f70"/></svg>